<svg width="88" height="90" viewBox="0 0 88 90" fill="none" xmlns="http://www.w3.org/2000/svg">
<path d="M85.7617 9C86.1595 9 86.5411 8.84196 86.8224 8.56066C87.1037 8.27936 87.2617 7.89782 87.2617 7.5V1.5C87.2617 1.10218 87.1037 0.720644 86.8224 0.43934C86.5411 0.158035 86.1595 0 85.7617 0H79.7617C79.3639 0 78.9824 0.158035 78.7011 0.43934C78.4198 0.720644 78.2617 1.10218 78.2617 1.5V3H60.2617V1.5C60.2617 1.10218 60.1037 0.720644 59.8224 0.43934C59.5411 0.158035 59.1595 0 58.7617 0H52.7617C52.3639 0 51.9824 0.158035 51.7011 0.43934C51.4198 0.720644 51.2617 1.10218 51.2617 1.5V3H33.2617V1.5C33.2617 1.10218 33.1037 0.720644 32.8224 0.43934C32.5411 0.158035 32.1595 0 31.7617 0H25.7617C25.3639 0 24.9824 0.158035 24.7011 0.43934C24.4198 0.720644 24.2617 1.10218 24.2617 1.5V7.5C24.2617 7.89782 24.4198 8.27936 24.7011 8.56066C24.9824 8.84196 25.3639 9 25.7617 9H27.2617V33H25.7617C25.3639 33 24.9824 33.158 24.7011 33.4393C24.4198 33.7206 24.2617 34.1022 24.2617 34.5V40.5C24.2617 40.8978 24.4198 41.2794 24.7011 41.5607C24.9824 41.842 25.3639 42 25.7617 42H27.2617V45H1.76172C1.36389 45 0.982363 45.158 0.701059 45.4393C0.419754 45.7206 0.261719 46.1022 0.261719 46.5V88.5C0.261719 88.8978 0.419754 89.2794 0.701059 89.5607C0.982363 89.842 1.36389 90 1.76172 90H40.7617C41.1595 90 41.5411 89.842 41.8224 89.5607C42.1037 89.2794 42.2617 88.8978 42.2617 88.5V72H51.2617V73.5C51.2617 73.8978 51.4198 74.2794 51.7011 74.5607C51.9824 74.842 52.3639 75 52.7617 75H58.7617C59.1595 75 59.5411 74.842 59.8224 74.5607C60.1037 74.2794 60.2617 73.8978 60.2617 73.5V72H78.2617V73.5C78.2617 73.8978 78.4198 74.2794 78.7011 74.5607C78.9824 74.842 79.3639 75 79.7617 75H85.7617C86.1595 75 86.5411 74.842 86.8224 74.5607C87.1037 74.2794 87.2617 73.8978 87.2617 73.5V67.5C87.2617 67.1022 87.1037 66.7206 86.8224 66.4393C86.5411 66.158 86.1595 66 85.7617 66H84.2617V42H85.7617C86.1595 42 86.5411 41.842 86.8224 41.5607C87.1037 41.2794 87.2617 40.8978 87.2617 40.5V34.5C87.2617 34.1022 87.1037 33.7206 86.8224 33.4393C86.5411 33.158 86.1595 33 85.7617 33H84.2617V9H85.7617ZM81.2617 3H84.2617V6H81.2617V3ZM54.2617 3H57.2617V6H54.2617V3ZM27.2617 3H30.2617V6H27.2617V3ZM27.2617 36H30.2617V39H27.2617V36ZM39.2617 87H3.26172V48H39.2617V87ZM64.3224 18.4393L60.8829 15H72.2617V26.3786L68.8224 22.9393C68.6831 22.8 68.5178 22.6895 68.3358 22.6141C68.1538 22.5387 67.9587 22.4999 67.7617 22.4999C67.5647 22.4999 67.3697 22.5387 67.1877 22.6141C67.0057 22.6895 66.8403 22.8 66.701 22.9393L42.2617 47.3786V46.5C42.2617 46.1022 42.1037 45.7206 41.8224 45.4393C41.5411 45.158 41.1595 45 40.7617 45H39.8831L64.3224 20.5607C64.4617 20.4214 64.5722 20.256 64.6476 20.074C64.723 19.892 64.7618 19.697 64.7618 19.5C64.7618 19.303 64.723 19.108 64.6476 18.926C64.5722 18.744 64.4617 18.5786 64.3224 18.4393ZM57.2617 72H54.2617V69H57.2617V72ZM84.2617 72H81.2617V69H84.2617V72ZM84.2617 39H81.2617V36H84.2617V39ZM81.2617 33H79.7617C79.3639 33 78.9824 33.158 78.7011 33.4393C78.4198 33.7206 78.2617 34.1022 78.2617 34.5V40.5C78.2617 40.8978 78.4198 41.2794 78.7011 41.5607C78.9824 41.842 79.3639 42 79.7617 42H81.2617V66H79.7617C79.3639 66 78.9824 66.158 78.7011 66.4393C78.4198 66.7206 78.2617 67.1022 78.2617 67.5V69H60.2617V67.5C60.2617 67.1022 60.1037 66.7206 59.8224 66.4393C59.5411 66.158 59.1595 66 58.7617 66H52.7617C52.3639 66 51.9824 66.158 51.7011 66.4393C51.4198 66.7206 51.2617 67.1022 51.2617 67.5V69H42.2617V51.6214L67.7617 26.1214L72.701 31.0607C72.9108 31.2705 73.1781 31.4133 73.4691 31.4712C73.76 31.5291 74.0617 31.4994 74.3357 31.3859C74.6098 31.2723 74.8441 31.0801 75.0089 30.8334C75.1738 30.5867 75.2617 30.2967 75.2617 30V13.5C75.2617 13.1022 75.1037 12.7206 74.8224 12.4393C74.5411 12.158 74.1595 12 73.7617 12H57.2617C56.965 12 56.675 12.088 56.4283 12.2528C56.1817 12.4176 55.9894 12.6519 55.8759 12.926C55.7623 13.2001 55.7326 13.5017 55.7905 13.7927C55.8484 14.0836 55.9912 14.3509 56.201 14.5607L61.1403 19.5L35.6403 45H30.2617V42H31.7617C32.1595 42 32.5411 41.842 32.8224 41.5607C33.1037 41.2794 33.2617 40.8978 33.2617 40.5V34.5C33.2617 34.1022 33.1037 33.7206 32.8224 33.4393C32.5411 33.158 32.1595 33 31.7617 33H30.2617V9H31.7617C32.1595 9 32.5411 8.84196 32.8224 8.56066C33.1037 8.27936 33.2617 7.89782 33.2617 7.5V6H51.2617V7.5C51.2617 7.89782 51.4198 8.27936 51.7011 8.56066C51.9824 8.84196 52.3639 9 52.7617 9H58.7617C59.1595 9 59.5411 8.84196 59.8224 8.56066C60.1037 8.27936 60.2617 7.89782 60.2617 7.5V6H78.2617V7.5C78.2617 7.89782 78.4198 8.27936 78.7011 8.56066C78.9824 8.84196 79.3639 9 79.7617 9H81.2617V33Z" fill="url(#paint0_linear_2713_27506)"/>
<path d="M29.7158 54.5405C28.6109 53.4221 27.2953 52.5338 25.845 51.9267C24.3948 51.3197 22.8387 51.0061 21.2665 51.0039C21.2641 51.0039 21.2614 51.0039 21.2588 51.0039C18.8301 51.0038 16.4585 51.7409 14.4577 53.1177C12.4569 54.4945 10.9211 56.4462 10.0534 58.7146C9.18575 60.9831 9.02702 63.4615 9.59825 65.8221C10.1695 68.1827 11.4437 70.3143 13.2526 71.9351C13.4117 72.0763 13.5392 72.2495 13.6269 72.4434C13.7146 72.6372 13.7605 72.8473 13.7616 73.0601V73.502C13.7609 74.1732 13.9112 74.8359 14.2015 75.441C14.0619 75.5801 13.9513 75.7455 13.8759 75.9276C13.8005 76.1097 13.7618 76.3049 13.7622 76.502V79.502C13.7636 80.6951 14.2381 81.8389 15.0817 82.6825C15.9254 83.5261 17.0691 84.0006 18.2622 84.002H24.2622C25.4552 84.0006 26.599 83.5261 27.4426 82.6825C28.2862 81.8389 28.7608 80.6951 28.7622 79.502V76.502C28.7625 76.3049 28.7237 76.1097 28.6482 75.9276C28.5727 75.7455 28.462 75.5801 28.3223 75.441C28.6126 74.8359 28.763 74.1732 28.7622 73.502V73.0593C28.7633 72.8466 28.8092 72.6365 28.8968 72.4427C28.9845 72.2488 29.112 72.0756 29.2711 71.9343C30.4881 70.8492 31.4698 69.5261 32.1556 68.0468C32.8413 66.5675 33.2167 64.9633 33.2583 63.3333C33.3 61.7033 33.0072 60.0821 32.3979 58.5696C31.7886 57.0572 30.8758 55.6857 29.7158 54.5398V54.5405ZM25.7622 79.502C25.7617 79.8997 25.6036 80.281 25.3224 80.5622C25.0411 80.8434 24.6599 81.0016 24.2622 81.002H18.2622C17.8645 81.0016 17.4832 80.8434 17.202 80.5622C16.9208 80.281 16.7626 79.8997 16.7622 79.502V78.002H25.7622V79.502ZM19.7622 63.002H22.7622L21.2622 65.0021L19.7622 63.002ZM27.2682 69.7014C26.7957 70.1242 26.4175 70.6417 26.158 71.2202C25.8986 71.7987 25.7637 72.4253 25.7622 73.0593V73.502C25.7617 73.8997 25.6036 74.281 25.3224 74.5622C25.0411 74.8434 24.6599 75.0016 24.2622 75.002H22.7622V68.0019L26.9622 62.402C27.1293 62.1792 27.2311 61.9142 27.2561 61.6367C27.2811 61.3593 27.2284 61.0804 27.1038 60.8312C26.9792 60.5821 26.7877 60.3725 26.5508 60.2261C26.3138 60.0796 26.0408 60.002 25.7622 60.002H16.7622C16.4836 60.002 16.2106 60.0796 15.9736 60.2261C15.7366 60.3725 15.5451 60.5821 15.4205 60.8312C15.296 61.0804 15.2432 61.3593 15.2682 61.6367C15.2933 61.9142 15.395 62.1792 15.5622 62.402L19.7622 68.0019V75.002H18.2622C17.8645 75.0016 17.4832 74.8434 17.202 74.5622C16.9208 74.281 16.7626 73.8997 16.7622 73.502V73.0593C16.7607 72.4253 16.6258 71.7987 16.3663 71.2201C16.1068 70.6416 15.7285 70.1242 15.256 69.7014C14.315 68.8572 13.5621 67.8244 13.0463 66.6702C12.5305 65.516 12.2634 64.2662 12.2622 63.002C12.2871 60.6234 13.243 58.3492 14.925 56.6671C16.607 54.985 18.8811 54.0289 21.2597 54.0039H21.2656C23.087 54.0038 24.8656 54.5566 26.3661 55.5892C27.8666 56.6219 29.0183 58.0856 29.6689 59.787C30.3195 61.4883 30.4383 63.347 30.0096 65.1173C29.5809 66.8877 28.625 68.4861 27.2682 69.7014Z" fill="url(#paint1_linear_2713_27506)"/>
<defs>
<linearGradient id="paint0_linear_2713_27506" x1="-24.5441" y1="-11.842" x2="168.169" y2="-0.441859" gradientUnits="userSpaceOnUse">
<stop stop-color="#5016CC"/>
<stop offset="0.75691" stop-color="#F7A1D0"/>
</linearGradient>
<linearGradient id="paint1_linear_2713_27506" x1="2.41859" y1="46.6621" x2="55.6626" y2="49.0319" gradientUnits="userSpaceOnUse">
<stop stop-color="#5016CC"/>
<stop offset="0.75691" stop-color="#F7A1D0"/>
</linearGradient>
</defs>
</svg>
