<svg width="85" height="90" viewBox="0 0 85 90" fill="none" xmlns="http://www.w3.org/2000/svg">
<path d="M62.1818 64.8681C59.6241 64.8681 58.3354 67.9216 60.1396 69.7027C61.9439 71.4839 65.0368 70.2116 65.0368 67.6867C65.0368 66.1404 63.7679 64.8681 62.1818 64.8681ZM58.7319 64.3201C61.7853 61.3058 67.0195 63.4589 67.0195 67.7062C67.0195 71.9536 61.7853 74.1066 58.7319 71.0924C56.8484 69.2329 56.8484 66.1795 58.7319 64.3201ZM65.3541 54.4944C66.7816 54.8271 68.1298 55.3752 69.3789 56.1385L70.9254 54.9837C71.3219 54.6901 71.8771 54.7293 72.2141 55.0816L74.9701 57.8023C75.3468 58.1741 75.3666 58.7418 75.0097 59.1332L73.8796 60.6012C74.6528 61.8343 75.208 63.1653 75.545 64.5745L77.4682 64.829C77.9639 64.8877 78.3208 65.3183 78.3208 65.7881V69.6244C78.3208 70.1529 77.9044 70.5639 77.3889 70.6031L75.545 70.8379C75.208 72.2472 74.633 73.5782 73.8796 74.8113L75.0494 76.338C75.3468 76.7294 75.3071 77.2775 74.9701 77.6102L72.2141 80.3309C71.8573 80.6832 71.3021 80.7028 70.9254 80.4288L69.3789 79.2739C68.1298 80.0373 66.7816 80.5853 65.3541 80.9181L65.0963 82.8167C65.0368 83.306 64.6007 83.6583 64.105 83.6583H60.2189C59.6836 83.6583 59.2673 83.2473 59.2276 82.7384L58.9897 80.9181C57.5423 80.5853 56.1941 80.0373 54.945 79.2739L53.4184 80.4288C53.002 80.7419 52.427 80.6832 52.09 80.3113L49.3737 77.6298C49.0168 77.2775 48.9772 76.7294 49.2746 76.3576L50.4444 74.8308C49.6711 73.5977 49.116 72.2668 48.7789 70.8575L46.8557 70.6031C46.36 70.5443 46.0032 70.1137 46.0032 69.644V65.8076C46.0032 65.2792 46.4195 64.8681 46.935 64.829L48.7789 64.5941C49.116 63.1653 49.6711 61.8539 50.4444 60.6208L49.2746 59.0941C48.9772 58.7026 49.0168 58.1546 49.3737 57.8218L52.1296 55.1012C52.5063 54.7293 53.1011 54.7097 53.4778 55.0424L54.9649 56.1581C56.2139 55.3948 57.5622 54.8467 59.0095 54.514L59.2673 52.6154C59.3267 52.1261 59.7629 51.7737 60.2388 51.7737H64.1248C64.6601 51.7737 65.0765 52.1848 65.1162 52.6937L65.3541 54.4944ZM66.6825 56.9606C65.9291 56.6474 65.1558 56.4321 64.3429 56.2756C63.9067 56.2168 63.5498 55.8841 63.4904 55.4339L63.2524 53.7115H61.0913L60.8534 55.4339C60.7939 55.8449 60.4767 56.1973 60.0405 56.256C58.5138 56.53 56.7493 57.2151 55.5002 58.1154C55.1433 58.3699 54.6675 58.3895 54.3106 58.1154L52.9029 57.0585L51.3762 58.5656L52.4469 59.9553C52.7046 60.288 52.7244 60.7382 52.4667 61.1101C51.5943 62.3628 50.8211 64.0852 50.5831 65.5728C50.5237 66.0034 50.1866 66.3557 49.7306 66.4144L47.9858 66.6493V68.7828L49.7306 69.0176C50.147 69.0764 50.484 69.3895 50.5633 69.8201C50.8409 71.3273 51.5348 73.0693 52.4469 74.3024C52.7046 74.6351 52.7244 75.1245 52.4469 75.4768L51.3762 76.8664L52.9029 78.3736L54.3106 77.3166C54.6476 77.0622 55.1036 77.0426 55.4605 77.2971C56.7294 78.1583 58.4742 78.9216 60.0009 79.1565C60.437 79.2152 60.7939 79.548 60.8534 79.9981L61.0913 81.7206H63.2524L63.4904 79.9981C63.5498 79.5871 63.8671 79.2348 64.3033 79.1761C65.8299 78.9021 67.5945 78.217 68.8436 77.3166C69.2005 77.0622 69.6763 77.0426 70.053 77.3166L71.4607 78.3736L72.9874 76.8664L71.9167 75.4768C71.659 75.144 71.6392 74.6938 71.8969 74.3219C72.7693 73.0693 73.5425 71.3468 73.8003 69.8593C73.8598 69.4287 74.1968 69.0764 74.6528 69.0176L76.3976 68.7828V66.6493L74.6528 66.4144C74.2365 66.3557 73.8796 66.0425 73.8003 65.6119C73.5227 64.1048 72.8288 62.3628 71.9366 61.1297C71.6788 60.7969 71.659 60.3076 71.9366 59.9553L73.0072 58.5656L71.4805 57.0585L70.0728 58.1154C69.7358 58.3699 69.2599 58.3895 68.9031 58.135C68.1893 57.6848 67.4557 57.2934 66.6825 56.9606ZM62.1818 47.3502C51.059 47.3502 41.562 56.1973 41.562 67.7062C41.562 78.9412 50.7814 88.0623 62.1818 88.0623C73.5624 88.0623 82.8016 78.9608 82.8016 67.7062C82.8016 62.0888 80.4819 56.9998 76.7545 53.32C72.9279 49.5424 67.7333 47.3502 62.1818 47.3502ZM46.1816 51.9303C46.9747 51.1474 47.8272 50.4232 48.7194 49.7773L36.8829 52.3218C36.863 52.3218 36.8234 52.3414 36.8035 52.3414L23.8963 55.1207C31.4701 57.3129 36.8432 64.2027 36.8432 72.2081C36.8432 79.0195 32.9373 85.0676 27.029 88.0623H52.9029C44.9127 84.5195 39.5595 76.6512 39.5595 67.7062C39.5793 61.5603 42.0973 55.9624 46.1816 51.9303ZM56.7096 46.0584C58.5337 45.6082 60.4569 45.3733 62.4197 45.3929V19.8696C62.4197 19.3411 62.8559 18.8909 63.4111 18.8909H74.0184C74.5537 18.8909 75.0097 19.3215 75.0097 19.8696V49.3271C86.6084 57.2346 88.1549 73.5977 78.1622 83.4626C74.0779 87.4946 68.4272 90 62.1818 90H18.8207C8.84781 90 0.77832 82.0142 0.77832 72.1885C0.77832 67.119 2.89978 62.5585 6.34964 59.3094V44.8057C6.34964 44.2577 6.78583 43.8271 7.34098 43.8271H17.9483C18.4836 43.8271 18.9396 44.2577 18.9396 44.8057V54.1812L25.0463 52.8698V38.8555C25.0463 38.327 25.4825 37.8768 26.0376 37.8768H36.6449C37.1803 37.8768 37.6363 38.3075 37.6363 38.8555V50.1687L43.7429 48.8573V30.0476C43.7429 29.5191 44.1791 29.0689 44.7342 29.0689H55.3416C55.8769 29.0689 56.3329 29.4996 56.3329 30.0476V46.1367L56.7096 46.0584ZM64.4024 45.5103C67.4954 45.8039 70.4297 46.7239 73.027 48.1331V20.8678H64.4024V45.5103ZM19.812 67.1582C23.8765 67.9216 25.4626 72.9323 22.5084 75.8487C19.5344 78.765 14.4786 77.1992 13.7054 73.1867H8.6892C7.38063 73.1867 7.38063 71.2294 8.6892 71.2294H13.7054C14.1019 69.1742 15.7475 67.5497 17.8293 67.1582V60.1706C17.8293 58.8788 19.812 58.8788 19.812 60.1706V67.1582ZM21.1007 69.9572C19.0784 67.9607 15.5889 69.3895 15.5889 72.2081C15.5889 75.0462 19.0586 76.4554 21.1007 74.459C22.3498 73.2063 22.3498 71.1903 21.1007 69.9572ZM8.33232 57.7044C10.8107 55.9624 13.7649 54.8076 16.957 54.4944V45.7844H8.33232V57.7044ZM30.1814 60.9927C27.0488 57.9001 22.7265 56.1385 18.0078 56.3734C14.201 56.5496 10.6719 58.0959 8.03491 60.4642C1.21451 66.6102 0.996415 77.023 7.47977 83.4039C13.745 89.589 23.9162 89.589 30.2012 83.4039C36.4467 77.2188 36.4467 67.1973 30.1814 60.9927ZM27.029 52.4392L35.6536 50.5798V39.8146H27.029V52.4392ZM45.7058 48.4267L54.3304 46.5673V31.0263H45.7058V48.4267ZM8.19353 36.8003C6.90479 36.9373 6.66687 34.9996 7.97543 34.8626C28.1789 32.5725 51.9908 21.8269 66.2264 7.01007L63.4507 4.44599C62.9154 3.93709 63.074 2.99758 63.8869 2.78228L73.0072 0.0420461C73.7408 -0.173258 74.4347 0.472655 74.2563 1.19686L72.0952 10.4158C71.9167 11.14 71.0047 11.4336 70.4496 10.9051L67.6936 8.36061C53.0813 23.5298 28.8927 34.432 8.19353 36.8003ZM71.2228 5.34636L71.9167 2.37124L66.0084 4.1524L70.5289 8.32147L71.2228 5.34636Z" fill="url(#paint0_linear_2713_27492)"/>
<defs>
<linearGradient id="paint0_linear_2713_27492" x1="-23.1721" y1="-11.842" x2="162.94" y2="-1.21201" gradientUnits="userSpaceOnUse">
<stop stop-color="#5016CC"/>
<stop offset="0.75691" stop-color="#F7A1D0"/>
</linearGradient>
</defs>
</svg>
