<svg width="91" height="90" viewBox="0 0 91 90" fill="none" xmlns="http://www.w3.org/2000/svg">
<path d="M32.1361 55.5207C32.5298 55.5347 32.9095 55.5488 33.3032 55.5488C39.181 55.5488 44.8619 53.2146 49.0382 49.0382C57.7143 40.3622 57.7143 26.2583 49.0523 17.5822C40.3762 8.90618 26.2583 8.90618 17.5963 17.5822C8.93431 26.2442 8.93431 40.3622 17.6104 49.0382C18.1728 49.6007 18.7634 50.135 19.3681 50.6272C19.8743 51.035 20.6336 50.9647 21.0555 50.4444C21.4773 49.9241 21.393 49.1788 20.8727 48.757C20.3243 48.3211 19.804 47.843 19.2978 47.3368C11.5498 39.5888 11.5498 27.0036 19.2837 19.2696C23.0382 15.5152 28.016 13.4622 33.3173 13.4622C38.6185 13.4622 43.6104 15.5292 47.3508 19.2696C55.0848 27.0036 55.0848 39.6028 47.3368 47.3368C43.3714 51.3022 37.8733 53.4114 32.2626 53.1161C31.6017 53.088 31.0393 53.5942 31.0112 54.2411C30.969 54.916 31.4752 55.4785 32.1361 55.5207Z" fill="url(#paint0_linear_2713_27493)"/>
<path d="M11.5072 56.3097C11.8166 56.3097 12.1119 56.1972 12.3509 55.9582C12.815 55.4941 12.815 54.7348 12.3509 54.2708C0.792216 42.712 0.792216 23.9116 12.3509 12.3669C23.7128 1.00508 41.8102 0.69572 53.5376 11.6498C54.0157 12.0997 54.775 12.0716 55.225 11.5935C55.675 11.1154 55.6469 10.3561 55.1688 9.90613C42.4851 -1.94788 22.9394 -1.6104 10.6495 10.6655C-1.83732 23.1522 -1.83732 43.4714 10.6635 55.9582C10.9026 56.1972 11.2119 56.3097 11.5072 56.3097Z" fill="url(#paint1_linear_2713_27493)"/>
<path d="M71.6071 56.2263C69.7088 54.328 66.4465 54.2999 64.4778 56.0998L59.7531 51.3751C61.5952 48.6893 63.0154 45.7223 63.9576 42.6006C64.1544 41.9678 63.7888 41.3069 63.156 41.11C62.5233 40.9132 61.8624 41.2788 61.6655 41.9115C60.2593 46.5519 57.7001 50.8126 54.255 54.2718C49.474 59.0527 43.3853 61.9916 36.6779 62.765C36.017 62.8353 35.5529 63.4259 35.6232 64.0868C35.6936 64.6915 36.2138 65.1414 36.8044 65.1414C36.8466 65.1414 36.8888 65.1414 36.945 65.1274C42.2041 64.5227 47.0976 62.6807 51.3723 59.7418L56.0971 64.4665C55.2112 65.4227 54.705 66.646 54.705 67.9538C54.705 69.3318 55.2393 70.6255 56.2096 71.5958L72.9289 88.3151C73.7585 89.1447 74.8413 89.5947 76.0084 89.5947C77.1755 89.5947 78.2724 89.1447 79.0879 88.3151L88.3124 79.0906C89.142 78.261 89.592 77.1783 89.592 76.0111C89.592 74.844 89.142 73.7472 88.3124 72.9316L71.6071 56.2263ZM55.9564 55.9732C56.8001 55.1295 57.5735 54.2436 58.3188 53.3296L62.7764 57.7872L57.7845 62.7791L53.3129 58.3075C54.2128 57.5763 55.1127 56.8029 55.9564 55.9732ZM86.625 77.4173L77.4005 86.6418C76.6271 87.4152 75.3756 87.4152 74.6163 86.6418L57.911 69.9224C57.3907 69.4021 57.0954 68.7131 57.0954 67.9678C57.0954 67.2226 57.3767 66.5336 57.911 66.0133L58.6 65.3243C58.6141 65.3102 65.3356 58.5887 65.3356 58.5887L66.0106 57.9137C66.5308 57.3935 67.2199 57.0982 67.9651 57.0982C68.6963 57.0982 69.3994 57.3794 69.9197 57.9137L86.625 74.619C86.9906 74.9846 87.2015 75.4908 87.2015 76.0111C87.2015 76.5455 86.9906 77.0376 86.625 77.4173Z" fill="url(#paint2_linear_2713_27493)"/>
<path d="M36.0878 30.5761C36.0878 31.8557 35.1738 33.0087 33.9364 33.29C32.8677 33.529 32.1224 34.4712 32.1224 35.568V36.9601C32.1224 37.621 32.6568 38.1553 33.3177 38.1553C33.9786 38.1553 34.5129 37.621 34.5129 36.9601L34.4707 35.6242C36.8331 35.0758 38.4783 33.0087 38.4783 30.5761C38.4783 27.7215 36.1581 25.4014 33.3036 25.4014C30.4491 25.4014 28.1289 27.7215 28.1289 30.5761C28.1289 31.237 28.6633 31.7713 29.3242 31.7713C29.985 31.7713 30.5194 31.237 30.5194 30.5761C30.5194 29.0433 31.7709 27.7919 33.3036 27.7919C34.8504 27.7919 36.0878 29.0433 36.0878 30.5761Z" fill="url(#paint3_linear_2713_27493)"/>
<path d="M34.5126 40.0157V39.8329C34.5126 39.172 33.9782 38.6377 33.3173 38.6377C32.6564 38.6377 32.1221 39.172 32.1221 39.8329V40.0157C32.1221 40.6766 32.6564 41.211 33.3173 41.211C33.9782 41.211 34.5126 40.6766 34.5126 40.0157Z" fill="url(#paint4_linear_2713_27493)"/>
<path d="M48.2229 33.3146C48.2229 25.0885 41.5295 18.4092 33.3175 18.4092C25.1055 18.4092 18.4121 25.1025 18.4121 33.3146C18.4121 41.5266 25.1055 48.22 33.3175 48.22C41.5295 48.22 48.2229 41.5266 48.2229 33.3146ZM20.7885 33.3146C20.7885 26.4103 26.3991 20.7997 33.3034 20.7997C40.2077 20.7997 45.8183 26.4103 45.8183 33.3146C45.8183 40.2189 40.2077 45.8295 33.3034 45.8295C26.3991 45.8295 20.7885 40.2189 20.7885 33.3146Z" fill="url(#paint5_linear_2713_27493)"/>
<path d="M87.6939 0H59.3877C57.8972 0 56.6738 1.20931 56.6738 2.71391V29.6561C56.6738 31.1466 57.8831 32.37 59.3877 32.37H62.9313V37.3478C62.9313 38.065 63.3391 38.7118 63.9859 39.0212C64.239 39.1477 64.5203 39.204 64.7874 39.204C65.1952 39.204 65.603 39.0634 65.9405 38.7962L73.8853 32.3841H87.6939C89.1844 32.3841 90.4078 31.1748 90.4078 29.6702V2.71391C90.4078 1.20931 89.1844 0 87.6939 0ZM88.0173 29.642C88.0173 29.8248 87.8767 29.9655 87.6939 29.9655H73.4635C73.1963 29.9655 72.9291 30.0639 72.7182 30.2326L65.3218 36.2088V31.1607C65.3218 30.4998 64.7874 29.9655 64.1265 29.9655H59.3877C59.2049 29.9655 59.0643 29.8248 59.0643 29.642V2.71391C59.0643 2.5311 59.2049 2.39049 59.3877 2.39049H87.6939C87.8767 2.39049 88.0173 2.5311 88.0173 2.71391V29.642Z" fill="url(#paint6_linear_2713_27493)"/>
<path d="M76.866 13.1781C76.402 12.7141 75.6426 12.7141 75.1786 13.1781L73.5474 14.8093L71.9163 13.1781C71.4523 12.7141 70.6929 12.7141 70.2289 13.1781C69.7649 13.6421 69.7649 14.4015 70.2289 14.8655L71.86 16.4967L70.2289 18.1278C69.7649 18.5919 69.7649 19.3512 70.2289 19.8152C70.4679 20.0543 70.7632 20.1668 71.0726 20.1668C71.3819 20.1668 71.6772 20.0543 71.9163 19.8152L73.5474 18.1841L75.1786 19.8152C75.4176 20.0543 75.7129 20.1668 76.0223 20.1668C76.3317 20.1668 76.627 20.0543 76.866 19.8152C77.33 19.3512 77.33 18.5919 76.866 18.1278L75.2348 16.4967L76.866 14.8655C77.33 14.4015 77.33 13.6562 76.866 13.1781Z" fill="url(#paint7_linear_2713_27493)"/>
<path d="M73.5473 6.08887C67.8101 6.08887 63.1416 10.7573 63.1416 16.5086C63.1416 22.2457 67.8101 26.9142 73.5473 26.9142C79.2844 26.9142 83.9529 22.2457 83.9529 16.5086C83.9388 10.7714 79.2704 6.08887 73.5473 6.08887ZM73.5473 24.5237C69.1319 24.5237 65.5321 20.9239 65.5321 16.5086C65.5321 12.0791 69.1319 8.47935 73.5473 8.47935C77.9626 8.47935 81.5624 12.0791 81.5624 16.5086C81.5484 20.9239 77.9626 24.5237 73.5473 24.5237Z" fill="url(#paint8_linear_2713_27493)"/>
<path d="M31.7984 57.6448H28.2689V52.667C28.2689 51.9498 27.8611 51.303 27.2143 50.9936C26.5675 50.6843 25.8081 50.7686 25.2597 51.2186L17.3149 57.6307H3.49223C2.00169 57.6307 0.77832 58.84 0.77832 60.3446V87.2868C0.77832 88.7914 2.00169 90.0007 3.49223 90.0007H31.7984C33.2889 90.0007 34.5123 88.7914 34.5123 87.2868V60.3587C34.5123 58.8541 33.2889 57.6448 31.7984 57.6448ZM32.1218 87.2868C32.1218 87.4696 31.9812 87.6102 31.7984 87.6102H3.49223C3.30942 87.6102 3.16881 87.4696 3.16881 87.2868V60.3587C3.16881 60.1759 3.30942 60.0353 3.49223 60.0353H17.7227C17.9898 60.0353 18.257 59.9368 18.4679 59.7681L25.8644 53.7919V58.84C25.8644 59.5009 26.3987 60.0353 27.0596 60.0353H31.7843C31.9671 60.0353 32.1078 60.1759 32.1078 60.3587V87.2868H32.1218Z" fill="url(#paint9_linear_2713_27493)"/>
<path d="M19.8181 72.1118L16.7808 74.2914L15.7543 72.8571C15.3746 72.3227 14.6294 72.1962 14.095 72.5758C13.5607 72.9555 13.4341 73.7008 13.8138 74.2351L15.5293 76.6537C15.7121 76.9068 15.9933 77.0896 16.3027 77.1459C16.373 77.16 16.4293 77.1599 16.4996 77.1599C16.7527 77.1599 16.9917 77.0756 17.2027 76.935L21.2243 74.0523C21.7586 73.6727 21.8852 72.9274 21.5055 72.379C21.0977 71.8446 20.3525 71.7181 19.8181 72.1118Z" fill="url(#paint10_linear_2713_27493)"/>
<path d="M17.6527 63.8389C11.9156 63.8389 7.24707 68.5073 7.24707 74.2586C7.24707 79.9957 11.9156 84.6642 17.6527 84.6642C23.3899 84.6642 28.0584 79.9957 28.0584 74.2586C28.0443 68.5073 23.3758 63.8389 17.6527 63.8389ZM17.6527 82.2737C13.2373 82.2737 9.63756 78.6739 9.63756 74.2586C9.63756 69.8291 13.2373 66.2293 17.6527 66.2293C22.0681 66.2293 25.6679 69.8291 25.6679 74.2586C25.6538 78.6739 22.0681 82.2737 17.6527 82.2737Z" fill="url(#paint11_linear_2713_27493)"/>
<defs>
<linearGradient id="paint0_linear_2713_27493" x1="-1.57091" y1="5.22344" x2="96.8565" y2="11.243" gradientUnits="userSpaceOnUse">
<stop stop-color="#5016CC"/>
<stop offset="0.75691" stop-color="#F7A1D0"/>
</linearGradient>
<linearGradient id="paint1_linear_2713_27493" x1="-14.1846" y1="-6.01455" x2="105.989" y2="1.23042" gradientUnits="userSpaceOnUse">
<stop stop-color="#5016CC"/>
<stop offset="0.75691" stop-color="#F7A1D0"/>
</linearGradient>
<linearGradient id="paint2_linear_2713_27493" x1="20.2264" y1="34.6701" x2="139.653" y2="42.7973" gradientUnits="userSpaceOnUse">
<stop stop-color="#5016CC"/>
<stop offset="0.75691" stop-color="#F7A1D0"/>
</linearGradient>
<linearGradient id="paint3_linear_2713_27493" x1="25.178" y1="23.7232" x2="48.1266" y2="24.8628" gradientUnits="userSpaceOnUse">
<stop stop-color="#5016CC"/>
<stop offset="0.75691" stop-color="#F7A1D0"/>
</linearGradient>
<linearGradient id="paint4_linear_2713_27493" x1="31.4405" y1="38.2991" x2="36.7371" y2="38.6002" gradientUnits="userSpaceOnUse">
<stop stop-color="#5016CC"/>
<stop offset="0.75691" stop-color="#F7A1D0"/>
</linearGradient>
<linearGradient id="paint5_linear_2713_27493" x1="9.91234" y1="14.4867" x2="75.93" y2="18.5267" gradientUnits="userSpaceOnUse">
<stop stop-color="#5016CC"/>
<stop offset="0.75691" stop-color="#F7A1D0"/>
</linearGradient>
<linearGradient id="paint6_linear_2713_27493" x1="47.0555" y1="-5.15839" x2="121.834" y2="-1.22075" gradientUnits="userSpaceOnUse">
<stop stop-color="#5016CC"/>
<stop offset="0.75691" stop-color="#F7A1D0"/>
</linearGradient>
<linearGradient id="paint7_linear_2713_27493" x1="67.79" y1="11.8647" x2="84.0298" y2="12.8581" gradientUnits="userSpaceOnUse">
<stop stop-color="#5016CC"/>
<stop offset="0.75691" stop-color="#F7A1D0"/>
</linearGradient>
<linearGradient id="paint8_linear_2713_27493" x1="57.2078" y1="3.3487" x2="103.296" y2="6.1672" gradientUnits="userSpaceOnUse">
<stop stop-color="#5016CC"/>
<stop offset="0.75691" stop-color="#F7A1D0"/>
</linearGradient>
<linearGradient id="paint9_linear_2713_27493" x1="-8.84005" y1="45.6529" x2="65.938" y2="49.5918" gradientUnits="userSpaceOnUse">
<stop stop-color="#5016CC"/>
<stop offset="0.75691" stop-color="#F7A1D0"/>
</linearGradient>
<linearGradient id="paint10_linear_2713_27493" x1="11.2767" y1="71.1874" x2="29.189" y2="72.8758" gradientUnits="userSpaceOnUse">
<stop stop-color="#5016CC"/>
<stop offset="0.75691" stop-color="#F7A1D0"/>
</linearGradient>
<linearGradient id="paint11_linear_2713_27493" x1="1.31327" y1="61.0987" x2="47.4013" y2="63.9172" gradientUnits="userSpaceOnUse">
<stop stop-color="#5016CC"/>
<stop offset="0.75691" stop-color="#F7A1D0"/>
</linearGradient>
</defs>
</svg>
