<svg width="98" height="90" viewBox="0 0 98 90" fill="none" xmlns="http://www.w3.org/2000/svg">
<path d="M68.7164 33.5496C68.7339 33.4609 68.7427 33.3707 68.7424 33.2803V10.2143C68.7425 9.89472 68.6306 9.58519 68.4259 9.33931C68.2213 9.09343 67.9369 8.92669 67.6219 8.86797C65.4504 8.46584 63.4167 7.52041 61.7116 6.12029C60.0064 4.72017 58.6856 2.9112 57.8728 0.862886C57.7712 0.608206 57.5953 0.389812 57.3678 0.235971C57.1404 0.0821313 56.8718 -7.27363e-05 56.597 4.82915e-08H41.9551C41.6804 0.000209119 41.412 0.0825253 41.1846 0.236329C40.9572 0.390133 40.7812 0.60837 40.6793 0.862886C39.8666 2.9112 38.5457 4.72017 36.8406 6.12029C35.1354 7.52041 33.1018 8.46584 30.9302 8.86797C30.6146 8.92707 30.3297 9.09466 30.1252 9.3416C29.9206 9.58853 29.8094 9.89917 29.8107 10.2195V33.2803C29.8105 33.3707 29.8193 33.4609 29.8368 33.5496C31.8715 43.6942 41.0671 47.1427 48.4552 49.9132L48.7929 50.0401C49.1046 50.1579 49.4486 50.1579 49.7602 50.0401L50.098 49.9132C57.4872 47.1427 66.6838 43.6942 68.7164 33.5496ZM49.2766 47.2944C42.2439 44.6569 34.3345 41.6368 32.5573 33.1421V11.31C34.7998 10.7258 36.8854 9.65528 38.6655 8.17491C40.4456 6.69454 41.8763 4.84073 42.8557 2.74564H55.6975C56.6769 4.84073 58.1076 6.69454 59.8877 8.17491C61.6678 9.65528 63.7534 10.7258 65.9958 11.31V33.1421C64.2187 41.6368 56.3093 44.6569 49.2766 47.2944ZM49.2766 13.2417C46.9551 13.2417 44.6857 13.9283 42.7554 15.2147C40.8251 16.5011 39.3206 18.3295 38.4322 20.4687C37.5438 22.6079 37.3113 24.9618 37.7642 27.2328C38.2172 29.5038 39.3351 31.5898 40.9767 33.2271C42.6182 34.8643 44.7097 35.9793 46.9866 36.431C49.2636 36.8828 51.6237 36.6509 53.7685 35.7648C55.9133 34.8788 57.7465 33.3782 59.0363 31.453C60.3261 29.5278 61.0145 27.2643 61.0145 24.9488C61.0109 21.845 59.7731 18.8693 57.5726 16.6746C55.3721 14.4798 52.3886 13.2452 49.2766 13.2417ZM49.2766 33.9156C47.4985 33.9156 45.7603 33.3897 44.2819 32.4044C42.8034 31.4191 41.6511 30.0187 40.9707 28.3802C40.2902 26.7418 40.1122 24.9389 40.4591 23.1995C40.806 21.4601 41.6622 19.8624 42.9195 18.6084C44.1768 17.3544 45.7787 16.5004 47.5227 16.1544C49.2666 15.8084 51.0743 15.986 52.717 16.6646C54.3598 17.3433 55.7638 18.4926 56.7517 19.9672C57.7396 21.4417 58.2668 23.1754 58.2668 24.9488C58.2641 27.3261 57.316 29.6052 55.6306 31.2862C53.9452 32.9672 51.6601 33.9128 49.2766 33.9156ZM56.2906 19.8339C56.548 20.091 56.6925 20.4395 56.6925 20.8028C56.6925 21.1662 56.548 21.5146 56.2906 21.7717L48.4594 29.5824C48.2032 29.8381 47.856 29.9823 47.4936 29.9837C47.1312 29.9851 46.7829 29.8434 46.5248 29.5897L42.271 25.4115C42.1382 25.2862 42.0318 25.1358 41.958 24.9691C41.8843 24.8023 41.8446 24.6226 41.8413 24.4404C41.8381 24.2581 41.8713 24.0771 41.9391 23.9078C42.0068 23.7386 42.1078 23.5845 42.236 23.4546C42.3642 23.3247 42.5171 23.2217 42.6857 23.1514C42.8543 23.0812 43.0353 23.0453 43.2181 23.0457C43.4008 23.0461 43.5816 23.0829 43.7499 23.1539C43.9182 23.2248 44.0707 23.3286 44.1983 23.4591L47.4806 26.6819L54.3476 19.8318C54.6057 19.5754 54.9552 19.4315 55.3195 19.4319C55.6838 19.4323 56.033 19.5769 56.2906 19.8339ZM93.9683 26.791C93.3888 26.6917 92.795 26.7126 92.2241 26.8526C91.6531 26.9925 91.1172 27.2485 90.6499 27.6045C90.1827 27.9604 89.7941 28.4087 89.5085 28.9214C89.2228 29.434 89.0464 29.9998 88.9901 30.5836L84.7633 45.2807C84.1006 45.4555 83.4638 45.7166 82.8694 46.0573C82.2502 46.4024 81.5393 46.8963 80.6398 47.5211C77.5713 49.7643 74.2379 51.6225 70.7146 53.0539C62.48 56.2768 60.8123 59.5807 59.6052 63.2568C58.9783 65.1119 58.4782 67.0074 58.1084 68.93C57.3989 68.8557 56.6855 69.028 56.0887 69.4179C55.492 69.8077 55.0485 70.3912 54.8333 71.0695L54.5519 71.9636C53.9092 71.9482 53.2788 72.1414 52.7556 72.5141C52.2325 72.8869 51.8449 73.419 51.6511 74.0304L50.4232 77.9206C50.2117 78.6471 50.2812 79.4263 50.6177 80.1042C50.9543 80.7822 51.5335 81.3095 52.241 81.5822L71.834 89.789C72.1639 89.9277 72.5184 89.9984 72.8764 89.9969C73.285 89.9954 73.6885 89.9049 74.0584 89.7318C74.4403 89.5546 74.781 89.3 75.0588 88.9843C75.3366 88.6685 75.5454 88.2986 75.672 87.8979L77.4909 82.1249C77.6828 81.5126 77.6702 80.8548 77.455 80.2503C77.2397 79.6459 76.8335 79.1275 76.2974 78.7731L76.5778 77.8811C76.7528 77.3253 76.766 76.7314 76.6158 76.1684C76.4656 75.6054 76.1581 75.0965 75.7293 74.7009C75.9555 74.493 76.189 74.2737 76.4371 74.0512C79.2148 71.6027 82.3218 69.5532 85.6681 67.9621C89.0036 66.254 91.6303 64.9056 92.6133 61.3324C92.6255 61.2904 92.6352 61.2477 92.6424 61.2046L97.6593 32.4071C97.8005 31.7957 97.8163 31.1622 97.7056 30.5446C97.5949 29.9271 97.3601 29.3382 97.0153 28.8136C96.6704 28.2889 96.2227 27.8392 95.6991 27.4916C95.1754 27.144 94.5867 26.9057 93.9683 26.791ZM57.6227 71.6933C57.7022 71.6513 57.7951 71.6423 57.8812 71.6684L73.7311 76.6357C73.8166 76.6638 73.8877 76.7241 73.9293 76.8037C73.9709 76.8833 73.9799 76.9759 73.9542 77.0619L73.7082 77.8437L57.2078 72.6737L57.4549 71.8908C57.4824 71.8054 57.5427 71.7344 57.6227 71.6933ZM74.8673 81.3056L73.0484 87.0787C73.0343 87.1183 73.0121 87.1546 72.9833 87.1852C72.9544 87.2158 72.9194 87.2401 72.8806 87.2564L53.3084 79.0559C53.1552 78.9925 53.0113 78.8532 53.0468 78.744L54.2726 74.8538C54.2873 74.8101 54.3153 74.7722 54.3526 74.7452C54.39 74.7181 54.4349 74.7034 54.481 74.703C54.5015 74.7032 54.5219 74.7063 54.5415 74.7124L74.7255 81.0354C74.7523 81.0434 74.7772 81.0568 74.7987 81.0746C74.8202 81.0925 74.8378 81.1145 74.8506 81.1393C74.8644 81.1645 74.873 81.1922 74.8759 81.2208C74.8788 81.2494 74.8758 81.2782 74.8673 81.3056ZM94.9492 31.9413L89.9459 60.6702C89.2986 62.9345 87.683 63.8494 84.411 65.5273C80.8519 67.2225 77.5485 69.4068 74.5973 72.0166C74.0063 72.5468 73.4768 73.0469 72.9911 73.5314L60.7581 69.6983C61.11 67.8029 61.5976 65.9351 62.2173 64.1093C63.1044 61.4063 64.0216 58.617 71.7194 55.6041C75.4455 54.0981 78.9707 52.1384 82.2148 49.7698C83.0195 49.2105 83.7137 48.7302 84.213 48.4505C85.0573 47.9806 86.0892 47.6344 86.4405 48.0731C86.6509 48.502 86.7341 48.9818 86.6804 49.4563C86.6267 49.9307 86.4382 50.38 86.1371 50.7512C84.7852 52.1908 83.3149 53.515 81.7416 54.7101C79.9378 56.0761 78.2662 57.6076 76.7487 59.2844C76.6283 59.421 76.5365 59.5802 76.4784 59.7526C76.4204 59.925 76.3973 60.1073 76.4106 60.2887C76.4239 60.4701 76.4732 60.647 76.5558 60.8092C76.6384 60.9714 76.7525 61.1155 76.8915 61.2333C77.0305 61.351 77.1916 61.4399 77.3655 61.4949C77.5393 61.5499 77.7224 61.5698 77.904 61.5535C78.0856 61.5372 78.2622 61.485 78.4233 61.3999C78.5845 61.3148 78.7271 61.1986 78.8428 61.058C80.2492 59.5121 81.7968 58.1001 83.4656 56.8402C85.1588 55.549 86.7404 54.1183 88.1937 52.5632C88.927 51.7109 89.3609 50.643 89.4294 49.522C89.4979 48.401 89.1972 47.2884 88.5731 46.3536C88.2932 46.0084 87.946 45.7234 87.5527 45.5157L91.6491 31.2728C91.6624 31.2263 91.6732 31.1791 91.6814 31.1315C91.8899 29.9421 92.5684 29.3288 93.494 29.4889C93.7571 29.5438 94.0059 29.6527 94.2244 29.8088C94.443 29.9648 94.6265 30.1646 94.7634 30.3953C94.9003 30.626 94.9875 30.8826 95.0195 31.1488C95.0515 31.415 95.0275 31.6849 94.9492 31.9413ZM72.3375 83.6968C72.2754 83.8657 72.1806 84.0208 72.0584 84.1532C71.9362 84.2855 71.789 84.3926 71.6254 84.4682C71.4617 84.5438 71.2846 84.5864 71.1044 84.5938C70.9241 84.6011 70.7442 84.5729 70.5749 84.5108L67.5229 83.3932C67.2879 83.3073 67.081 83.1589 66.9245 82.9641C66.7679 82.7693 66.6678 82.5355 66.6348 82.2881C66.4507 82.4741 66.2166 82.6033 65.9608 82.6601C65.7049 82.7169 65.4381 82.6989 65.1922 82.6083L64.3229 82.2902C64.1498 82.2311 63.9903 82.1381 63.8537 82.0167C63.7171 81.8953 63.6062 81.7479 63.5275 81.5832C63.4488 81.4184 63.4039 81.2397 63.3954 81.0574C63.3869 80.8751 63.415 80.693 63.4781 80.5217C63.5411 80.3504 63.6378 80.1934 63.7625 80.0598C63.8872 79.9263 64.0374 79.819 64.2043 79.7441C64.3711 79.6693 64.5513 79.6284 64.7342 79.624C64.9171 79.6195 65.099 79.6515 65.2693 79.7181L66.1386 80.03C66.3732 80.1162 66.5798 80.2645 66.7361 80.4591C66.8924 80.6536 66.9925 80.887 67.0257 81.1341C67.2108 80.9492 67.4451 80.821 67.7009 80.7647C67.9567 80.7083 68.2234 80.7261 68.4694 80.816L71.5213 81.9336C71.6913 81.9956 71.8472 82.0904 71.9803 82.2127C72.1133 82.335 72.2209 82.4822 72.2967 82.6461C72.3725 82.8099 72.4152 82.9871 72.4222 83.1674C72.4292 83.3477 72.4004 83.5276 72.3375 83.6968ZM46.9042 74.0283C46.7106 73.4168 46.323 72.8846 45.7998 72.5118C45.2766 72.1391 44.6461 71.946 44.0034 71.9615L43.7219 71.0675C43.5068 70.3891 43.0633 69.8056 42.4665 69.4158C41.8698 69.0259 41.1563 68.8536 40.4469 68.9279C40.0771 67.0053 39.577 65.1099 38.95 63.2547C37.743 59.5786 36.0742 56.2726 27.8407 53.0519C24.3174 51.6204 20.9839 49.7622 17.9155 47.519C17.0159 46.8952 16.305 46.4004 15.6859 46.0552C15.0915 45.7145 14.4547 45.4534 13.7919 45.2786L9.56313 30.5836C9.50681 29.9998 9.33033 29.434 9.04473 28.9214C8.75912 28.4087 8.37053 27.9604 7.90327 27.6045C7.436 27.2485 6.90012 26.9925 6.32913 26.8526C5.75815 26.7126 5.16435 26.6917 4.58488 26.791C3.96698 26.9061 3.37879 27.1446 2.85567 27.4922C2.33256 27.8398 1.88531 28.2894 1.54083 28.8138C1.19635 29.3382 0.961737 29.9266 0.851104 30.5438C0.740471 31.1609 0.756099 31.794 0.89705 32.405L5.91491 61.2067C5.92216 61.2498 5.9319 61.2925 5.9441 61.3345C6.92703 64.9077 9.55792 66.2561 12.8893 67.9642C16.2355 69.5553 19.3426 71.6048 22.1203 74.0533C22.3694 74.2757 22.6019 74.492 22.8281 74.7041C22.4 75.0999 22.093 75.6086 21.9426 76.1712C21.7923 76.7338 21.8048 77.3274 21.9785 77.8832L22.26 78.7763C21.7237 79.1302 21.3173 79.6484 21.102 80.2528C20.8867 80.8571 20.8743 81.5149 21.0665 82.127L22.8854 87.9C23.0119 88.3006 23.2208 88.6706 23.4986 88.9863C23.7764 89.3021 24.1171 89.5567 24.4989 89.7339C24.8689 89.9071 25.2723 89.9979 25.681 90C26.0388 90.0005 26.3932 89.9298 26.7233 89.7921L46.3132 81.5853C47.0212 81.3124 47.6007 80.7845 47.9371 80.1059C48.2736 79.4273 48.3424 78.6474 48.13 77.9206L46.9042 74.0283ZM40.9326 71.6912C41.0125 71.7323 41.0729 71.8034 41.1004 71.8888L41.3475 72.6716L24.845 77.8437L24.599 77.0619C24.5733 76.9759 24.5822 76.8833 24.6239 76.8037C24.6655 76.7241 24.7366 76.6638 24.8221 76.6357L40.672 71.6684C40.7581 71.6423 40.851 71.6513 40.9305 71.6933L40.9326 71.6912ZM14.1443 65.5252C10.8723 63.8473 9.25668 62.9324 8.60938 60.6681L3.60611 31.9392C3.52796 31.6826 3.50429 31.4125 3.53661 31.1462C3.56893 30.8799 3.65653 30.6233 3.79383 30.3926C3.93113 30.162 4.11511 29.9624 4.33404 29.8066C4.55298 29.6508 4.80206 29.5422 5.0654 29.4878C5.99205 29.3267 6.66853 29.9411 6.87804 31.1304C6.88621 31.1781 6.897 31.2253 6.91036 31.2718L11.0068 45.5146C10.6113 45.7223 10.262 46.0077 9.98007 46.3536C9.35627 47.2886 9.05594 48.4013 9.12481 49.5223C9.19368 50.6433 9.62798 51.7112 10.3616 52.5632C11.8142 54.1182 13.3951 55.5489 15.0876 56.8402C16.7578 58.1015 18.3068 59.5149 19.7146 61.0621C19.8302 61.2028 19.9728 61.319 20.134 61.4041C20.2952 61.4891 20.4717 61.5414 20.6534 61.5577C20.835 61.574 21.0181 61.5541 21.1919 61.4991C21.3657 61.4441 21.5268 61.3552 21.6659 61.2374C21.8049 61.1197 21.919 60.9755 22.0015 60.8134C22.0841 60.6512 22.1335 60.4742 22.1468 60.2928C22.1601 60.1114 22.137 59.9292 22.079 59.7568C22.0209 59.5844 21.929 59.4252 21.8086 59.2886C20.2914 57.6114 18.6198 56.0799 16.8158 54.7142C15.2427 53.5186 13.7724 52.194 12.4202 50.7543C12.1192 50.3831 11.9307 49.9338 11.877 49.4594C11.8232 48.985 11.9065 48.5051 12.1169 48.0762C12.4713 47.6375 13.5001 47.9837 14.3444 48.4536C14.8437 48.7312 15.5379 49.2136 16.3426 49.7729C19.5861 52.141 23.1105 54.1003 26.8359 55.6062C34.5336 58.6211 35.4509 61.4115 36.3379 64.1114C36.9576 65.9372 37.4453 67.805 37.7972 69.7004L25.5632 73.5314C25.0774 73.0469 24.5479 72.5468 23.9569 72.0166C21.0057 69.4068 17.7024 67.2225 14.1432 65.5273L14.1443 65.5252ZM45.2448 79.0559L25.6726 87.2564C25.6338 87.2401 25.5988 87.2158 25.5699 87.1852C25.541 87.1546 25.5189 87.1183 25.5048 87.0787L23.6859 81.3056C23.6776 81.2785 23.6749 81.25 23.6777 81.2218C23.6806 81.1937 23.689 81.1663 23.7026 81.1414C23.7154 81.1166 23.733 81.0946 23.7545 81.0767C23.776 81.0589 23.8009 81.0455 23.8277 81.0374L44.0096 74.7124C44.0298 74.7059 44.0509 74.7027 44.0721 74.703C44.1085 74.7029 44.1443 74.7119 44.1764 74.729C44.2013 74.7418 44.2233 74.7594 44.2412 74.7808C44.2591 74.8023 44.2725 74.8271 44.2806 74.8538L45.5064 78.744C45.5419 78.8532 45.398 78.9925 45.2448 79.0559ZM35.0465 80.5322C35.1719 80.8733 35.1563 81.25 35.0033 81.5797C34.8503 81.9094 34.5722 82.1649 34.2303 82.2902L33.361 82.6083C33.1151 82.6989 32.8483 82.7169 32.5924 82.6601C32.3365 82.6033 32.1025 82.4741 31.9184 82.2881C31.8859 82.535 31.7865 82.7683 31.6309 82.963C31.4754 83.1577 31.2695 83.3065 31.0355 83.3932L27.9783 84.5077C27.6385 84.6237 27.2667 84.6024 26.9425 84.4483C26.6183 84.2942 26.3675 84.0197 26.2437 83.6834C26.12 83.3471 26.1332 82.9759 26.2805 82.6493C26.4278 82.3226 26.6975 82.0664 27.0318 81.9357L30.0838 80.8181C30.3299 80.7284 30.5964 80.7108 30.8522 80.7671C31.1079 80.8235 31.3422 80.9515 31.5275 81.1362C31.5606 80.8891 31.6608 80.6557 31.8171 80.4611C31.9734 80.2666 32.18 80.1182 32.4145 80.0321L33.2838 79.7202C33.453 79.6581 33.6328 79.6298 33.813 79.637C33.9931 79.6442 34.1701 79.6867 34.3338 79.7621C34.4974 79.8375 34.6446 79.9443 34.7669 80.0764C34.8892 80.2086 34.9842 80.3634 35.0465 80.5322Z" fill="url(#paint0_linear_2713_27509)"/>
<defs>
<linearGradient id="paint0_linear_2713_27509" x1="-26.8787" y1="-11.842" x2="187.804" y2="2.31748" gradientUnits="userSpaceOnUse">
<stop stop-color="#5016CC"/>
<stop offset="0.75691" stop-color="#F7A1D0"/>
</linearGradient>
</defs>
</svg>
