<svg width="35" height="33" viewBox="0 0 35 33" fill="none" xmlns="http://www.w3.org/2000/svg">
<g id="DevRiser Logo-A3 2" clip-path="url(#clip0_2431_23612)">
<path id="Vector" d="M12.1523 21.9938L6.51562 15.8479L12.1474 9.59375L13.3244 10.6715L8.67189 15.8381L13.3195 20.9053L12.1523 21.9938Z" fill="white"/>
<path id="Vector_2" d="M15.9239 32.944L15.0143 32.8107C11.1655 32.2444 7.64815 30.2982 5.10683 27.329C2.54729 24.3398 1.1377 20.4931 1.1377 16.4999C1.1377 7.4019 8.47753 0 17.501 0V1.60316C9.35489 1.60316 2.72863 8.28578 2.72863 16.4999C2.72863 23.6515 7.55642 29.6334 14.3349 31.0619V16.1187H15.925L15.9239 32.944Z" fill="white"/>
<path id="Vector_3" d="M17.501 32.9978V31.3947C25.6471 31.3947 32.2733 24.712 32.2733 16.4977C32.2722 9.5187 27.3454 3.42301 20.6673 1.94437V16.8788H19.0761V0.046875L19.9909 0.187947C23.8532 0.788572 27.3749 2.76315 29.9191 5.75458C32.4632 8.746 33.8618 12.5568 33.862 16.4977C33.862 25.5959 26.5221 32.9978 17.501 32.9978Z" fill="white"/>
<path id="Vector_4" d="M22.8528 23.4004L21.6758 22.3226L26.3283 17.1561L21.6807 12.0885L22.8479 11L28.4845 17.1459L22.8528 23.4004Z" fill="white"/>
</g>
<defs>
<clipPath id="clip0_2431_23612">
<rect width="35" height="33" fill="white"/>
</clipPath>
</defs>
</svg>
