<svg width="33" height="33" viewBox="0 0 33 33" fill="none" xmlns="http://www.w3.org/2000/svg">
<path d="M32.3503 16.5C32.3503 25.6127 25.0302 33 16.0003 33C6.97046 33 0 25.6127 0 16.5C0 7.3873 6.97046 0 16.0003 0C25.0302 0 32.3503 7.3873 32.3503 16.5Z" fill="white"/>
<path d="M11.3257 21.5197L6.24219 15.9082L11.3213 10.1979L12.3828 11.1819L8.18685 15.8992L12.3783 20.5258L11.3257 21.5197Z" fill="black"/>
<path d="M14.7296 31.5141L13.9093 31.3924C10.4383 30.8753 7.26607 29.0984 4.97415 26.3874C2.66579 23.6581 1.39453 20.1459 1.39453 16.4999C1.39453 8.19307 8.01406 1.43481 16.152 1.43481V2.89857C8.80532 2.89857 2.82934 9.00009 2.82934 16.4999C2.82934 23.0297 7.18334 28.4914 13.2966 29.7956V16.1519H14.7307L14.7296 31.5141Z" fill="black"/>
<path d="M16.1504 31.5659V30.1021C23.4971 30.1021 29.473 24.0006 29.473 16.5005C29.472 10.1284 25.0287 4.56278 19.006 3.21272V16.8485H17.5709V1.48022L18.3959 1.60903C21.8792 2.15743 25.0553 3.96031 27.3498 6.69161C29.6443 9.42291 30.9057 12.9023 30.9058 16.5005C30.9058 24.8076 24.2862 31.5659 16.1504 31.5659Z" fill="black"/>
<path d="M20.9775 22.804L19.916 21.8199L24.1119 17.1027L19.9204 12.4758L20.9731 11.4819L26.0566 17.0934L20.9775 22.804Z" fill="black"/>
</svg>
