<svg width="1728" height="770" viewBox="0 0 1728 770" fill="none" xmlns="http://www.w3.org/2000/svg">
<path d="M-73.5288 177.09L38.5293 -17L150.587 177.09H-73.5288Z" stroke="#522A9E" stroke-opacity="0.45"/>
<path d="M150.608 177.09L262.666 -17L374.724 177.09H150.608Z" stroke="#522A9E" stroke-opacity="0.45"/>
<path d="M374.744 177.09L486.802 -17L598.86 177.09H374.744Z" stroke="#522A9E" stroke-opacity="0.45"/>
<path d="M598.879 177.09L710.938 -17L822.996 177.09H598.879Z" stroke="#522A9E" stroke-opacity="0.45"/>
<path d="M823.015 177.09L935.073 -17L1047.13 177.09H823.015Z" stroke="#522A9E" stroke-opacity="0.45"/>
<path d="M1047.15 177.09L1159.21 -17L1271.27 177.09H1047.15Z" stroke="#522A9E" stroke-opacity="0.45"/>
<path d="M1271.29 177.09L1383.35 -17L1495.4 177.09H1271.29Z" stroke="#522A9E" stroke-opacity="0.45"/>
<path d="M1495.42 177.09L1607.48 -17L1719.54 177.09H1495.42Z" stroke="#522A9E" stroke-opacity="0.45"/>
<path d="M1719.56 177.09L1831.62 -17L1943.67 177.09H1719.56Z" stroke="#522A9E" stroke-opacity="0.45"/>
<path d="M1943.68 177.386L1831.62 371.477L1719.56 177.386H1943.68Z" stroke="#522A9E" stroke-opacity="0.45"/>
<path d="M1719.54 177.386L1607.48 371.477L1495.43 177.386H1719.54Z" stroke="#522A9E" stroke-opacity="0.45"/>
<path d="M1495.4 177.386L1383.35 371.477L1271.29 177.386H1495.4Z" stroke="#522A9E" stroke-opacity="0.45"/>
<path d="M1271.27 177.386L1159.21 371.477L1047.15 177.386H1271.27Z" stroke="#522A9E" stroke-opacity="0.45"/>
<path d="M1047.13 177.386L935.074 371.477L823.016 177.386H1047.13Z" stroke="#522A9E" stroke-opacity="0.45"/>
<path d="M822.997 177.386L710.938 371.477L598.88 177.386H822.997Z" stroke="#522A9E" stroke-opacity="0.45"/>
<path d="M598.861 177.386L486.803 371.477L374.745 177.386H598.861Z" stroke="#522A9E" stroke-opacity="0.45"/>
<path d="M374.724 177.386L262.666 371.477L150.608 177.386H374.724Z" stroke="#522A9E" stroke-opacity="0.45"/>
<path d="M150.588 177.386L38.5303 371.477L-73.5278 177.386H150.588Z" stroke="#522A9E" stroke-opacity="0.45"/>
<path d="M-73.5288 177.09L38.5293 -17L150.587 177.09H-73.5288Z" stroke="#522A9E" stroke-opacity="0.45"/>
<path d="M150.608 177.09L262.666 -17L374.724 177.09H150.608Z" stroke="#522A9E" stroke-opacity="0.45"/>
<path d="M374.744 177.09L486.802 -17L598.86 177.09H374.744Z" stroke="#522A9E" stroke-opacity="0.45"/>
<path d="M598.879 177.09L710.938 -17L822.996 177.09H598.879Z" stroke="#522A9E" stroke-opacity="0.45"/>
<path d="M823.015 177.09L935.073 -17L1047.13 177.09H823.015Z" stroke="#522A9E" stroke-opacity="0.45"/>
<path d="M1047.15 177.09L1159.21 -17L1271.27 177.09H1047.15Z" stroke="#522A9E" stroke-opacity="0.45"/>
<path d="M1271.29 177.09L1383.35 -17L1495.4 177.09H1271.29Z" stroke="#522A9E" stroke-opacity="0.45"/>
<path d="M1495.42 177.09L1607.48 -17L1719.54 177.09H1495.42Z" stroke="#522A9E" stroke-opacity="0.45"/>
<path d="M1719.56 177.09L1831.62 -17L1943.67 177.09H1719.56Z" stroke="#522A9E" stroke-opacity="0.45"/>
<path d="M-72.1187 574.91L39.9395 769L151.998 574.91H-72.1187Z" stroke="#522A9E" stroke-opacity="0.45"/>
<path d="M152.017 574.91L264.075 769L376.133 574.91H152.017Z" stroke="#522A9E" stroke-opacity="0.45"/>
<path d="M376.153 574.91L488.211 769L600.269 574.91H376.153Z" stroke="#522A9E" stroke-opacity="0.45"/>
<path d="M600.289 574.91L712.347 769L824.405 574.91H600.289Z" stroke="#522A9E" stroke-opacity="0.45"/>
<path d="M824.425 574.91L936.483 769L1048.54 574.91H824.425Z" stroke="#522A9E" stroke-opacity="0.45"/>
<path d="M1048.56 574.91L1160.62 769L1272.68 574.91H1048.56Z" stroke="#522A9E" stroke-opacity="0.45"/>
<path d="M1272.7 574.91L1384.76 769L1496.81 574.91H1272.7Z" stroke="#522A9E" stroke-opacity="0.45"/>
<path d="M1496.83 574.91L1608.89 769L1720.95 574.91H1496.83Z" stroke="#522A9E" stroke-opacity="0.45"/>
<path d="M1720.97 574.91L1833.03 769L1945.08 574.91H1720.97Z" stroke="#522A9E" stroke-opacity="0.45"/>
<path d="M-184.892 380.378L-72.834 574.469L39.2241 380.378H-184.892Z" stroke="#522A9E" stroke-opacity="0.45"/>
<path d="M39.2446 380.378L151.303 574.469L263.361 380.378H39.2446Z" stroke="#522A9E" stroke-opacity="0.45"/>
<path d="M263.38 380.378L375.438 574.469L487.497 380.378H263.38Z" stroke="#522A9E" stroke-opacity="0.45"/>
<path d="M487.516 380.378L599.574 574.469L711.632 380.378H487.516Z" stroke="#522A9E" stroke-opacity="0.45"/>
<path d="M711.652 380.378L823.71 574.469L935.768 380.378H711.652Z" stroke="#522A9E" stroke-opacity="0.45"/>
<path d="M935.789 380.378L1047.85 574.469L1159.9 380.378H935.789Z" stroke="#522A9E" stroke-opacity="0.45"/>
<path d="M1159.92 380.378L1271.98 574.469L1384.04 380.378H1159.92Z" stroke="#522A9E" stroke-opacity="0.45"/>
<path d="M1384.06 380.378L1496.12 574.469L1608.18 380.378H1384.06Z" stroke="#522A9E" stroke-opacity="0.45"/>
<path d="M1608.2 380.378L1720.25 574.469L1832.31 380.378H1608.2Z" stroke="#522A9E" stroke-opacity="0.45"/>
</svg>
