<svg width="786" height="709" viewBox="0 0 786 709" fill="none" xmlns="http://www.w3.org/2000/svg">
<path d="M159.26 531.18C157.674 531.18 156.374 530.98 155.36 530.58C154.347 530.167 153.594 529.6 153.1 528.88C152.607 528.16 152.347 527.327 152.32 526.38H155.4C155.427 527.26 155.774 527.94 156.44 528.42C157.12 528.887 158.094 529.12 159.36 529.12C160.547 529.12 161.427 528.933 162 528.56C162.587 528.173 162.88 527.653 162.88 527C162.88 526.44 162.734 526.027 162.44 525.76C162.147 525.48 161.7 525.273 161.1 525.14C160.514 525.007 159.774 524.887 158.88 524.78C157.574 524.62 156.46 524.4 155.54 524.12C154.62 523.827 153.914 523.407 153.42 522.86C152.94 522.3 152.7 521.54 152.7 520.58C152.7 519.193 153.274 518.127 154.42 517.38C155.567 516.62 157.127 516.24 159.1 516.24C160.994 516.24 162.487 516.627 163.58 517.4C164.687 518.16 165.287 519.227 165.38 520.6H162.4C162.334 519.8 161.994 519.213 161.38 518.84C160.78 518.467 159.98 518.28 158.98 518.28C157.954 518.28 157.154 518.46 156.58 518.82C156.007 519.167 155.72 519.647 155.72 520.26C155.72 520.753 155.854 521.127 156.12 521.38C156.387 521.633 156.807 521.82 157.38 521.94C157.967 522.06 158.727 522.18 159.66 522.3C161.007 522.46 162.14 522.68 163.06 522.96C163.994 523.24 164.7 523.68 165.18 524.28C165.674 524.867 165.92 525.7 165.92 526.78C165.92 528.153 165.347 529.233 164.2 530.02C163.067 530.793 161.42 531.18 159.26 531.18ZM171.473 531C170.619 531 169.946 530.8 169.453 530.4C168.973 530 168.733 529.373 168.733 528.52V522.52H166.653V520.36H168.733V517.52L171.533 516.98V520.36H174.233V522.52H171.533V527.64C171.533 528 171.619 528.247 171.793 528.38C171.979 528.5 172.246 528.56 172.593 528.56H174.233V531H171.473ZM180.337 531.2C179.297 531.2 178.377 530.973 177.577 530.52C176.79 530.067 176.177 529.427 175.737 528.6C175.297 527.773 175.077 526.8 175.077 525.68C175.077 524.547 175.297 523.573 175.737 522.76C176.177 521.933 176.79 521.3 177.577 520.86C178.377 520.407 179.297 520.18 180.337 520.18C181.403 520.18 182.283 520.367 182.977 520.74C183.683 521.113 184.19 521.593 184.497 522.18H184.637L184.717 520.36H187.417V531H184.577V529.1H184.437C184.103 529.74 183.57 530.253 182.837 530.64C182.103 531.013 181.27 531.2 180.337 531.2ZM181.197 529.02C181.903 529.02 182.503 528.88 182.997 528.6C183.503 528.32 183.89 527.953 184.157 527.5C184.423 527.033 184.557 526.52 184.557 525.96V525.32C184.557 524.773 184.423 524.28 184.157 523.84C183.89 523.387 183.503 523.027 182.997 522.76C182.503 522.493 181.903 522.36 181.197 522.36C180.223 522.36 179.437 522.647 178.837 523.22C178.237 523.793 177.937 524.613 177.937 525.68C177.937 526.72 178.237 527.54 178.837 528.14C179.437 528.727 180.223 529.02 181.197 529.02ZM193.719 531C192.865 531 192.192 530.8 191.699 530.4C191.219 530 190.979 529.373 190.979 528.52V522.52H188.899V520.36H190.979V517.52L193.779 516.98V520.36H196.479V522.52H193.779V527.64C193.779 528 193.865 528.247 194.039 528.38C194.225 528.5 194.492 528.56 194.839 528.56H196.479V531H193.719ZM197.958 518.86V516.42H200.798V518.86H197.958ZM197.958 531V520.36H200.798V531H197.958ZM208.599 531.18C207.333 531.18 206.239 530.953 205.319 530.5C204.399 530.047 203.693 529.407 203.199 528.58C202.706 527.753 202.459 526.78 202.459 525.66C202.459 524.527 202.719 523.553 203.239 522.74C203.773 521.913 204.506 521.28 205.439 520.84C206.386 520.387 207.486 520.16 208.739 520.16C209.859 520.16 210.839 520.327 211.679 520.66C212.533 520.993 213.213 521.467 213.719 522.08C214.226 522.68 214.513 523.38 214.579 524.18H211.759C211.599 523.593 211.246 523.147 210.699 522.84C210.166 522.52 209.506 522.36 208.719 522.36C207.666 522.36 206.833 522.667 206.219 523.28C205.606 523.88 205.299 524.673 205.299 525.66C205.299 526.713 205.599 527.533 206.199 528.12C206.813 528.693 207.646 528.98 208.699 528.98C209.473 528.98 210.139 528.813 210.699 528.48C211.273 528.133 211.639 527.667 211.799 527.08H214.639C214.559 527.92 214.239 528.647 213.679 529.26C213.119 529.873 212.399 530.347 211.519 530.68C210.639 531.013 209.666 531.18 208.599 531.18ZM147.288 553L144.088 542.36H146.808L149.168 550.56H149.288L151.528 542.36H154.328L156.528 550.62H156.608L159.028 542.36H161.628L158.408 553H154.988L152.848 545.56H152.748L150.668 553H147.288ZM168.29 553.18C167.01 553.18 165.897 552.96 164.95 552.52C164.017 552.08 163.29 551.453 162.77 550.64C162.263 549.827 162.01 548.853 162.01 547.72C162.01 546.573 162.27 545.587 162.79 544.76C163.31 543.92 164.037 543.28 164.97 542.84C165.903 542.387 166.997 542.16 168.25 542.16C169.57 542.16 170.69 542.407 171.61 542.9C172.543 543.38 173.237 544.073 173.69 544.98C174.157 545.887 174.343 546.98 174.25 548.26H164.85C164.877 549.193 165.203 549.92 165.83 550.44C166.457 550.96 167.297 551.22 168.35 551.22C169.177 551.22 169.87 551.08 170.43 550.8C171.003 550.507 171.37 550.127 171.53 549.66H174.21C174.103 550.367 173.777 550.987 173.23 551.52C172.697 552.04 172.003 552.447 171.15 552.74C170.297 553.033 169.343 553.18 168.29 553.18ZM168.23 544.14C167.27 544.14 166.49 544.367 165.89 544.82C165.303 545.26 164.95 545.873 164.83 546.66H171.45C171.397 545.873 171.09 545.26 170.53 544.82C169.97 544.367 169.203 544.14 168.23 544.14ZM182.987 553.16C181.934 553.16 181.054 552.98 180.347 552.62C179.654 552.247 179.147 551.76 178.827 551.16H178.707L178.607 553H175.927V538.42H178.767V544.26H178.887C179.221 543.607 179.754 543.093 180.487 542.72C181.234 542.347 182.067 542.16 182.987 542.16C184.041 542.16 184.961 542.387 185.747 542.84C186.534 543.293 187.147 543.933 187.587 544.76C188.027 545.573 188.247 546.54 188.247 547.66C188.247 548.78 188.027 549.753 187.587 550.58C187.147 551.407 186.534 552.047 185.747 552.5C184.961 552.94 184.041 553.16 182.987 553.16ZM182.147 551C183.121 551 183.901 550.713 184.487 550.14C185.087 549.553 185.387 548.727 185.387 547.66C185.387 546.633 185.094 545.827 184.507 545.24C183.921 544.64 183.134 544.34 182.147 544.34C181.441 544.34 180.834 544.48 180.327 544.76C179.821 545.027 179.434 545.393 179.167 545.86C178.901 546.313 178.767 546.82 178.767 547.38V548.02C178.767 548.553 178.901 549.047 179.167 549.5C179.434 549.953 179.821 550.32 180.327 550.6C180.834 550.867 181.441 551 182.147 551ZM194.813 553.2C193.04 553.2 191.68 552.88 190.733 552.24C189.787 551.6 189.28 550.733 189.213 549.64H191.993C192.073 550.84 193.04 551.44 194.893 551.44C195.707 551.44 196.347 551.333 196.813 551.12C197.28 550.893 197.513 550.54 197.513 550.06C197.513 549.7 197.427 549.433 197.253 549.26C197.08 549.073 196.787 548.933 196.373 548.84C195.96 548.747 195.387 548.667 194.653 548.6C193.44 548.48 192.46 548.313 191.713 548.1C190.967 547.873 190.42 547.553 190.073 547.14C189.74 546.727 189.573 546.173 189.573 545.48C189.573 544.467 190.033 543.66 190.953 543.06C191.887 542.46 193.18 542.16 194.833 542.16C196.367 542.16 197.587 542.453 198.493 543.04C199.4 543.627 199.9 544.46 199.993 545.54H197.293C197.24 544.98 196.987 544.567 196.533 544.3C196.08 544.033 195.507 543.9 194.813 543.9C194.08 543.9 193.48 544.013 193.013 544.24C192.56 544.453 192.333 544.793 192.333 545.26C192.333 545.727 192.56 546.04 193.013 546.2C193.467 546.36 194.207 546.493 195.233 546.6C196.46 546.707 197.447 546.873 198.193 547.1C198.94 547.313 199.48 547.64 199.813 548.08C200.147 548.507 200.313 549.107 200.313 549.88C200.313 550.88 199.86 551.687 198.953 552.3C198.06 552.9 196.68 553.2 194.813 553.2ZM201.845 540.86V538.42H204.685V540.86H201.845ZM201.845 553V542.36H204.685V553H201.845ZM210.906 553C210.053 553 209.379 552.8 208.886 552.4C208.406 552 208.166 551.373 208.166 550.52V544.52H206.086V542.36H208.166V539.52L210.966 538.98V542.36H213.666V544.52H210.966V549.64C210.966 550 211.053 550.247 211.226 550.38C211.413 550.5 211.679 550.56 212.026 550.56H213.666V553H210.906ZM220.79 553.18C219.51 553.18 218.397 552.96 217.45 552.52C216.517 552.08 215.79 551.453 215.27 550.64C214.763 549.827 214.51 548.853 214.51 547.72C214.51 546.573 214.77 545.587 215.29 544.76C215.81 543.92 216.537 543.28 217.47 542.84C218.403 542.387 219.497 542.16 220.75 542.16C222.07 542.16 223.19 542.407 224.11 542.9C225.043 543.38 225.737 544.073 226.19 544.98C226.657 545.887 226.843 546.98 226.75 548.26H217.35C217.377 549.193 217.703 549.92 218.33 550.44C218.957 550.96 219.797 551.22 220.85 551.22C221.677 551.22 222.37 551.08 222.93 550.8C223.503 550.507 223.87 550.127 224.03 549.66H226.71C226.603 550.367 226.277 550.987 225.73 551.52C225.197 552.04 224.503 552.447 223.65 552.74C222.797 553.033 221.843 553.18 220.79 553.18ZM220.73 544.14C219.77 544.14 218.99 544.367 218.39 544.82C217.803 545.26 217.45 545.873 217.33 546.66H223.95C223.897 545.873 223.59 545.26 223.03 544.82C222.47 544.367 221.703 544.14 220.73 544.14Z" fill="white"/>
<path opacity="0.75" d="M563.689 543V531.336H568.889C570.169 531.336 571.251 531.581 572.137 532.072C573.033 532.552 573.715 533.229 574.185 534.104C574.654 534.979 574.889 536.003 574.889 537.176C574.889 538.392 574.643 539.437 574.153 540.312C573.673 541.176 572.985 541.843 572.089 542.312C571.193 542.771 570.126 543 568.889 543H563.689ZM565.161 541.784H568.681C570.206 541.784 571.369 541.368 572.169 540.536C572.979 539.693 573.385 538.563 573.385 537.144C573.385 536.141 573.187 535.299 572.793 534.616C572.409 533.933 571.865 533.421 571.161 533.08C570.457 532.728 569.63 532.552 568.681 532.552H565.161V541.784ZM576.261 545.672V544.504H577.301C577.835 544.504 578.245 544.397 578.533 544.184C578.821 543.981 579.061 543.683 579.253 543.288L579.669 542.44L575.589 534.6H577.157L579.685 539.72L580.325 541.016H580.437L581.045 539.688L583.413 534.6H584.933L580.469 543.752C580.149 544.413 579.744 544.899 579.253 545.208C578.763 545.517 578.139 545.672 577.381 545.672H576.261ZM586.014 543V534.6H587.422L587.454 536.456H587.55C587.87 535.816 588.35 535.325 588.99 534.984C589.641 534.643 590.345 534.472 591.102 534.472C591.817 534.472 592.446 534.6 592.99 534.856C593.545 535.101 593.977 535.512 594.286 536.088C594.606 536.653 594.766 537.421 594.766 538.392V543H593.326V538.648C593.326 537.603 593.108 536.835 592.67 536.344C592.233 535.853 591.572 535.608 590.686 535.608C590.046 535.608 589.481 535.747 588.99 536.024C588.51 536.291 588.132 536.669 587.854 537.16C587.588 537.64 587.454 538.2 587.454 538.84V543H586.014ZM600.338 543.144C599.506 543.144 598.776 542.968 598.146 542.616C597.517 542.253 597.026 541.747 596.674 541.096C596.322 540.445 596.146 539.683 596.146 538.808C596.146 537.912 596.322 537.139 596.674 536.488C597.026 535.837 597.517 535.341 598.146 535C598.776 534.648 599.506 534.472 600.338 534.472C601.224 534.472 601.97 534.643 602.578 534.984C603.197 535.315 603.634 535.752 603.89 536.296H603.97L604.018 534.6H605.378V543H603.954V541.192H603.874C603.608 541.779 603.154 542.253 602.514 542.616C601.885 542.968 601.16 543.144 600.338 543.144ZM600.706 542.008C601.389 542.008 601.97 541.875 602.45 541.608C602.941 541.331 603.314 540.973 603.57 540.536C603.826 540.099 603.954 539.624 603.954 539.112V538.376C603.954 537.885 603.826 537.432 603.57 537.016C603.314 536.589 602.941 536.248 602.45 535.992C601.97 535.736 601.389 535.608 600.706 535.608C599.778 535.608 599.026 535.885 598.45 536.44C597.874 536.995 597.586 537.784 597.586 538.808C597.586 539.779 597.869 540.557 598.434 541.144C599.01 541.72 599.768 542.008 600.706 542.008ZM607.28 543V534.6H608.688L608.736 536.328H608.816C609.093 535.731 609.52 535.272 610.096 534.952C610.672 534.632 611.317 534.472 612.032 534.472C612.821 534.472 613.488 534.659 614.032 535.032C614.576 535.395 614.949 535.912 615.152 536.584H615.28C615.589 535.88 616.043 535.352 616.64 535C617.237 534.648 617.92 534.472 618.688 534.472C619.797 534.472 620.651 534.781 621.248 535.4C621.856 536.008 622.16 536.963 622.16 538.264V543H620.704V538.44C620.704 537.555 620.528 536.861 620.176 536.36C619.824 535.859 619.195 535.608 618.288 535.608C617.424 535.608 616.731 535.885 616.208 536.44C615.696 536.984 615.44 537.704 615.44 538.6V543H614V538.6C614 536.605 613.195 535.608 611.584 535.608C610.677 535.608 609.973 535.885 609.472 536.44C608.981 536.995 608.736 537.715 608.736 538.6V543H607.28ZM624.03 533.224V531.336H625.47V533.224H624.03ZM624.03 543V534.6H625.47V543H624.03ZM631.662 543.144C630.702 543.144 629.87 542.968 629.166 542.616C628.473 542.264 627.934 541.763 627.55 541.112C627.177 540.461 626.99 539.693 626.99 538.808C626.99 537.923 627.187 537.16 627.582 536.52C627.977 535.869 628.531 535.368 629.246 535.016C629.961 534.653 630.793 534.472 631.742 534.472C632.563 534.472 633.289 534.595 633.918 534.84C634.558 535.085 635.07 535.432 635.454 535.88C635.849 536.317 636.083 536.835 636.158 537.432H634.734C634.563 536.835 634.206 536.387 633.662 536.088C633.129 535.779 632.489 535.624 631.742 535.624C630.729 535.624 629.918 535.917 629.31 536.504C628.713 537.091 628.414 537.859 628.414 538.808C628.414 539.789 628.702 540.563 629.278 541.128C629.865 541.693 630.675 541.976 631.71 541.976C632.489 541.976 633.155 541.8 633.71 541.448C634.275 541.085 634.627 540.616 634.766 540.04H636.222C636.137 540.659 635.881 541.203 635.454 541.672C635.038 542.141 634.499 542.504 633.838 542.76C633.177 543.016 632.451 543.144 631.662 543.144ZM572.74 560L569.988 551.6H571.38L573.684 558.736H573.732L575.956 551.6H577.38L579.604 558.752H579.652L581.956 551.6H583.3L580.532 560H578.788L576.66 553.312H576.58L574.468 560H572.74ZM588.578 560.144C587.608 560.144 586.765 559.968 586.05 559.616C585.336 559.264 584.781 558.763 584.386 558.112C584.002 557.461 583.81 556.699 583.81 555.824C583.81 554.939 584.002 554.171 584.386 553.52C584.781 552.869 585.33 552.368 586.034 552.016C586.738 551.653 587.57 551.472 588.53 551.472C589.512 551.472 590.354 551.653 591.058 552.016C591.762 552.379 592.29 552.901 592.642 553.584C592.994 554.267 593.138 555.088 593.074 556.048H585.234C585.266 557.008 585.581 557.749 586.178 558.272C586.786 558.795 587.597 559.056 588.61 559.056C589.4 559.056 590.061 558.912 590.594 558.624C591.138 558.325 591.485 557.931 591.634 557.44H593.01C592.914 557.984 592.658 558.459 592.242 558.864C591.837 559.269 591.32 559.584 590.69 559.808C590.061 560.032 589.357 560.144 588.578 560.144ZM588.514 552.544C587.565 552.544 586.802 552.779 586.226 553.248C585.661 553.717 585.336 554.352 585.25 555.152H591.634C591.613 554.309 591.32 553.664 590.754 553.216C590.189 552.768 589.442 552.544 588.514 552.544ZM599.625 560.144C598.75 560.144 598.003 559.973 597.385 559.632C596.766 559.291 596.329 558.853 596.073 558.32H596.009L595.945 560H594.585V548.336H596.025V553.408H596.105C596.371 552.811 596.819 552.336 597.449 551.984C598.089 551.632 598.814 551.456 599.625 551.456C600.467 551.456 601.203 551.637 601.833 552C602.462 552.352 602.953 552.853 603.305 553.504C603.657 554.155 603.833 554.923 603.833 555.808C603.833 556.693 603.657 557.461 603.305 558.112C602.953 558.763 602.462 559.264 601.833 559.616C601.203 559.968 600.467 560.144 599.625 560.144ZM599.273 558.992C600.201 558.992 600.953 558.715 601.529 558.16C602.105 557.605 602.393 556.821 602.393 555.808C602.393 554.827 602.105 554.048 601.529 553.472C600.963 552.885 600.211 552.592 599.273 552.592C598.59 552.592 598.003 552.725 597.513 552.992C597.033 553.259 596.665 553.616 596.409 554.064C596.153 554.501 596.025 554.976 596.025 555.488V556.224C596.025 556.715 596.153 557.173 596.409 557.6C596.665 558.016 597.033 558.352 597.513 558.608C598.003 558.864 598.59 558.992 599.273 558.992ZM609.063 560.16C607.751 560.16 606.727 559.909 605.991 559.408C605.255 558.896 604.876 558.219 604.855 557.376H606.279C606.29 557.941 606.54 558.389 607.031 558.72C607.532 559.04 608.22 559.2 609.095 559.2C609.884 559.2 610.514 559.088 610.983 558.864C611.463 558.629 611.703 558.267 611.703 557.776C611.703 557.413 611.618 557.136 611.447 556.944C611.276 556.752 610.994 556.608 610.599 556.512C610.204 556.405 609.66 556.32 608.967 556.256C607.644 556.128 606.679 555.899 606.071 555.568C605.463 555.237 605.159 554.683 605.159 553.904C605.159 553.147 605.506 552.549 606.199 552.112C606.903 551.664 607.847 551.44 609.031 551.44C610.236 551.44 611.164 551.675 611.815 552.144C612.466 552.613 612.828 553.259 612.903 554.08H611.527C611.474 553.493 611.218 553.072 610.759 552.816C610.3 552.549 609.724 552.416 609.031 552.416C608.316 552.416 607.724 552.528 607.255 552.752C606.796 552.965 606.567 553.317 606.567 553.808C606.567 554.267 606.775 554.587 607.191 554.768C607.607 554.949 608.284 555.088 609.223 555.184C610.14 555.269 610.882 555.392 611.447 555.552C612.023 555.712 612.444 555.957 612.711 556.288C612.988 556.608 613.127 557.067 613.127 557.664C613.127 558.411 612.791 559.013 612.119 559.472C611.447 559.931 610.428 560.16 609.063 560.16ZM614.569 550.224V548.336H616.009V550.224H614.569ZM614.569 560V551.6H616.009V560H614.569ZM620.889 560C620.281 560 619.806 559.861 619.465 559.584C619.134 559.307 618.969 558.88 618.969 558.304V552.72H617.193V551.6H618.969V549.152L620.377 548.864V551.6H622.633V552.72H620.377V557.888C620.377 558.219 620.462 558.443 620.633 558.56C620.804 558.677 621.054 558.736 621.385 558.736H622.633V560H620.889ZM628.094 560.144C627.123 560.144 626.281 559.968 625.566 559.616C624.851 559.264 624.297 558.763 623.902 558.112C623.518 557.461 623.326 556.699 623.326 555.824C623.326 554.939 623.518 554.171 623.902 553.52C624.297 552.869 624.846 552.368 625.55 552.016C626.254 551.653 627.086 551.472 628.046 551.472C629.027 551.472 629.87 551.653 630.574 552.016C631.278 552.379 631.806 552.901 632.158 553.584C632.51 554.267 632.654 555.088 632.59 556.048H624.75C624.782 557.008 625.097 557.749 625.694 558.272C626.302 558.795 627.113 559.056 628.126 559.056C628.915 559.056 629.577 558.912 630.11 558.624C630.654 558.325 631.001 557.931 631.15 557.44H632.526C632.43 557.984 632.174 558.459 631.758 558.864C631.353 559.269 630.835 559.584 630.206 559.808C629.577 560.032 628.873 560.144 628.094 560.144ZM628.03 552.544C627.081 552.544 626.318 552.779 625.742 553.248C625.177 553.717 624.851 554.352 624.766 555.152H631.15C631.129 554.309 630.835 553.664 630.27 553.216C629.705 552.768 628.958 552.544 628.03 552.544Z" fill="white"/>
<path opacity="0.75" d="M238.423 14V2.336H247.815V3.568H239.911V7.472H247.031V8.624H239.911V12.752H247.831V14H238.423ZM249.041 10.368V9.232H253.937V10.368H249.041ZM259.928 14.144C258.968 14.144 258.136 13.968 257.432 13.616C256.738 13.264 256.2 12.7627 255.816 12.112C255.442 11.4613 255.256 10.6933 255.256 9.808C255.256 8.92267 255.453 8.16 255.848 7.52C256.242 6.86933 256.797 6.368 257.512 6.016C258.226 5.65333 259.058 5.472 260.008 5.472C260.829 5.472 261.554 5.59467 262.184 5.84C262.824 6.08533 263.336 6.432 263.72 6.88C264.114 7.31733 264.349 7.83467 264.424 8.432H263C262.829 7.83467 262.472 7.38667 261.928 7.088C261.394 6.77867 260.754 6.624 260.008 6.624C258.994 6.624 258.184 6.91733 257.576 7.504C256.978 8.09067 256.68 8.85867 256.68 9.808C256.68 10.7893 256.968 11.5627 257.544 12.128C258.13 12.6933 258.941 12.976 259.976 12.976C260.754 12.976 261.421 12.8 261.976 12.448C262.541 12.0853 262.893 11.616 263.032 11.04H264.488C264.402 11.6587 264.146 12.2027 263.72 12.672C263.304 13.1413 262.765 13.504 262.104 13.76C261.442 14.016 260.717 14.144 259.928 14.144ZM270.353 14.16C269.393 14.16 268.55 13.984 267.825 13.632C267.11 13.28 266.55 12.7787 266.145 12.128C265.75 11.4773 265.553 10.7093 265.553 9.824C265.553 8.928 265.75 8.15467 266.145 7.504C266.55 6.85333 267.11 6.352 267.825 6C268.55 5.648 269.393 5.472 270.353 5.472C271.313 5.472 272.155 5.648 272.881 6C273.606 6.352 274.166 6.85333 274.561 7.504C274.966 8.15467 275.169 8.928 275.169 9.824C275.169 10.6987 274.966 11.4613 274.561 12.112C274.166 12.7627 273.606 13.2693 272.881 13.632C272.166 13.984 271.323 14.16 270.353 14.16ZM270.353 12.992C271.387 12.992 272.209 12.7093 272.817 12.144C273.425 11.568 273.729 10.7947 273.729 9.824C273.729 8.84267 273.425 8.064 272.817 7.488C272.209 6.912 271.387 6.624 270.353 6.624C269.329 6.624 268.513 6.912 267.905 7.488C267.297 8.064 266.993 8.84267 266.993 9.824C266.993 10.784 267.291 11.552 267.889 12.128C268.497 12.704 269.318 12.992 270.353 12.992ZM276.671 14V5.6H278.079L278.127 7.328H278.207C278.484 6.73067 278.911 6.272 279.487 5.952C280.063 5.632 280.708 5.472 281.423 5.472C282.212 5.472 282.879 5.65867 283.423 6.032C283.967 6.39467 284.34 6.912 284.543 7.584H284.671C284.98 6.88 285.433 6.352 286.031 6C286.628 5.648 287.311 5.472 288.079 5.472C289.188 5.472 290.041 5.78133 290.639 6.4C291.247 7.008 291.551 7.96267 291.551 9.264V14H290.095V9.44C290.095 8.55467 289.919 7.86133 289.567 7.36C289.215 6.85867 288.585 6.608 287.679 6.608C286.815 6.608 286.121 6.88533 285.599 7.44C285.087 7.984 284.831 8.704 284.831 9.6V14H283.391V9.6C283.391 7.60533 282.585 6.608 280.975 6.608C280.068 6.608 279.364 6.88533 278.863 7.44C278.372 7.99467 278.127 8.71467 278.127 9.6V14H276.671ZM293.421 14V5.6H294.829L294.877 7.328H294.957C295.234 6.73067 295.661 6.272 296.237 5.952C296.813 5.632 297.458 5.472 298.173 5.472C298.962 5.472 299.629 5.65867 300.173 6.032C300.717 6.39467 301.09 6.912 301.293 7.584H301.421C301.73 6.88 302.183 6.352 302.781 6C303.378 5.648 304.061 5.472 304.829 5.472C305.938 5.472 306.791 5.78133 307.389 6.4C307.997 7.008 308.301 7.96267 308.301 9.264V14H306.845V9.44C306.845 8.55467 306.669 7.86133 306.317 7.36C305.965 6.85867 305.335 6.608 304.429 6.608C303.565 6.608 302.871 6.88533 302.349 7.44C301.837 7.984 301.581 8.704 301.581 9.6V14H300.141V9.6C300.141 7.60533 299.335 6.608 297.725 6.608C296.818 6.608 296.114 6.88533 295.613 7.44C295.122 7.99467 294.877 8.71467 294.877 9.6V14H293.421ZM314.43 14.144C313.459 14.144 312.617 13.968 311.902 13.616C311.187 13.264 310.633 12.7627 310.238 12.112C309.854 11.4613 309.662 10.6987 309.662 9.824C309.662 8.93867 309.854 8.17067 310.238 7.52C310.633 6.86933 311.182 6.368 311.886 6.016C312.59 5.65333 313.422 5.472 314.382 5.472C315.363 5.472 316.206 5.65333 316.91 6.016C317.614 6.37867 318.142 6.90133 318.494 7.584C318.846 8.26667 318.99 9.088 318.926 10.048H311.086C311.118 11.008 311.433 11.7493 312.03 12.272C312.638 12.7947 313.449 13.056 314.462 13.056C315.251 13.056 315.913 12.912 316.446 12.624C316.99 12.3253 317.337 11.9307 317.486 11.44H318.862C318.766 11.984 318.51 12.4587 318.094 12.864C317.689 13.2693 317.171 13.584 316.542 13.808C315.913 14.032 315.209 14.144 314.43 14.144ZM314.366 6.544C313.417 6.544 312.654 6.77867 312.078 7.248C311.513 7.71733 311.187 8.352 311.102 9.152H317.486C317.465 8.30933 317.171 7.664 316.606 7.216C316.041 6.768 315.294 6.544 314.366 6.544ZM320.436 14V5.6H321.732L321.812 7.152H321.86C322.042 6.64 322.356 6.23467 322.804 5.936C323.252 5.63733 323.77 5.488 324.356 5.488C324.698 5.488 324.964 5.51467 325.156 5.568V6.896C325.05 6.85333 324.922 6.82667 324.772 6.816C324.634 6.79467 324.49 6.784 324.34 6.784C323.658 6.784 323.087 6.98133 322.628 7.376C322.17 7.77067 321.914 8.36267 321.86 9.152V14H320.436ZM330.178 14.144C329.218 14.144 328.386 13.968 327.682 13.616C326.988 13.264 326.45 12.7627 326.066 12.112C325.692 11.4613 325.506 10.6933 325.506 9.808C325.506 8.92267 325.703 8.16 326.098 7.52C326.492 6.86933 327.047 6.368 327.762 6.016C328.476 5.65333 329.308 5.472 330.258 5.472C331.079 5.472 331.804 5.59467 332.434 5.84C333.074 6.08533 333.586 6.432 333.97 6.88C334.364 7.31733 334.599 7.83467 334.674 8.432H333.25C333.079 7.83467 332.722 7.38667 332.178 7.088C331.644 6.77867 331.004 6.624 330.258 6.624C329.244 6.624 328.434 6.91733 327.826 7.504C327.228 8.09067 326.93 8.85867 326.93 9.808C326.93 10.7893 327.218 11.5627 327.794 12.128C328.38 12.6933 329.191 12.976 330.226 12.976C331.004 12.976 331.671 12.8 332.226 12.448C332.791 12.0853 333.143 11.616 333.282 11.04H334.738C334.652 11.6587 334.396 12.2027 333.97 12.672C333.554 13.1413 333.015 13.504 332.354 13.76C331.692 14.016 330.967 14.144 330.178 14.144ZM340.571 14.144C339.6 14.144 338.757 13.968 338.043 13.616C337.328 13.264 336.773 12.7627 336.379 12.112C335.995 11.4613 335.803 10.6987 335.803 9.824C335.803 8.93867 335.995 8.17067 336.379 7.52C336.773 6.86933 337.323 6.368 338.027 6.016C338.731 5.65333 339.563 5.472 340.523 5.472C341.504 5.472 342.347 5.65333 343.051 6.016C343.755 6.37867 344.283 6.90133 344.635 7.584C344.987 8.26667 345.131 9.088 345.067 10.048H337.227C337.259 11.008 337.573 11.7493 338.171 12.272C338.779 12.7947 339.589 13.056 340.603 13.056C341.392 13.056 342.053 12.912 342.587 12.624C343.131 12.3253 343.477 11.9307 343.627 11.44H345.003C344.907 11.984 344.651 12.4587 344.235 12.864C343.829 13.2693 343.312 13.584 342.683 13.808C342.053 14.032 341.349 14.144 340.571 14.144ZM340.507 6.544C339.557 6.544 338.795 6.77867 338.219 7.248C337.653 7.71733 337.328 8.352 337.243 9.152H343.627C343.605 8.30933 343.312 7.664 342.747 7.216C342.181 6.768 341.435 6.544 340.507 6.544ZM270.91 31.144C269.694 31.144 268.697 30.984 267.918 30.664C267.15 30.344 266.574 29.9013 266.19 29.336C265.817 28.76 265.609 28.0987 265.566 27.352H267.134C267.187 28.248 267.539 28.92 268.19 29.368C268.841 29.816 269.763 30.04 270.958 30.04C272.131 30.04 273.001 29.848 273.566 29.464C274.142 29.08 274.43 28.5467 274.43 27.864C274.43 27.2987 274.275 26.8773 273.966 26.6C273.667 26.312 273.235 26.104 272.67 25.976C272.115 25.8373 271.449 25.72 270.67 25.624C269.966 25.528 269.321 25.4213 268.734 25.304C268.158 25.176 267.657 25 267.23 24.776C266.814 24.552 266.489 24.2533 266.254 23.88C266.019 23.5067 265.902 23.0267 265.902 22.44C265.902 21.7467 266.099 21.16 266.494 20.68C266.899 20.2 267.459 19.8373 268.174 19.592C268.899 19.336 269.747 19.208 270.718 19.208C272.222 19.208 273.385 19.512 274.206 20.12C275.027 20.728 275.465 21.5547 275.518 22.6H273.998C273.955 21.8107 273.641 21.2293 273.054 20.856C272.467 20.4827 271.667 20.296 270.654 20.296C269.63 20.296 268.835 20.4773 268.27 20.84C267.705 21.192 267.422 21.672 267.422 22.28C267.422 22.8027 267.561 23.192 267.838 23.448C268.115 23.704 268.526 23.8907 269.07 24.008C269.614 24.1253 270.281 24.2373 271.07 24.344C271.785 24.4293 272.441 24.536 273.038 24.664C273.635 24.792 274.153 24.9733 274.59 25.208C275.027 25.4427 275.363 25.768 275.598 26.184C275.843 26.5893 275.966 27.1173 275.966 27.768C275.966 28.8027 275.534 29.624 274.67 30.232C273.817 30.84 272.563 31.144 270.91 31.144ZM280.241 31C279.633 31 279.158 30.8613 278.817 30.584C278.486 30.3067 278.321 29.88 278.321 29.304V23.72H276.545V22.6H278.321V20.152L279.729 19.864V22.6H281.985V23.72H279.729V28.888C279.729 29.2187 279.814 29.4427 279.985 29.56C280.155 29.6773 280.406 29.736 280.737 29.736H281.985V31H280.241ZM287.478 31.16C286.518 31.16 285.675 30.984 284.95 30.632C284.235 30.28 283.675 29.7787 283.27 29.128C282.875 28.4773 282.678 27.7093 282.678 26.824C282.678 25.928 282.875 25.1547 283.27 24.504C283.675 23.8533 284.235 23.352 284.95 23C285.675 22.648 286.518 22.472 287.478 22.472C288.438 22.472 289.28 22.648 290.006 23C290.731 23.352 291.291 23.8533 291.686 24.504C292.091 25.1547 292.294 25.928 292.294 26.824C292.294 27.6987 292.091 28.4613 291.686 29.112C291.291 29.7627 290.731 30.2693 290.006 30.632C289.291 30.984 288.448 31.16 287.478 31.16ZM287.478 29.992C288.512 29.992 289.334 29.7093 289.942 29.144C290.55 28.568 290.854 27.7947 290.854 26.824C290.854 25.8427 290.55 25.064 289.942 24.488C289.334 23.912 288.512 23.624 287.478 23.624C286.454 23.624 285.638 23.912 285.03 24.488C284.422 25.064 284.118 25.8427 284.118 26.824C284.118 27.784 284.416 28.552 285.014 29.128C285.622 29.704 286.443 29.992 287.478 29.992ZM293.796 31V22.6H295.092L295.172 24.152H295.22C295.401 23.64 295.716 23.2347 296.164 22.936C296.612 22.6373 297.129 22.488 297.716 22.488C298.057 22.488 298.324 22.5147 298.516 22.568V23.896C298.409 23.8533 298.281 23.8267 298.132 23.816C297.993 23.7947 297.849 23.784 297.7 23.784C297.017 23.784 296.446 23.9813 295.988 24.376C295.529 24.7707 295.273 25.3627 295.22 26.152V31H293.796ZM303.633 31.144C302.662 31.144 301.82 30.968 301.105 30.616C300.39 30.264 299.836 29.7627 299.441 29.112C299.057 28.4613 298.865 27.6987 298.865 26.824C298.865 25.9387 299.057 25.1707 299.441 24.52C299.836 23.8693 300.385 23.368 301.089 23.016C301.793 22.6533 302.625 22.472 303.585 22.472C304.566 22.472 305.409 22.6533 306.113 23.016C306.817 23.3787 307.345 23.9013 307.697 24.584C308.049 25.2667 308.193 26.088 308.129 27.048H300.289C300.321 28.008 300.636 28.7493 301.233 29.272C301.841 29.7947 302.652 30.056 303.665 30.056C304.454 30.056 305.116 29.912 305.649 29.624C306.193 29.3253 306.54 28.9307 306.689 28.44H308.065C307.969 28.984 307.713 29.4587 307.297 29.864C306.892 30.2693 306.374 30.584 305.745 30.808C305.116 31.032 304.412 31.144 303.633 31.144ZM303.569 23.544C302.62 23.544 301.857 23.7787 301.281 24.248C300.716 24.7173 300.39 25.352 300.305 26.152H306.689C306.668 25.3093 306.374 24.664 305.809 24.216C305.244 23.768 304.497 23.544 303.569 23.544ZM313.352 31.16C312.04 31.16 311.016 30.9093 310.28 30.408C309.544 29.896 309.165 29.2187 309.144 28.376H310.568C310.579 28.9413 310.829 29.3893 311.32 29.72C311.821 30.04 312.509 30.2 313.384 30.2C314.173 30.2 314.803 30.088 315.272 29.864C315.752 29.6293 315.992 29.2667 315.992 28.776C315.992 28.4133 315.907 28.136 315.736 27.944C315.565 27.752 315.283 27.608 314.888 27.512C314.493 27.4053 313.949 27.32 313.256 27.256C311.933 27.128 310.968 26.8987 310.36 26.568C309.752 26.2373 309.448 25.6827 309.448 24.904C309.448 24.1467 309.795 23.5493 310.488 23.112C311.192 22.664 312.136 22.44 313.32 22.44C314.525 22.44 315.453 22.6747 316.104 23.144C316.755 23.6133 317.117 24.2587 317.192 25.08H315.816C315.763 24.4933 315.507 24.072 315.048 23.816C314.589 23.5493 314.013 23.416 313.32 23.416C312.605 23.416 312.013 23.528 311.544 23.752C311.085 23.9653 310.856 24.3173 310.856 24.808C310.856 25.2667 311.064 25.5867 311.48 25.768C311.896 25.9493 312.573 26.088 313.512 26.184C314.429 26.2693 315.171 26.392 315.736 26.552C316.312 26.712 316.733 26.9573 317 27.288C317.277 27.608 317.416 28.0667 317.416 28.664C317.416 29.4107 317.08 30.0133 316.408 30.472C315.736 30.9307 314.717 31.16 313.352 31.16Z" fill="white"/>
<path opacity="0.75" d="M416.669 19.144C415.378 19.144 414.263 18.8933 413.325 18.392C412.386 17.8907 411.661 17.192 411.149 16.296C410.637 15.4 410.381 14.36 410.381 13.176C410.381 11.9813 410.637 10.936 411.149 10.04C411.661 9.144 412.386 8.45067 413.325 7.96C414.274 7.45867 415.389 7.208 416.669 7.208C417.735 7.208 418.679 7.37333 419.501 7.704C420.322 8.03467 420.989 8.49867 421.501 9.096C422.023 9.69333 422.354 10.3973 422.493 11.208H420.989C420.871 10.6427 420.61 10.152 420.205 9.736C419.81 9.32 419.309 9 418.701 8.776C418.103 8.552 417.426 8.44 416.669 8.44C415.687 8.44 414.834 8.632 414.109 9.016C413.394 9.4 412.845 9.944 412.461 10.648C412.077 11.352 411.885 12.1947 411.885 13.176C411.885 14.1467 412.077 14.9893 412.461 15.704C412.845 16.408 413.394 16.952 414.109 17.336C414.834 17.7093 415.687 17.896 416.669 17.896C417.842 17.896 418.813 17.64 419.581 17.128C420.359 16.616 420.834 15.9387 421.005 15.096L422.493 15.112C422.375 15.9227 422.055 16.632 421.533 17.24C421.01 17.848 420.327 18.3173 419.485 18.648C418.653 18.9787 417.714 19.144 416.669 19.144ZM428.399 19.16C427.439 19.16 426.597 18.984 425.871 18.632C425.157 18.28 424.597 17.7787 424.191 17.128C423.797 16.4773 423.599 15.7093 423.599 14.824C423.599 13.928 423.797 13.1547 424.191 12.504C424.597 11.8533 425.157 11.352 425.871 11C426.597 10.648 427.439 10.472 428.399 10.472C429.359 10.472 430.202 10.648 430.927 11C431.653 11.352 432.213 11.8533 432.607 12.504C433.013 13.1547 433.215 13.928 433.215 14.824C433.215 15.6987 433.013 16.4613 432.607 17.112C432.213 17.7627 431.653 18.2693 430.927 18.632C430.213 18.984 429.37 19.16 428.399 19.16ZM428.399 17.992C429.434 17.992 430.255 17.7093 430.863 17.144C431.471 16.568 431.775 15.7947 431.775 14.824C431.775 13.8427 431.471 13.064 430.863 12.488C430.255 11.912 429.434 11.624 428.399 11.624C427.375 11.624 426.559 11.912 425.951 12.488C425.343 13.064 425.039 13.8427 425.039 14.824C425.039 15.784 425.338 16.552 425.935 17.128C426.543 17.704 427.365 17.992 428.399 17.992ZM434.717 19V10.6H436.013L436.093 12.152H436.141C436.323 11.64 436.637 11.2347 437.085 10.936C437.533 10.6373 438.051 10.488 438.637 10.488C438.979 10.488 439.245 10.5147 439.437 10.568V11.896C439.331 11.8533 439.203 11.8267 439.053 11.816C438.915 11.7947 438.771 11.784 438.621 11.784C437.939 11.784 437.368 11.9813 436.909 12.376C436.451 12.7707 436.195 13.3627 436.141 14.152V19H434.717ZM440.514 21.672V10.6H441.874L441.938 12.296H442.002C442.258 11.752 442.69 11.3147 443.298 10.984C443.917 10.6427 444.674 10.472 445.57 10.472C446.402 10.472 447.133 10.648 447.762 11C448.392 11.3413 448.882 11.8373 449.234 12.488C449.586 13.1387 449.762 13.912 449.762 14.808C449.762 15.6827 449.586 16.4453 449.234 17.096C448.882 17.7467 448.392 18.2533 447.762 18.616C447.133 18.968 446.397 19.144 445.554 19.144C444.744 19.144 444.018 18.968 443.378 18.616C442.749 18.264 442.301 17.7893 442.034 17.192H441.954V21.672H440.514ZM445.202 18.008C446.141 18.008 446.893 17.72 447.458 17.144C448.034 16.5573 448.322 15.7787 448.322 14.808C448.322 13.784 448.034 12.9947 447.458 12.44C446.882 11.8853 446.13 11.608 445.202 11.608C444.52 11.608 443.933 11.736 443.442 11.992C442.962 12.248 442.594 12.5893 442.338 13.016C442.082 13.432 441.954 13.8853 441.954 14.376V15.112C441.954 15.624 442.082 16.0987 442.338 16.536C442.594 16.9733 442.962 17.3307 443.442 17.608C443.933 17.8747 444.52 18.008 445.202 18.008ZM455.712 19.16C454.752 19.16 453.909 18.984 453.184 18.632C452.469 18.28 451.909 17.7787 451.504 17.128C451.109 16.4773 450.912 15.7093 450.912 14.824C450.912 13.928 451.109 13.1547 451.504 12.504C451.909 11.8533 452.469 11.352 453.184 11C453.909 10.648 454.752 10.472 455.712 10.472C456.672 10.472 457.515 10.648 458.24 11C458.965 11.352 459.525 11.8533 459.92 12.504C460.325 13.1547 460.528 13.928 460.528 14.824C460.528 15.6987 460.325 16.4613 459.92 17.112C459.525 17.7627 458.965 18.2693 458.24 18.632C457.525 18.984 456.683 19.16 455.712 19.16ZM455.712 17.992C456.747 17.992 457.568 17.7093 458.176 17.144C458.784 16.568 459.088 15.7947 459.088 14.824C459.088 13.8427 458.784 13.064 458.176 12.488C457.568 11.912 456.747 11.624 455.712 11.624C454.688 11.624 453.872 11.912 453.264 12.488C452.656 13.064 452.352 13.8427 452.352 14.824C452.352 15.784 452.651 16.552 453.248 17.128C453.856 17.704 454.677 17.992 455.712 17.992ZM462.03 19V10.6H463.326L463.406 12.152H463.454C463.635 11.64 463.95 11.2347 464.398 10.936C464.846 10.6373 465.363 10.488 465.95 10.488C466.291 10.488 466.558 10.5147 466.75 10.568V11.896C466.643 11.8533 466.515 11.8267 466.366 11.816C466.227 11.7947 466.083 11.784 465.934 11.784C465.251 11.784 464.681 11.9813 464.222 12.376C463.763 12.7707 463.507 13.3627 463.454 14.152V19H462.03ZM471.291 19.144C470.459 19.144 469.729 18.968 469.099 18.616C468.47 18.2533 467.979 17.7467 467.627 17.096C467.275 16.4453 467.099 15.6827 467.099 14.808C467.099 13.912 467.275 13.1387 467.627 12.488C467.979 11.8373 468.47 11.3413 469.099 11C469.729 10.648 470.459 10.472 471.291 10.472C472.177 10.472 472.923 10.6427 473.531 10.984C474.15 11.3147 474.587 11.752 474.843 12.296H474.923L474.971 10.6H476.331V19H474.907V17.192H474.827C474.561 17.7787 474.107 18.2533 473.467 18.616C472.838 18.968 472.113 19.144 471.291 19.144ZM471.659 18.008C472.342 18.008 472.923 17.8747 473.403 17.608C473.894 17.3307 474.267 16.9733 474.523 16.536C474.779 16.0987 474.907 15.624 474.907 15.112V14.376C474.907 13.8853 474.779 13.432 474.523 13.016C474.267 12.5893 473.894 12.248 473.403 11.992C472.923 11.736 472.342 11.608 471.659 11.608C470.731 11.608 469.979 11.8853 469.403 12.44C468.827 12.9947 468.539 13.784 468.539 14.808C468.539 15.7787 468.822 16.5573 469.387 17.144C469.963 17.72 470.721 18.008 471.659 18.008ZM481.272 19C480.664 19 480.189 18.8613 479.848 18.584C479.517 18.3067 479.352 17.88 479.352 17.304V11.72H477.576V10.6H479.352V8.152L480.76 7.864V10.6H483.016V11.72H480.76V16.888C480.76 17.2187 480.845 17.4427 481.016 17.56C481.187 17.6773 481.437 17.736 481.768 17.736H483.016V19H481.272ZM488.477 19.144C487.506 19.144 486.663 18.968 485.949 18.616C485.234 18.264 484.679 17.7627 484.285 17.112C483.901 16.4613 483.709 15.6987 483.709 14.824C483.709 13.9387 483.901 13.1707 484.285 12.52C484.679 11.8693 485.229 11.368 485.933 11.016C486.637 10.6533 487.469 10.472 488.429 10.472C489.41 10.472 490.253 10.6533 490.957 11.016C491.661 11.3787 492.189 11.9013 492.541 12.584C492.893 13.2667 493.037 14.088 492.973 15.048H485.133C485.165 16.008 485.479 16.7493 486.077 17.272C486.685 17.7947 487.495 18.056 488.509 18.056C489.298 18.056 489.959 17.912 490.493 17.624C491.037 17.3253 491.383 16.9307 491.533 16.44H492.909C492.813 16.984 492.557 17.4587 492.141 17.864C491.735 18.2693 491.218 18.584 490.589 18.808C489.959 19.032 489.255 19.144 488.477 19.144ZM488.413 11.544C487.463 11.544 486.701 11.7787 486.125 12.248C485.559 12.7173 485.234 13.352 485.149 14.152H491.533C491.511 13.3093 491.218 12.664 490.653 12.216C490.087 11.768 489.341 11.544 488.413 11.544ZM437.283 36V24.336H438.771V29.472H446.963V24.336H448.451V36H446.963V30.704H438.771V36H437.283ZM454.036 36.144C453.321 36.144 452.686 36.0213 452.132 35.776C451.577 35.52 451.145 35.104 450.836 34.528C450.526 33.952 450.372 33.1893 450.372 32.24V27.6H451.796V31.984C451.796 33.008 452.014 33.7653 452.452 34.256C452.889 34.7467 453.556 34.992 454.452 34.992C455.092 34.992 455.652 34.8587 456.132 34.592C456.622 34.3147 457.001 33.936 457.268 33.456C457.545 32.9653 457.684 32.4 457.684 31.76V27.6H459.108V36H457.732L457.684 34.16H457.588C457.278 34.7787 456.804 35.264 456.164 35.616C455.534 35.968 454.825 36.144 454.036 36.144ZM465.992 36.144C465.117 36.144 464.37 35.9733 463.752 35.632C463.133 35.2907 462.696 34.8533 462.44 34.32H462.376L462.312 36H460.952V24.336H462.392V29.408H462.472C462.738 28.8107 463.186 28.336 463.816 27.984C464.456 27.632 465.181 27.456 465.992 27.456C466.834 27.456 467.57 27.6373 468.2 28C468.829 28.352 469.32 28.8533 469.672 29.504C470.024 30.1547 470.2 30.9227 470.2 31.808C470.2 32.6933 470.024 33.4613 469.672 34.112C469.32 34.7627 468.829 35.264 468.2 35.616C467.57 35.968 466.834 36.144 465.992 36.144ZM465.64 34.992C466.568 34.992 467.32 34.7147 467.896 34.16C468.472 33.6053 468.76 32.8213 468.76 31.808C468.76 30.8267 468.472 30.048 467.896 29.472C467.33 28.8853 466.578 28.592 465.64 28.592C464.957 28.592 464.37 28.7253 463.88 28.992C463.4 29.2587 463.032 29.616 462.776 30.064C462.52 30.5013 462.392 30.976 462.392 31.488V32.224C462.392 32.7147 462.52 33.1733 462.776 33.6C463.032 34.016 463.4 34.352 463.88 34.608C464.37 34.864 464.957 34.992 465.64 34.992Z" fill="white"/>
<path opacity="0.75" d="M552.892 31V19.336H558.588C559.985 19.336 561.047 19.656 561.772 20.296C562.497 20.936 562.86 21.8267 562.86 22.968C562.86 24.1307 562.476 25.032 561.708 25.672C560.94 26.3013 559.895 26.6107 558.572 26.6H554.38V31H552.892ZM558.428 20.552H554.38V25.464H558.428C559.409 25.464 560.14 25.24 560.62 24.792C561.1 24.344 561.34 23.7467 561.34 23C561.34 22.2107 561.089 21.608 560.588 21.192C560.087 20.7653 559.367 20.552 558.428 20.552ZM568.274 31.16C567.314 31.16 566.472 30.984 565.746 30.632C565.032 30.28 564.472 29.7787 564.066 29.128C563.672 28.4773 563.474 27.7093 563.474 26.824C563.474 25.928 563.672 25.1547 564.066 24.504C564.472 23.8533 565.032 23.352 565.746 23C566.472 22.648 567.314 22.472 568.274 22.472C569.234 22.472 570.077 22.648 570.802 23C571.528 23.352 572.088 23.8533 572.482 24.504C572.888 25.1547 573.09 25.928 573.09 26.824C573.09 27.6987 572.888 28.4613 572.482 29.112C572.088 29.7627 571.528 30.2693 570.802 30.632C570.088 30.984 569.245 31.16 568.274 31.16ZM568.274 29.992C569.309 29.992 570.13 29.7093 570.738 29.144C571.346 28.568 571.65 27.7947 571.65 26.824C571.65 25.8427 571.346 25.064 570.738 24.488C570.13 23.912 569.309 23.624 568.274 23.624C567.25 23.624 566.434 23.912 565.826 24.488C565.218 25.064 564.914 25.8427 564.914 26.824C564.914 27.784 565.213 28.552 565.81 29.128C566.418 29.704 567.24 29.992 568.274 29.992ZM574.592 31V22.6H575.888L575.968 24.152H576.016C576.198 23.64 576.512 23.2347 576.96 22.936C577.408 22.6373 577.926 22.488 578.512 22.488C578.854 22.488 579.12 22.5147 579.312 22.568V23.896C579.206 23.8533 579.078 23.8267 578.928 23.816C578.79 23.7947 578.646 23.784 578.496 23.784C577.814 23.784 577.243 23.9813 576.784 24.376C576.326 24.7707 576.07 25.3627 576.016 26.152V31H574.592ZM583.788 31C583.18 31 582.705 30.8613 582.364 30.584C582.033 30.3067 581.868 29.88 581.868 29.304V23.72H580.092V22.6H581.868V20.152L583.276 19.864V22.6H585.532V23.72H583.276V28.888C583.276 29.2187 583.361 29.4427 583.532 29.56C583.702 29.6773 583.953 29.736 584.284 29.736H585.532V31H583.788ZM587.645 31V23.72H585.997V22.6H587.645V21.56C587.645 20.8027 587.858 20.2427 588.285 19.88C588.722 19.5173 589.33 19.336 590.109 19.336H591.245V20.36H590.333C589.896 20.36 589.576 20.4667 589.373 20.68C589.17 20.8827 589.069 21.2027 589.069 21.64V22.6H591.165V23.72H589.069V31H587.645ZM596.384 31.16C595.424 31.16 594.581 30.984 593.856 30.632C593.141 30.28 592.581 29.7787 592.176 29.128C591.781 28.4773 591.584 27.7093 591.584 26.824C591.584 25.928 591.781 25.1547 592.176 24.504C592.581 23.8533 593.141 23.352 593.856 23C594.581 22.648 595.424 22.472 596.384 22.472C597.344 22.472 598.186 22.648 598.912 23C599.637 23.352 600.197 23.8533 600.592 24.504C600.997 25.1547 601.2 25.928 601.2 26.824C601.2 27.6987 600.997 28.4613 600.592 29.112C600.197 29.7627 599.637 30.2693 598.912 30.632C598.197 30.984 597.354 31.16 596.384 31.16ZM596.384 29.992C597.418 29.992 598.24 29.7093 598.848 29.144C599.456 28.568 599.76 27.7947 599.76 26.824C599.76 25.8427 599.456 25.064 598.848 24.488C598.24 23.912 597.418 23.624 596.384 23.624C595.36 23.624 594.544 23.912 593.936 24.488C593.328 25.064 593.024 25.8427 593.024 26.824C593.024 27.784 593.322 28.552 593.92 29.128C594.528 29.704 595.349 29.992 596.384 29.992ZM602.702 31V19.336H604.142V31H602.702ZM606.03 21.224V19.336H607.47V21.224H606.03ZM606.03 31V22.6H607.47V31H606.03ZM613.79 31.16C612.83 31.16 611.987 30.984 611.262 30.632C610.547 30.28 609.987 29.7787 609.582 29.128C609.187 28.4773 608.99 27.7093 608.99 26.824C608.99 25.928 609.187 25.1547 609.582 24.504C609.987 23.8533 610.547 23.352 611.262 23C611.987 22.648 612.83 22.472 613.79 22.472C614.75 22.472 615.593 22.648 616.318 23C617.043 23.352 617.603 23.8533 617.998 24.504C618.403 25.1547 618.606 25.928 618.606 26.824C618.606 27.6987 618.403 28.4613 617.998 29.112C617.603 29.7627 617.043 30.2693 616.318 30.632C615.603 30.984 614.761 31.16 613.79 31.16ZM613.79 29.992C614.825 29.992 615.646 29.7093 616.254 29.144C616.862 28.568 617.166 27.7947 617.166 26.824C617.166 25.8427 616.862 25.064 616.254 24.488C615.646 23.912 614.825 23.624 613.79 23.624C612.766 23.624 611.95 23.912 611.342 24.488C610.734 25.064 610.43 25.8427 610.43 26.824C610.43 27.784 610.729 28.552 611.326 29.128C611.934 29.704 612.755 29.992 613.79 29.992ZM565.715 48.144C564.435 48.144 563.325 47.8987 562.387 47.408C561.459 46.9067 560.739 46.208 560.227 45.312C559.715 44.416 559.459 43.3707 559.459 42.176C559.459 40.9813 559.715 39.936 560.227 39.04C560.749 38.144 561.48 37.4507 562.419 36.96C563.368 36.4587 564.477 36.208 565.747 36.208C566.803 36.208 567.741 36.3733 568.563 36.704C569.395 37.0347 570.067 37.4987 570.579 38.096C571.101 38.6933 571.427 39.3973 571.555 40.208H570.051C569.869 39.344 569.384 38.672 568.595 38.192C567.816 37.7013 566.867 37.456 565.747 37.456C564.765 37.456 563.912 37.648 563.187 38.032C562.461 38.416 561.901 38.96 561.507 39.664C561.123 40.368 560.931 41.2 560.931 42.16C560.931 43.1307 561.128 43.9733 561.523 44.688C561.917 45.4027 562.472 45.952 563.187 46.336C563.901 46.72 564.744 46.912 565.715 46.912C566.632 46.912 567.432 46.7573 568.115 46.448C568.797 46.128 569.331 45.68 569.715 45.104C570.099 44.5173 570.301 43.824 570.323 43.024H565.507V41.968H571.827V42.608C571.827 43.7813 571.56 44.784 571.027 45.616C570.504 46.4373 569.784 47.0667 568.867 47.504C567.949 47.9307 566.899 48.144 565.715 48.144ZM577.166 48.144C576.334 48.144 575.604 47.968 574.974 47.616C574.345 47.2533 573.854 46.7467 573.502 46.096C573.15 45.4453 572.974 44.6827 572.974 43.808C572.974 42.912 573.15 42.1387 573.502 41.488C573.854 40.8373 574.345 40.3413 574.974 40C575.604 39.648 576.334 39.472 577.166 39.472C578.052 39.472 578.798 39.6427 579.406 39.984C580.025 40.3147 580.462 40.752 580.718 41.296H580.798L580.846 39.6H582.206V48H580.782V46.192H580.702C580.436 46.7787 579.982 47.2533 579.342 47.616C578.713 47.968 577.988 48.144 577.166 48.144ZM577.534 47.008C578.217 47.008 578.798 46.8747 579.278 46.608C579.769 46.3307 580.142 45.9733 580.398 45.536C580.654 45.0987 580.782 44.624 580.782 44.112V43.376C580.782 42.8853 580.654 42.432 580.398 42.016C580.142 41.5893 579.769 41.248 579.278 40.992C578.798 40.736 578.217 40.608 577.534 40.608C576.606 40.608 575.854 40.8853 575.278 41.44C574.702 41.9947 574.414 42.784 574.414 43.808C574.414 44.7787 574.697 45.5573 575.262 46.144C575.838 46.72 576.596 47.008 577.534 47.008ZM584.108 48V36.336H585.548V48H584.108ZM587.436 48V36.336H588.876V48H587.436ZM595.164 48.144C594.194 48.144 593.351 47.968 592.636 47.616C591.922 47.264 591.367 46.7627 590.972 46.112C590.588 45.4613 590.396 44.6987 590.396 43.824C590.396 42.9387 590.588 42.1707 590.972 41.52C591.367 40.8693 591.916 40.368 592.62 40.016C593.324 39.6533 594.156 39.472 595.116 39.472C596.098 39.472 596.94 39.6533 597.644 40.016C598.348 40.3787 598.876 40.9013 599.228 41.584C599.58 42.2667 599.724 43.088 599.66 44.048H591.82C591.852 45.008 592.167 45.7493 592.764 46.272C593.372 46.7947 594.183 47.056 595.196 47.056C595.986 47.056 596.647 46.912 597.18 46.624C597.724 46.3253 598.071 45.9307 598.22 45.44H599.596C599.5 45.984 599.244 46.4587 598.828 46.864C598.423 47.2693 597.906 47.584 597.276 47.808C596.647 48.032 595.943 48.144 595.164 48.144ZM595.1 40.544C594.151 40.544 593.388 40.7787 592.812 41.248C592.247 41.7173 591.922 42.352 591.836 43.152H598.22C598.199 42.3093 597.906 41.664 597.34 41.216C596.775 40.768 596.028 40.544 595.1 40.544ZM601.171 48V39.6H602.467L602.547 41.152H602.595C602.776 40.64 603.091 40.2347 603.539 39.936C603.987 39.6373 604.504 39.488 605.091 39.488C605.432 39.488 605.699 39.5147 605.891 39.568V40.896C605.784 40.8533 605.656 40.8267 605.507 40.816C605.368 40.7947 605.224 40.784 605.075 40.784C604.392 40.784 603.821 40.9813 603.363 41.376C602.904 41.7707 602.648 42.3627 602.595 43.152V48H601.171ZM606.964 50.672V49.504H608.004C608.538 49.504 608.948 49.3973 609.236 49.184C609.524 48.9813 609.764 48.6827 609.956 48.288L610.372 47.44L606.292 39.6H607.86L610.388 44.72L611.028 46.016H611.14L611.748 44.688L614.116 39.6H615.636L611.172 48.752C610.852 49.4133 610.447 49.8987 609.956 50.208C609.466 50.5173 608.842 50.672 608.084 50.672H606.964Z" fill="white"/>
<path opacity="0.75" d="M670.267 64V52.336H676.683C677.888 52.336 678.79 52.608 679.387 53.152C679.995 53.6853 680.299 54.4107 680.299 55.328C680.299 55.9573 680.134 56.512 679.803 56.992C679.472 57.472 678.976 57.7867 678.315 57.936V58C679.072 58.1387 679.643 58.4587 680.027 58.96C680.422 59.4613 680.619 60.064 680.619 60.768C680.619 61.7813 680.262 62.576 679.547 63.152C678.832 63.7173 677.856 64 676.619 64H670.267ZM671.739 57.488H676.571C677.328 57.488 677.894 57.3067 678.267 56.944C678.651 56.5707 678.843 56.0907 678.843 55.504C678.843 54.8427 678.619 54.336 678.171 53.984C677.723 53.632 677.126 53.456 676.379 53.456H671.739V57.488ZM671.739 62.88H676.427C677.344 62.88 678.022 62.672 678.459 62.256C678.896 61.84 679.115 61.3067 679.115 60.656C679.115 59.9947 678.902 59.4827 678.475 59.12C678.048 58.7573 677.435 58.576 676.635 58.576H671.739V62.88ZM681.874 64V52.336H683.314V64H681.874ZM689.634 64.16C688.674 64.16 687.831 63.984 687.106 63.632C686.391 63.28 685.831 62.7787 685.426 62.128C685.031 61.4773 684.834 60.7093 684.834 59.824C684.834 58.928 685.031 58.1547 685.426 57.504C685.831 56.8533 686.391 56.352 687.106 56C687.831 55.648 688.674 55.472 689.634 55.472C690.594 55.472 691.436 55.648 692.162 56C692.887 56.352 693.447 56.8533 693.842 57.504C694.247 58.1547 694.45 58.928 694.45 59.824C694.45 60.6987 694.247 61.4613 693.842 62.112C693.447 62.7627 692.887 63.2693 692.162 63.632C691.447 63.984 690.604 64.16 689.634 64.16ZM689.634 62.992C690.668 62.992 691.49 62.7093 692.098 62.144C692.706 61.568 693.01 60.7947 693.01 59.824C693.01 58.8427 692.706 58.064 692.098 57.488C691.49 56.912 690.668 56.624 689.634 56.624C688.61 56.624 687.794 56.912 687.186 57.488C686.578 58.064 686.274 58.8427 686.274 59.824C686.274 60.784 686.572 61.552 687.17 62.128C687.778 62.704 688.599 62.992 689.634 62.992ZM700.032 66.832C698.816 66.832 697.845 66.5973 697.12 66.128C696.405 65.6693 696.005 65.0347 695.92 64.224H697.296C697.392 64.7467 697.685 65.136 698.176 65.392C698.666 65.6587 699.285 65.792 700.032 65.792C700.97 65.792 701.717 65.6053 702.272 65.232C702.826 64.8587 703.104 64.2507 703.104 63.408V61.728H703.008C702.752 62.2827 702.309 62.72 701.68 63.04C701.061 63.3493 700.368 63.504 699.6 63.504C698.778 63.504 698.064 63.3387 697.456 63.008C696.858 62.6667 696.394 62.1973 696.064 61.6C695.744 60.992 695.584 60.288 695.584 59.488C695.584 58.6773 695.754 57.9733 696.096 57.376C696.448 56.768 696.933 56.2987 697.552 55.968C698.17 55.6267 698.88 55.456 699.68 55.456C700.469 55.456 701.152 55.6213 701.728 55.952C702.314 56.272 702.741 56.704 703.008 57.248H703.12L703.152 55.6H704.528V63.296C704.528 64.448 704.144 65.3227 703.376 65.92C702.608 66.528 701.493 66.832 700.032 66.832ZM700.016 62.4C700.954 62.4 701.701 62.1653 702.256 61.696C702.821 61.216 703.104 60.608 703.104 59.872V59.28C703.104 58.48 702.826 57.8293 702.272 57.328C701.717 56.816 700.976 56.56 700.048 56.56C699.141 56.56 698.41 56.8267 697.856 57.36C697.301 57.8933 697.024 58.6027 697.024 59.488C697.024 60.4053 697.296 61.12 697.84 61.632C698.394 62.144 699.12 62.4 700.016 62.4ZM710.391 66.832C709.175 66.832 708.205 66.5973 707.479 66.128C706.765 65.6693 706.365 65.0347 706.279 64.224H707.655C707.751 64.7467 708.045 65.136 708.535 65.392C709.026 65.6587 709.645 65.792 710.391 65.792C711.33 65.792 712.077 65.6053 712.631 65.232C713.186 64.8587 713.463 64.2507 713.463 63.408V61.728H713.367C713.111 62.2827 712.669 62.72 712.039 63.04C711.421 63.3493 710.727 63.504 709.959 63.504C709.138 63.504 708.423 63.3387 707.815 63.008C707.218 62.6667 706.754 62.1973 706.423 61.6C706.103 60.992 705.943 60.288 705.943 59.488C705.943 58.6773 706.114 57.9733 706.455 57.376C706.807 56.768 707.293 56.2987 707.911 55.968C708.53 55.6267 709.239 55.456 710.039 55.456C710.829 55.456 711.511 55.6213 712.087 55.952C712.674 56.272 713.101 56.704 713.367 57.248H713.479L713.511 55.6H714.887V63.296C714.887 64.448 714.503 65.3227 713.735 65.92C712.967 66.528 711.853 66.832 710.391 66.832ZM710.375 62.4C711.314 62.4 712.061 62.1653 712.615 61.696C713.181 61.216 713.463 60.608 713.463 59.872V59.28C713.463 58.48 713.186 57.8293 712.631 57.328C712.077 56.816 711.335 56.56 710.407 56.56C709.501 56.56 708.77 56.8267 708.215 57.36C707.661 57.8933 707.383 58.6027 707.383 59.488C707.383 60.4053 707.655 61.12 708.199 61.632C708.754 62.144 709.479 62.4 710.375 62.4ZM716.78 54.224V52.336H718.22V54.224H716.78ZM716.78 64V55.6H718.22V64H716.78ZM720.108 64V55.6H721.516L721.548 57.456H721.644C721.964 56.816 722.444 56.3253 723.084 55.984C723.735 55.6427 724.439 55.472 725.196 55.472C725.911 55.472 726.54 55.6 727.084 55.856C727.639 56.1013 728.071 56.512 728.38 57.088C728.7 57.6533 728.86 58.4213 728.86 59.392V64H727.42V59.648C727.42 58.6027 727.201 57.8347 726.764 57.344C726.327 56.8533 725.665 56.608 724.78 56.608C724.14 56.608 723.575 56.7467 723.084 57.024C722.604 57.2907 722.225 57.6693 721.948 58.16C721.681 58.64 721.548 59.2 721.548 59.84V64H720.108ZM734.688 66.832C733.472 66.832 732.501 66.5973 731.776 66.128C731.061 65.6693 730.661 65.0347 730.576 64.224H731.952C732.048 64.7467 732.341 65.136 732.832 65.392C733.323 65.6587 733.941 65.792 734.688 65.792C735.627 65.792 736.373 65.6053 736.928 65.232C737.483 64.8587 737.76 64.2507 737.76 63.408V61.728H737.664C737.408 62.2827 736.965 62.72 736.336 63.04C735.717 63.3493 735.024 63.504 734.256 63.504C733.435 63.504 732.72 63.3387 732.112 63.008C731.515 62.6667 731.051 62.1973 730.72 61.6C730.4 60.992 730.24 60.288 730.24 59.488C730.24 58.6773 730.411 57.9733 730.752 57.376C731.104 56.768 731.589 56.2987 732.208 55.968C732.827 55.6267 733.536 55.456 734.336 55.456C735.125 55.456 735.808 55.6213 736.384 55.952C736.971 56.272 737.397 56.704 737.664 57.248H737.776L737.808 55.6H739.184V63.296C739.184 64.448 738.8 65.3227 738.032 65.92C737.264 66.528 736.149 66.832 734.688 66.832ZM734.672 62.4C735.611 62.4 736.357 62.1653 736.912 61.696C737.477 61.216 737.76 60.608 737.76 59.872V59.28C737.76 58.48 737.483 57.8293 736.928 57.328C736.373 56.816 735.632 56.56 734.704 56.56C733.797 56.56 733.067 56.8267 732.512 57.36C731.957 57.8933 731.68 58.6027 731.68 59.488C731.68 60.4053 731.952 61.12 732.496 61.632C733.051 62.144 733.776 62.4 734.672 62.4ZM672.43 81L668.91 69.336H670.526L672.766 76.968L673.422 79.496H673.55L676.67 69.336H678.382L681.422 79.512H681.55L682.222 76.936L684.494 69.336H686.062L682.51 81H680.574L677.55 71.08H677.454L674.382 81H672.43ZM690.438 81.144C689.467 81.144 688.624 80.968 687.91 80.616C687.195 80.264 686.64 79.7627 686.246 79.112C685.862 78.4613 685.67 77.6987 685.67 76.824C685.67 75.9387 685.862 75.1707 686.246 74.52C686.64 73.8693 687.19 73.368 687.894 73.016C688.598 72.6533 689.43 72.472 690.39 72.472C691.371 72.472 692.214 72.6533 692.918 73.016C693.622 73.3787 694.15 73.9013 694.502 74.584C694.854 75.2667 694.998 76.088 694.934 77.048H687.094C687.126 78.008 687.44 78.7493 688.038 79.272C688.646 79.7947 689.456 80.056 690.47 80.056C691.259 80.056 691.92 79.912 692.454 79.624C692.998 79.3253 693.344 78.9307 693.494 78.44H694.87C694.774 78.984 694.518 79.4587 694.102 79.864C693.696 80.2693 693.179 80.584 692.55 80.808C691.92 81.032 691.216 81.144 690.438 81.144ZM690.374 73.544C689.424 73.544 688.662 73.7787 688.086 74.248C687.52 74.7173 687.195 75.352 687.11 76.152H693.494C693.472 75.3093 693.179 74.664 692.614 74.216C692.048 73.768 691.302 73.544 690.374 73.544ZM701.484 81.144C700.609 81.144 699.863 80.9733 699.244 80.632C698.625 80.2907 698.188 79.8533 697.932 79.32H697.868L697.804 81H696.444V69.336H697.884V74.408H697.964C698.231 73.8107 698.679 73.336 699.308 72.984C699.948 72.632 700.673 72.456 701.484 72.456C702.327 72.456 703.063 72.6373 703.692 73C704.321 73.352 704.812 73.8533 705.164 74.504C705.516 75.1547 705.692 75.9227 705.692 76.808C705.692 77.6933 705.516 78.4613 705.164 79.112C704.812 79.7627 704.321 80.264 703.692 80.616C703.063 80.968 702.327 81.144 701.484 81.144ZM701.132 79.992C702.06 79.992 702.812 79.7147 703.388 79.16C703.964 78.6053 704.252 77.8213 704.252 76.808C704.252 75.8267 703.964 75.048 703.388 74.472C702.823 73.8853 702.071 73.592 701.132 73.592C700.449 73.592 699.863 73.7253 699.372 73.992C698.892 74.2587 698.524 74.616 698.268 75.064C698.012 75.5013 697.884 75.976 697.884 76.488V77.224C697.884 77.7147 698.012 78.1733 698.268 78.6C698.524 79.016 698.892 79.352 699.372 79.608C699.863 79.864 700.449 79.992 701.132 79.992ZM710.922 81.16C709.61 81.16 708.586 80.9093 707.85 80.408C707.114 79.896 706.736 79.2187 706.714 78.376H708.138C708.149 78.9413 708.4 79.3893 708.89 79.72C709.392 80.04 710.08 80.2 710.954 80.2C711.744 80.2 712.373 80.088 712.842 79.864C713.322 79.6293 713.562 79.2667 713.562 78.776C713.562 78.4133 713.477 78.136 713.306 77.944C713.136 77.752 712.853 77.608 712.458 77.512C712.064 77.4053 711.52 77.32 710.826 77.256C709.504 77.128 708.538 76.8987 707.93 76.568C707.322 76.2373 707.018 75.6827 707.018 74.904C707.018 74.1467 707.365 73.5493 708.058 73.112C708.762 72.664 709.706 72.44 710.89 72.44C712.096 72.44 713.024 72.6747 713.674 73.144C714.325 73.6133 714.688 74.2587 714.762 75.08H713.386C713.333 74.4933 713.077 74.072 712.618 73.816C712.16 73.5493 711.584 73.416 710.89 73.416C710.176 73.416 709.584 73.528 709.114 73.752C708.656 73.9653 708.426 74.3173 708.426 74.808C708.426 75.2667 708.634 75.5867 709.05 75.768C709.466 75.9493 710.144 76.088 711.082 76.184C712 76.2693 712.741 76.392 713.306 76.552C713.882 76.712 714.304 76.9573 714.57 77.288C714.848 77.608 714.986 78.0667 714.986 78.664C714.986 79.4107 714.65 80.0133 713.978 80.472C713.306 80.9307 712.288 81.16 710.922 81.16ZM716.428 71.224V69.336H717.868V71.224H716.428ZM716.428 81V72.6H717.868V81H716.428ZM722.749 81C722.141 81 721.666 80.8613 721.325 80.584C720.994 80.3067 720.829 79.88 720.829 79.304V73.72H719.053V72.6H720.829V70.152L722.237 69.864V72.6H724.493V73.72H722.237V78.888C722.237 79.2187 722.322 79.4427 722.493 79.56C722.663 79.6773 722.914 79.736 723.245 79.736H724.493V81H722.749ZM729.953 81.144C728.983 81.144 728.14 80.968 727.425 80.616C726.711 80.264 726.156 79.7627 725.761 79.112C725.377 78.4613 725.185 77.6987 725.185 76.824C725.185 75.9387 725.377 75.1707 725.761 74.52C726.156 73.8693 726.705 73.368 727.409 73.016C728.113 72.6533 728.945 72.472 729.905 72.472C730.887 72.472 731.729 72.6533 732.433 73.016C733.137 73.3787 733.665 73.9013 734.017 74.584C734.369 75.2667 734.513 76.088 734.449 77.048H726.609C726.641 78.008 726.956 78.7493 727.553 79.272C728.161 79.7947 728.972 80.056 729.985 80.056C730.775 80.056 731.436 79.912 731.969 79.624C732.513 79.3253 732.86 78.9307 733.009 78.44H734.385C734.289 78.984 734.033 79.4587 733.617 79.864C733.212 80.2693 732.695 80.584 732.065 80.808C731.436 81.032 730.732 81.144 729.953 81.144ZM729.889 73.544C728.94 73.544 728.177 73.7787 727.601 74.248C727.036 74.7173 726.711 75.352 726.625 76.152H733.009C732.988 75.3093 732.695 74.664 732.129 74.216C731.564 73.768 730.817 73.544 729.889 73.544ZM739.672 81.16C738.36 81.16 737.336 80.9093 736.6 80.408C735.864 79.896 735.486 79.2187 735.464 78.376H736.888C736.899 78.9413 737.15 79.3893 737.64 79.72C738.142 80.04 738.83 80.2 739.704 80.2C740.494 80.2 741.123 80.088 741.592 79.864C742.072 79.6293 742.312 79.2667 742.312 78.776C742.312 78.4133 742.227 78.136 742.056 77.944C741.886 77.752 741.603 77.608 741.208 77.512C740.814 77.4053 740.27 77.32 739.576 77.256C738.254 77.128 737.288 76.8987 736.68 76.568C736.072 76.2373 735.768 75.6827 735.768 74.904C735.768 74.1467 736.115 73.5493 736.808 73.112C737.512 72.664 738.456 72.44 739.64 72.44C740.846 72.44 741.774 72.6747 742.424 73.144C743.075 73.6133 743.438 74.2587 743.512 75.08H742.136C742.083 74.4933 741.827 74.072 741.368 73.816C740.91 73.5493 740.334 73.416 739.64 73.416C738.926 73.416 738.334 73.528 737.864 73.752C737.406 73.9653 737.176 74.3173 737.176 74.808C737.176 75.2667 737.384 75.5867 737.8 75.768C738.216 75.9493 738.894 76.088 739.832 76.184C740.75 76.2693 741.491 76.392 742.056 76.552C742.632 76.712 743.054 76.9573 743.32 77.288C743.598 77.608 743.736 78.0667 743.736 78.664C743.736 79.4107 743.4 80.0133 742.728 80.472C742.056 80.9307 741.038 81.16 739.672 81.16Z" fill="white"/>
<path opacity="0.75" d="M68.6263 36V24.336H78.0183V25.568H70.1143V29.472H77.2343V30.624H70.1143V34.752H78.0343V36H68.6263ZM83.3398 36.208C82.4865 36.208 81.7398 36.0267 81.0998 35.664C80.4598 35.3013 79.9638 34.7947 79.6118 34.144C79.2598 33.4827 79.0838 32.7093 79.0838 31.824C79.0838 30.9387 79.2598 30.1707 79.6118 29.52C79.9638 28.8693 80.4598 28.3627 81.0998 28C81.7505 27.6373 82.5025 27.456 83.3558 27.456C84.1771 27.456 84.8918 27.632 85.4998 27.984C86.1078 28.336 86.5451 28.8107 86.8118 29.408H86.8918V24.336H88.3158V36H86.9398L86.9078 34.256H86.8278C86.5718 34.8427 86.1451 35.3173 85.5478 35.68C84.9505 36.032 84.2145 36.208 83.3398 36.208ZM83.7078 35.072C84.3585 35.072 84.9185 34.9493 85.3878 34.704C85.8678 34.4587 86.2358 34.1173 86.4918 33.68C86.7585 33.2427 86.8918 32.7413 86.8918 32.176V31.488C86.8918 30.9227 86.7585 30.4267 86.4918 30C86.2358 29.5627 85.8678 29.2213 85.3878 28.976C84.9185 28.7307 84.3585 28.608 83.7078 28.608C82.7051 28.608 81.9211 28.9013 81.3558 29.488C80.8011 30.064 80.5238 30.8427 80.5238 31.824C80.5238 32.816 80.8011 33.6053 81.3558 34.192C81.9211 34.7787 82.7051 35.072 83.7078 35.072ZM93.7858 36.144C93.0711 36.144 92.4365 36.0213 91.8818 35.776C91.3271 35.52 90.8951 35.104 90.5858 34.528C90.2765 33.952 90.1218 33.1893 90.1218 32.24V27.6H91.5458V31.984C91.5458 33.008 91.7645 33.7653 92.2018 34.256C92.6391 34.7467 93.3058 34.992 94.2018 34.992C94.8418 34.992 95.4018 34.8587 95.8818 34.592C96.3725 34.3147 96.7511 33.936 97.0178 33.456C97.2951 32.9653 97.4338 32.4 97.4338 31.76V27.6H98.8578V36H97.4818L97.4338 34.16H97.3378C97.0285 34.7787 96.5538 35.264 95.9138 35.616C95.2845 35.968 94.5751 36.144 93.7858 36.144ZM104.896 36.144C103.936 36.144 103.104 35.968 102.4 35.616C101.707 35.264 101.168 34.7627 100.784 34.112C100.411 33.4613 100.224 32.6933 100.224 31.808C100.224 30.9227 100.422 30.16 100.816 29.52C101.211 28.8693 101.766 28.368 102.48 28.016C103.195 27.6533 104.027 27.472 104.976 27.472C105.798 27.472 106.523 27.5947 107.152 27.84C107.792 28.0853 108.304 28.432 108.688 28.88C109.083 29.3173 109.318 29.8347 109.392 30.432H107.968C107.798 29.8347 107.44 29.3867 106.896 29.088C106.363 28.7787 105.723 28.624 104.976 28.624C103.963 28.624 103.152 28.9173 102.544 29.504C101.947 30.0907 101.648 30.8587 101.648 31.808C101.648 32.7893 101.936 33.5627 102.512 34.128C103.099 34.6933 103.91 34.976 104.944 34.976C105.723 34.976 106.39 34.8 106.944 34.448C107.51 34.0853 107.862 33.616 108 33.04H109.456C109.371 33.6587 109.115 34.2027 108.688 34.672C108.272 35.1413 107.734 35.504 107.072 35.76C106.411 36.016 105.686 36.144 104.896 36.144ZM114.713 36.144C113.881 36.144 113.151 35.968 112.521 35.616C111.892 35.2533 111.401 34.7467 111.049 34.096C110.697 33.4453 110.521 32.6827 110.521 31.808C110.521 30.912 110.697 30.1387 111.049 29.488C111.401 28.8373 111.892 28.3413 112.521 28C113.151 27.648 113.881 27.472 114.713 27.472C115.599 27.472 116.345 27.6427 116.953 27.984C117.572 28.3147 118.009 28.752 118.265 29.296H118.345L118.393 27.6H119.753V36H118.329V34.192H118.249C117.983 34.7787 117.529 35.2533 116.889 35.616C116.26 35.968 115.535 36.144 114.713 36.144ZM115.081 35.008C115.764 35.008 116.345 34.8747 116.825 34.608C117.316 34.3307 117.689 33.9733 117.945 33.536C118.201 33.0987 118.329 32.624 118.329 32.112V31.376C118.329 30.8853 118.201 30.432 117.945 30.016C117.689 29.5893 117.316 29.248 116.825 28.992C116.345 28.736 115.764 28.608 115.081 28.608C114.153 28.608 113.401 28.8853 112.825 29.44C112.249 29.9947 111.961 30.784 111.961 31.808C111.961 32.7787 112.244 33.5573 112.809 34.144C113.385 34.72 114.143 35.008 115.081 35.008ZM124.694 36C124.086 36 123.611 35.8613 123.27 35.584C122.939 35.3067 122.774 34.88 122.774 34.304V28.72H120.998V27.6H122.774V25.152L124.182 24.864V27.6H126.438V28.72H124.182V33.888C124.182 34.2187 124.267 34.4427 124.438 34.56C124.608 34.6773 124.859 34.736 125.19 34.736H126.438V36H124.694ZM127.702 26.224V24.336H129.142V26.224H127.702ZM127.702 36V27.6H129.142V36H127.702ZM135.462 36.16C134.502 36.16 133.659 35.984 132.934 35.632C132.219 35.28 131.659 34.7787 131.254 34.128C130.859 33.4773 130.662 32.7093 130.662 31.824C130.662 30.928 130.859 30.1547 131.254 29.504C131.659 28.8533 132.219 28.352 132.934 28C133.659 27.648 134.502 27.472 135.462 27.472C136.422 27.472 137.265 27.648 137.99 28C138.715 28.352 139.275 28.8533 139.67 29.504C140.075 30.1547 140.278 30.928 140.278 31.824C140.278 32.6987 140.075 33.4613 139.67 34.112C139.275 34.7627 138.715 35.2693 137.99 35.632C137.275 35.984 136.433 36.16 135.462 36.16ZM135.462 34.992C136.497 34.992 137.318 34.7093 137.926 34.144C138.534 33.568 138.838 32.7947 138.838 31.824C138.838 30.8427 138.534 30.064 137.926 29.488C137.318 28.912 136.497 28.624 135.462 28.624C134.438 28.624 133.622 28.912 133.014 29.488C132.406 30.064 132.102 30.8427 132.102 31.824C132.102 32.784 132.401 33.552 132.998 34.128C133.606 34.704 134.427 34.992 135.462 34.992ZM141.78 36V27.6H143.188L143.22 29.456H143.316C143.636 28.816 144.116 28.3253 144.756 27.984C145.407 27.6427 146.111 27.472 146.868 27.472C147.583 27.472 148.212 27.6 148.756 27.856C149.311 28.1013 149.743 28.512 150.052 29.088C150.372 29.6533 150.532 30.4213 150.532 31.392V36H149.092V31.648C149.092 30.6027 148.873 29.8347 148.436 29.344C147.999 28.8533 147.337 28.608 146.452 28.608C145.812 28.608 145.247 28.7467 144.756 29.024C144.276 29.2907 143.897 29.6693 143.62 30.16C143.353 30.64 143.22 31.2 143.22 31.84V36H141.78ZM156.104 36.144C155.272 36.144 154.541 35.968 153.912 35.616C153.283 35.2533 152.792 34.7467 152.44 34.096C152.088 33.4453 151.912 32.6827 151.912 31.808C151.912 30.912 152.088 30.1387 152.44 29.488C152.792 28.8373 153.283 28.3413 153.912 28C154.541 27.648 155.272 27.472 156.104 27.472C156.989 27.472 157.736 27.6427 158.344 27.984C158.963 28.3147 159.4 28.752 159.656 29.296H159.736L159.784 27.6H161.144V36H159.72V34.192H159.64C159.373 34.7787 158.92 35.2533 158.28 35.616C157.651 35.968 156.925 36.144 156.104 36.144ZM156.472 35.008C157.155 35.008 157.736 34.8747 158.216 34.608C158.707 34.3307 159.08 33.9733 159.336 33.536C159.592 33.0987 159.72 32.624 159.72 32.112V31.376C159.72 30.8853 159.592 30.432 159.336 30.016C159.08 29.5893 158.707 29.248 158.216 28.992C157.736 28.736 157.155 28.608 156.472 28.608C155.544 28.608 154.792 28.8853 154.216 29.44C153.64 29.9947 153.352 30.784 153.352 31.808C153.352 32.7787 153.635 33.5573 154.2 34.144C154.776 34.72 155.533 35.008 156.472 35.008ZM163.046 36V24.336H164.486V36H163.046ZM77.8294 53V41.336H83.5254C84.9228 41.336 85.9841 41.656 86.7094 42.296C87.4348 42.936 87.7974 43.8267 87.7974 44.968C87.7974 46.1307 87.4134 47.032 86.6454 47.672C85.8774 48.3013 84.8321 48.6107 83.5094 48.6H79.3174V53H77.8294ZM83.3654 42.552H79.3174V47.464H83.3654C84.3468 47.464 85.0774 47.24 85.5574 46.792C86.0374 46.344 86.2774 45.7467 86.2774 45C86.2774 44.2107 86.0268 43.608 85.5254 43.192C85.0241 42.7653 84.3041 42.552 83.3654 42.552ZM89.5456 53V41.336H90.9856V53H89.5456ZM96.6977 53.144C95.8657 53.144 95.135 52.968 94.5057 52.616C93.8764 52.2533 93.3857 51.7467 93.0337 51.096C92.6817 50.4453 92.5057 49.6827 92.5057 48.808C92.5057 47.912 92.6817 47.1387 93.0337 46.488C93.3857 45.8373 93.8764 45.3413 94.5057 45C95.135 44.648 95.8657 44.472 96.6977 44.472C97.583 44.472 98.3297 44.6427 98.9377 44.984C99.5564 45.3147 99.9937 45.752 100.25 46.296H100.33L100.378 44.6H101.738V53H100.314V51.192H100.234C99.967 51.7787 99.5137 52.2533 98.8737 52.616C98.2444 52.968 97.519 53.144 96.6977 53.144ZM97.0657 52.008C97.7484 52.008 98.3297 51.8747 98.8097 51.608C99.3004 51.3307 99.6737 50.9733 99.9297 50.536C100.186 50.0987 100.314 49.624 100.314 49.112V48.376C100.314 47.8853 100.186 47.432 99.9297 47.016C99.6737 46.5893 99.3004 46.248 98.8097 45.992C98.3297 45.736 97.7484 45.608 97.0657 45.608C96.1377 45.608 95.3857 45.8853 94.8097 46.44C94.2337 46.9947 93.9457 47.784 93.9457 48.808C93.9457 49.7787 94.2284 50.5573 94.7937 51.144C95.3697 51.72 96.127 52.008 97.0657 52.008ZM106.678 53C106.07 53 105.596 52.8613 105.254 52.584C104.924 52.3067 104.758 51.88 104.758 51.304V45.72H102.982V44.6H104.758V42.152L106.166 41.864V44.6H108.422V45.72H106.166V50.888C106.166 51.2187 106.252 51.4427 106.422 51.56C106.593 51.6773 106.844 51.736 107.174 51.736H108.422V53H106.678ZM110.536 53V45.72H108.888V44.6H110.536V43.56C110.536 42.8027 110.749 42.2427 111.176 41.88C111.613 41.5173 112.221 41.336 113 41.336H114.136V42.36H113.224C112.786 42.36 112.466 42.4667 112.264 42.68C112.061 42.8827 111.96 43.2027 111.96 43.64V44.6H114.056V45.72H111.96V53H110.536ZM119.274 53.16C118.314 53.16 117.472 52.984 116.746 52.632C116.032 52.28 115.472 51.7787 115.066 51.128C114.672 50.4773 114.474 49.7093 114.474 48.824C114.474 47.928 114.672 47.1547 115.066 46.504C115.472 45.8533 116.032 45.352 116.746 45C117.472 44.648 118.314 44.472 119.274 44.472C120.234 44.472 121.077 44.648 121.802 45C122.528 45.352 123.088 45.8533 123.482 46.504C123.888 47.1547 124.09 47.928 124.09 48.824C124.09 49.6987 123.888 50.4613 123.482 51.112C123.088 51.7627 122.528 52.2693 121.802 52.632C121.088 52.984 120.245 53.16 119.274 53.16ZM119.274 51.992C120.309 51.992 121.13 51.7093 121.738 51.144C122.346 50.568 122.65 49.7947 122.65 48.824C122.65 47.8427 122.346 47.064 121.738 46.488C121.13 45.912 120.309 45.624 119.274 45.624C118.25 45.624 117.434 45.912 116.826 46.488C116.218 47.064 115.914 47.8427 115.914 48.824C115.914 49.784 116.213 50.552 116.81 51.128C117.418 51.704 118.24 51.992 119.274 51.992ZM125.592 53V44.6H126.888L126.968 46.152H127.016C127.198 45.64 127.512 45.2347 127.96 44.936C128.408 44.6373 128.926 44.488 129.512 44.488C129.854 44.488 130.12 44.5147 130.312 44.568V45.896C130.206 45.8533 130.078 45.8267 129.928 45.816C129.79 45.7947 129.646 45.784 129.496 45.784C128.814 45.784 128.243 45.9813 127.784 46.376C127.326 46.7707 127.07 47.3627 127.016 48.152V53H125.592ZM131.389 53V44.6H132.797L132.845 46.328H132.925C133.203 45.7307 133.629 45.272 134.205 44.952C134.781 44.632 135.427 44.472 136.141 44.472C136.931 44.472 137.597 44.6587 138.141 45.032C138.685 45.3947 139.059 45.912 139.261 46.584H139.389C139.699 45.88 140.152 45.352 140.749 45C141.347 44.648 142.029 44.472 142.797 44.472C143.907 44.472 144.76 44.7813 145.357 45.4C145.965 46.008 146.269 46.9627 146.269 48.264V53H144.813V48.44C144.813 47.5547 144.637 46.8613 144.285 46.36C143.933 45.8587 143.304 45.608 142.397 45.608C141.533 45.608 140.84 45.8853 140.317 46.44C139.805 46.984 139.549 47.704 139.549 48.6V53H138.109V48.6C138.109 46.6053 137.304 45.608 135.693 45.608C134.787 45.608 134.083 45.8853 133.581 46.44C133.091 46.9947 132.845 47.7147 132.845 48.6V53H131.389ZM151.665 53.16C150.353 53.16 149.329 52.9093 148.593 52.408C147.857 51.896 147.478 51.2187 147.457 50.376H148.881C148.891 50.9413 149.142 51.3893 149.633 51.72C150.134 52.04 150.822 52.2 151.697 52.2C152.486 52.2 153.115 52.088 153.585 51.864C154.065 51.6293 154.305 51.2667 154.305 50.776C154.305 50.4133 154.219 50.136 154.049 49.944C153.878 49.752 153.595 49.608 153.201 49.512C152.806 49.4053 152.262 49.32 151.569 49.256C150.246 49.128 149.281 48.8987 148.673 48.568C148.065 48.2373 147.761 47.6827 147.761 46.904C147.761 46.1467 148.107 45.5493 148.801 45.112C149.505 44.664 150.449 44.44 151.633 44.44C152.838 44.44 153.766 44.6747 154.417 45.144C155.067 45.6133 155.43 46.2587 155.505 47.08H154.129C154.075 46.4933 153.819 46.072 153.361 45.816C152.902 45.5493 152.326 45.416 151.633 45.416C150.918 45.416 150.326 45.528 149.857 45.752C149.398 45.9653 149.169 46.3173 149.169 46.808C149.169 47.2667 149.377 47.5867 149.793 47.768C150.209 47.9493 150.886 48.088 151.825 48.184C152.742 48.2693 153.483 48.392 154.049 48.552C154.625 48.712 155.046 48.9573 155.313 49.288C155.59 49.608 155.729 50.0667 155.729 50.664C155.729 51.4107 155.393 52.0133 154.721 52.472C154.049 52.9307 153.03 53.16 151.665 53.16Z" fill="white"/>
<path d="M527.073 513.103C527.073 520.32 523.269 527.252 516.269 533.614C509.269 539.975 499.112 545.728 486.518 550.569C461.334 560.249 426.508 566.247 388.016 566.247C349.523 566.247 314.698 560.249 289.513 550.569C276.92 545.728 266.762 539.975 259.762 533.614C252.762 527.252 248.959 520.32 248.959 513.103C248.959 505.885 252.762 498.954 259.762 492.592C266.762 486.23 276.92 480.478 289.513 475.637C314.698 465.956 349.523 459.958 388.016 459.958C426.508 459.958 461.334 465.956 486.518 475.637C499.112 480.478 509.269 486.23 516.269 492.592C523.269 498.954 527.073 505.885 527.073 513.103Z" stroke="white"/>
<path d="M771.5 179.131C771.5 192.835 760.902 206.022 741.403 218.113C721.93 230.188 693.72 241.08 658.816 250.235C589.016 268.542 492.561 279.871 386 279.871C279.439 279.871 182.984 268.542 113.184 250.235C78.2799 241.08 50.0697 230.188 30.5973 218.113C11.0979 206.022 0.5 192.835 0.5 179.131C0.5 165.427 11.0979 152.241 30.5973 140.149C50.0697 128.075 78.2799 117.183 113.184 108.028C182.984 89.721 279.439 78.3921 386 78.3921C492.561 78.3921 589.016 89.721 658.816 108.028C693.72 117.183 721.93 128.075 741.403 140.149C760.902 152.241 771.5 165.427 771.5 179.131Z" stroke="white"/>
<path d="M10.0837 201.719L375.917 688.555" stroke="white"/>
<path d="M757.883 206.155L409.797 680.084" stroke="white"/>
<g opacity="0.3">
<path d="M696.173 239.219L405.362 672.814" stroke="white" stroke-width="0.5"/>
<path d="M637.688 255.355L402.135 669.59" stroke="white" stroke-width="0.5"/>
<path d="M581.219 265.842L398.504 668.783" stroke="white" stroke-width="0.5"/>
<path d="M529.189 275.924L396.892 667.975" stroke="white" stroke-width="0.5"/>
<path d="M473.527 279.959L395.278 667.976" stroke="white" stroke-width="0.5"/>
<path d="M421.898 280.766L394.874 667.573" stroke="white" stroke-width="0.5"/>
<path d="M372.287 279.959L394.068 667.976" stroke="white" stroke-width="0.5"/>
<path d="M325.501 280.766L392.052 667.573" stroke="white" stroke-width="0.5"/>
<path d="M279.115 276.731L389.228 667.975" stroke="white" stroke-width="0.5"/>
<path d="M228.294 272.7L386.001 668.784" stroke="white" stroke-width="0.5"/>
<path d="M173.843 263.421L386.001 668.782" stroke="white" stroke-width="0.5"/>
<path d="M119.794 251.324L384.388 672.819" stroke="white" stroke-width="0.5"/>
<path d="M70.9911 235.188L378.742 676.043" stroke="white" stroke-width="0.5"/>
</g>
<circle cx="393.259" cy="685.722" r="17.3913" transform="rotate(17.1211 393.259 685.722)" stroke="white" stroke-width="2"/>
<path d="M375.817 685.927H410.609" stroke="white" stroke-width="2"/>
<path d="M377.329 677.355H409.095" stroke="white" stroke-width="2"/>
<path d="M377.833 694.503H408.591" stroke="white" stroke-width="2"/>
<path d="M398.759 668.534C404.946 675.229 411.869 688.451 399.011 702.822" stroke="white" stroke-width="1.5"/>
<path d="M387.414 668.787C381.18 675.383 374.205 688.411 387.16 702.571" stroke="white" stroke-width="1.5"/>
<path d="M398.914 685.674C398.914 690.708 398.215 695.241 397.101 698.494C396.543 700.123 395.892 701.398 395.198 702.255C394.501 703.116 393.826 703.479 393.211 703.479C392.597 703.479 391.922 703.116 391.224 702.255C390.531 701.398 389.88 700.123 389.322 698.494C388.208 695.241 387.508 690.708 387.508 685.674C387.508 680.64 388.208 676.107 389.322 672.854C389.88 671.225 390.531 669.95 391.224 669.093C391.922 668.232 392.597 667.87 393.211 667.87C393.826 667.87 394.501 668.232 395.198 669.093C395.892 669.95 396.543 671.225 397.101 672.854C398.215 676.107 398.914 680.64 398.914 685.674Z" stroke="white" stroke-width="1.2"/>
<g opacity="0.15">
<path d="M14.521 156.538L377.127 677.658" stroke="white"/>
<path d="M48.4036 134.756L381.969 674.027" stroke="white"/>
<path d="M83.8962 118.218L385.597 671.606" stroke="white"/>
<path d="M131.894 104.507L388.42 669.188" stroke="white"/>
<path d="M183.926 94.4253L390.841 668.383" stroke="white"/>
<path d="M234.746 85.9536L393.26 668.382" stroke="white"/>
<path d="M282.342 83.9341L393.261 668.379" stroke="white"/>
<path d="M441.259 79.9028L395.278 667.978" stroke="white"/>
<path d="M490.064 82.3203L395.278 667.976" stroke="white"/>
<path d="M534.028 86.7607L400.118 668.786" stroke="white"/>
<path d="M578.799 92.4058L404.958 671.607" stroke="white"/>
<path d="M621.553 99.6689L407.377 675.241" stroke="white"/>
<path d="M656.646 108.137L408.993 677.658" stroke="white"/>
<path d="M697.786 120.639L410.202 678.867" stroke="white"/>
<path d="M746.994 144.035L410.202 678.869" stroke="white"/>
<path d="M377.529 78.2891L394.066 668.381L326.304 79.9024" stroke="white"/>
</g>
<circle cx="249.745" cy="512.994" r="11.8475" fill="white"/>
<circle cx="132.848" cy="103.543" r="11.8475" fill="white"/>
<circle cx="284.848" cy="80.7968" r="11.8475" fill="white"/>
<circle cx="444.044" cy="79.8475" r="11.8475" fill="white"/>
<circle cx="579.848" cy="94.0663" r="11.8475" fill="white"/>
<circle cx="699.003" cy="123.448" r="11.8475" fill="white"/>
<circle cx="526.502" cy="521.521" r="11.8475" fill="white"/>
<circle cx="691.42" cy="244.764" r="11.8475" fill="white"/>
<circle cx="544.511" cy="273.202" r="11.8475" fill="white"/>
<circle cx="397.601" cy="279.836" r="11.8475" fill="white"/>
<circle cx="249.745" cy="275.095" r="11.8475" fill="white"/>
<circle cx="86.723" cy="246.661" r="11.8475" fill="white"/>
</svg>
