<svg width="1728" height="893" viewBox="0 0 1728 893" fill="none" xmlns="http://www.w3.org/2000/svg">
<g clip-path="url(#clip0_1857_16965)">
<path d="M1210.66 110.812C1182.1 184.39 1171.74 266.997 1184.32 345.381C1192.35 394.151 1210.44 441.153 1237.33 482.053C1245.73 494.649 1255.35 507.369 1265.06 518.823C1267.25 521.291 1271.61 526.159 1273.8 528.619C1278.19 533.472 1282.9 538.107 1287.44 542.793C1289.41 544.624 1297.61 552.454 1299.32 554.051C1302.83 557.135 1308.11 561.706 1311.64 564.802C1316.69 568.952 1321.79 573.029 1326.91 577.083C1333.17 581.631 1341.66 588.233 1348.05 592.37C1349.84 593.594 1354.39 596.711 1356.11 597.894C1366.09 604.338 1376.34 610.682 1386.68 616.526C1390.5 618.879 1399.77 623.68 1403.8 625.864C1406.61 627.419 1412.45 630.428 1415.36 631.801C1421.95 635.095 1432.1 640.053 1438.81 642.951C1454.05 649.964 1471.11 656.818 1486.82 662.639C1493.91 665.437 1504.06 668.759 1511.27 671.273C1514.18 672.305 1520.59 674.427 1523.58 675.313C1526.56 676.211 1538.97 680.185 1542.12 681.15C1549.08 683.133 1560.09 686.266 1567.04 688.246C1575.46 690.486 1586.84 693.324 1595.26 695.508C1600.94 696.863 1618.57 700.87 1623.65 702.079C1618.06 700.818 1596.83 696.508 1592 695.256C1582.28 692.869 1570.17 690.122 1560.57 687.448C1556.02 686.247 1546.08 683.519 1541.79 682.376C1534.85 680.294 1523.87 677.008 1516.94 674.91C1509.89 672.519 1499.32 669.071 1492.32 666.651C1482.83 663.092 1471.22 659.067 1461.92 655.162C1459.29 654.014 1449.14 650.111 1446.86 649.015C1442.62 647.161 1436.25 644.308 1431.98 642.437C1425.22 639.522 1415.12 634.394 1408.43 631.244C1403.99 628.915 1394.19 623.751 1389.67 621.356C1387.17 619.913 1382.31 617.138 1379.75 615.659C1360.97 604.989 1342.53 592.577 1325.18 579.503C1320.02 575.431 1314.88 571.333 1309.8 567.163C1307.35 565.009 1302.31 560.671 1299.86 558.517C1296.32 555.561 1288.84 548.208 1285.39 545.031C1279.29 538.852 1272.94 532.417 1267.21 525.835C1258.41 516.109 1250.09 505.42 1242.4 494.753C1162.89 384.977 1160.31 234.254 1210.66 110.812Z" fill="#00DBC7" fill-opacity="0.35"/>
<path d="M1258.66 83.0547C1230.1 156.632 1219.74 239.239 1232.32 317.623C1240.35 366.393 1258.44 413.395 1285.33 454.295C1293.73 466.891 1303.35 479.611 1313.06 491.066C1315.25 493.533 1319.61 498.401 1321.8 500.861C1326.19 505.714 1330.9 510.349 1335.44 515.035C1337.41 516.866 1345.61 524.696 1347.32 526.294C1350.83 529.377 1356.11 533.948 1359.64 537.045C1364.69 541.194 1369.79 545.272 1374.91 549.326C1381.17 553.873 1389.66 560.475 1396.05 564.612C1397.84 565.836 1402.39 568.954 1404.11 570.136C1414.09 576.581 1424.34 582.925 1434.68 588.768C1438.5 591.121 1447.77 595.922 1451.8 598.106C1454.61 599.661 1460.45 602.67 1463.36 604.043C1469.95 607.337 1480.1 612.296 1486.81 615.193C1502.05 622.206 1519.11 629.06 1534.82 634.881C1541.91 637.679 1552.06 641.002 1559.27 643.515C1562.18 644.547 1568.59 646.67 1571.58 647.555C1574.56 648.453 1586.97 652.427 1590.12 653.392C1597.08 655.375 1608.09 658.508 1615.04 660.488C1623.46 662.729 1634.84 665.566 1643.26 667.75C1648.94 669.105 1666.57 673.112 1671.65 674.321C1666.06 673.06 1644.83 668.75 1640 667.498C1630.28 665.111 1618.17 662.365 1608.57 659.69C1604.02 658.489 1594.08 655.761 1589.79 654.618C1582.85 652.536 1571.87 649.25 1564.94 647.153C1557.89 644.762 1547.32 641.313 1540.32 638.893C1530.83 635.334 1519.22 631.309 1509.92 627.404C1507.29 626.256 1497.14 622.353 1494.86 621.258C1490.62 619.404 1484.25 616.55 1479.98 614.679C1473.22 611.764 1463.12 606.636 1456.43 603.486C1451.99 601.157 1442.19 595.993 1437.67 593.598C1435.17 592.155 1430.31 589.38 1427.75 587.901C1408.97 577.232 1390.53 564.819 1373.18 551.745C1368.02 547.673 1362.88 543.576 1357.8 539.405C1355.35 537.251 1350.31 532.913 1347.86 530.759C1344.32 527.804 1336.84 520.451 1333.39 517.273C1327.29 511.094 1320.94 504.659 1315.21 498.077C1306.41 488.351 1298.09 477.662 1290.4 466.996C1210.89 357.219 1208.31 206.496 1258.66 83.0547Z" fill="#00DBC7" fill-opacity="0.35"/>
<path d="M1310.74 48.5391C1282.18 122.117 1271.82 204.723 1284.4 283.108C1292.43 331.877 1310.51 378.879 1337.41 419.78C1345.81 432.376 1355.43 445.095 1365.14 456.55C1367.33 459.018 1371.69 463.886 1373.88 466.345C1378.27 471.198 1382.97 475.834 1387.52 480.52C1389.49 482.351 1397.68 490.18 1399.4 491.778C1402.91 494.862 1408.19 499.432 1411.72 502.529C1416.76 506.679 1421.87 510.756 1426.99 514.81C1433.25 519.357 1441.74 525.96 1448.13 530.096C1449.91 531.32 1454.47 534.438 1456.19 535.621C1466.17 542.065 1476.42 548.409 1486.75 554.253C1490.58 556.606 1499.85 561.406 1503.88 563.591C1506.69 565.146 1512.53 568.155 1515.43 569.528C1522.03 572.821 1532.18 577.78 1538.89 580.678C1554.13 587.69 1571.19 594.545 1586.9 600.365C1593.99 603.163 1604.14 606.486 1611.35 608.999C1614.25 610.032 1620.66 612.154 1623.66 613.04C1626.64 613.938 1639.04 617.912 1642.2 618.877C1649.15 620.86 1660.17 623.993 1667.12 625.973C1675.53 628.213 1686.92 631.051 1695.34 633.234C1701.02 634.589 1718.65 638.596 1723.73 639.805C1718.14 638.544 1696.91 634.234 1692.08 632.983C1682.36 630.596 1670.25 627.849 1660.64 625.174C1656.1 623.973 1646.16 621.246 1641.87 620.103C1634.93 618.021 1623.95 614.735 1617.02 612.637C1609.97 610.246 1599.4 606.797 1592.39 604.377C1582.91 600.818 1571.29 596.794 1562 592.888C1559.37 591.74 1549.22 587.837 1546.94 586.742C1542.7 584.888 1536.32 582.034 1532.05 580.163C1525.29 577.248 1515.2 572.12 1508.51 568.97C1504.07 566.641 1494.27 561.478 1489.75 559.083C1487.25 557.64 1482.39 554.864 1479.83 553.386C1461.05 542.716 1442.6 530.303 1425.26 517.229C1420.1 513.157 1414.96 509.06 1409.87 504.89C1407.43 502.735 1402.39 498.397 1399.94 496.243C1396.4 493.288 1388.92 485.935 1385.47 482.757C1379.37 476.578 1373.02 470.143 1367.29 463.561C1358.49 453.835 1350.17 443.146 1342.48 432.48C1262.97 322.703 1260.39 171.981 1310.74 48.5391Z" fill="#00DBC7" fill-opacity="0.35"/>
<path d="M1367.66 18.8828C1339.1 92.4603 1328.74 175.067 1341.32 253.452C1349.35 302.221 1367.44 349.223 1394.33 390.123C1402.73 402.719 1412.35 415.439 1422.06 426.894C1424.25 429.362 1428.61 434.229 1430.8 436.689C1435.19 441.542 1439.9 446.177 1444.44 450.864C1446.41 452.694 1454.61 460.524 1456.32 462.122C1459.83 465.205 1465.11 469.776 1468.64 472.873C1473.69 477.022 1478.79 481.1 1483.91 485.154C1490.17 489.701 1498.66 496.303 1505.05 500.44C1506.84 501.664 1511.39 504.782 1513.11 505.964C1523.09 512.409 1533.34 518.753 1543.68 524.596C1547.5 526.95 1556.77 531.75 1560.8 533.934C1563.61 535.489 1569.45 538.498 1572.36 539.872C1578.95 543.165 1589.1 548.124 1595.81 551.021C1611.05 558.034 1628.11 564.889 1643.82 570.709C1650.91 573.507 1661.06 576.83 1668.27 579.343C1671.18 580.375 1677.59 582.498 1680.58 583.383C1683.56 584.281 1695.97 588.255 1699.12 589.22C1706.08 591.203 1717.09 594.336 1724.04 596.316C1732.46 598.557 1743.84 601.394 1752.26 603.578C1757.94 604.933 1775.57 608.94 1780.65 610.149C1775.06 608.888 1753.83 604.578 1749 603.326C1739.28 600.939 1727.17 598.193 1717.57 595.518C1713.02 594.317 1703.08 591.589 1698.79 590.446C1691.85 588.364 1680.87 585.079 1673.94 582.981C1666.89 580.59 1656.32 577.141 1649.32 574.721C1639.83 571.162 1628.22 567.137 1618.92 563.232C1616.29 562.084 1606.14 558.181 1603.86 557.086C1599.62 555.232 1593.25 552.378 1588.98 550.507C1582.22 547.592 1572.12 542.464 1565.43 539.314C1560.99 536.985 1551.19 531.821 1546.67 529.427C1544.17 527.983 1539.31 525.208 1536.75 523.729C1517.97 513.06 1499.53 500.647 1482.18 487.573C1477.02 483.501 1471.88 479.404 1466.8 475.233C1464.35 473.079 1459.31 468.741 1456.86 466.587C1453.32 463.632 1445.84 456.279 1442.39 453.101C1436.29 446.922 1429.94 440.487 1424.21 433.905C1415.41 424.179 1407.09 413.49 1399.4 402.824C1319.89 293.047 1317.31 142.324 1367.66 18.8828Z" fill="#00DBC7" fill-opacity="0.35"/>
<path d="M1420.95 -12C1392.39 61.5775 1382.03 144.184 1394.61 222.569C1402.64 271.338 1420.72 318.34 1447.62 359.241C1456.02 371.837 1465.64 384.556 1475.35 396.011C1477.54 398.479 1481.9 403.347 1484.09 405.806C1488.48 410.659 1493.19 415.295 1497.73 419.981C1499.7 421.812 1507.9 429.641 1509.61 431.239C1513.12 434.323 1518.4 438.893 1521.93 441.99C1526.98 446.14 1532.08 450.217 1537.2 454.271C1543.46 458.818 1551.95 465.421 1558.34 469.557C1560.12 470.781 1564.68 473.899 1566.4 475.081C1576.38 481.526 1586.63 487.87 1596.97 493.714C1600.79 496.067 1610.06 500.867 1614.09 503.052C1616.9 504.607 1622.74 507.616 1625.65 508.989C1632.24 512.282 1642.39 517.241 1649.1 520.139C1664.34 527.151 1681.4 534.006 1697.11 539.826C1704.2 542.624 1714.35 545.947 1721.56 548.46C1724.46 549.493 1730.88 551.615 1733.87 552.501C1736.85 553.399 1749.25 557.372 1752.41 558.338C1759.37 560.321 1770.38 563.453 1777.33 565.433C1785.75 567.674 1797.13 570.512 1805.55 572.695C1811.23 574.05 1828.86 578.057 1833.94 579.266C1828.35 578.005 1807.12 573.695 1802.29 572.444C1792.57 570.057 1780.46 567.31 1770.85 564.635C1766.31 563.434 1756.37 560.707 1752.08 559.564C1745.14 557.482 1734.16 554.196 1727.23 552.098C1720.18 549.707 1709.61 546.258 1702.61 543.838C1693.12 540.279 1681.51 536.255 1672.21 532.349C1669.58 531.201 1659.43 527.298 1657.15 526.203C1652.91 524.349 1646.54 521.495 1642.27 519.624C1635.51 516.709 1625.41 511.581 1618.72 508.431C1614.28 506.102 1604.48 500.939 1599.96 498.544C1597.46 497.1 1592.6 494.325 1590.04 492.846C1571.26 482.177 1552.82 469.764 1535.47 456.69C1530.31 452.618 1525.17 448.521 1520.08 444.351C1517.64 442.196 1512.6 437.858 1510.15 435.704C1506.61 432.749 1499.13 425.396 1495.68 422.218C1489.58 416.039 1483.23 409.604 1477.5 403.022C1468.7 393.296 1460.38 382.607 1452.69 371.941C1373.18 262.164 1370.6 111.442 1420.95 -12Z" fill="#00DBC7" fill-opacity="0.35"/>
<path d="M145.048 9.73438C240.53 53.2019 376.45 151.222 296.337 266.897C294.955 269.193 289.802 275.675 288.095 278.008C286.734 279.657 281.796 285.378 280.632 286.781C279.714 287.783 276.915 290.753 275.905 291.813C264.428 304.043 251.455 315.186 238.2 325.413C204.291 351.386 166.416 372.285 128.138 391.016C115.515 396.96 99.4003 404.519 86.7441 410.392C-30.1221 466.35 -178.455 555.016 -227.33 680.759C-240.425 714.645 -245.667 752.1 -239.09 788.041C-236.883 799.981 -233.644 811.861 -228.271 822.792C-233.846 811.933 -237.291 800.089 -239.714 788.159C-246.809 752.062 -242.003 714.357 -229.258 680.031C-194.328 588.716 -112.032 521.118 -31.5601 470.071C4.40851 447.458 42.5168 427.036 80.8294 408.611C93.3711 402.575 109.57 395.176 122.2 389.206C163.131 369.622 203.505 347.358 239.425 319.53C253.073 308.887 266.216 297.114 277.891 284.32C280.497 281.319 283.009 278.325 285.266 275.723L290.767 268.534C291.22 267.931 291.695 267.344 292.131 266.729L293.394 264.854L295.922 261.106C321.712 222.511 325.005 180.801 302.72 139.615C271.826 82.8013 202.433 37.1032 145.048 9.73438Z" fill="#00DCCA" fill-opacity="0.25"/>
<path d="M476.68 56.8359C594.27 175.369 803.58 443.229 625.073 588.234C600.194 608.277 571.513 622.797 541.999 634.633C512.525 646.469 482.076 656.28 450.603 661.188C415.205 666.976 378.46 665.401 344.035 655.016C300.736 642.817 260.57 616.237 214.318 617.727C172.724 618.915 134.535 639.024 100.247 661.109C77.343 676.134 55.1015 693.388 34.0499 710.902C-32.4185 767.022 -93.1397 829.564 -152.559 892.992C-91.2621 825.903 -28.3855 759.631 41.5701 701.39C65.905 681.295 91.5504 661.978 118.796 645.997C156.968 623.543 199.327 607.604 244.12 616.518C279.354 623.35 310.861 641.478 345.167 651.131C363.959 656.67 383.487 659.826 403.064 660.373C450.411 661.487 496.81 648.234 540.443 630.784C555.015 624.807 569.479 618.578 583.262 610.954C823.032 480.115 604.963 190.145 476.68 56.8359Z" fill="#00DCCA" fill-opacity="0.25"/>
<path d="M438.682 70.7188C513.794 154.942 706.389 399.14 608.548 506.672C528.674 594.904 387.496 590.187 281.534 560.173C275.293 557.016 268.227 554.97 261.445 553.277C248.891 550.351 235.493 549.132 222.614 549.123C168.678 549.7 116.821 570.003 70.4829 596.444C1.98177 636.162 -57.2004 690.121 -111.273 747.547C-58.0414 689.21 0.804909 634.405 69.1777 594.19C114.767 567.815 165.716 547.097 218.966 545.579C233.353 545.131 248.266 546.408 262.312 549.579C268.159 550.99 274.221 552.747 279.765 555.084C280.913 555.573 282.004 556.048 283.201 556.67L282.86 556.524C291.157 559.034 299.696 561.154 308.218 563.087C410.923 585.727 539.749 584.755 611.829 496.566C692.194 388.677 510.914 154.499 438.682 70.7188Z" fill="#00DCCA" fill-opacity="0.25"/>
<path d="M385.619 49.9844C455.92 128.751 637.943 359.125 541.878 458.518C471.428 533.173 356.861 533.181 263.222 512.439C255.095 510.523 246.982 508.592 238.972 506.005C234.205 503.631 228.82 501.876 223.662 500.508C210.986 497.117 197.419 495.848 184.321 495.813C131.854 496.433 81.5014 516.818 36.883 543.263L31.1325 546.676L28.2598 548.386C24.423 550.863 15.2356 556.84 11.4223 559.303C-39.3583 593.861 -84.7475 635.847 -126.744 680.549C-86.2147 635.981 -42.106 593.918 7.37479 559.325C12.2906 555.801 21.841 549.709 26.9445 546.287C28.5567 545.299 33.836 542.125 35.5727 541.071C50.6425 531.881 67.069 523.202 83.2317 516.179C115.032 502.22 149.378 492.552 184.301 492.159C196.582 492.121 209.354 493.24 221.335 495.987C227.974 497.614 234.682 499.544 240.83 502.603C339.77 529.879 474.751 534.964 546.822 446.642C621.623 346.142 452.838 128.083 385.619 49.9844Z" fill="#00DCCA" fill-opacity="0.25"/>
<path d="M217.661 31.2578C313.143 74.7253 449.063 172.745 368.95 288.42C367.568 290.716 362.416 297.198 360.709 299.531C359.348 301.181 354.409 306.902 353.245 308.304C352.327 309.307 349.528 312.276 348.518 313.337C337.041 325.566 324.069 336.71 310.814 346.936C276.904 372.91 239.029 393.808 200.751 412.539C188.129 418.483 172.014 426.043 159.357 431.916C42.4912 487.873 -105.842 576.539 -154.716 702.282C-167.812 736.169 -173.054 773.624 -166.477 809.565C-164.27 821.505 -161.03 833.385 -155.658 844.315C-161.232 833.456 -164.678 821.612 -167.101 809.683C-174.196 773.586 -169.389 735.881 -156.645 701.555C-121.715 610.24 -39.4192 542.642 41.0532 491.595C77.0218 468.981 115.13 448.559 153.443 430.135C165.984 424.098 182.183 416.699 194.813 410.73C235.744 391.145 276.118 368.881 312.038 341.053C325.687 330.411 338.829 318.637 350.504 305.843C353.111 302.842 355.623 299.849 357.879 297.246L363.38 290.057C363.833 289.455 364.309 288.867 364.744 288.252L366.008 286.378L368.536 282.629C394.325 244.034 397.619 202.325 375.333 161.138C344.439 104.325 275.046 58.6267 217.661 31.2578Z" fill="#00DCCA" fill-opacity="0.25"/>
<path d="M333.568 32.875C425.008 129.548 546.579 319.266 385.904 410.799C328.95 442.727 263.072 453.782 198.882 460.269C165.253 462.324 132.382 471.621 101.405 484.705C-21.3684 536.592 -98.5984 649.594 -134.63 774.574C-139.895 792.179 -144.323 810.309 -148.273 828.253C-146.181 818.047 -143.808 806.849 -141.362 796.669C-109.224 661.574 -31.6428 537.229 99.8418 481.045C128.329 469.037 158.405 459.818 189.335 456.965C255.984 450.732 324.725 440.245 383.929 407.357C542.589 317.867 421.425 129.422 333.568 32.875Z" fill="#00DCCA" fill-opacity="0.25"/>
</g>
<defs>
<clipPath id="clip0_1857_16965">
<rect width="2077" height="905" fill="white" transform="translate(-243 -12)"/>
</clipPath>
</defs>
</svg>
