<svg width="1714" height="875" viewBox="0 0 1714 875" fill="none" xmlns="http://www.w3.org/2000/svg">
<mask id="mask0_2727_25956" style="mask-type:luminance" maskUnits="userSpaceOnUse" x="-305" y="-135" width="2019" height="1010">
<path d="M1713.59 -134.324H-305V874.527H1713.59V-134.324Z" fill="white"/>
</mask>
<g mask="url(#mask0_2727_25956)">
<path d="M1157.91 583.211L1158.14 583.34L1157.91 583.475V583.211Z" fill="white"/>
<path d="M1103.67 583.345L1104.89 582.652V584.051L1103.67 583.345Z" fill="white"/>
<path d="M1183.45 537.029L1185.37 535.922V538.143L1183.45 537.029Z" fill="white"/>
<path d="M1076.17 534.34L1080.84 537.029L1076.17 539.726V534.34Z" fill="white"/>
<path d="M1023.88 629.659L1024.4 629.359V629.958L1023.88 629.659Z" fill="white"/>
<path d="M1156.13 487.516L1161.68 490.715L1156.13 493.914V487.516Z" fill="white"/>
<path d="M1099.63 490.718L1106.9 486.52V494.915L1099.63 490.718Z" fill="white"/>
<path d="M1020.12 537.03L1026.27 533.477V540.589L1020.12 537.03Z" fill="white"/>
<path d="M996.126 581.02L1000.16 583.343L996.126 585.673V581.02Z" fill="white"/>
<path d="M1238.04 536.691L1238.63 537.032L1238.04 537.371V536.691Z" fill="white"/>
<path d="M1236.35 441.129L1242.01 444.403L1236.35 447.67V441.129Z" fill="white"/>
<path d="M1179.25 444.406L1187.48 439.664V449.147L1179.25 444.406Z" fill="white"/>
<path d="M1073.52 437.121L1086.13 444.403L1073.52 451.678V437.121Z" fill="white"/>
<path d="M1014.34 444.403L1029.17 435.844V452.961L1014.34 444.403Z" fill="white"/>
<path d="M993.713 484.211L1004.99 490.719L993.713 497.226V484.211Z" fill="white"/>
<path d="M939.482 583.343L946.21 579.457V587.228L939.482 583.343Z" fill="white"/>
<path d="M915.555 626.773L920.55 629.654L915.555 632.54V626.773Z" fill="white"/>
<path d="M943.451 675.976L944.226 675.527V676.424L943.451 675.976Z" fill="white"/>
<path d="M1263.85 490.717L1265.55 489.738V491.695L1263.85 490.717Z" fill="white"/>
<path d="M1260.14 398.091L1267.42 393.879V402.295L1260.14 398.091Z" fill="white"/>
<path d="M1153.42 390.184L1167.11 398.091L1153.42 405.998V390.184Z" fill="white"/>
<path d="M1093.44 398.09L1110 388.539V407.64L1093.44 398.09Z" fill="white"/>
<path d="M990.336 385.734L1011.75 398.091L990.336 410.44V385.734Z" fill="white"/>
<path d="M934.78 490.716L948.562 482.762V498.677L934.78 490.716Z" fill="white"/>
<path d="M913.441 530.496L924.77 537.031L913.441 543.565V530.496Z" fill="white"/>
<path d="M858.109 629.655L866.516 624.805V634.519L858.109 629.655Z" fill="white"/>
<path d="M1318.48 490.695L1318.51 490.716L1318.48 490.735V490.695Z" fill="white"/>
<path d="M1234.21 344.805L1246.29 351.775L1234.21 358.743V344.805Z" fill="white"/>
<path d="M1174.06 351.778L1190.06 342.539V361.009L1174.06 351.778Z" fill="white"/>
<path d="M1070.29 338.902L1092.59 351.775L1070.29 364.64V338.902Z" fill="white"/>
<path d="M1007.81 351.777L1032.44 337.566V365.987L1007.81 351.777Z" fill="white"/>
<path d="M927.896 398.09L952.008 384.172V412.008L927.896 398.09Z" fill="white"/>
<path d="M910.431 432.66L930.784 444.405L910.431 456.143V432.66Z" fill="white"/>
<path d="M853.651 537.028L868.745 528.312V545.75L853.651 537.028Z" fill="white"/>
<path d="M832.238 575.164L846.421 583.343L832.238 591.534V575.164Z" fill="white"/>
<path d="M834.474 671.664L841.95 675.978L834.474 680.291V671.664Z" fill="white"/>
<path d="M862.085 722.288L864.532 720.875V723.694L862.085 722.288Z" fill="white"/>
<path d="M1344.51 444.404L1345.61 443.766V445.043L1344.51 444.404Z" fill="white"/>
<path d="M1317.02 395.555L1321.42 398.089L1317.02 400.615V395.555Z" fill="white"/>
<path d="M1315.32 299.973L1324.83 305.461L1315.32 310.95V299.973Z" fill="white"/>
<path d="M1256.38 305.462L1269.29 298.004V312.907L1256.38 305.462Z" fill="white"/>
<path d="M1150.91 293.23L1172.11 305.464L1150.91 317.691V293.23Z" fill="white"/>
<path d="M1088.09 305.464L1112.67 291.273V319.647L1088.09 305.464Z" fill="white"/>
<path d="M987.604 288.375L1017.21 305.466L987.604 322.542V288.375Z" fill="white"/>
<path d="M922.867 305.464L954.522 287.191V323.73L922.867 305.464Z" fill="white"/>
<path d="M907.42 334.809L936.812 351.778L907.42 368.739V334.809Z" fill="white"/>
<path d="M847.828 444.403L871.661 430.641V458.165L847.828 444.403Z" fill="white"/>
<path d="M829.799 478.32L851.287 490.718L829.799 503.121V478.32Z" fill="white"/>
<path d="M770.24 583.342L790.07 571.902V594.788L770.24 583.342Z" fill="white"/>
<path d="M750.24 618.461L769.648 629.656L750.24 640.863V618.461Z" fill="white"/>
<path d="M774.889 675.98L787.747 668.555V683.397L774.889 675.98Z" fill="white"/>
<path d="M836.35 767.543L838.184 768.603L836.35 769.662V767.543Z" fill="white"/>
<path d="M1341.52 351.777L1347.1 348.543V355.003L1341.52 351.777Z" fill="white"/>
<path d="M1338.51 259.141L1348.6 253.32V264.963L1338.51 259.141Z" fill="white"/>
<path d="M1232.22 248.727L1250.27 259.14L1232.22 269.554V248.727Z" fill="white"/>
<path d="M1169.92 259.144L1192.14 246.312V271.976L1169.92 259.144Z" fill="white"/>
<path d="M1068.06 242.414L1097.06 259.145L1068.06 275.876V242.414Z" fill="white"/>
<path d="M1003.28 259.144L1034.7 241.008V277.288L1003.28 259.144Z" fill="white"/>
<path d="M905.687 239.18L940.284 259.143L905.687 279.107V239.18Z" fill="white"/>
<path d="M842.425 351.78L874.359 333.344V370.201L842.425 351.78Z" fill="white"/>
<path d="M826.883 380.633L857.124 398.09L826.883 415.541V380.633Z" fill="white"/>
<path d="M765.599 490.718L792.395 475.258V506.178L765.599 490.718Z" fill="white"/>
<path d="M748.045 522.031L774.032 537.03L748.045 552.028V522.031Z" fill="white"/>
<path d="M685.557 629.657L712.027 614.387V644.94L685.557 629.657Z" fill="white"/>
<path d="M752.659 715.281L764.81 722.291L752.659 729.301V715.281Z" fill="white"/>
<path d="M779.367 768.605L785.504 765.066V772.145L779.367 768.605Z" fill="white"/>
<path d="M1397.83 350.188L1400.57 351.778L1397.83 353.36V350.188Z" fill="white"/>
<path d="M1313.81 204.727L1327.86 212.831L1313.81 220.934V204.727Z" fill="white"/>
<path d="M1253.04 212.83L1270.96 202.484V223.175L1253.04 212.83Z" fill="white"/>
<path d="M1149.21 197.641L1175.53 212.829L1149.21 228.018V197.641Z" fill="white"/>
<path d="M1084.68 212.83L1114.37 195.691V229.968L1084.68 212.83Z" fill="white"/>
<path d="M986.122 193.18L1020.18 212.831L986.122 232.483V193.18Z" fill="white"/>
<path d="M920.475 212.83L955.718 192.492V233.174L920.475 212.83Z" fill="white"/>
<path d="M839.476 259.14L875.833 238.164V280.123L839.476 259.14Z" fill="white"/>
<path d="M825.062 284.855L860.768 305.465L825.062 326.06V284.855Z" fill="white"/>
<path d="M760.726 398.092L794.827 378.406V417.777L760.726 398.092Z" fill="white"/>
<path d="M745.611 425.195L778.897 444.405L745.611 463.615V425.195Z" fill="white"/>
<path d="M681.351 537.029L714.134 518.117V555.947L681.351 537.029Z" fill="white"/>
<path d="M665.238 563.914L698.891 583.342L665.238 602.768V563.914Z" fill="white"/>
<path d="M667.542 660.551L694.277 675.977L667.542 691.403V660.551Z" fill="white"/>
<path d="M690.804 722.291L709.404 711.551V733.03L690.804 722.291Z" fill="white"/>
<path d="M754.915 811.812L760.298 814.923L754.915 818.022V811.812Z" fill="white"/>
<path d="M782.737 861.235L783.817 860.609V861.853L782.737 861.235Z" fill="white"/>
<path d="M1423.22 305.462L1426.63 303.492V307.432L1423.22 305.462Z" fill="white"/>
<path d="M1396.42 255.121L1403.39 259.142L1396.42 263.17V255.121Z" fill="white"/>
<path d="M1395.18 160.355L1405.87 166.517L1395.18 172.678V160.355Z" fill="white"/>
<path d="M1335.73 166.518L1350 158.285V174.751L1335.73 166.518Z" fill="white"/>
<path d="M1230.89 153.805L1252.92 166.514L1230.89 179.223V153.805Z" fill="white"/>
<path d="M1167.27 166.517L1193.47 151.402V181.63L1167.27 166.517Z" fill="white"/>
<path d="M1067.06 148.047L1099.07 166.517L1067.06 184.986V148.047Z" fill="white"/>
<path d="M1001.46 166.518L1035.6 146.812V186.224L1001.46 166.518Z" fill="white"/>
<path d="M905.131 145.594L941.386 166.515L905.131 187.437V145.594Z" fill="white"/>
<path d="M839.129 166.517L876.01 145.234V187.798L839.129 166.517Z" fill="white"/>
<path d="M824.45 191.16L861.997 212.83L824.45 234.499V191.16Z" fill="white"/>
<path d="M758.238 305.465L796.071 283.633V327.291L758.238 305.465Z" fill="white"/>
<path d="M744.062 329.883L781.996 351.777L744.062 373.662V329.883Z" fill="white"/>
<path d="M677.199 444.402L716.207 421.891V466.913L677.199 444.402Z" fill="white"/>
<path d="M663.24 467.84L702.88 490.718L663.24 513.596V467.84Z" fill="white"/>
<path d="M595.894 583.344L636.478 559.922V606.765L595.894 583.344Z" fill="white"/>
<path d="M582.479 605.906L623.641 629.654L582.479 653.415V605.906Z" fill="white"/>
<path d="M600.358 675.977L634.249 656.414V695.534L600.358 675.977Z" fill="white"/>
<path d="M670.518 758.328L688.323 768.606L670.518 778.883V758.328Z" fill="white"/>
<path d="M696.104 814.923L706.753 808.77V821.065L696.104 814.923Z" fill="white"/>
<path d="M1478.56 304.703L1479.87 305.464L1478.56 306.211V304.703Z" fill="white"/>
<path d="M1420.71 212.83L1427.89 208.68V216.981L1420.71 212.83Z" fill="white"/>
<path d="M1418.26 120.194L1429.11 113.938V126.457L1418.26 120.194Z" fill="white"/>
<path d="M1312.49 109.824L1330.48 120.197L1312.49 130.576V109.824Z" fill="white"/>
<path d="M1250.64 120.199L1272.17 107.781V132.629L1250.64 120.199Z" fill="white"/>
<path d="M1148.34 103.508L1177.27 120.198L1148.34 136.894V103.508Z" fill="white"/>
<path d="M1083.22 120.195L1115.11 101.801V138.597L1083.22 120.195Z" fill="white"/>
<path d="M985.756 99.9141L1020.91 120.197L985.756 140.487V99.9141Z" fill="white"/>
<path d="M920.121 120.195L955.887 99.5586V140.845L920.121 120.195Z" fill="white"/>
<path d="M824.816 99.1641L861.256 120.194L824.816 141.225V99.1641Z" fill="white"/>
<path d="M757.893 212.831L796.248 190.699V234.961L757.893 212.831Z" fill="white"/>
<path d="M743.613 236.477L782.9 259.144L743.613 281.812V236.477Z" fill="white"/>
<path d="M675.554 351.774L717.036 327.836V375.712L675.554 351.774Z" fill="white"/>
<path d="M662.078 373.203L705.205 398.093L662.078 422.981V373.203Z" fill="white"/>
<path d="M592.591 490.715L638.129 464.434V516.996L592.591 490.715Z" fill="white"/>
<path d="M580.766 510.312L627.072 537.029L580.766 563.751V510.312Z" fill="white"/>
<path d="M510.844 629.659L558.625 602.094V657.238L510.844 629.659Z" fill="white"/>
<path d="M585.299 703.414L618.007 722.292L585.299 741.168V703.414Z" fill="white"/>
<path d="M606.713 768.604L631.075 754.543V782.665L606.713 768.604Z" fill="white"/>
<path d="M673.305 855.777L682.758 861.239L673.305 866.693V855.777Z" fill="white"/>
<path d="M1504.3 259.144L1506.48 257.887V260.4L1504.3 259.144Z" fill="white"/>
<path d="M1477.41 210.078L1482.18 212.829L1477.41 215.58V210.078Z" fill="white"/>
<path d="M1393.93 65.5547L1408.37 73.883L1393.93 82.2242V65.5547Z" fill="white"/>
<path d="M1333.22 73.8843L1351.25 63.4844V84.2909L1333.22 73.8843Z" fill="white"/>
<path d="M1229.94 59.5312L1254.82 73.8846L1229.94 88.2439V59.5312Z" fill="white"/>
<path d="M1165.82 73.8824L1194.19 57.5117V90.2527L1165.82 73.8824Z" fill="white"/>
<path d="M1066.9 55.1328L1099.4 73.881L1066.9 92.6428V55.1328Z" fill="white"/>
<path d="M1001.63 73.8848L1035.52 54.3281V93.4481L1001.63 73.8848Z" fill="white"/>
<path d="M905.857 54.2227L939.931 73.8812L905.857 93.5398V54.2227Z" fill="white"/>
<path d="M841.174 73.884L874.983 54.375V93.4L841.174 73.884Z" fill="white"/>
<path d="M759.476 120.197L795.452 99.4375V140.962L759.476 120.197Z" fill="white"/>
<path d="M744.158 144.789L781.814 166.519L744.158 188.249V144.789Z" fill="white"/>
<path d="M675.969 259.144L716.825 235.566V282.722L675.969 259.144Z" fill="white"/>
<path d="M662.228 280.832L704.905 305.463L662.228 330.087V280.832Z" fill="white"/>
<path d="M591.143 398.093L638.856 370.555V425.631L591.143 398.093Z" fill="white"/>
<path d="M579.638 415.73L629.329 444.403L579.638 473.075V415.73Z" fill="white"/>
<path d="M508.166 537.028L559.964 507.133V566.93L508.166 537.028Z" fill="white"/>
<path d="M498.183 552.598L551.469 583.342L498.183 614.093V552.598Z" fill="white"/>
<path d="M500.106 648.555L547.623 675.978L500.106 703.399V648.555Z" fill="white"/>
<path d="M516.402 722.29L555.845 699.527V745.052L516.402 722.29Z" fill="white"/>
<path d="M588.799 802.102L611.008 814.926L588.799 827.737V802.102Z" fill="white"/>
<path d="M613.338 861.238L627.759 852.91V869.553L613.338 861.238Z" fill="white"/>
<path d="M1559.02 258.734L1559.73 259.142L1559.02 259.556V258.734Z" fill="white"/>
<path d="M1502.2 166.515L1507.52 163.438V169.592L1502.2 166.515Z" fill="white"/>
<path d="M1476.28 115.484L1484.45 120.198L1476.28 124.926V115.484Z" fill="white"/>
<path d="M1475.23 21.0391L1486.54 27.5668L1475.23 34.1012V21.0391Z" fill="white"/>
<path d="M1416.03 27.5666L1430.23 19.375V35.7586L1416.03 27.5666Z" fill="white"/>
<path d="M1311.63 15.6875L1332.22 27.5678L1311.63 39.4554V15.6875Z" fill="white"/>
<path d="M1249.32 27.5699L1272.82 14.0117V41.1421L1249.32 27.5699Z" fill="white"/>
<path d="M1148.38 10.9453L1177.19 27.5675L1148.38 44.1964V10.9453Z" fill="white"/>
<path d="M1084.23 27.5718L1114.6 10.0469V45.0971L1084.23 27.5718Z" fill="white"/>
<path d="M986.992 9.42578L1018.44 27.5693L986.992 45.7199V9.42578Z" fill="white"/>
<path d="M923.261 27.5678L954.325 9.64844V45.4938L923.261 27.5678Z" fill="white"/>
<path d="M826.971 10.2734L856.947 27.5675L826.971 44.869V10.2734Z" fill="white"/>
<path d="M764.191 27.5679L793.094 10.8984V44.2511L764.191 27.5679Z" fill="white"/>
<path d="M745.87 55.1211L778.388 73.8833L745.87 92.6584V55.1211Z" fill="white"/>
<path d="M677.77 166.516L715.921 144.5V188.531L677.77 166.516Z" fill="white"/>
<path d="M663.09 189.688L703.185 212.831L663.09 235.973V189.688Z" fill="white"/>
<path d="M592.809 305.461L638.028 279.363V331.552L592.809 305.461Z" fill="white"/>
<path d="M580.086 323.871L628.431 351.777L580.086 379.667V323.871Z" fill="white"/>
<path d="M506.705 444.401L560.691 413.242V475.56L506.705 444.401Z" fill="white"/>
<path d="M497.246 458.344L553.352 490.718L497.246 523.099V458.344Z" fill="white"/>
<path d="M423.926 583.343L481.703 550.004V616.682L423.926 583.343Z" fill="white"/>
<path d="M416.28 596.059L474.507 629.656L416.28 663.267V596.059Z" fill="white"/>
<path d="M426.8 675.978L480.263 645.117V706.83L426.8 675.978Z" fill="white"/>
<path d="M503.389 746.859L541.065 768.603L503.389 790.346V746.859Z" fill="white"/>
<path d="M523.763 814.922L552.163 798.531V831.307L523.763 814.922Z" fill="white"/>
<path d="M1585.03 212.832L1586.49 211.996V213.674L1585.03 212.832Z" fill="white"/>
<path d="M1558.14 164.586L1561.48 166.515L1558.14 168.444V164.586Z" fill="white"/>
<path d="M1499.87 73.8838L1508.69 68.7891V78.9781L1499.87 73.8838Z" fill="white"/>
<path d="M682.037 73.8838L713.787 55.5703V92.2109L682.037 73.8838Z" fill="white"/>
<path d="M664.559 99.6016L700.25 120.197L664.559 140.806V99.6016Z" fill="white"/>
<path d="M595.676 212.831L636.593 189.219V236.443L595.676 212.831Z" fill="white"/>
<path d="M581.574 233.812L625.462 259.143L581.574 284.473V233.812Z" fill="white"/>
<path d="M508.676 351.774L559.706 322.32V381.227L508.676 351.774Z" fill="white"/>
<path d="M497.755 366.594L552.325 398.093L497.755 429.584V366.594Z" fill="white"/>
<path d="M422.668 490.715L482.328 456.289V525.141L422.668 490.715Z" fill="white"/>
<path d="M415.594 502.234L475.893 537.027L415.594 571.827V502.234Z" fill="white"/>
<path d="M341.602 629.656L402.485 594.523V664.795L341.602 629.656Z" fill="white"/>
<path d="M418.618 692.727L469.838 722.289L418.618 751.851V692.727Z" fill="white"/>
<path d="M433.398 768.601L476.966 743.461V793.741L433.398 768.601Z" fill="white"/>
<path d="M507.392 846.43L533.053 861.239L507.392 876.047V846.43Z" fill="white"/>
<path d="M1639.27 212.414L1639.98 212.828L1639.27 213.242V212.414Z" fill="white"/>
<path d="M1583.33 120.196L1587.34 117.887V122.519L1583.33 120.196Z" fill="white"/>
<path d="M1557.11 70.1797L1563.53 73.8816L1557.11 77.5902V70.1797Z" fill="white"/>
<path d="M667.304 11.7344L694.752 27.5684L667.304 43.4091V11.7344Z" fill="white"/>
<path d="M599.291 120.199L634.786 99.7188V140.686L599.291 120.199Z" fill="white"/>
<path d="M583.301 144.176L622.01 166.517L583.301 188.859V144.176Z" fill="white"/>
<path d="M512.631 259.14L557.735 233.117V285.17L512.631 259.14Z" fill="white"/>
<path d="M499.664 277.258L548.519 305.461L499.664 333.652V277.258Z" fill="white"/>
<path d="M424.822 398.089L481.254 365.523V430.653L424.822 398.089Z" fill="white"/>
<path d="M415.805 409.977L475.465 444.403L415.805 478.828V409.977Z" fill="white"/>
<path d="M340.785 537.031L402.885 501.191V572.869L340.785 537.031Z" fill="white"/>
<path d="M334.588 547.246L397.143 583.344L334.588 619.454V547.246Z" fill="white"/>
<path d="M335.771 641.922L394.772 675.974L335.771 710.019V641.922Z" fill="white"/>
<path d="M346.039 722.291L400.269 690.996V753.585L346.039 722.291Z" fill="white"/>
<path d="M422.532 792.125L462.023 814.921L422.532 837.704V792.125Z" fill="white"/>
<path d="M441.764 861.236L472.78 843.336V879.127L441.764 861.236Z" fill="white"/>
<path d="M1665.39 166.516L1666.7 165.762V167.27L1665.39 166.516Z" fill="white"/>
<path d="M1638.64 118.703L1641.25 120.198L1638.64 121.706V118.703Z" fill="white"/>
<path d="M1581.65 27.5698L1588.18 23.793V31.3471L1581.65 27.5698Z" fill="white"/>
<path d="M604.912 27.5696L631.973 11.9531V43.1932L604.912 27.5696Z" fill="white"/>
<path d="M585.829 55.9375L616.94 73.8846L585.829 91.8442V55.9375Z" fill="white"/>
<path d="M516.647 166.516L555.723 143.957V189.068L516.647 166.516Z" fill="white"/>
<path d="M501.928 188.559L543.981 212.829L501.928 237.1V188.559Z" fill="white"/>
<path d="M429.396 305.463L478.964 276.852V334.067L429.396 305.463Z" fill="white"/>
<path d="M417.885 320.945L471.306 351.779L417.885 382.604V320.945Z" fill="white"/>
<path d="M341.988 444.404L402.288 409.598V479.203L341.988 444.404Z" fill="white"/>
<path d="M334.689 454.797L396.939 490.718L334.689 526.638V454.797Z" fill="white"/>
<path d="M260.221 583.344L322.789 547.246V619.454L260.221 583.344Z" fill="white"/>
<path d="M254.737 594.266L316.076 629.656L254.737 665.06V594.266Z" fill="white"/>
<path d="M262.246 675.976L321.777 641.625V710.327L262.246 675.976Z" fill="white"/>
<path d="M338.896 739.973L388.52 768.604L338.896 797.236V739.973Z" fill="white"/>
<path d="M353.996 814.921L396.287 790.516V839.322L353.996 814.921Z" fill="white"/>
<path d="M1664.11 73.881L1667.33 72.0195V75.7421L1664.11 73.881Z" fill="white"/>
<path d="M1637.9 24.7969L1642.71 27.568L1637.9 30.3533V24.7969Z" fill="white"/>
<path d="M522.18 73.8803L552.958 56.1172V91.6501L522.18 73.8803Z" fill="white"/>
<path d="M504.238 99.9336L539.359 120.197L504.238 140.467V99.9336Z" fill="white"/>
<path d="M434.785 212.832L476.273 188.887V236.776L434.785 212.832Z" fill="white"/>
<path d="M420.826 233.41L465.42 259.141L420.826 284.879V233.41Z" fill="white"/>
<path d="M346.922 351.776L399.821 321.242V382.303L346.922 351.776Z" fill="white"/>
<path d="M336.518 365.336L393.277 398.091L336.518 430.846V365.336Z" fill="white"/>
<path d="M260.738 490.717L322.532 455.055V526.379L260.738 490.717Z" fill="white"/>
<path d="M254.539 501.289L316.469 537.033L254.539 572.776V501.289Z" fill="white"/>
<path d="M181.865 629.655L241.586 595.195V664.122L181.865 629.655Z" fill="white"/>
<path d="M256.912 690.656L311.727 722.291L256.912 753.925V690.656Z" fill="white"/>
<path d="M268.729 768.604L318.536 739.863V797.344L268.729 768.604Z" fill="white"/>
<path d="M343.592 840.738L379.12 861.239L343.592 881.739V840.738Z" fill="white"/>
<path d="M507.181 12.3945L533.48 27.57L507.181 42.7518V12.3945Z" fill="white"/>
<path d="M439.842 120.196L473.745 100.633V139.772L439.842 120.196Z" fill="white"/>
<path d="M423.361 145.168L460.351 166.518L423.361 187.861V145.168Z" fill="white"/>
<path d="M353.398 259.141L396.585 234.219V284.064L353.398 259.141Z" fill="white"/>
<path d="M339.616 278.074L387.078 305.463L339.616 332.845V278.074Z" fill="white"/>
<path d="M264.862 398.09L320.466 366V430.178L264.862 398.09Z" fill="white"/>
<path d="M255.613 410.527L314.316 444.403L255.613 478.279V410.527Z" fill="white"/>
<path d="M181.648 537.031L241.696 502.375V571.688L181.648 537.031Z" fill="white"/>
<path d="M175.022 548.875L234.744 583.342L175.022 617.809V548.875Z" fill="white"/>
<path d="M176.312 643.742L232.161 675.974L176.312 708.206V643.742Z" fill="white"/>
<path d="M186.242 722.29L239.398 691.613V752.966L186.242 722.29Z" fill="white"/>
<path d="M260.895 790.184L303.756 814.922L260.895 839.648V790.184Z" fill="white"/>
<path d="M277.959 861.236L313.922 840.477V881.988L277.959 861.236Z" fill="white"/>
<path d="M445.536 27.569L470.899 12.9375V42.2145L445.536 27.569Z" fill="white"/>
<path d="M426.223 57.5L454.629 73.8848L426.223 90.2824V57.5Z" fill="white"/>
<path d="M358.699 166.519L393.929 146.188V186.849L358.699 166.519Z" fill="white"/>
<path d="M342.797 190.938L380.724 212.831L342.797 234.724V190.938Z" fill="white"/>
<path d="M271.475 305.464L317.163 279.094V331.82L271.475 305.464Z" fill="white"/>
<path d="M258.529 322.941L308.492 351.777L258.529 380.605V322.941Z" fill="white"/>
<path d="M183.83 444.403L240.602 411.641V477.164L183.83 444.403Z" fill="white"/>
<path d="M175.491 457.078L233.792 490.717L175.491 524.354V457.078Z" fill="white"/>
<path d="M103.285 583.345L160.492 550.332V616.365L103.285 583.345Z" fill="white"/>
<path d="M96.3535 597.945L151.311 629.654L96.3535 661.376V597.945Z" fill="white"/>
<path d="M106.078 675.977L159.1 645.375V706.579L106.078 675.977Z" fill="white"/>
<path d="M179.534 741.953L225.718 768.601L179.534 795.256V741.953Z" fill="white"/>
<path d="M194.288 814.924L235.376 791.211V838.631L194.288 814.924Z" fill="white"/>
<path d="M364.496 73.8817L391.034 58.5703V89.2061L364.496 73.8817Z" fill="white"/>
<path d="M345.516 103.016L375.288 120.194L345.516 137.38V103.016Z" fill="white"/>
<path d="M278.373 212.828L313.712 192.43V233.227L278.373 212.828Z" fill="white"/>
<path d="M262.226 236.707L301.098 259.144L262.226 281.581V236.707Z" fill="white"/>
<path d="M189.912 351.775L237.565 324.277V379.272L189.912 351.775Z" fill="white"/>
<path d="M177.72 368.297L229.34 398.09L177.72 427.883V368.297Z" fill="white"/>
<path d="M104.025 490.718L160.125 458.344V523.093L104.025 490.718Z" fill="white"/>
<path d="M95.9463 504.617L152.127 537.032L95.9463 569.454V504.617Z" fill="white"/>
<path d="M26.3838 629.659L78.5616 599.547V659.779L26.3838 629.659Z" fill="white"/>
<path d="M99.1738 695.453L145.671 722.291L99.1738 749.13V695.453Z" fill="white"/>
<path d="M113.234 768.602L155.517 744.195V793.009L113.234 768.602Z" fill="white"/>
<path d="M184.107 842.5L216.564 861.235L184.107 879.962V842.5Z" fill="white"/>
<path d="M348.199 15.043L369.912 27.5688L348.199 40.1014V15.043Z" fill="white"/>
<path d="M283.993 120.197L310.904 104.676V135.725L283.993 120.197Z" fill="white"/>
<path d="M265.284 149.375L294.982 166.514L265.284 183.651V149.375Z" fill="white"/>
<path d="M197.869 259.141L233.588 238.539V279.751L197.869 259.141Z" fill="white"/>
<path d="M181.465 282.148L221.853 305.462L181.465 328.761V282.148Z" fill="white"/>
<path d="M108.641 398.092L157.815 369.711V426.471L108.641 398.092Z" fill="white"/>
<path d="M97.1963 414.141L149.632 444.403L97.1963 474.665V414.141Z" fill="white"/>
<path d="M25.1475 537.03L79.181 505.844V568.222L25.1475 537.03Z" fill="white"/>
<path d="M16.8564 552.938L69.5435 583.342L16.8564 613.747V552.938Z" fill="white"/>
<path d="M18.9434 649.18L65.3654 675.978L18.9434 702.768V649.18Z" fill="white"/>
<path d="M32.7998 722.29L75.355 697.734V746.846L32.7998 722.29Z" fill="white"/>
<path d="M103.326 795.281L137.36 814.926L103.326 834.557V795.281Z" fill="white"/>
<path d="M122.116 861.237L151.08 844.52V877.947L122.116 861.237Z" fill="white"/>
<path d="M289.219 27.5702L308.294 16.5664V38.5814L289.219 27.5702Z" fill="white"/>
<path d="M268.152 61.7188L289.24 73.8845L268.152 86.0569V61.7188Z" fill="white"/>
<path d="M204.047 166.514L230.496 151.25V181.777L204.047 166.514Z" fill="white"/>
<path d="M185.284 196.133L214.221 212.83L185.284 229.527V196.133Z" fill="white"/>
<path d="M116.238 305.464L154.016 283.652V327.269L116.238 305.464Z" fill="white"/>
<path d="M100.458 327.156L143.109 351.774L100.458 376.384V327.156Z" fill="white"/>
<path d="M27.4033 444.402L78.0525 415.172V473.624L27.4033 444.402Z" fill="white"/>
<path d="M16.9375 460.461L69.3736 490.716L16.9375 520.971V460.461Z" fill="white"/>
<path d="M23.0137 748.859L57.2239 768.606L23.0137 788.352V748.859Z" fill="white"/>
<path d="M41.3613 814.926L71.0732 797.781V832.071L41.3613 814.926Z" fill="white"/>
<path d="M209.783 73.8843L227.628 63.5859V84.1886L209.783 73.8843Z" fill="white"/>
<path d="M188.192 108.539L208.403 120.196L188.192 131.866V108.539Z" fill="white"/>
<path d="M124.298 212.83L149.986 198.008V227.651L124.298 212.83Z" fill="white"/>
<path d="M104.768 241.992L134.492 259.144L104.768 276.296V241.992Z" fill="white"/>
<path d="M34.0088 351.775L74.7501 328.258V375.291L34.0088 351.775Z" fill="white"/>
<path d="M19.2686 371.863L64.7125 398.09L19.2686 424.31V371.863Z" fill="white"/>
<path d="M27.3418 848.984L48.5721 861.239L27.3418 873.486V848.984Z" fill="white"/>
<path d="M190.652 20.1797L203.475 27.5702L190.652 34.974V20.1797Z" fill="white"/>
<path d="M130.278 120.197L146.995 110.551V129.849L130.278 120.197Z" fill="white"/>
<path d="M108.145 155.211L127.723 166.514L108.145 177.811V155.211Z" fill="white"/>
<path d="M43.1426 259.142L70.1826 243.539V274.745L43.1426 259.142Z" fill="white"/>
<path d="M23.3867 286.359L56.4825 305.461L23.3867 324.562V286.359Z" fill="white"/>
<path d="M134.872 27.5716L144.699 21.9062V33.2506L134.872 27.5716Z" fill="white"/>
<path d="M110.965 67.4688L122.089 73.8816L110.965 80.3074V67.4688Z" fill="white"/>
<path d="M50.1895 166.519L66.6627 157.016V176.022L50.1895 166.519Z" fill="white"/>
<path d="M27.7295 201.254L47.7907 212.829L27.7295 224.403V201.254Z" fill="white"/>
<path d="M55.7285 73.8807L63.8902 69.1797V78.5946L55.7285 73.8807Z" fill="white"/>
<path d="M30.917 114.137L41.4298 120.196L30.917 126.268V114.137Z" fill="white"/>
<path d="M32.9697 25.0625L37.3188 27.5692L32.9697 30.0826V25.0625Z" fill="white"/>
<path d="M1199.73 865.488L1199.74 865.498H1199.73V865.488Z" fill="white"/>
<path d="M1279.87 818.984L1280.22 819.181L1279.87 819.384V818.984Z" fill="white"/>
<path d="M1306.53 772.871L1306.84 772.688V773.053L1306.53 772.871Z" fill="white"/>
<path d="M1305.8 865.501L1307.21 864.68V866.316L1305.8 865.501Z" fill="white"/>
<path d="M1359.97 772.391L1360.79 772.867L1359.97 773.342V772.391Z" fill="white"/>
<path d="M1386.55 726.555L1387.22 726.168V726.942L1386.55 726.555Z" fill="white"/>
<path d="M1440.39 633.746L1440.7 633.922L1440.39 634.104V633.746Z" fill="white"/>
<path d="M1467.24 587.608L1467.25 587.602V587.621L1467.24 587.608Z" fill="white"/>
<path d="M1359.59 864.375L1361.54 865.503L1359.59 866.624V864.375Z" fill="white"/>
<path d="M1385.8 819.182L1387.59 818.148V820.221L1385.8 819.182Z" fill="white"/>
<path d="M1440.02 725.734L1441.44 726.556L1440.02 727.371V725.734Z" fill="white"/>
<path d="M1466.55 680.235L1467.6 679.637V680.839L1466.55 680.235Z" fill="white"/>
<path d="M1520.53 587.219L1521.2 587.606L1520.53 588V587.219Z" fill="white"/>
<path d="M1547.27 541.297L1547.62 541.094V541.5L1547.27 541.297Z" fill="white"/>
<path d="M1439.64 817.707L1442.2 819.182L1439.64 820.662V817.707Z" fill="white"/>
<path d="M1465.8 772.867L1467.97 771.609V774.123L1465.8 772.867Z" fill="white"/>
<path d="M1520.15 679.203L1521.95 680.236L1520.15 681.275V679.203Z" fill="white"/>
<path d="M1546.56 633.925L1547.97 633.109V634.74L1546.56 633.925Z" fill="white"/>
<path d="M1600.74 540.82L1601.55 541.296L1600.74 541.771V540.82Z" fill="white"/>
<path d="M1627.31 494.981L1627.98 494.594V495.368L1627.31 494.981Z" fill="white"/>
<path d="M1465.02 865.499L1468.37 863.57V867.429L1465.02 865.499Z" fill="white"/>
<path d="M1519.77 771.164L1522.72 772.87L1519.77 774.575V771.164Z" fill="white"/>
<path d="M1545.79 726.554L1548.35 725.074V728.029L1545.79 726.554Z" fill="white"/>
<path d="M1600.28 632.672L1602.46 633.922L1600.28 635.185V632.672Z" fill="white"/>
<path d="M1626.56 587.611L1628.35 586.578V588.643L1626.56 587.611Z" fill="white"/>
<path d="M1680.91 494.383L1681.95 494.981L1680.91 495.578V494.383Z" fill="white"/>
<path d="M1707.54 448.668L1708.25 448.254V449.075L1707.54 448.668Z" fill="white"/>
<path d="M1519.38 863.109L1523.51 865.5L1519.38 867.878V863.109Z" fill="white"/>
<path d="M1544.94 819.183L1548.79 816.961V821.411L1544.94 819.183Z" fill="white"/>
<path d="M1599.89 724.625L1603.24 726.554L1599.89 728.484V724.625Z" fill="white"/>
<path d="M1625.79 680.238L1628.74 678.539V681.95L1625.79 680.238Z" fill="white"/>
<path d="M1680.54 586.359L1682.71 587.609L1680.54 588.872V586.359Z" fill="white"/>
<path d="M1706.82 541.295L1708.61 540.262V542.327L1706.82 541.295Z" fill="white"/>
<path d="M1599.49 816.566L1604.03 819.182L1599.49 821.796V816.566Z" fill="white"/>
<path d="M1625 772.869L1629.14 770.484V775.253L1625 772.869Z" fill="white"/>
<path d="M1680.14 678.305L1683.49 680.234L1680.14 682.17V678.305Z" fill="white"/>
<path d="M1706.04 633.921L1709 632.223V635.633L1706.04 633.921Z" fill="white"/>
<path d="M1624.12 865.503L1629.58 862.352V868.642L1624.12 865.503Z" fill="white"/>
<path d="M1679.71 770.184L1684.36 772.867L1679.71 775.55V770.184Z" fill="white"/>
<path d="M1705.26 726.556L1709.39 724.172V728.94L1705.26 726.556Z" fill="white"/>
<path d="M1679.23 861.984L1685.32 865.503L1679.23 869.015V861.984Z" fill="white"/>
<path d="M1704.38 819.185L1709.83 816.039V822.329L1704.38 819.185Z" fill="white"/>
</g>
</svg>
