<svg width="1728" height="901" viewBox="0 0 1728 901" fill="none" xmlns="http://www.w3.org/2000/svg">
<path d="M916.634 399.995C844.31 429.139 758.208 468.053 667.895 535.896C577.581 603.739 515.419 676.172 466.522 738.116L461.982 737.688C511.383 675.132 574.253 601.877 665.867 533.057C757.481 464.237 844.547 424.861 917.605 395.427L916.634 399.995Z" fill="url(#paint0_linear_1205_35069)" fill-opacity="0.5"/>
<path d="M983.227 349.884C877.389 389.984 767.969 431.407 654.309 516.787C540.612 602.197 469.083 696.673 399.917 788.036L395.264 787.78C464.984 695.709 537.053 600.507 652.32 513.92C767.586 427.332 877.831 385.58 984.417 345.21L983.227 349.884Z" fill="url(#paint1_linear_1205_35069)" fill-opacity="0.5"/>
<path d="M1050.03 299.737C1023.14 310.575 995.93 320.892 969.624 330.823C863.822 370.894 754.362 412.347 640.701 497.729C527.003 583.139 455.472 677.617 386.281 769.029C369.061 791.765 351.263 815.256 333.127 838.273L328.587 837.845C346.712 814.894 364.433 791.461 381.628 768.772C451.335 676.682 523.406 581.479 638.674 494.89C753.942 408.301 864.188 366.548 970.813 326.149C997.054 316.208 1024.22 305.92 1051.03 295.121L1050.03 299.737Z" fill="url(#paint2_linear_1205_35069)" fill-opacity="0.5"/>
<path d="M1131.32 238.763C1072.13 267.781 1013.12 290.126 956.048 311.736C850.246 351.808 740.785 393.261 627.086 478.672C513.386 564.083 441.856 658.561 372.689 749.926C335.622 798.884 297.287 849.522 252.826 898.335L248.828 897.266C292.884 848.874 331.083 798.455 367.984 749.679C437.705 657.607 509.776 562.403 625.045 475.814C740.313 389.224 850.559 347.472 957.185 307.072C1014.02 285.549 1072.8 263.291 1131.46 234.523L1131.32 238.763Z" fill="url(#paint3_linear_1205_35069)" fill-opacity="0.5"/>
<path d="M1274.47 124.019C1159.21 210.603 1048.97 252.353 942.347 292.75C836.551 332.819 727.096 374.269 613.441 459.645C499.748 545.051 428.222 639.523 359.058 730.883C321.994 779.838 283.661 830.473 239.202 879.283L235.205 878.214C279.258 829.825 317.454 779.409 354.354 730.636C424.071 638.57 496.138 543.372 611.4 456.788C726.662 370.204 836.903 328.454 943.523 288.057C1049.32 247.988 1158.77 206.538 1272.43 121.161C1386.12 35.7556 1457.65 -58.7167 1526.8 -150.095C1596.51 -242.161 1668.58 -337.359 1783.84 -423.943L1785.87 -421.104C1672.18 -335.699 1600.65 -241.227 1531.5 -149.848C1461.8 -57.7631 1389.73 37.4348 1274.47 124.019Z" fill="url(#paint4_linear_1205_35069)" fill-opacity="0.5"/>
<path d="M1260.85 104.952C1145.58 191.536 1035.34 233.286 928.71 273.664C822.914 313.733 713.459 355.183 599.805 440.559C486.111 525.965 414.585 620.437 345.435 711.816C308.371 760.771 270.037 811.406 225.579 860.216L221.582 859.147C265.635 810.758 303.818 760.323 340.731 711.569C410.435 619.484 482.501 524.286 597.763 437.702C713.026 351.118 823.266 309.368 929.899 268.99C1035.7 228.921 1145.15 187.471 1258.8 102.094C1372.5 16.6886 1444.02 -77.7838 1513.17 -169.162C1582.88 -261.247 1654.94 -356.445 1770.21 -443.029L1772.23 -440.19C1658.54 -354.785 1587.01 -260.313 1517.86 -168.934C1448.17 -76.8302 1376.11 18.3678 1260.85 104.952Z" fill="url(#paint5_linear_1205_35069)" fill-opacity="0.5"/>
<path d="M1247.22 85.875C1131.96 172.459 1021.72 214.209 915.101 254.606C809.305 294.675 699.85 336.125 586.195 421.502C472.502 506.907 400.976 601.379 331.812 692.739C294.723 741.741 256.39 792.377 211.931 841.186L207.972 840.089C252.026 791.7 290.222 741.284 327.122 692.511C396.839 600.445 468.906 505.247 584.168 418.663C699.43 332.079 809.67 290.329 916.29 249.932C1022.09 209.863 1131.54 168.413 1245.2 83.036C1358.89 -2.36941 1430.42 -96.8417 1499.57 -188.22C1569.28 -280.286 1641.35 -375.484 1756.61 -462.068L1758.64 -459.229C1644.95 -373.824 1573.42 -279.352 1504.27 -187.973C1434.55 -95.9071 1362.49 -0.709074 1247.22 85.875Z" fill="url(#paint6_linear_1205_35069)" fill-opacity="0.5"/>
<path d="M1233.6 66.808C1118.34 153.392 1008.1 195.142 901.483 235.539C795.686 275.608 686.232 317.058 572.577 402.434C458.884 487.84 387.357 582.312 318.194 673.672C281.13 722.627 242.796 773.262 198.338 822.072L194.34 821.003C238.394 772.614 276.59 722.198 313.49 673.425C383.207 581.359 455.274 486.161 570.536 399.577C685.798 312.993 796.038 271.243 902.658 230.846C1008.45 190.777 1117.91 149.327 1231.56 63.9501C1345.26 -21.4554 1416.78 -115.928 1485.93 -207.306C1555.65 -299.372 1627.72 -394.57 1742.98 -481.154L1745.01 -478.315C1631.31 -392.91 1559.79 -298.438 1490.64 -207.059C1420.93 -114.974 1348.87 -19.7761 1233.6 66.808Z" fill="url(#paint7_linear_1205_35069)" fill-opacity="0.5"/>
<path d="M1219.98 47.7344C1104.72 134.318 994.482 176.068 887.862 216.465C782.066 256.534 672.624 298.003 558.97 383.38C445.277 468.785 373.75 563.258 304.586 654.617C267.522 703.572 229.189 754.207 184.73 803.017L180.733 801.948C224.787 753.559 262.983 703.143 299.883 654.37C369.6 562.304 441.666 467.106 556.929 380.522C672.191 293.938 782.431 252.188 889.051 211.791C994.847 171.722 1104.29 130.253 1217.94 44.8764C1331.64 -40.529 1403.16 -135.001 1472.33 -226.361C1542.03 -318.446 1614.11 -413.625 1729.37 -500.209L1731.4 -497.37C1617.71 -411.965 1546.18 -317.492 1477.02 -226.133C1407.31 -134.048 1335.25 -38.8497 1219.98 47.7344Z" fill="url(#paint8_linear_1205_35069)" fill-opacity="0.5"/>
<path d="M1206.35 28.643C1091.09 115.227 980.846 156.977 874.226 197.374C768.43 237.443 658.975 278.893 545.321 364.27C431.627 449.675 360.101 544.147 290.937 635.507C253.849 684.509 215.515 735.145 171.056 783.955L167.059 782.886C211.113 734.497 249.309 684.081 286.209 635.308C355.926 543.241 427.993 448.043 543.255 361.459C658.517 274.875 768.757 233.126 875.377 192.729C981.173 152.66 1090.63 111.21 1204.28 25.8329C1317.98 -59.5726 1389.5 -154.045 1458.65 -245.423C1528.37 -337.49 1600.44 -432.687 1715.7 -519.271L1717.73 -516.432C1604.03 -431.027 1532.51 -336.555 1463.36 -245.176C1393.68 -153.139 1321.61 -57.941 1206.35 28.643Z" fill="url(#paint9_linear_1205_35069)" fill-opacity="0.5"/>
<path d="M1192.72 9.57029C1077.46 96.1543 967.221 137.904 860.601 178.301C754.805 218.37 645.364 259.839 531.709 345.216C418.016 430.621 346.489 525.094 277.326 616.453C240.262 665.408 201.928 716.043 157.469 764.853L153.472 763.784C197.526 715.395 235.722 664.979 272.622 616.206C342.339 524.14 414.406 428.942 529.668 342.358C644.93 255.774 755.17 214.024 861.79 173.627C967.586 133.558 1077.03 92.0891 1190.68 6.71238C1304.38 -78.693 1375.9 -173.165 1445.07 -264.525C1514.77 -356.61 1586.85 -451.789 1702.11 -538.373L1704.14 -535.534C1590.45 -450.129 1518.92 -355.656 1449.76 -264.297C1380.05 -172.212 1307.99 -77.0138 1192.72 9.57029Z" fill="url(#paint10_linear_1205_35069)" fill-opacity="0.5"/>
<path d="M1179.11 -9.50006C1063.84 77.0839 953.604 118.834 846.984 159.231C741.188 199.3 631.747 240.769 518.092 326.145C404.399 411.551 332.872 506.023 263.709 597.383C226.644 646.338 188.311 696.973 143.852 745.783L139.855 744.714C183.909 696.325 222.105 645.909 259.005 597.136C328.722 505.07 400.788 409.872 516.051 323.288C631.313 236.704 741.553 194.954 848.173 154.557C953.969 114.488 1063.41 73.0187 1177.06 -12.3579C1290.76 -97.7633 1362.28 -192.236 1431.45 -283.595C1501.17 -375.661 1573.23 -470.859 1688.49 -557.443L1690.52 -554.604C1576.83 -469.199 1505.3 -374.727 1436.14 -283.367C1366.43 -191.282 1294.37 -96.0841 1179.11 -9.50006Z" fill="url(#paint11_linear_1205_35069)" fill-opacity="0.5"/>
<path d="M1165.48 -28.567C1050.22 58.0169 939.982 99.7667 833.361 140.164C727.565 180.233 618.111 221.683 504.456 307.059C390.763 392.465 319.236 486.937 250.073 578.297C213.009 627.252 174.675 677.887 130.217 726.697L126.219 725.628C170.273 677.239 208.469 626.823 245.369 578.05C315.086 485.984 387.153 390.786 502.415 304.202C617.677 217.618 727.917 175.868 834.537 135.471C940.333 95.402 1049.79 53.9518 1163.44 -31.4249C1277.14 -116.83 1348.66 -211.303 1417.81 -302.681C1487.53 -394.747 1559.6 -489.945 1674.86 -576.529L1676.89 -573.69C1563.19 -488.285 1491.67 -393.813 1422.52 -302.434C1352.81 -210.349 1280.75 -115.151 1165.48 -28.567Z" fill="url(#paint12_linear_1205_35069)" fill-opacity="0.5"/>
<path d="M1151.86 -47.6407C1036.6 38.9433 926.357 80.693 819.737 121.09C713.941 161.159 604.499 202.628 490.845 288.005C377.152 373.41 305.625 467.883 236.461 559.242C199.397 608.197 161.064 658.832 116.605 707.642L112.608 706.573C156.662 658.184 194.844 607.749 231.758 558.995C301.475 466.929 373.541 371.731 488.804 285.147C604.066 198.563 714.306 156.813 820.926 116.416C926.722 76.3473 1036.16 34.8781 1149.82 -50.4986C1263.51 -135.904 1335.04 -230.376 1404.2 -321.736C1473.9 -413.821 1545.98 -509 1661.25 -595.584L1663.27 -592.745C1549.58 -507.34 1478.05 -412.867 1408.89 -321.508C1339.19 -229.423 1267.12 -134.225 1151.86 -47.6407Z" fill="url(#paint13_linear_1205_35069)" fill-opacity="0.5"/>
<path d="M1138.24 -66.7209C1022.98 19.8632 912.736 61.6129 806.116 102.01C700.319 142.079 590.865 183.529 477.21 268.906C363.517 354.311 291.99 448.784 222.827 540.143C185.725 589.127 147.391 639.762 102.932 688.572L98.9352 687.503C142.989 639.114 181.171 588.679 218.085 539.925C287.802 447.859 359.868 352.661 475.131 266.077C590.393 179.493 700.633 137.743 807.253 97.3459C913.049 57.277 1022.5 15.8268 1136.16 -69.5499C1249.85 -154.955 1321.38 -249.428 1390.53 -340.806C1460.25 -432.872 1532.31 -528.07 1647.57 -614.654L1649.6 -611.815C1535.91 -526.41 1464.38 -431.938 1395.23 -340.559C1325.57 -248.503 1253.5 -153.305 1138.24 -66.7209Z" fill="url(#paint14_linear_1205_35069)" fill-opacity="0.5"/>
<path d="M1124.61 -85.8047C1009.34 0.77923 899.103 42.529 792.483 82.926C686.687 122.995 577.246 164.464 463.591 249.841C349.898 335.246 278.371 429.719 209.208 521.078C172.143 570.033 133.81 620.668 89.3513 669.478L85.3541 668.409C129.408 620.02 167.604 569.604 204.504 520.831C274.221 428.765 346.287 333.567 461.55 246.983C576.812 160.399 687.052 118.649 793.672 78.2521C899.468 38.1832 1008.91 -3.28595 1122.56 -88.6626C1236.26 -174.068 1307.78 -268.54 1376.95 -359.9C1446.66 -451.966 1518.73 -547.164 1633.99 -633.748L1636.02 -630.909C1522.33 -545.504 1450.8 -451.031 1381.64 -359.672C1311.93 -267.587 1239.87 -172.389 1124.61 -85.8047Z" fill="url(#paint15_linear_1205_35069)" fill-opacity="0.5"/>
<path d="M1110.98 -104.872C995.72 -18.2878 885.48 23.462 778.86 63.859C673.063 103.928 563.609 145.378 449.954 230.755C336.261 316.16 264.734 410.633 195.571 501.992C158.507 550.947 120.173 601.582 75.7146 650.392L71.7174 649.323C115.771 600.934 153.954 550.499 190.867 501.745C260.584 409.679 332.651 314.481 447.913 227.897C563.175 141.313 673.415 99.5632 780.035 59.1661C885.831 19.0973 995.286 -22.3529 1108.94 -107.73C1222.63 -193.135 1294.16 -287.607 1363.31 -378.986C1433.01 -471.071 1505.09 -566.25 1620.36 -652.834L1622.38 -649.995C1508.69 -564.59 1437.16 -470.117 1368.01 -378.739C1298.31 -286.654 1226.24 -191.456 1110.98 -104.872Z" fill="url(#paint16_linear_1205_35069)" fill-opacity="0.5"/>
<path d="M1097.36 -123.953C982.098 -37.3692 871.858 4.3805 765.238 44.7775C659.441 84.8464 549.987 126.297 436.332 211.673C322.639 297.079 251.112 391.551 181.962 482.93C144.898 531.884 106.565 582.52 62.1062 631.33L58.109 630.261C102.163 581.872 140.359 531.456 177.259 482.683C246.976 390.616 319.042 295.418 434.304 208.834C549.567 122.25 659.807 80.5007 766.427 40.1036C872.223 0.0347891 981.677 -41.4155 1095.33 -126.792C1209.03 -212.198 1280.55 -306.67 1349.7 -398.048C1419.41 -490.133 1491.49 -585.312 1606.75 -671.896L1608.78 -669.057C1495.08 -583.652 1423.56 -489.18 1354.41 -397.801C1284.69 -305.735 1212.62 -210.537 1097.36 -123.953Z" fill="url(#paint17_linear_1205_35069)" fill-opacity="0.5"/>
<path d="M1083.74 -143.023C968.476 -56.4395 858.236 -14.6898 751.616 25.7072C645.819 65.7761 536.378 107.245 422.724 192.622C309.03 278.027 237.504 372.5 168.34 463.859C131.276 512.814 92.9429 563.449 48.4841 612.259L44.4869 611.191C88.5405 562.801 126.737 512.386 163.636 463.612C233.34 371.527 305.42 276.348 420.682 189.764C535.944 103.18 646.185 61.4303 752.805 21.0333C858.601 -19.0355 968.055 -60.4858 1081.71 -145.862C1195.4 -231.268 1266.93 -325.74 1336.08 -417.119C1405.78 -509.204 1477.86 -604.383 1593.13 -690.967L1595.15 -688.128C1481.46 -602.722 1409.93 -508.25 1340.77 -416.891C1271.07 -324.806 1199 -229.608 1083.74 -143.023Z" fill="url(#paint18_linear_1205_35069)" fill-opacity="0.5"/>
<path d="M1070.12 -162.094C954.858 -75.5098 844.617 -33.7601 737.997 6.63693C632.201 46.7058 522.76 88.175 409.105 173.552C295.412 258.957 223.886 353.429 154.722 444.789C117.658 493.744 79.3247 544.379 34.866 593.189L30.8688 592.12C74.9224 543.731 113.118 493.315 150.018 444.542C219.735 352.476 291.802 257.278 407.064 170.694C522.326 84.1098 632.567 42.36 739.187 1.963C844.983 -38.1058 954.424 -79.575 1068.08 -164.952C1181.77 -250.357 1253.3 -344.829 1322.46 -436.189C1392.18 -528.255 1464.25 -623.453 1579.51 -710.037L1581.54 -707.198C1467.84 -621.793 1396.32 -527.32 1327.15 -435.961C1257.45 -343.876 1185.38 -248.678 1070.12 -162.094Z" fill="url(#paint19_linear_1205_35069)" fill-opacity="0.5"/>
<path d="M1056.48 -181.188C941.22 -94.6036 830.98 -52.8539 724.36 -12.4568C618.564 27.6121 509.123 69.0813 395.468 154.458C281.775 239.863 210.248 334.336 141.084 425.695C104.02 474.65 65.687 525.285 21.2283 574.095L17.2311 573.027C61.2847 524.637 99.4673 474.203 136.381 425.448C206.098 333.382 278.164 238.184 393.427 151.6C508.689 65.016 618.929 23.2663 725.549 -17.1307C831.345 -57.1996 940.786 -98.6688 1054.44 -184.045C1168.13 -269.451 1239.66 -363.923 1308.82 -455.283C1378.53 -547.368 1450.61 -642.547 1565.87 -729.131L1567.9 -726.292C1454.2 -640.886 1382.68 -546.414 1313.51 -455.055C1243.82 -362.951 1171.74 -267.772 1056.48 -181.188Z" fill="url(#paint20_linear_1205_35069)" fill-opacity="0.5"/>
<path d="M1042.86 -200.258C927.599 -113.674 817.359 -71.9242 710.739 -31.5271C604.942 8.54175 495.501 50.0109 381.847 135.388C268.153 220.793 196.627 315.265 127.463 406.625C90.3993 455.58 52.0659 506.215 7.60717 555.025L3.60999 553.956C47.6636 505.567 85.8597 455.151 122.759 406.378C192.477 314.312 264.543 219.114 379.805 132.53C495.068 45.9457 605.308 4.19597 711.928 -36.2011C817.724 -76.2699 927.165 -117.739 1040.82 -203.116C1154.51 -288.521 1226.04 -382.993 1295.2 -474.353C1364.91 -566.438 1436.99 -661.617 1552.25 -748.201L1554.28 -745.362C1440.58 -659.957 1369.06 -565.484 1299.89 -474.125C1230.19 -382.04 1158.12 -286.842 1042.86 -200.258Z" fill="url(#paint21_linear_1205_35069)" fill-opacity="0.5"/>
<path d="M1029.24 -219.326C913.979 -132.742 803.739 -90.992 697.119 -50.5949C591.323 -10.5261 481.868 30.9242 368.213 116.301C254.52 201.706 182.993 296.179 113.83 387.538C76.7411 436.541 38.4077 487.176 -6.05103 535.986L-10.0482 534.917C34.0054 486.528 72.2015 436.112 109.101 387.339C178.818 295.273 250.885 200.075 366.147 113.491C481.409 26.9067 591.65 -14.843 698.27 -55.2401C804.066 -95.309 913.507 -136.778 1027.16 -222.155C1140.85 -307.56 1212.38 -402.033 1281.54 -493.392C1351.25 -585.477 1423.33 -680.656 1538.59 -767.24L1540.62 -764.401C1426.93 -678.996 1355.4 -584.523 1286.25 -493.145C1216.57 -401.108 1144.5 -305.91 1029.24 -219.326Z" fill="url(#paint22_linear_1205_35069)" fill-opacity="0.5"/>
<path d="M1015.62 -238.396C900.355 -151.812 790.115 -110.062 683.495 -69.6653C577.699 -29.5964 468.244 11.8539 354.589 97.2306C240.934 182.607 169.369 277.108 100.168 368.497C63.1171 417.47 24.7837 468.106 -19.6751 516.916L-23.6722 515.847C20.3813 467.458 58.5775 417.042 95.4773 368.269C165.194 276.202 237.261 181.004 352.523 94.4204C467.785 7.83639 578.026 -33.9133 684.646 -74.3104C790.442 -114.379 899.896 -155.83 1013.55 -241.206C1127.24 -326.612 1198.77 -421.084 1267.92 -512.462C1337.64 -604.529 1409.7 -699.726 1524.97 -786.31L1526.99 -783.472C1413.3 -698.066 1341.77 -603.594 1272.62 -512.215C1202.95 -420.178 1130.88 -324.98 1015.62 -238.396Z" fill="url(#paint23_linear_1205_35069)" fill-opacity="0.5"/>
<path d="M1002 -257.471C886.734 -170.887 776.493 -129.137 669.873 -88.7401C564.077 -48.6712 454.636 -7.20198 340.981 78.1747C227.288 163.58 155.762 258.052 86.5982 349.412C49.4823 398.377 11.1489 449.012 -33.3098 497.822L-37.307 496.753C6.74658 448.364 44.9427 397.948 81.8425 349.175C151.56 257.109 223.626 161.911 338.888 75.3267C454.15 -11.2574 564.391 -53.0071 671.011 -93.4041C776.807 -133.473 886.248 -174.942 999.903 -260.319C1113.6 -345.724 1185.12 -440.197 1254.29 -531.556C1324 -623.622 1396.07 -718.82 1511.33 -805.404L1513.36 -802.565C1399.67 -717.16 1328.14 -622.688 1258.98 -531.328C1189.32 -439.253 1117.26 -344.055 1002 -257.471Z" fill="url(#paint24_linear_1205_35069)" fill-opacity="0.5"/>
<path d="M988.375 -276.541C873.113 -189.957 762.872 -148.207 656.252 -107.81C550.456 -67.7415 441.015 -26.2723 327.36 59.1044C213.667 144.51 142.141 238.982 72.9771 330.342C35.8612 379.306 -2.47219 429.942 -46.9309 478.751L-50.9281 477.683C-6.87451 429.294 31.3216 378.878 68.2214 330.104C137.939 238.038 210.005 142.84 325.267 56.2563C440.529 -30.3277 550.77 -72.0774 657.39 -112.474C763.186 -152.543 872.627 -194.012 986.282 -279.389C1099.97 -364.795 1171.5 -459.267 1240.66 -550.626C1310.37 -642.712 1382.45 -737.89 1497.71 -824.475L1499.74 -821.636C1386.05 -736.23 1314.52 -641.758 1245.36 -550.398C1175.7 -458.323 1103.64 -363.125 988.375 -276.541Z" fill="url(#paint25_linear_1205_35069)" fill-opacity="0.5"/>
<path d="M974.744 -295.626C859.482 -209.042 749.242 -167.292 642.622 -126.895C536.826 -86.8262 427.385 -45.357 313.73 40.0197C200.037 125.425 128.51 219.897 59.3465 311.257C22.2442 360.24 -16.0892 410.876 -60.5479 459.686L-64.5451 458.617C-20.4398 410.218 17.7428 359.783 54.6561 311.029C124.373 218.963 196.44 123.765 311.702 37.1808C426.964 -49.4033 537.204 -91.153 643.824 -131.55C749.621 -171.619 859.062 -213.088 972.716 -298.465C1086.41 -383.87 1157.94 -478.342 1227.1 -569.702C1296.82 -661.768 1368.88 -756.966 1484.15 -843.55L1486.17 -840.711C1372.48 -755.306 1300.95 -660.833 1231.79 -569.474C1162.07 -477.408 1090.01 -382.21 974.744 -295.626Z" fill="url(#paint26_linear_1205_35069)" fill-opacity="0.5"/>
<path d="M961.117 -314.701C845.855 -228.117 735.615 -186.367 628.995 -145.97C523.199 -105.901 413.757 -64.4318 300.103 20.9449C186.409 106.35 114.883 200.823 45.7194 292.182C8.61706 341.166 -29.7163 391.801 -74.1751 440.611L-78.1722 439.542C-34.1187 391.153 4.07748 340.737 40.9773 291.964C110.694 199.898 182.761 104.7 298.023 18.1157C413.285 -68.4683 523.526 -110.218 630.146 -150.615C735.942 -190.684 845.383 -232.153 959.038 -317.53C1072.73 -402.935 1144.26 -497.408 1213.42 -588.767C1283.12 -680.852 1355.2 -776.031 1470.47 -862.615L1472.49 -859.776C1358.8 -774.371 1287.27 -679.898 1218.11 -588.539C1148.45 -496.483 1076.38 -401.285 961.117 -314.701Z" fill="url(#paint27_linear_1205_35069)" fill-opacity="0.5"/>
<path d="M947.495 -333.779C832.233 -247.195 721.993 -205.445 615.373 -165.048C509.563 -124.998 400.122 -83.5289 286.467 1.84781C172.774 87.2532 101.247 181.726 32.0838 273.085C-5.00501 322.088 -43.3384 372.723 -87.7971 421.533L-91.7943 420.464C-47.7407 372.075 -9.54459 321.659 27.3552 272.886C97.1106 180.791 169.177 85.5929 284.439 -0.99115C399.701 -87.5752 509.942 -129.325 616.562 -169.722C722.358 -209.791 831.799 -251.26 945.454 -336.637C1059.15 -422.042 1130.67 -516.514 1199.84 -607.874C1269.55 -699.94 1341.66 -795.167 1456.92 -881.751L1458.95 -878.912C1345.26 -793.506 1273.73 -699.034 1204.58 -607.656C1134.82 -515.561 1062.76 -420.363 947.495 -333.779Z" fill="url(#paint28_linear_1205_35069)" fill-opacity="0.5"/>
<path d="M933.874 -352.849C818.612 -266.265 708.371 -224.515 601.751 -184.118C495.955 -144.049 386.501 -102.599 272.846 -17.2225C159.153 68.1829 87.6262 162.655 18.4627 254.015C-18.6261 303.017 -56.9595 353.653 -101.418 402.462L-105.415 401.394C-61.3618 353.005 -23.1657 302.589 13.7341 253.815C83.4895 161.72 155.556 66.5226 270.818 -20.0614C386.08 -106.645 496.321 -148.395 602.941 -188.792C708.737 -228.861 818.191 -270.311 931.846 -355.688C1045.54 -441.093 1117.07 -535.566 1186.22 -626.944C1255.93 -719.01 1328 -814.208 1443.26 -900.792L1445.29 -897.953C1331.6 -812.548 1260.07 -718.076 1190.92 -626.697C1121.2 -534.631 1049.14 -439.433 933.874 -352.849Z" fill="url(#paint29_linear_1205_35069)" fill-opacity="0.5"/>
<path d="M920.253 -371.919C804.991 -285.335 694.75 -243.586 588.13 -203.189C482.334 -163.12 372.893 -121.651 259.238 -36.2738C145.545 49.1315 74.0187 143.604 4.85515 234.963C-32.2607 283.928 -70.5941 334.563 -115.053 383.373L-119.05 382.305C-74.9964 333.915 -36.8138 283.48 0.0994859 234.726C69.8684 142.65 141.935 47.4523 257.197 -39.1317C372.459 -125.716 482.7 -167.465 589.32 -207.863C695.116 -247.931 804.557 -289.401 918.212 -374.777C1031.9 -460.183 1103.43 -554.655 1172.59 -646.014C1242.3 -738.1 1314.38 -833.279 1429.64 -919.863L1431.67 -917.024C1317.98 -831.618 1246.45 -737.146 1177.29 -645.786C1107.58 -553.701 1035.51 -458.503 920.253 -371.919Z" fill="url(#paint30_linear_1205_35069)" fill-opacity="0.5"/>
<path d="M-128.634 364.286L-132.632 363.217C-88.5154 314.805 -50.3233 264.356 -13.4009 215.589C23.911 166.296 62.5308 115.293 107.331 66.1919L111.33 67.2608C66.8441 115.98 28.4135 166.753 -8.74762 215.845C-45.8209 264.814 -84.1638 315.463 -128.634 364.286Z" fill="url(#paint31_linear_1205_35069)" fill-opacity="0.5"/>
<path d="M-142.233 345.213L-146.232 344.144C-102.115 295.731 -63.9606 245.311 -27.0377 196.542C-9.8144 173.801 7.98747 150.305 26.1656 127.254L30.7064 127.682C12.5777 150.638 -5.14758 174.077 -22.3462 196.77C-59.4199 245.739 -97.7632 296.389 -142.233 345.213Z" fill="url(#paint32_linear_1205_35069)" fill-opacity="0.5"/>
<defs>
<linearGradient id="paint0_linear_1205_35069" x1="801.513" y1="454.103" x2="614.919" y2="809.458" gradientUnits="userSpaceOnUse">
<stop stop-color="#A29B9B" stop-opacity="0.17"/>
<stop offset="0.376267" stop-color="#929292" stop-opacity="0.27"/>
<stop offset="1" stop-color="#1D1A1A" stop-opacity="0.34"/>
</linearGradient>
<linearGradient id="paint1_linear_1205_35069" x1="830.211" y1="415.354" x2="552.113" y2="870.975" gradientUnits="userSpaceOnUse">
<stop stop-color="#A29B9B" stop-opacity="0.17"/>
<stop offset="0.376267" stop-color="#929292" stop-opacity="0.27"/>
<stop offset="1" stop-color="#1D1A1A" stop-opacity="0.34"/>
</linearGradient>
<linearGradient id="paint2_linear_1205_35069" x1="858.802" y1="376.756" x2="495.014" y2="930.79" gradientUnits="userSpaceOnUse">
<stop stop-color="#A29B9B" stop-opacity="0.17"/>
<stop offset="0.376267" stop-color="#929292" stop-opacity="0.27"/>
<stop offset="1" stop-color="#1D1A1A" stop-opacity="0.34"/>
</linearGradient>
<linearGradient id="paint3_linear_1205_35069" x1="895.242" y1="332.264" x2="442.553" y2="1006.95" gradientUnits="userSpaceOnUse">
<stop stop-color="#A29B9B" stop-opacity="0.17"/>
<stop offset="0.376267" stop-color="#929292" stop-opacity="0.27"/>
<stop offset="1" stop-color="#1D1A1A" stop-opacity="0.34"/>
</linearGradient>
<linearGradient id="paint4_linear_1205_35069" x1="1451.64" y1="-105.823" x2="904.707" y2="1148.71" gradientUnits="userSpaceOnUse">
<stop stop-color="#A29B9B" stop-opacity="0.17"/>
<stop offset="0.376267" stop-color="#929292" stop-opacity="0.27"/>
<stop offset="1" stop-color="#1D1A1A" stop-opacity="0.34"/>
</linearGradient>
<linearGradient id="paint5_linear_1205_35069" x1="1438.01" y1="-124.901" x2="890.953" y2="1129.65" gradientUnits="userSpaceOnUse">
<stop stop-color="#A29B9B" stop-opacity="0.17"/>
<stop offset="0.376267" stop-color="#929292" stop-opacity="0.27"/>
<stop offset="1" stop-color="#1D1A1A" stop-opacity="0.34"/>
</linearGradient>
<linearGradient id="paint6_linear_1205_35069" x1="1424.4" y1="-143.956" x2="877.592" y2="1110.57" gradientUnits="userSpaceOnUse">
<stop stop-color="#A29B9B" stop-opacity="0.17"/>
<stop offset="0.376267" stop-color="#929292" stop-opacity="0.27"/>
<stop offset="1" stop-color="#1D1A1A" stop-opacity="0.34"/>
</linearGradient>
<linearGradient id="paint7_linear_1205_35069" x1="1410.78" y1="-163.034" x2="863.842" y2="1091.5" gradientUnits="userSpaceOnUse">
<stop stop-color="#A29B9B" stop-opacity="0.17"/>
<stop offset="0.376267" stop-color="#929292" stop-opacity="0.27"/>
<stop offset="1" stop-color="#1D1A1A" stop-opacity="0.34"/>
</linearGradient>
<linearGradient id="paint8_linear_1205_35069" x1="1397.17" y1="-182.096" x2="850.352" y2="1072.43" gradientUnits="userSpaceOnUse">
<stop stop-color="#A29B9B" stop-opacity="0.17"/>
<stop offset="0.376267" stop-color="#929292" stop-opacity="0.27"/>
<stop offset="1" stop-color="#1D1A1A" stop-opacity="0.34"/>
</linearGradient>
<linearGradient id="paint9_linear_1205_35069" x1="1383.49" y1="-201.159" x2="836.679" y2="1053.37" gradientUnits="userSpaceOnUse">
<stop stop-color="#A29B9B" stop-opacity="0.17"/>
<stop offset="0.376267" stop-color="#929292" stop-opacity="0.27"/>
<stop offset="1" stop-color="#1D1A1A" stop-opacity="0.34"/>
</linearGradient>
<linearGradient id="paint10_linear_1205_35069" x1="1369.9" y1="-220.26" x2="823.092" y2="1034.26" gradientUnits="userSpaceOnUse">
<stop stop-color="#A29B9B" stop-opacity="0.17"/>
<stop offset="0.376267" stop-color="#929292" stop-opacity="0.27"/>
<stop offset="1" stop-color="#1D1A1A" stop-opacity="0.34"/>
</linearGradient>
<linearGradient id="paint11_linear_1205_35069" x1="1356.29" y1="-239.331" x2="809.475" y2="1015.19" gradientUnits="userSpaceOnUse">
<stop stop-color="#A29B9B" stop-opacity="0.17"/>
<stop offset="0.376267" stop-color="#929292" stop-opacity="0.27"/>
<stop offset="1" stop-color="#1D1A1A" stop-opacity="0.34"/>
</linearGradient>
<linearGradient id="paint12_linear_1205_35069" x1="1342.66" y1="-258.409" x2="795.721" y2="996.129" gradientUnits="userSpaceOnUse">
<stop stop-color="#A29B9B" stop-opacity="0.17"/>
<stop offset="0.376267" stop-color="#929292" stop-opacity="0.27"/>
<stop offset="1" stop-color="#1D1A1A" stop-opacity="0.34"/>
</linearGradient>
<linearGradient id="paint13_linear_1205_35069" x1="1329.04" y1="-277.471" x2="782.228" y2="977.053" gradientUnits="userSpaceOnUse">
<stop stop-color="#A29B9B" stop-opacity="0.17"/>
<stop offset="0.376267" stop-color="#929292" stop-opacity="0.27"/>
<stop offset="1" stop-color="#1D1A1A" stop-opacity="0.34"/>
</linearGradient>
<linearGradient id="paint14_linear_1205_35069" x1="1315.37" y1="-296.534" x2="768.437" y2="958.004" gradientUnits="userSpaceOnUse">
<stop stop-color="#A29B9B" stop-opacity="0.17"/>
<stop offset="0.376267" stop-color="#929292" stop-opacity="0.27"/>
<stop offset="1" stop-color="#1D1A1A" stop-opacity="0.34"/>
</linearGradient>
<linearGradient id="paint15_linear_1205_35069" x1="1301.79" y1="-315.635" x2="754.974" y2="938.889" gradientUnits="userSpaceOnUse">
<stop stop-color="#A29B9B" stop-opacity="0.17"/>
<stop offset="0.376267" stop-color="#929292" stop-opacity="0.27"/>
<stop offset="1" stop-color="#1D1A1A" stop-opacity="0.34"/>
</linearGradient>
<linearGradient id="paint16_linear_1205_35069" x1="1288.16" y1="-334.714" x2="741.219" y2="919.824" gradientUnits="userSpaceOnUse">
<stop stop-color="#A29B9B" stop-opacity="0.17"/>
<stop offset="0.376267" stop-color="#929292" stop-opacity="0.27"/>
<stop offset="1" stop-color="#1D1A1A" stop-opacity="0.34"/>
</linearGradient>
<linearGradient id="paint17_linear_1205_35069" x1="1274.54" y1="-353.784" x2="727.728" y2="900.741" gradientUnits="userSpaceOnUse">
<stop stop-color="#A29B9B" stop-opacity="0.17"/>
<stop offset="0.376267" stop-color="#929292" stop-opacity="0.27"/>
<stop offset="1" stop-color="#1D1A1A" stop-opacity="0.34"/>
</linearGradient>
<linearGradient id="paint18_linear_1205_35069" x1="1260.92" y1="-372.854" x2="714.106" y2="881.67" gradientUnits="userSpaceOnUse">
<stop stop-color="#A29B9B" stop-opacity="0.17"/>
<stop offset="0.376267" stop-color="#929292" stop-opacity="0.27"/>
<stop offset="1" stop-color="#1D1A1A" stop-opacity="0.34"/>
</linearGradient>
<linearGradient id="paint19_linear_1205_35069" x1="1247.3" y1="-391.924" x2="700.488" y2="862.6" gradientUnits="userSpaceOnUse">
<stop stop-color="#A29B9B" stop-opacity="0.17"/>
<stop offset="0.376267" stop-color="#929292" stop-opacity="0.27"/>
<stop offset="1" stop-color="#1D1A1A" stop-opacity="0.34"/>
</linearGradient>
<linearGradient id="paint20_linear_1205_35069" x1="1233.66" y1="-411.018" x2="686.851" y2="843.506" gradientUnits="userSpaceOnUse">
<stop stop-color="#A29B9B" stop-opacity="0.17"/>
<stop offset="0.376267" stop-color="#929292" stop-opacity="0.27"/>
<stop offset="1" stop-color="#1D1A1A" stop-opacity="0.34"/>
</linearGradient>
<linearGradient id="paint21_linear_1205_35069" x1="1220.04" y1="-430.089" x2="673.229" y2="824.436" gradientUnits="userSpaceOnUse">
<stop stop-color="#A29B9B" stop-opacity="0.17"/>
<stop offset="0.376267" stop-color="#929292" stop-opacity="0.27"/>
<stop offset="1" stop-color="#1D1A1A" stop-opacity="0.34"/>
</linearGradient>
<linearGradient id="paint22_linear_1205_35069" x1="1206.38" y1="-449.128" x2="659.571" y2="805.397" gradientUnits="userSpaceOnUse">
<stop stop-color="#A29B9B" stop-opacity="0.17"/>
<stop offset="0.376267" stop-color="#929292" stop-opacity="0.27"/>
<stop offset="1" stop-color="#1D1A1A" stop-opacity="0.34"/>
</linearGradient>
<linearGradient id="paint23_linear_1205_35069" x1="1192.76" y1="-468.198" x2="645.947" y2="786.327" gradientUnits="userSpaceOnUse">
<stop stop-color="#A29B9B" stop-opacity="0.17"/>
<stop offset="0.376267" stop-color="#929292" stop-opacity="0.27"/>
<stop offset="1" stop-color="#1D1A1A" stop-opacity="0.34"/>
</linearGradient>
<linearGradient id="paint24_linear_1205_35069" x1="1179.13" y1="-487.284" x2="632.195" y2="767.254" gradientUnits="userSpaceOnUse">
<stop stop-color="#A29B9B" stop-opacity="0.17"/>
<stop offset="0.376267" stop-color="#929292" stop-opacity="0.27"/>
<stop offset="1" stop-color="#1D1A1A" stop-opacity="0.34"/>
</linearGradient>
<linearGradient id="paint25_linear_1205_35069" x1="1165.51" y1="-506.354" x2="618.574" y2="748.183" gradientUnits="userSpaceOnUse">
<stop stop-color="#A29B9B" stop-opacity="0.17"/>
<stop offset="0.376267" stop-color="#929292" stop-opacity="0.27"/>
<stop offset="1" stop-color="#1D1A1A" stop-opacity="0.34"/>
</linearGradient>
<linearGradient id="paint26_linear_1205_35069" x1="1151.92" y1="-525.439" x2="605.238" y2="729.101" gradientUnits="userSpaceOnUse">
<stop stop-color="#A29B9B" stop-opacity="0.17"/>
<stop offset="0.376267" stop-color="#929292" stop-opacity="0.27"/>
<stop offset="1" stop-color="#1D1A1A" stop-opacity="0.34"/>
</linearGradient>
<linearGradient id="paint27_linear_1205_35069" x1="1138.26" y1="-544.503" x2="591.447" y2="710.022" gradientUnits="userSpaceOnUse">
<stop stop-color="#A29B9B" stop-opacity="0.17"/>
<stop offset="0.376267" stop-color="#929292" stop-opacity="0.27"/>
<stop offset="1" stop-color="#1D1A1A" stop-opacity="0.34"/>
</linearGradient>
<linearGradient id="paint28_linear_1205_35069" x1="1124.7" y1="-563.625" x2="577.892" y2="690.955" gradientUnits="userSpaceOnUse">
<stop stop-color="#A29B9B" stop-opacity="0.17"/>
<stop offset="0.376267" stop-color="#929292" stop-opacity="0.27"/>
<stop offset="1" stop-color="#1D1A1A" stop-opacity="0.34"/>
</linearGradient>
<linearGradient id="paint29_linear_1205_35069" x1="1111.05" y1="-582.673" x2="564.237" y2="671.879" gradientUnits="userSpaceOnUse">
<stop stop-color="#A29B9B" stop-opacity="0.17"/>
<stop offset="0.376267" stop-color="#929292" stop-opacity="0.27"/>
<stop offset="1" stop-color="#1D1A1A" stop-opacity="0.34"/>
</linearGradient>
<linearGradient id="paint30_linear_1205_35069" x1="1097.43" y1="-601.744" x2="550.616" y2="652.809" gradientUnits="userSpaceOnUse">
<stop stop-color="#A29B9B" stop-opacity="0.17"/>
<stop offset="0.376267" stop-color="#929292" stop-opacity="0.27"/>
<stop offset="1" stop-color="#1D1A1A" stop-opacity="0.34"/>
</linearGradient>
<linearGradient id="paint31_linear_1205_35069" x1="65.8522" y1="147.472" x2="-140.404" y2="346.666" gradientUnits="userSpaceOnUse">
<stop stop-color="#A29B9B" stop-opacity="0.17"/>
<stop offset="0.376267" stop-color="#929292" stop-opacity="0.27"/>
<stop offset="1" stop-color="#1D1A1A" stop-opacity="0.34"/>
</linearGradient>
<linearGradient id="paint32_linear_1205_35069" x1="-2.14306" y1="186.454" x2="-153.227" y2="330.751" gradientUnits="userSpaceOnUse">
<stop stop-color="#A29B9B" stop-opacity="0.17"/>
<stop offset="0.376267" stop-color="#929292" stop-opacity="0.27"/>
<stop offset="1" stop-color="#1D1A1A" stop-opacity="0.34"/>
</linearGradient>
</defs>
</svg>
