<svg width="46" height="48" viewBox="0 0 46 48" fill="none" xmlns="http://www.w3.org/2000/svg">
<path d="M33.673 34.5963C32.3029 34.5963 31.6125 36.2248 32.579 37.1748C33.5456 38.1247 35.2025 37.4462 35.2025 36.0996C35.2025 35.2749 34.5228 34.5963 33.673 34.5963ZM31.8249 34.3041C33.4606 32.6964 36.2647 33.8447 36.2647 36.11C36.2647 38.3753 33.4606 39.5235 31.8249 37.9159C30.8159 36.9242 30.8159 35.2958 31.8249 34.3041ZM35.3725 29.0637C36.1372 29.2411 36.8595 29.5334 37.5286 29.9406L38.3571 29.3247C38.5695 29.1681 38.8669 29.189 39.0475 29.3769L40.5239 30.8279C40.7257 31.0262 40.7363 31.3289 40.5451 31.5377L39.9397 32.3206C40.3539 32.9783 40.6513 33.6882 40.8319 34.4398L41.8622 34.5755C42.1277 34.6068 42.3189 34.8364 42.3189 35.087V37.133C42.3189 37.4149 42.0959 37.6341 41.8197 37.655L40.8319 37.7802C40.6513 38.5318 40.3433 39.2417 39.9397 39.8993L40.5664 40.7136C40.7257 40.9224 40.7045 41.2147 40.5239 41.3921L39.0475 42.8431C38.8563 43.031 38.5589 43.0415 38.3571 42.8953L37.5286 42.2794C36.8595 42.6866 36.1372 42.9789 35.3725 43.1563L35.2344 44.1689C35.2025 44.4299 34.9689 44.6178 34.7033 44.6178H32.6215C32.3347 44.6178 32.1117 44.3986 32.0904 44.1271L31.963 43.1563C31.1876 42.9789 30.4653 42.6866 29.7962 42.2794L28.9783 42.8953C28.7553 43.0624 28.4473 43.031 28.2667 42.8327L26.8116 41.4026C26.6204 41.2147 26.5991 40.9224 26.7585 40.724L27.3851 39.9098C26.9709 39.2521 26.6735 38.5423 26.4929 37.7907L25.4626 37.655C25.1971 37.6236 25.0059 37.394 25.0059 37.1435V35.0974C25.0059 34.8156 25.229 34.5963 25.5051 34.5755L26.4929 34.4502C26.6735 33.6882 26.9709 32.9887 27.3851 32.3311L26.7585 31.5168C26.5991 31.3081 26.6204 31.0158 26.8116 30.8383L28.2879 29.3873C28.4898 29.189 28.8084 29.1785 29.0102 29.356L29.8068 29.951C30.476 29.5439 31.1982 29.2516 31.9736 29.0741L32.1117 28.0615C32.1435 27.8006 32.3772 27.6127 32.6321 27.6127H34.7139C35.0007 27.6127 35.2238 27.8319 35.245 28.1033L35.3725 29.0637ZM36.0841 30.379C35.6805 30.212 35.2663 30.0971 34.8308 30.0136C34.5971 29.9823 34.4059 29.8048 34.3741 29.5648L34.2466 28.6461H33.0889L32.9614 29.5648C32.9295 29.784 32.7596 29.9719 32.5259 30.0032C31.7081 30.1493 30.7628 30.5147 30.0936 30.9949C29.9024 31.1306 29.6475 31.141 29.4563 30.9949L28.7022 30.4312L27.8843 31.235L28.4579 31.9762C28.596 32.1536 28.6066 32.3937 28.4685 32.5921C28.0012 33.2602 27.5869 34.1788 27.4595 34.9721C27.4276 35.2018 27.247 35.3897 27.0028 35.421L26.0681 35.5463V36.6841L27.0028 36.8094C27.2258 36.8407 27.4064 37.0078 27.4489 37.2374C27.5976 38.0412 27.9693 38.9703 28.4579 39.6279C28.596 39.8054 28.6066 40.0664 28.4579 40.2543L27.8843 40.9954L28.7022 41.7992L29.4563 41.2355C29.6369 41.0998 29.8812 41.0894 30.0724 41.2251C30.7521 41.6844 31.6868 42.0915 32.5047 42.2168C32.7383 42.2481 32.9295 42.4256 32.9614 42.6657L33.0889 43.5843H34.2466L34.3741 42.6657C34.4059 42.4465 34.5759 42.2586 34.8095 42.2272C35.6274 42.0811 36.5727 41.7157 37.2419 41.2355C37.433 41.0998 37.688 41.0894 37.8898 41.2355L38.6439 41.7992L39.4617 40.9954L38.8882 40.2543C38.7501 40.0768 38.7395 39.8367 38.8776 39.6384C39.3449 38.9703 39.7591 38.0517 39.8972 37.2583C39.9291 37.0286 40.1097 36.8407 40.3539 36.8094L41.2886 36.6841V35.5463L40.3539 35.421C40.1309 35.3897 39.9397 35.2227 39.8972 34.993C39.7485 34.1892 39.3768 33.2602 38.8988 32.6025C38.7607 32.425 38.7501 32.1641 38.8988 31.9762L39.4724 31.235L38.6545 30.4312L37.9004 30.9949C37.7198 31.1306 37.4649 31.141 37.2737 31.0053C36.8913 30.7652 36.4984 30.5565 36.0841 30.379ZM33.673 25.2535C27.7144 25.2535 22.6267 29.9719 22.6267 36.11C22.6267 42.102 27.5657 46.9665 33.673 46.9665C39.7698 46.9665 44.7194 42.1124 44.7194 36.11C44.7194 33.114 43.4767 30.3999 41.4798 28.4373C39.4299 26.4226 36.647 25.2535 33.673 25.2535ZM25.1015 27.6962C25.5264 27.2786 25.9831 26.8924 26.4611 26.5479L20.12 27.905C20.1094 27.905 20.0882 27.9154 20.0775 27.9154L13.163 29.3977C17.2204 30.5669 20.0988 34.2414 20.0988 38.511C20.0988 42.1437 18.0064 45.3694 14.8412 46.9665H28.7022C24.4217 45.0771 21.5539 40.8806 21.5539 36.11C21.5646 32.8322 22.9135 29.8466 25.1015 27.6962ZM30.7415 24.5645C31.7187 24.3244 32.749 24.1991 33.8005 24.2096V10.5971C33.8005 10.3153 34.0342 10.0752 34.3316 10.0752H40.0141C40.3008 10.0752 40.5451 10.3048 40.5451 10.5971V26.3078C46.7587 30.5251 47.5872 39.2521 42.2339 44.5134C40.0459 46.6638 37.0188 48 33.673 48H10.4439C5.10126 48 0.77832 43.7409 0.77832 38.5005C0.77832 35.7968 1.91482 33.3645 3.76296 31.6317V23.8964C3.76296 23.6041 3.99663 23.3744 4.29403 23.3744H9.97652C10.2633 23.3744 10.5076 23.6041 10.5076 23.8964V28.8967L13.779 28.1972V20.7229C13.779 20.4411 14.0127 20.201 14.3101 20.201H19.9926C20.2794 20.201 20.5236 20.4306 20.5236 20.7229V26.7567L23.7951 26.0573V16.0254C23.7951 15.7435 24.0287 15.5034 24.3261 15.5034H30.0086C30.2954 15.5034 30.5397 15.7331 30.5397 16.0254V24.6062L30.7415 24.5645ZM34.8626 24.2722C36.5196 24.4288 38.0916 24.9194 39.483 25.671V11.1295H34.8626V24.2722ZM10.9749 35.8177C13.1523 36.2248 14.0021 38.8972 12.4195 40.4526C10.8262 42.008 8.11776 41.1729 7.70352 39.0329H5.01629C4.31527 39.0329 4.31527 37.989 5.01629 37.989H7.70352C7.91595 36.8929 8.79754 36.0265 9.91279 35.8177V32.091C9.91279 31.402 10.9749 31.402 10.9749 32.091V35.8177ZM11.6653 37.3105C10.5819 36.2457 8.71256 37.0078 8.71256 38.511C8.71256 40.0246 10.5713 40.7762 11.6653 39.7114C12.3345 39.0434 12.3345 37.9681 11.6653 37.3105ZM4.8251 30.7757C6.15279 29.8466 7.73539 29.2307 9.44545 29.0637V24.4183H4.8251V30.7757ZM16.53 32.5294C14.8518 30.8801 12.5363 29.9406 10.0084 30.0658C7.96906 30.1598 6.07844 30.9845 4.66578 32.2476C1.01199 35.5254 0.895157 41.079 4.36838 44.4821C7.72477 47.7808 13.1736 47.7808 16.5406 44.4821C19.8864 41.1833 19.8864 35.8386 16.53 32.5294ZM14.8412 27.9676L19.4615 26.9759V21.2344H14.8412V27.9676ZM24.8466 25.8276L29.4669 24.8359V16.5473H24.8466V25.8276ZM4.75075 19.6268C4.06036 19.6999 3.9329 18.6665 4.63392 18.5934C15.4572 17.372 28.2136 11.641 35.8398 3.7387L34.3528 2.3712C34.066 2.09978 34.151 1.59871 34.5865 1.48388L39.4724 0.0224246C39.8654 -0.0924043 40.2371 0.252082 40.1415 0.638325L38.9838 5.55509C38.8882 5.94133 38.3996 6.09791 38.1022 5.81606L36.6258 4.45899C28.7978 12.5492 15.8396 18.3637 4.75075 19.6268ZM38.5164 2.85139L38.8882 1.26466L35.723 2.21461L38.1447 4.43812L38.5164 2.85139Z" fill="url(#paint0_linear_2713_27514)"/>
<defs>
<linearGradient id="paint0_linear_2713_27514" x1="-12.0523" y1="-6.31575" x2="87.6478" y2="-0.59584" gradientUnits="userSpaceOnUse">
<stop stop-color="#5016CC"/>
<stop offset="0.75691" stop-color="#F7A1D0"/>
</linearGradient>
</defs>
</svg>
