<svg width="46" height="48" viewBox="0 0 46 48" fill="none" xmlns="http://www.w3.org/2000/svg">
<path d="M45.764 39.1614L43.8009 31.8482C43.7634 31.7208 43.666 31.6159 43.5386 31.586L36.233 29.6303L30.1861 23.5835L43.6435 8.50758C44.0931 7.99806 44.0481 7.21129 43.5386 6.75422L38.9154 2.61809C38.6682 2.39331 38.346 2.28091 38.0088 2.30339C37.6716 2.32587 37.3719 2.46824 37.1546 2.7155L33.4006 6.91907C33.4006 6.91907 33.3931 6.91907 33.3931 6.92656C33.3931 6.92656 33.3931 6.93405 33.3856 6.93405L24.0269 17.4167L18.1074 11.4973C19.0815 8.32775 18.2573 4.93343 15.912 2.59562C13.4018 0.0779734 9.63287 -0.686311 6.32846 0.64744C6.20858 0.692398 6.12615 0.7973 6.10367 0.917187C6.08119 1.03708 6.11866 1.16446 6.20858 1.25437L10.6444 5.69022C10.7868 5.83258 10.7868 6.04239 10.6444 6.18475L6.96537 9.86381C6.823 10.0062 6.6132 10.0062 6.47083 9.86381L2.02749 5.42047C1.93758 5.33055 1.81019 5.29309 1.69031 5.32306C1.57042 5.34554 1.46552 5.43546 1.42056 5.54785C0.0943016 8.85226 0.858586 12.6062 3.37623 15.1239C5.71404 17.4617 9.10087 18.2934 12.2629 17.3193L18.5195 23.576L5.62412 38.0224C5.58666 38.0599 5.54919 38.1049 5.52671 38.1573L1.87014 46.9091C1.75025 47.1939 1.81769 47.516 2.03498 47.7333C2.17735 47.8757 2.37217 47.9506 2.55949 47.9506C2.6569 47.9506 2.7618 47.9282 2.85921 47.8907L11.9482 43.9419C11.9857 43.9269 12.0231 43.8969 12.0531 43.867C12.0606 43.8595 12.0681 43.8595 12.0756 43.852C12.0756 43.852 12.0831 43.852 12.0831 43.8445L24.6863 29.7427L30.4259 35.4823L32.3741 42.7505C32.4115 42.8779 32.5089 42.9828 32.6363 43.0128L39.9495 44.9759C39.9794 44.9834 40.0169 44.9909 40.0469 44.9909C40.1443 44.9909 40.2417 44.9534 40.3091 44.8785L45.6666 39.521C45.764 39.4311 45.8015 39.2962 45.764 39.1614ZM37.7166 3.21004C37.799 3.11263 37.9189 3.05269 38.0538 3.04519C38.1886 3.03021 38.316 3.08266 38.4134 3.17258L43.0441 7.3087C43.2464 7.48853 43.2614 7.80324 43.089 8.00555L39.4849 12.0443L34.2024 7.15135L37.7166 3.21004ZM33.6928 7.71332L38.9754 12.6062L29.6616 23.044L24.5589 17.9412L33.6928 7.71332ZM12.2479 16.5326C9.29568 17.5291 6.09618 16.7798 3.90823 14.5919C1.74276 12.4264 0.99346 9.24938 1.92259 6.36459L5.93883 10.3808C6.37342 10.8154 7.06277 10.8154 7.49737 10.3808L11.1764 6.70177C11.611 6.26718 11.611 5.58532 11.1764 5.14323L7.16018 1.12699C10.0525 0.197861 13.2295 0.939667 15.395 3.10514C17.5904 5.30058 18.3322 8.50009 17.3357 11.4598C17.2907 11.5947 17.3282 11.7445 17.4256 11.842L35.5811 29.9975L30.808 34.7705L12.6301 16.63C12.5327 16.5251 12.3828 16.4876 12.2479 16.5326ZM2.55949 47.2013L6.01376 38.9291L11.1165 43.4848L2.55949 47.2013ZM11.7759 43.0727L6.40339 38.2772L19.0441 24.108L24.1468 29.2107L11.7759 43.0727ZM39.942 44.1967L33.0484 42.3459L31.1977 35.4523L36.2479 30.4021L43.1415 32.2528L44.9923 39.1464L39.942 44.1967Z" fill="url(#paint0_linear_2713_27518)"/>
<defs>
<linearGradient id="paint0_linear_2713_27518" x1="-12.0523" y1="-6.30926" x2="87.6471" y2="-0.583496" gradientUnits="userSpaceOnUse">
<stop stop-color="#5016CC"/>
<stop offset="0.75691" stop-color="#F7A1D0"/>
</linearGradient>
</defs>
</svg>
