<svg width="30" height="49" viewBox="0 0 30 49" fill="none" xmlns="http://www.w3.org/2000/svg">
<path d="M25.6674 4.88996L26.9509 0.86208L24.1977 0L22.9135 4.02667C19.2356 3.57718 15.6889 5.80951 14.5592 9.35765C13.8439 11.5991 14.196 13.976 15.5022 15.9355L4.03143 33.6429L0.77832 42.5184L7.50183 35.9744L12.315 28.5515L15.7866 29.6398L15.2855 31.2115L16.1589 31.4844L16.66 29.9133L20.1261 30.9992L19.7623 39.764L21.4829 49L23.9487 39.9842L24.8324 18.8587C27.0059 18.0117 28.7105 16.2258 29.4179 14.0092C30.5495 10.4599 28.9394 6.61714 25.6674 4.88996ZM24.7952 1.13855L25.8023 1.45374L24.8337 4.4937C24.675 4.43079 24.5096 4.37392 24.3362 4.31947C24.1611 4.26382 23.992 4.21723 23.826 4.17791L24.7952 1.13855ZM3.00972 39.0749L4.65154 34.577L6.45143 35.724L3.00972 39.0749ZM7.04407 35.0228L5.04887 33.7512L18.6674 12.7279L20.6632 13.9984L7.04407 35.0228ZM16.9359 29.0481L17.4376 27.4734L16.5642 27.2006L16.0625 28.7747L12.827 27.7602L20.7682 15.5132L20.1652 30.0603L16.9359 29.0481ZM21.6526 44.9116L20.7767 40.2086L22.9154 40.2951L21.6526 44.9116ZM23.0686 39.3931L20.6986 39.2975L21.7344 14.3341L24.1019 14.4297L23.0686 39.3931ZM21.4377 13.4134L18.3921 11.4744L16.92 13.7467C16.8852 13.2004 16.9395 12.6505 17.1092 12.1193C17.7879 9.98621 19.968 8.6704 22.186 9.05698L22.2653 8.61051L22.2025 9.06C22.377 9.0836 22.5662 9.12776 22.7805 9.19552C22.9898 9.26085 23.1717 9.33345 23.3365 9.41512L23.5422 9.00979L23.3487 9.42117C25.386 10.3643 26.4102 12.685 25.7302 14.8181C25.5612 15.3511 25.2865 15.8326 24.9417 16.2597L25.0546 13.5604L21.4377 13.4134ZM28.5451 13.7364C27.9629 15.5634 26.6128 17.0607 24.8745 17.8605L24.8855 17.6028C25.69 16.9427 26.2881 16.0837 26.6036 15.0909C27.4197 12.5295 26.1923 9.74362 23.7485 8.60446C23.7473 8.60386 23.746 8.60325 23.7448 8.60265C23.7424 8.60144 23.7393 8.59962 23.7369 8.59841V8.59902C23.5318 8.49738 23.3096 8.40966 23.0576 8.33041C22.8 8.24935 22.5669 8.1955 22.3459 8.16405C22.3453 8.16405 22.3441 8.16404 22.3429 8.16344C22.3386 8.16284 22.3337 8.16162 22.3294 8.16102C19.6708 7.70366 17.0524 9.28566 16.237 11.8465C15.9209 12.838 15.9129 13.8798 16.1876 14.8786L16.0478 15.0952C15.0737 13.4345 14.843 11.4799 15.4332 9.63109C16.4628 6.39512 19.7684 4.39812 23.1284 4.968L23.1674 4.97405C23.45 5.01519 23.7411 5.08476 24.0597 5.18579C24.3728 5.28319 24.6518 5.39329 24.9112 5.52154L24.9222 5.52699C28.0221 6.96076 29.5803 10.4901 28.5451 13.7364Z" fill="url(#paint0_linear_2713_27522)"/>
<defs>
<linearGradient id="paint0_linear_2713_27522" x1="-7.49028" y1="-6.44733" x2="56.8879" y2="-4.11568" gradientUnits="userSpaceOnUse">
<stop stop-color="#5016CC"/>
<stop offset="0.75691" stop-color="#F7A1D0"/>
</linearGradient>
</defs>
</svg>
