<svg width="933" height="876" viewBox="0 0 933 876" fill="none" xmlns="http://www.w3.org/2000/svg">
<g opacity="0.2" clip-path="url(#clip0_1415_12296)">
<path d="M818.645 438.049C818.631 438.049 818.619 438.037 818.619 438.022C818.619 438.008 818.631 437.996 818.645 437.996C818.66 437.996 818.672 438.008 818.672 438.022C818.672 438.037 818.66 438.049 818.645 438.049Z" fill="#BAA0FF"/>
<path d="M815.322 466.512C815.294 466.512 815.271 466.49 815.271 466.461C815.271 466.433 815.294 466.41 815.322 466.41C815.351 466.41 815.374 466.433 815.374 466.461C815.374 466.49 815.351 466.512 815.322 466.512Z" fill="#BAA0FF"/>
<path d="M809.781 494.64C809.736 494.64 809.699 494.603 809.699 494.558C809.699 494.513 809.736 494.477 809.781 494.477C809.825 494.477 809.862 494.513 809.862 494.558C809.862 494.603 809.825 494.64 809.781 494.64Z" fill="#BAA0FF"/>
<path d="M802.043 522.279C801.956 522.279 801.885 522.207 801.885 522.12C801.885 522.032 801.956 521.961 802.043 521.961C802.13 521.961 802.201 522.032 802.201 522.12C802.201 522.207 802.13 522.279 802.043 522.279Z" fill="#BAA0FF"/>
<path d="M792.157 549.222C792.287 549.222 792.393 549.116 792.393 548.986C792.393 548.856 792.287 548.75 792.157 548.75C792.027 548.75 791.922 548.856 791.922 548.986C791.922 549.116 792.027 549.222 792.157 549.222Z" fill="#BAA0FF"/>
<path d="M780.186 575.311C780.004 575.311 779.857 575.164 779.857 574.982C779.857 574.8 780.004 574.652 780.186 574.652C780.367 574.652 780.514 574.8 780.514 574.982C780.514 575.164 780.367 575.311 780.186 575.311Z" fill="#BAA0FF"/>
<path d="M766.212 600.404C766.464 600.404 766.667 600.2 766.667 599.948C766.667 599.696 766.464 599.492 766.212 599.492C765.961 599.492 765.758 599.696 765.758 599.948C765.758 600.2 765.961 600.404 766.212 600.404Z" fill="#BAA0FF"/>
<path d="M750.325 624.329C750.004 624.329 749.744 624.068 749.744 623.747C749.744 623.425 750.004 623.164 750.325 623.164C750.646 623.164 750.906 623.425 750.906 623.747C750.906 624.068 750.646 624.329 750.325 624.329Z" fill="#BAA0FF"/>
<path d="M732.632 646.963C733.04 646.963 733.371 646.631 733.371 646.222C733.371 645.812 733.04 645.48 732.632 645.48C732.224 645.48 731.893 645.812 731.893 646.222C731.893 646.631 732.224 646.963 732.632 646.963Z" fill="#BAA0FF"/>
<path d="M713.243 668.158C712.74 668.158 712.332 667.749 712.332 667.245C712.332 666.741 712.74 666.332 713.243 666.332C713.746 666.332 714.153 666.741 714.153 667.245C714.153 667.749 713.746 668.158 713.243 668.158Z" fill="#BAA0FF"/>
<path d="M692.277 687.787C692.881 687.787 693.371 687.296 693.371 686.69C693.371 686.085 692.881 685.594 692.277 685.594C691.673 685.594 691.184 686.085 691.184 686.69C691.184 687.296 691.673 687.787 692.277 687.787Z" fill="#BAA0FF"/>
<path d="M669.863 705.757C669.134 705.757 668.543 705.164 668.543 704.433C668.543 703.702 669.134 703.109 669.863 703.109C670.592 703.109 671.183 703.702 671.183 704.433C671.183 705.164 670.592 705.757 669.863 705.757Z" fill="#BAA0FF"/>
<path d="M646.134 721.914C645.28 721.914 644.588 721.219 644.588 720.363C644.588 719.507 645.28 718.812 646.134 718.812C646.988 718.812 647.681 719.507 647.681 720.363C647.681 721.219 646.988 721.914 646.134 721.914Z" fill="#BAA0FF"/>
<path d="M621.231 736.152C620.253 736.152 619.459 735.357 619.459 734.375C619.459 733.393 620.253 732.598 621.231 732.598C622.21 732.598 623.004 733.393 623.004 734.375C623.004 735.357 622.21 736.152 621.231 736.152Z" fill="#BAA0FF"/>
<path d="M595.305 748.384C596.409 748.384 597.304 747.486 597.304 746.379C597.304 745.272 596.409 744.375 595.305 744.375C594.202 744.375 593.307 745.272 593.307 746.379C593.307 747.486 594.202 748.384 595.305 748.384Z" fill="#BAA0FF"/>
<path d="M568.516 758.548C567.275 758.548 566.27 757.539 566.27 756.295C566.27 755.051 567.275 754.043 568.516 754.043C569.756 754.043 570.762 755.051 570.762 756.295C570.762 757.539 569.756 758.548 568.516 758.548Z" fill="#BAA0FF"/>
<path d="M541.028 766.578C542.418 766.578 543.544 765.448 543.544 764.054C543.544 762.661 542.418 761.531 541.028 761.531C539.638 761.531 538.512 762.661 538.512 764.054C538.512 765.448 539.638 766.578 541.028 766.578Z" fill="#BAA0FF"/>
<path d="M513.013 772.408C511.474 772.408 510.227 771.157 510.227 769.614C510.227 768.071 511.474 766.82 513.013 766.82C514.552 766.82 515.799 768.071 515.799 769.614C515.799 771.157 514.552 772.408 513.013 772.408Z" fill="#BAA0FF"/>
<path d="M484.652 776.013C482.964 776.013 481.596 774.64 481.596 772.948C481.596 771.255 482.964 769.883 484.652 769.883C486.34 769.883 487.709 771.255 487.709 772.948C487.709 774.64 486.34 776.013 484.652 776.013Z" fill="#BAA0FF"/>
<path d="M456.116 777.39C457.953 777.39 459.442 775.897 459.442 774.055C459.442 772.212 457.953 770.719 456.116 770.719C454.278 770.719 452.789 772.212 452.789 774.055C452.789 775.897 454.278 777.39 456.116 777.39Z" fill="#BAA0FF"/>
<path d="M427.581 776.557C425.595 776.557 423.984 774.942 423.984 772.95C423.984 770.958 425.595 769.344 427.581 769.344C429.568 769.344 431.178 770.958 431.178 772.95C431.178 774.942 429.568 776.557 427.581 776.557Z" fill="#BAA0FF"/>
<path d="M402.98 770.512C403.47 768.428 402.183 766.339 400.105 765.847C398.026 765.355 395.944 766.646 395.453 768.73C394.962 770.814 396.249 772.903 398.328 773.395C400.406 773.887 402.489 772.596 402.98 770.512Z" fill="#BAA0FF"/>
<path d="M374.124 767C375.739 765.38 375.739 762.753 374.124 761.133C372.508 759.513 369.889 759.513 368.273 761.133C366.657 762.753 366.657 765.38 368.273 767C369.889 768.62 372.508 768.62 374.124 767Z" fill="#BAA0FF"/>
<path d="M343.708 760.729C346.142 760.729 348.115 758.75 348.115 756.31C348.115 753.869 346.142 751.891 343.708 751.891C341.274 751.891 339.301 753.869 339.301 756.31C339.301 758.75 341.274 760.729 343.708 760.729Z" fill="#BAA0FF"/>
<path d="M320.21 749.703C322.03 747.878 322.03 744.919 320.21 743.094C318.39 741.269 315.439 741.269 313.619 743.094C311.8 744.919 311.8 747.878 313.619 749.703C315.439 751.527 318.39 751.527 320.21 749.703Z" fill="#BAA0FF"/>
<path d="M290.988 739.296C293.687 739.296 295.874 737.102 295.874 734.396C295.874 731.69 293.687 729.496 290.988 729.496C288.289 729.496 286.102 731.69 286.102 734.396C286.102 737.102 288.289 739.296 290.988 739.296Z" fill="#BAA0FF"/>
<path d="M266.087 725.511C268.911 725.511 271.2 723.216 271.2 720.384C271.2 717.553 268.911 715.258 266.087 715.258C263.264 715.258 260.975 717.553 260.975 720.384C260.975 723.216 263.264 725.511 266.087 725.511Z" fill="#BAA0FF"/>
<path d="M242.355 709.809C245.303 709.809 247.694 707.412 247.694 704.455C247.694 701.498 245.303 699.102 242.355 699.102C239.406 699.102 237.016 701.498 237.016 704.455C237.016 707.412 239.406 709.809 242.355 709.809Z" fill="#BAA0FF"/>
<path d="M219.938 692.297C223.012 692.297 225.504 689.799 225.504 686.717C225.504 683.635 223.012 681.137 219.938 681.137C216.865 681.137 214.373 683.635 214.373 686.717C214.373 689.799 216.865 692.297 219.938 692.297Z" fill="#BAA0FF"/>
<path d="M204.572 668.605C205.302 665.503 203.387 662.395 200.293 661.663C197.199 660.93 194.1 662.852 193.369 665.954C192.639 669.056 194.555 672.164 197.648 672.896C200.742 673.629 203.842 671.707 204.572 668.605Z" fill="#BAA0FF"/>
<path d="M179.579 652.198C182.852 652.198 185.506 649.538 185.506 646.255C185.506 642.973 182.852 640.312 179.579 640.312C176.306 640.312 173.652 642.973 173.652 646.255C173.652 649.538 176.306 652.198 179.579 652.198Z" fill="#BAA0FF"/>
<path d="M161.884 629.891C165.248 629.891 167.975 627.156 167.975 623.783C167.975 620.41 165.248 617.676 161.884 617.676C158.52 617.676 155.793 620.41 155.793 623.783C155.793 627.156 158.52 629.891 161.884 629.891Z" fill="#BAA0FF"/>
<path d="M145.994 606.226C149.428 606.226 152.212 603.435 152.212 599.992C152.212 596.549 149.428 593.758 145.994 593.758C142.561 593.758 139.777 596.549 139.777 599.992C139.777 603.435 142.561 606.226 145.994 606.226Z" fill="#BAA0FF"/>
<path d="M132.015 581.381C135.519 581.381 138.359 578.534 138.359 575.021C138.359 571.508 135.519 568.66 132.015 568.66C128.512 568.66 125.672 571.508 125.672 575.021C125.672 578.534 128.512 581.381 132.015 581.381Z" fill="#BAA0FF"/>
<path d="M120.042 555.483C123.601 555.483 126.485 552.591 126.485 549.023C126.485 545.455 123.601 542.562 120.042 542.562C116.484 542.562 113.6 545.455 113.6 549.023C113.6 552.591 116.484 555.483 120.042 555.483Z" fill="#BAA0FF"/>
<path d="M110.153 528.7C113.753 528.7 116.672 525.773 116.672 522.162C116.672 518.552 113.753 515.625 110.153 515.625C106.552 515.625 103.633 518.552 103.633 522.162C103.633 525.773 106.552 528.7 110.153 528.7Z" fill="#BAA0FF"/>
<path d="M107.076 499.279C109.652 496.696 109.652 492.507 107.076 489.924C104.5 487.341 100.323 487.341 97.7467 489.924C95.1705 492.507 95.1704 496.696 97.7467 499.279C100.323 501.862 104.5 501.862 107.076 499.279Z" fill="#BAA0FF"/>
<path d="M103.414 467.573C104 463.947 101.545 460.531 97.9285 459.942C94.3124 459.354 90.9052 461.816 90.3184 465.442C89.7316 469.068 92.1873 472.485 95.8034 473.073C99.4196 473.662 102.827 471.199 103.414 467.573Z" fill="#BAA0FF"/>
<path d="M98.2488 442.796C100.849 440.188 100.849 435.96 98.2488 433.353C95.6483 430.745 91.4321 430.745 88.8316 433.353C86.2312 435.96 86.2312 440.188 88.8316 442.796C91.4321 445.403 95.6483 445.403 98.2488 442.796Z" fill="#BAA0FF"/>
<path d="M98.9382 411.002C99.7864 407.399 97.5612 403.789 93.9682 402.938C90.3751 402.088 86.7747 404.319 85.9265 407.922C85.0782 411.525 87.3034 415.135 90.8965 415.985C94.4896 416.836 98.09 414.605 98.9382 411.002Z" fill="#BAA0FF"/>
<path d="M99.691 383.402C101.1 379.991 99.4847 376.082 96.0837 374.669C92.6827 373.257 88.7837 374.876 87.375 378.286C85.9662 381.696 87.5813 385.606 90.9822 387.019C94.3832 388.431 98.2822 386.812 99.691 383.402Z" fill="#BAA0FF"/>
<path d="M96.8504 359.061C100.517 359.061 103.49 356.08 103.49 352.404C103.49 348.727 100.517 345.746 96.8504 345.746C93.1835 345.746 90.2109 348.727 90.2109 352.404C90.2109 356.08 93.1835 359.061 96.8504 359.061Z" fill="#BAA0FF"/>
<path d="M102.389 330.943C106.042 330.943 109.003 327.974 109.003 324.311C109.003 320.649 106.042 317.68 102.389 317.68C98.7364 317.68 95.7754 320.649 95.7754 324.311C95.7754 327.974 98.7364 330.943 102.389 330.943Z" fill="#BAA0FF"/>
<path d="M110.123 303.298C113.734 303.298 116.661 300.363 116.661 296.743C116.661 293.122 113.734 290.188 110.123 290.188C106.513 290.188 103.586 293.122 103.586 296.743C103.586 300.363 106.513 303.298 110.123 303.298Z" fill="#BAA0FF"/>
<path d="M123.401 275.388C126.436 273.507 127.376 269.516 125.5 266.473C123.624 263.43 119.643 262.487 116.608 264.368C113.574 266.249 112.634 270.24 114.51 273.284C116.385 276.327 120.366 277.269 123.401 275.388Z" fill="#BAA0FF"/>
<path d="M134.41 249.781C137.661 248.431 139.205 244.694 137.858 241.434C136.512 238.175 132.785 236.627 129.534 237.977C126.284 239.327 124.74 243.064 126.086 246.324C127.433 249.583 131.16 251.131 134.41 249.781Z" fill="#BAA0FF"/>
<path d="M145.943 225.17C149.392 225.17 152.187 222.367 152.187 218.909C152.187 215.452 149.392 212.648 145.943 212.648C142.495 212.648 139.699 215.452 139.699 218.909C139.699 222.367 142.495 225.17 145.943 225.17Z" fill="#BAA0FF"/>
<path d="M167.029 198.337C168.805 195.456 167.915 191.676 165.041 189.895C162.168 188.114 158.398 189.006 156.622 191.888C154.846 194.77 155.736 198.549 158.61 200.33C161.483 202.111 165.253 201.219 167.029 198.337Z" fill="#BAA0FF"/>
<path d="M179.516 178.611C182.808 178.611 185.477 175.935 185.477 172.633C185.477 169.332 182.808 166.656 179.516 166.656C176.223 166.656 173.555 169.332 173.555 172.633C173.555 175.935 176.223 178.611 179.516 178.611Z" fill="#BAA0FF"/>
<path d="M203.465 155.178C205.432 152.652 204.984 149.004 202.464 147.032C199.945 145.059 196.307 145.508 194.34 148.034C192.372 150.561 192.82 154.209 195.34 156.181C197.86 158.154 201.497 157.705 203.465 155.178Z" fill="#BAA0FF"/>
<path d="M219.865 137.784C222.962 137.784 225.473 135.267 225.473 132.162C225.473 129.056 222.962 126.539 219.865 126.539C216.768 126.539 214.258 129.056 214.258 132.162C214.258 135.267 216.768 137.784 219.865 137.784Z" fill="#BAA0FF"/>
<path d="M242.276 119.812C245.247 119.812 247.656 117.397 247.656 114.418C247.656 111.439 245.247 109.023 242.276 109.023C239.305 109.023 236.896 111.439 236.896 114.418C236.896 117.397 239.305 119.812 242.276 119.812Z" fill="#BAA0FF"/>
<path d="M266.003 103.648C268.849 103.648 271.155 101.335 271.155 98.4823C271.155 95.6293 268.849 93.3164 266.003 93.3164C263.158 93.3164 260.852 95.6293 260.852 98.4823C260.852 101.335 263.158 103.648 266.003 103.648Z" fill="#BAA0FF"/>
<path d="M290.905 89.4025C293.624 89.4025 295.829 87.1919 295.829 84.4649C295.829 81.738 293.624 79.5273 290.905 79.5273C288.185 79.5273 285.98 81.738 285.98 84.4649C285.98 87.1919 288.185 89.4025 290.905 89.4025Z" fill="#BAA0FF"/>
<path d="M316.829 77.1646C319.423 77.1646 321.526 75.0562 321.526 72.4553C321.526 69.8545 319.423 67.7461 316.829 67.7461C314.235 67.7461 312.133 69.8545 312.133 72.4553C312.133 75.0562 314.235 77.1646 316.829 77.1646Z" fill="#BAA0FF"/>
<path d="M343.617 66.9999C346.074 66.9999 348.066 65.0027 348.066 62.539C348.066 60.0753 346.074 58.0781 343.617 58.0781C341.16 58.0781 339.168 60.0753 339.168 62.539C339.168 65.0027 341.16 66.9999 343.617 66.9999Z" fill="#BAA0FF"/>
<path d="M373.484 58.218C375.38 56.9005 375.852 54.2912 374.538 52.3899C373.224 50.4887 370.622 50.0156 368.726 51.3331C366.83 52.6507 366.358 55.26 367.672 57.1612C368.986 59.0624 371.588 59.5356 373.484 58.218Z" fill="#BAA0FF"/>
<path d="M402.439 51.2707C403.573 49.4311 403.005 47.0181 401.17 45.8812C399.335 44.7443 396.929 45.3139 395.795 47.1535C394.661 48.9931 395.229 51.406 397.064 52.543C398.899 53.6799 401.305 53.1103 402.439 51.2707Z" fill="#BAA0FF"/>
<path d="M427.479 49.5167C425.472 49.5167 423.846 47.8856 423.846 45.8736C423.846 43.8615 425.472 42.2305 427.479 42.2305C429.486 42.2305 431.112 43.8615 431.112 45.8736C431.112 47.8856 429.486 49.5167 427.479 49.5167Z" fill="#BAA0FF"/>
<path d="M456.014 48.1317C454.157 48.1317 452.652 46.6226 452.652 44.7611C452.652 42.8997 454.157 41.3906 456.014 41.3906C457.87 41.3906 459.375 42.8997 459.375 44.7611C459.375 46.6226 457.87 48.1317 456.014 48.1317Z" fill="#BAA0FF"/>
<path d="M484.551 48.9615C482.844 48.9615 481.461 47.5745 481.461 45.8636C481.461 44.1526 482.844 42.7656 484.551 42.7656C486.257 42.7656 487.64 44.1526 487.64 45.8636C487.64 47.5745 486.257 48.9615 484.551 48.9615Z" fill="#BAA0FF"/>
<path d="M512.915 52.0101C511.359 52.0101 510.098 50.7451 510.098 49.1847C510.098 47.6243 511.359 46.3594 512.915 46.3594C514.472 46.3594 515.733 47.6243 515.733 49.1847C515.733 50.7451 514.472 52.0101 512.915 52.0101Z" fill="#BAA0FF"/>
<path d="M540.933 57.293C542.339 57.293 543.478 56.1501 543.478 54.7403C543.478 53.3304 542.339 52.1875 540.933 52.1875C539.527 52.1875 538.387 53.3304 538.387 54.7403C538.387 56.1501 539.527 57.293 540.933 57.293Z" fill="#BAA0FF"/>
<path d="M568.426 64.7713C569.682 64.7713 570.7 63.7504 570.7 62.4911C570.7 61.2318 569.682 60.2109 568.426 60.2109C567.17 60.2109 566.152 61.2318 566.152 62.4911C566.152 63.7504 567.17 64.7713 568.426 64.7713Z" fill="#BAA0FF"/>
<path d="M595.218 74.4273C594.102 74.4273 593.197 73.5201 593.197 72.4011C593.197 71.2821 594.102 70.375 595.218 70.375C596.334 70.375 597.239 71.2821 597.239 72.4011C597.239 73.5201 596.334 74.4273 595.218 74.4273Z" fill="#BAA0FF"/>
<path d="M621.146 86.1971C622.137 86.1971 622.939 85.3922 622.939 84.3994C622.939 83.4065 622.137 82.6016 621.146 82.6016C620.156 82.6016 619.354 83.4065 619.354 84.3994C619.354 85.3922 620.156 86.1971 621.146 86.1971Z" fill="#BAA0FF"/>
<path d="M646.05 99.9749C645.185 99.9749 644.484 99.2722 644.484 98.4054C644.484 97.5386 645.185 96.8359 646.05 96.8359C646.914 96.8359 647.615 97.5386 647.615 98.4054C647.615 99.2722 646.914 99.9749 646.05 99.9749Z" fill="#BAA0FF"/>
<path d="M669.785 115.667C670.523 115.667 671.122 115.066 671.122 114.325C671.122 113.585 670.523 112.984 669.785 112.984C669.046 112.984 668.447 113.585 668.447 114.325C668.447 115.066 669.046 115.667 669.785 115.667Z" fill="#BAA0FF"/>
<path d="M692.203 133.179C691.591 133.179 691.094 132.68 691.094 132.066C691.094 131.451 691.591 130.953 692.203 130.953C692.816 130.953 693.313 131.451 693.313 132.066C693.313 132.68 692.816 133.179 692.203 133.179Z" fill="#BAA0FF"/>
<path d="M713.173 152.426C712.665 152.426 712.252 152.013 712.252 151.502C712.252 150.992 712.665 150.578 713.173 150.578C713.682 150.578 714.095 150.992 714.095 151.502C714.095 152.013 713.682 152.426 713.173 152.426Z" fill="#BAA0FF"/>
<path d="M732.569 173.268C732.156 173.268 731.82 172.932 731.82 172.517C731.82 172.102 732.156 171.766 732.569 171.766C732.983 171.766 733.319 172.102 733.319 172.517C733.319 172.932 732.983 173.268 732.569 173.268Z" fill="#BAA0FF"/>
<path d="M750.267 195.58C750.591 195.58 750.854 195.316 750.854 194.991C750.854 194.666 750.591 194.402 750.267 194.402C749.943 194.402 749.68 194.666 749.68 194.991C749.68 195.316 749.943 195.58 750.267 195.58Z" fill="#BAA0FF"/>
<path d="M766.16 219.243C766.414 219.243 766.62 219.037 766.62 218.782C766.62 218.527 766.414 218.32 766.16 218.32C765.905 218.32 765.699 218.527 765.699 218.782C765.699 219.037 765.905 219.243 766.16 219.243Z" fill="#BAA0FF"/>
<path d="M780.142 244.083C779.958 244.083 779.809 243.933 779.809 243.748C779.809 243.564 779.958 243.414 780.142 243.414C780.326 243.414 780.475 243.564 780.475 243.748C780.475 243.933 780.326 244.083 780.142 244.083Z" fill="#BAA0FF"/>
<path d="M792.121 269.981C792.252 269.981 792.359 269.874 792.359 269.742C792.359 269.611 792.252 269.504 792.121 269.504C791.989 269.504 791.883 269.611 791.883 269.742C791.883 269.874 791.989 269.981 792.121 269.981Z" fill="#BAA0FF"/>
<path d="M802.014 296.767C801.925 296.767 801.854 296.695 801.854 296.606C801.854 296.517 801.925 296.445 802.014 296.445C802.102 296.445 802.174 296.517 802.174 296.606C802.174 296.695 802.102 296.767 802.014 296.767Z" fill="#BAA0FF"/>
<path d="M809.759 324.248C809.713 324.248 809.676 324.211 809.676 324.165C809.676 324.119 809.713 324.082 809.759 324.082C809.804 324.082 809.841 324.119 809.841 324.165C809.841 324.211 809.804 324.248 809.759 324.248Z" fill="#BAA0FF"/>
<path d="M815.307 352.306C815.279 352.306 815.256 352.283 815.256 352.255C815.256 352.226 815.279 352.203 815.307 352.203C815.336 352.203 815.358 352.226 815.358 352.255C815.358 352.283 815.336 352.306 815.307 352.306Z" fill="#BAA0FF"/>
<path d="M818.638 380.717C818.623 380.717 818.611 380.705 818.611 380.691C818.611 380.676 818.623 380.664 818.638 380.664C818.652 380.664 818.664 380.676 818.664 380.691C818.664 380.705 818.652 380.717 818.638 380.717Z" fill="#BAA0FF"/>
<path d="M1.02008 371.079C1.03816 371.079 1.05282 371.094 1.05279 371.112C1.05276 371.13 1.03804 371.145 1.01997 371.144C1.00189 371.144 0.987229 371.13 0.98726 371.112C0.987291 371.093 1.00201 371.079 1.02008 371.079Z" fill="#BAA0FF"/>
<path d="M5.29079 335.01C5.32659 335.01 5.35564 335.04 5.35558 335.076C5.35552 335.112 5.32636 335.141 5.29056 335.141C5.25463 335.14 5.22571 335.111 5.22577 335.075C5.22583 335.039 5.25487 335.01 5.29079 335.01Z" fill="#BAA0FF"/>
<path d="M12.3779 299.379C12.4347 299.38 12.4807 299.426 12.4806 299.483C12.4805 299.54 12.4344 299.586 12.3776 299.586C12.3208 299.586 12.2748 299.539 12.2748 299.482C12.2749 299.425 12.3211 299.379 12.3779 299.379Z" fill="#BAA0FF"/>
<path d="M22.2438 264.36C22.3544 264.36 22.4439 264.45 22.4437 264.561C22.4435 264.672 22.3538 264.762 22.2431 264.761C22.1325 264.761 22.0429 264.671 22.0431 264.56C22.0433 264.449 22.1332 264.359 22.2438 264.36Z" fill="#BAA0FF"/>
<path d="M34.8316 230.237C34.6668 230.237 34.5329 230.37 34.5327 230.536C34.5324 230.701 34.6657 230.835 34.8305 230.835C34.9953 230.836 35.1291 230.702 35.1294 230.537C35.1297 230.372 34.9963 230.237 34.8316 230.237Z" fill="#BAA0FF"/>
<path d="M50.0597 197.196C50.2897 197.196 50.4757 197.383 50.4753 197.614C50.4749 197.844 50.2882 198.031 50.0583 198.031C49.8284 198.03 49.6424 197.843 49.6428 197.612C49.6432 197.382 49.8299 197.195 50.0597 197.196Z" fill="#BAA0FF"/>
<path d="M67.8262 165.422C67.508 165.421 67.2495 165.679 67.249 165.998C67.2484 166.317 67.506 166.577 67.8242 166.577C68.1424 166.578 68.4008 166.319 68.4014 166C68.4019 165.681 68.1444 165.422 67.8262 165.422Z" fill="#BAA0FF"/>
<path d="M88.0105 135.136C88.417 135.136 88.7461 135.467 88.7454 135.875C88.7447 136.283 88.4145 136.613 88.008 136.612C87.6015 136.611 87.2723 136.28 87.273 135.873C87.2737 135.465 87.604 135.135 88.0105 135.136Z" fill="#BAA0FF"/>
<path d="M110.484 106.491C109.967 106.49 109.547 106.91 109.546 107.428C109.545 107.947 109.964 108.369 110.481 108.369C110.999 108.37 111.419 107.95 111.42 107.432C111.42 106.913 111.002 106.492 110.484 106.491Z" fill="#BAA0FF"/>
<path d="M135.104 79.6719C135.741 79.673 136.257 80.192 136.256 80.8311C136.255 81.4702 135.737 81.9874 135.1 81.9863C134.462 81.9852 133.947 81.4663 133.948 80.8272C133.949 80.1881 134.466 79.6709 135.104 79.6719Z" fill="#BAA0FF"/>
<path d="M161.718 54.8387C160.953 54.8374 160.331 55.4587 160.33 56.2263C160.328 56.994 160.948 57.6174 161.713 57.6187C162.479 57.62 163.101 56.9988 163.102 56.2311C163.103 55.4634 162.484 54.84 161.718 54.8387Z" fill="#BAA0FF"/>
<path d="M190.163 32.1147C191.087 32.1163 191.835 32.8686 191.833 33.7951C191.831 34.7216 191.081 35.4714 190.157 35.4698C189.233 35.4682 188.485 34.7158 188.487 33.7893C188.488 32.8629 189.239 32.1131 190.163 32.1147Z" fill="#BAA0FF"/>
<path d="M220.272 11.6914C221.354 11.6933 222.23 12.5746 222.228 13.6599C222.226 14.7452 221.347 15.6235 220.265 15.6216C219.182 15.6198 218.307 14.7385 218.308 13.6532C218.31 12.5679 219.189 11.6896 220.272 11.6914Z" fill="#BAA0FF"/>
<path d="M670.418 -9.57087C666.998 -9.57673 664.22 -6.80125 664.215 -3.37167C664.209 0.0579154 666.977 2.8429 670.397 2.84876C673.817 2.85462 676.595 0.0791465 676.6 -3.35044C676.606 -6.78002 673.838 -9.565 670.418 -9.57087Z" fill="#BAA0FF"/>
<path d="M701.947 7.95126C698.368 7.94513 695.462 10.8491 695.456 14.4375C695.45 18.0259 698.346 20.9398 701.925 20.9459C705.503 20.9521 708.409 18.0481 708.415 14.4597C708.422 10.8713 705.526 7.95739 701.947 7.95126Z" fill="#BAA0FF"/>
<path d="M731.989 27.9029C728.252 27.8965 725.217 30.9291 725.211 34.6763C725.205 38.4235 728.229 41.4664 731.966 41.4728C735.703 41.4792 738.738 38.4467 738.744 34.6995C738.75 30.9523 735.726 27.9093 731.989 27.9029Z" fill="#BAA0FF"/>
<path d="M760.362 50.1477C756.466 50.141 753.303 53.3021 753.296 57.2081C753.289 61.1141 756.442 64.2859 760.337 64.2926C764.233 64.2993 767.396 61.1383 767.403 57.2323C767.409 53.3262 764.257 50.1543 760.362 50.1477Z" fill="#BAA0FF"/>
<path d="M779.787 80.2109C778.855 84.1408 781.276 88.0844 785.195 89.0192C789.115 89.954 793.048 87.526 793.98 83.5962C794.912 79.6663 792.491 75.7226 788.572 74.7878C784.652 73.853 780.719 76.281 779.787 80.2109Z" fill="#BAA0FF"/>
<path d="M811.424 101.052C807.276 101.045 803.907 104.411 803.9 108.571C803.893 112.731 807.25 116.109 811.399 116.116C815.547 116.123 818.916 112.757 818.923 108.597C818.93 104.437 815.573 101.059 811.424 101.052Z" fill="#BAA0FF"/>
<path d="M833.805 129.369C829.542 129.362 826.079 132.821 826.072 137.096C826.065 141.371 829.515 144.843 833.778 144.85C838.042 144.857 841.504 141.398 841.511 137.123C841.519 132.848 838.068 129.376 833.805 129.369Z" fill="#BAA0FF"/>
<path d="M853.89 159.396C849.538 159.388 846.004 162.919 845.997 167.283C845.989 171.647 849.511 175.19 853.863 175.197C858.214 175.205 861.748 171.674 861.756 167.31C861.763 162.946 858.241 159.403 853.89 159.396Z" fill="#BAA0FF"/>
<path d="M871.553 190.91C867.113 190.903 863.507 194.506 863.499 198.958C863.492 203.41 867.085 207.025 871.525 207.033C875.965 207.041 879.571 203.438 879.578 198.986C879.586 194.533 875.993 190.918 871.553 190.91Z" fill="#BAA0FF"/>
<path d="M886.673 223.759C882.164 223.752 878.502 227.411 878.494 231.933C878.486 236.455 882.136 240.127 886.645 240.134C891.155 240.142 894.817 236.483 894.825 231.961C894.832 227.439 891.183 223.767 886.673 223.759Z" fill="#BAA0FF"/>
<path d="M899.148 257.727C894.585 257.72 890.879 261.423 890.871 265.999C890.863 270.575 894.556 274.291 899.12 274.298C903.683 274.306 907.389 270.603 907.397 266.027C907.405 261.451 903.712 257.735 899.148 257.727Z" fill="#BAA0FF"/>
<path d="M902.984 295.022C899.713 298.29 899.704 303.599 902.963 306.878C906.223 310.158 911.516 310.167 914.787 306.898C918.058 303.63 918.067 298.322 914.807 295.042C911.548 291.763 906.254 291.754 902.984 295.022Z" fill="#BAA0FF"/>
<path d="M907.555 335.211C906.803 339.805 909.908 344.14 914.49 344.894C919.072 345.647 923.395 342.534 924.147 337.94C924.899 333.345 921.794 329.01 917.212 328.257C912.63 327.503 908.307 330.616 907.555 335.211Z" fill="#BAA0FF"/>
<path d="M914.047 366.63C910.745 369.929 910.736 375.287 914.026 378.598C917.317 381.908 922.66 381.917 925.962 378.618C929.263 375.319 929.272 369.961 925.982 366.65C922.692 363.34 917.348 363.331 914.047 366.63Z" fill="#BAA0FF"/>
<path d="M913.104 406.923C912.021 411.487 914.833 416.067 919.385 417.153C923.937 418.239 928.505 415.419 929.588 410.854C930.671 406.29 927.859 401.71 923.307 400.624C918.755 399.538 914.187 402.358 913.104 406.923Z" fill="#BAA0FF"/>
<path d="M912.091 441.896C910.299 446.215 912.337 451.174 916.644 452.971C920.951 454.769 925.897 452.725 927.689 448.406C929.482 444.087 927.444 439.129 923.137 437.331C918.829 435.533 913.884 437.577 912.091 441.896Z" fill="#BAA0FF"/>
<path d="M915.638 472.755C910.99 472.747 907.216 476.518 907.208 481.178C907.2 485.838 910.961 489.622 915.609 489.63C920.256 489.638 924.03 485.867 924.038 481.207C924.046 476.547 920.285 472.763 915.638 472.755Z" fill="#BAA0FF"/>
<path d="M908.557 508.379C903.928 508.371 900.169 512.128 900.161 516.77C900.153 521.411 903.899 525.181 908.528 525.189C913.157 525.197 916.917 521.44 916.925 516.798C916.933 512.156 913.186 508.387 908.557 508.379Z" fill="#BAA0FF"/>
<path d="M898.696 543.397C894.12 543.389 890.404 547.102 890.396 551.691C890.388 556.279 894.092 560.005 898.668 560.013C903.244 560.021 906.96 556.308 906.967 551.719C906.975 547.131 903.272 543.405 898.696 543.397Z" fill="#BAA0FF"/>
<path d="M881.805 578.74C877.954 581.117 876.755 586.174 879.125 590.035C881.496 593.896 886.539 595.099 890.389 592.722C894.24 590.345 895.44 585.288 893.069 581.427C890.698 577.566 885.655 576.363 881.805 578.74Z" fill="#BAA0FF"/>
<path d="M867.797 611.173C863.674 612.878 861.709 617.61 863.409 621.744C865.108 625.878 869.828 627.848 873.951 626.144C878.074 624.44 880.038 619.707 878.339 615.573C876.639 611.439 871.92 609.469 867.797 611.173Z" fill="#BAA0FF"/>
<path d="M853.127 642.339C848.757 642.332 845.208 645.878 845.2 650.261C845.193 654.643 848.73 658.202 853.1 658.209C857.471 658.217 861.02 654.67 861.027 650.288C861.035 645.905 857.498 642.347 853.127 642.339Z" fill="#BAA0FF"/>
<path d="M826.345 676.3C824.088 679.948 825.207 684.74 828.846 687.004C832.484 689.267 837.263 688.144 839.52 684.496C841.778 680.848 840.658 676.056 837.02 673.793C833.382 671.529 828.602 672.652 826.345 676.3Z" fill="#BAA0FF"/>
<path d="M810.477 701.274C806.305 701.267 802.916 704.652 802.909 708.836C802.902 713.02 806.279 716.417 810.451 716.425C814.623 716.432 818.012 713.046 818.019 708.862C818.026 704.678 814.649 701.281 810.477 701.274Z" fill="#BAA0FF"/>
<path d="M780.074 730.92C777.575 734.118 778.135 738.741 781.324 741.247C784.514 743.753 789.125 743.192 791.624 739.994C794.123 736.796 793.563 732.172 790.374 729.666C787.184 727.16 782.573 727.722 780.074 730.92Z" fill="#BAA0FF"/>
<path d="M759.252 752.931C755.327 752.924 752.14 756.109 752.133 760.045C752.126 763.981 755.302 767.176 759.227 767.183C763.152 767.19 766.339 764.005 766.346 760.069C766.353 756.134 763.177 752.938 759.252 752.931Z" fill="#BAA0FF"/>
<path d="M730.809 775.659C727.043 775.652 723.986 778.708 723.979 782.484C723.973 786.26 727.02 789.326 730.785 789.332C734.551 789.339 737.609 786.283 737.615 782.507C737.622 778.731 734.574 775.665 730.809 775.659Z" fill="#BAA0FF"/>
<path d="M700.702 796.09C697.096 796.084 694.168 799.01 694.161 802.626C694.155 806.242 697.073 809.178 700.68 809.184C704.286 809.19 707.214 806.264 707.22 802.648C707.226 799.032 704.308 796.096 700.702 796.09Z" fill="#BAA0FF"/>
<path d="M669.113 814.095C665.666 814.089 662.867 816.886 662.861 820.342C662.855 823.798 665.644 826.604 669.091 826.61C672.538 826.616 675.337 823.819 675.343 820.363C675.349 816.907 672.559 814.101 669.113 814.095Z" fill="#BAA0FF"/>
<path d="M636.23 829.549C632.943 829.543 630.274 832.211 630.268 835.507C630.262 838.804 632.923 841.48 636.21 841.486C639.497 841.492 642.167 838.824 642.172 835.528C642.178 832.231 639.518 829.555 636.23 829.549Z" fill="#BAA0FF"/>
<path d="M602.254 842.374C599.14 842.369 596.611 844.896 596.606 848.018C596.601 851.141 599.121 853.676 602.235 853.682C605.349 853.687 607.877 851.16 607.883 848.038C607.888 844.915 605.368 842.38 602.254 842.374Z" fill="#BAA0FF"/>
<path d="M564.384 853.436C561.978 855.102 561.374 858.408 563.035 860.82C564.697 863.233 567.994 863.838 570.4 862.172C572.806 860.507 573.409 857.201 571.748 854.788C570.087 852.376 566.79 851.77 564.384 853.436Z" fill="#BAA0FF"/>
<path d="M527.671 862.18C526.23 864.509 526.945 867.568 529.267 869.013C531.59 870.458 534.641 869.741 536.082 867.412C537.523 865.083 536.808 862.024 534.486 860.579C532.163 859.134 529.112 859.851 527.671 862.18Z" fill="#BAA0FF"/>
<path d="M495.933 864.348C498.476 864.352 500.534 866.423 500.529 868.973C500.525 871.523 498.46 873.586 495.917 873.582C493.374 873.578 491.316 871.507 491.32 868.957C491.324 866.407 493.39 864.343 495.933 864.348Z" fill="#BAA0FF"/>
<path d="M459.764 866.039C462.117 866.043 464.021 867.959 464.017 870.318C464.013 872.677 462.102 874.587 459.75 874.583C457.397 874.579 455.493 872.663 455.497 870.303C455.501 867.944 457.411 866.035 459.764 866.039Z" fill="#BAA0FF"/>
<path d="M423.602 864.93C425.764 864.934 427.514 866.694 427.511 868.863C427.507 871.031 425.751 872.786 423.588 872.782C421.426 872.779 419.676 871.018 419.679 868.849C419.683 866.681 421.439 864.926 423.602 864.93Z" fill="#BAA0FF"/>
<path d="M387.658 860.996C389.63 861 391.226 862.606 391.223 864.583C391.22 866.561 389.618 868.161 387.646 868.158C385.673 868.155 384.077 866.549 384.081 864.571C384.084 862.593 385.686 860.993 387.658 860.996Z" fill="#BAA0FF"/>
<path d="M352.16 854.246C350.378 854.243 348.93 855.689 348.927 857.476C348.924 859.263 350.366 860.714 352.148 860.717C353.93 860.72 355.377 859.274 355.381 857.487C355.384 855.7 353.942 854.25 352.16 854.246Z" fill="#BAA0FF"/>
<path d="M317.333 844.708C315.741 844.705 314.449 845.996 314.446 847.592C314.443 849.188 315.731 850.485 317.323 850.487C318.915 850.49 320.207 849.198 320.21 847.602C320.213 846.006 318.925 844.71 317.333 844.708Z" fill="#BAA0FF"/>
<path d="M283.397 832.415C284.811 832.417 285.956 833.569 285.954 834.987C285.951 836.405 284.803 837.553 283.388 837.55C281.974 837.548 280.829 836.396 280.832 834.978C280.834 833.56 281.983 832.412 283.397 832.415Z" fill="#BAA0FF"/>
<path d="M250.562 817.439C249.307 817.437 248.288 818.455 248.285 819.714C248.283 820.972 249.299 821.994 250.554 821.996C251.809 821.998 252.828 820.98 252.83 819.722C252.832 818.463 251.817 817.441 250.562 817.439Z" fill="#BAA0FF"/>
<path d="M219.027 799.925C220.123 799.927 221.009 800.819 221.007 801.917C221.005 803.016 220.116 803.905 219.02 803.903C217.925 803.901 217.038 803.009 217.04 801.91C217.042 800.812 217.931 799.923 219.027 799.925Z" fill="#BAA0FF"/>
<path d="M188.981 779.98C188.044 779.979 187.284 780.739 187.283 781.677C187.281 782.616 188.039 783.378 188.975 783.38C189.911 783.382 190.671 782.622 190.673 781.683C190.674 780.744 189.917 779.982 188.981 779.98Z" fill="#BAA0FF"/>
<path d="M160.606 757.743C161.383 757.745 162.012 758.377 162.01 759.156C162.009 759.935 161.378 760.565 160.601 760.564C159.825 760.563 159.196 759.93 159.197 759.151C159.199 758.372 159.829 757.742 160.606 757.743Z" fill="#BAA0FF"/>
<path d="M134.07 733.3C134.715 733.301 135.237 733.827 135.236 734.473C135.235 735.12 134.711 735.644 134.066 735.643C133.421 735.641 132.899 735.116 132.9 734.469C132.902 733.823 133.425 733.299 134.07 733.3Z" fill="#BAA0FF"/>
<path d="M109.536 706.844C110.061 706.845 110.485 707.272 110.484 707.798C110.483 708.324 110.057 708.749 109.533 708.748C109.009 708.747 108.584 708.321 108.585 707.795C108.586 707.269 109.012 706.844 109.536 706.844Z" fill="#BAA0FF"/>
<path d="M87.1528 678.526C86.7417 678.525 86.4079 678.858 86.4071 679.271C86.4064 679.683 86.7391 680.018 87.1502 680.018C87.5613 680.019 87.8951 679.685 87.8958 679.273C87.8965 678.861 87.5638 678.526 87.1528 678.526Z" fill="#BAA0FF"/>
<path d="M67.0631 648.501C66.7409 648.5 66.4792 648.762 66.4787 649.085C66.4781 649.408 66.7389 649.67 67.0611 649.671C67.3833 649.671 67.645 649.41 67.6455 649.087C67.6461 648.764 67.3853 648.501 67.0631 648.501Z" fill="#BAA0FF"/>
<path d="M49.3953 616.988C49.6286 616.988 49.8175 617.178 49.8171 617.412C49.8167 617.646 49.6272 617.836 49.3939 617.835C49.1605 617.835 48.9718 617.645 48.9722 617.411C48.9726 617.177 49.162 616.988 49.3953 616.988Z" fill="#BAA0FF"/>
<path d="M34.2718 584.145C34.1053 584.145 33.9701 584.28 33.9698 584.447C33.9695 584.614 34.1043 584.749 34.2708 584.749C34.4373 584.75 34.5725 584.615 34.5728 584.448C34.5731 584.281 34.4383 584.145 34.2718 584.145Z" fill="#BAA0FF"/>
<path d="M21.7919 550.175C21.9039 550.175 21.9947 550.266 21.9945 550.379C21.9943 550.491 21.9032 550.582 21.7912 550.582C21.6793 550.581 21.5885 550.49 21.5887 550.378C21.5889 550.266 21.6799 550.175 21.7919 550.175Z" fill="#BAA0FF"/>
<path d="M12.0363 515.329C12.0941 515.329 12.1409 515.376 12.1408 515.434C12.1407 515.492 12.0938 515.539 12.0359 515.539C11.9781 515.539 11.9313 515.492 11.9314 515.434C11.9315 515.376 11.9784 515.329 12.0363 515.329Z" fill="#BAA0FF"/>
<path d="M5.06384 479.756C5.0999 479.756 5.12908 479.785 5.12902 479.821C5.12896 479.857 5.09967 479.887 5.06362 479.887C5.02756 479.887 4.99837 479.857 4.99844 479.821C4.9985 479.785 5.02778 479.756 5.06384 479.756Z" fill="#BAA0FF"/>
<path d="M0.902765 443.739C0.920968 443.739 0.935635 443.753 0.935604 443.772C0.935572 443.79 0.920855 443.805 0.902652 443.805C0.884321 443.805 0.869652 443.79 0.869683 443.772C0.869714 443.753 0.884423 443.739 0.902765 443.739Z" fill="#BAA0FF"/>
<path d="M159.154 437.18C159.137 437.18 159.123 437.166 159.123 437.149C159.123 437.131 159.137 437.117 159.154 437.117C159.172 437.117 159.186 437.131 159.186 437.149C159.186 437.166 159.172 437.18 159.154 437.18Z" fill="#BAA0FF"/>
<path d="M163.204 465.26C163.239 465.26 163.267 465.231 163.267 465.196C163.267 465.161 163.239 465.133 163.204 465.133C163.169 465.133 163.141 465.161 163.141 465.196C163.141 465.231 163.169 465.26 163.204 465.26Z" fill="#BAA0FF"/>
<path d="M169.949 492.856C170.023 492.856 170.084 492.796 170.084 492.721C170.084 492.646 170.023 492.586 169.949 492.586C169.875 492.586 169.814 492.646 169.814 492.721C169.814 492.796 169.875 492.856 169.949 492.856Z" fill="#BAA0FF"/>
<path d="M179.329 519.687C179.202 519.687 179.1 519.584 179.1 519.457C179.1 519.33 179.202 519.227 179.329 519.227C179.456 519.227 179.559 519.33 179.559 519.457C179.559 519.584 179.456 519.687 179.329 519.687Z" fill="#BAA0FF"/>
<path d="M191.254 545.495C191.446 545.495 191.602 545.338 191.602 545.146C191.602 544.953 191.446 544.797 191.254 544.797C191.062 544.797 190.906 544.953 190.906 545.146C190.906 545.338 191.062 545.495 191.254 545.495Z" fill="#BAA0FF"/>
<path d="M205.605 570.064C205.327 570.064 205.102 569.838 205.102 569.559C205.102 569.281 205.327 569.055 205.605 569.055C205.883 569.055 206.108 569.281 206.108 569.559C206.108 569.838 205.883 570.064 205.605 570.064Z" fill="#BAA0FF"/>
<path d="M222.236 593.151C221.864 593.151 221.562 592.849 221.562 592.476C221.562 592.103 221.864 591.801 222.236 591.801C222.608 591.801 222.909 592.103 222.909 592.476C222.909 592.849 222.608 593.151 222.236 593.151Z" fill="#BAA0FF"/>
<path d="M240.984 614.57C241.472 614.57 241.868 614.173 241.868 613.683C241.868 613.194 241.472 612.797 240.984 612.797C240.495 612.797 240.1 613.194 240.1 613.683C240.1 614.173 240.495 614.57 240.984 614.57Z" fill="#BAA0FF"/>
<path d="M261.676 634.099C262.289 634.099 262.787 633.601 262.787 632.985C262.787 632.37 262.289 631.871 261.676 631.871C261.062 631.871 260.564 632.37 260.564 632.985C260.564 633.601 261.062 634.099 261.676 634.099Z" fill="#BAA0FF"/>
<path d="M284.12 651.599C283.353 651.599 282.73 650.976 282.73 650.206C282.73 649.436 283.353 648.812 284.12 648.812C284.888 648.812 285.51 649.436 285.51 650.206C285.51 650.976 284.888 651.599 284.12 651.599Z" fill="#BAA0FF"/>
<path d="M308.113 666.853C307.192 666.853 306.445 666.104 306.445 665.18C306.445 664.257 307.192 663.508 308.113 663.508C309.035 663.508 309.782 664.257 309.782 665.18C309.782 666.104 309.035 666.853 308.113 666.853Z" fill="#BAA0FF"/>
<path d="M333.439 679.712C332.364 679.712 331.492 678.839 331.492 677.761C331.492 676.683 332.364 675.809 333.439 675.809C334.514 675.809 335.385 676.683 335.385 677.761C335.385 678.839 334.514 679.712 333.439 679.712Z" fill="#BAA0FF"/>
<path d="M359.863 690.067C358.623 690.067 357.617 689.059 357.617 687.815C357.617 686.571 358.623 685.562 359.863 685.562C361.104 685.562 362.11 686.571 362.11 687.815C362.11 689.059 361.104 690.067 359.863 690.067Z" fill="#BAA0FF"/>
<path d="M387.137 697.828C385.713 697.828 384.559 696.67 384.559 695.242C384.559 693.814 385.713 692.656 387.137 692.656C388.561 692.656 389.716 693.814 389.716 695.242C389.716 696.67 388.561 697.828 387.137 697.828Z" fill="#BAA0FF"/>
<path d="M414.999 702.901C413.391 702.901 412.088 701.594 412.088 699.982C412.088 698.369 413.391 697.062 414.999 697.062C416.607 697.062 417.91 698.369 417.91 699.982C417.91 701.594 416.607 702.901 414.999 702.901Z" fill="#BAA0FF"/>
<path d="M443.189 705.259C441.397 705.259 439.945 703.803 439.945 702.006C439.945 700.21 441.397 698.754 443.189 698.754C444.98 698.754 446.432 700.21 446.432 702.006C446.432 703.803 444.98 705.259 443.189 705.259Z" fill="#BAA0FF"/>
<path d="M471.441 704.922C469.466 704.922 467.865 703.316 467.865 701.336C467.865 699.355 469.466 697.75 471.441 697.75C473.416 697.75 475.017 699.355 475.017 701.336C475.017 703.316 473.416 704.922 471.441 704.922Z" fill="#BAA0FF"/>
<path d="M499.502 701.87C501.661 701.87 503.411 700.115 503.411 697.95C503.411 695.786 501.661 694.031 499.502 694.031C497.344 694.031 495.594 695.786 495.594 697.95C495.594 700.115 497.344 701.87 499.502 701.87Z" fill="#BAA0FF"/>
<path d="M527.108 696.114C529.45 696.114 531.349 694.21 531.349 691.862C531.349 689.513 529.45 687.609 527.108 687.609C524.766 687.609 522.867 689.513 522.867 691.862C522.867 694.21 524.766 696.114 527.108 696.114Z" fill="#BAA0FF"/>
<path d="M553.991 687.695C551.465 687.695 549.418 685.642 549.418 683.109C549.418 680.576 551.465 678.523 553.991 678.523C556.517 678.523 558.564 680.576 558.564 683.109C558.564 685.642 556.517 687.695 553.991 687.695Z" fill="#BAA0FF"/>
<path d="M579.895 676.648C582.574 676.648 584.746 674.469 584.746 671.783C584.746 669.096 582.574 666.918 579.895 666.918C577.215 666.918 575.043 669.096 575.043 671.783C575.043 674.469 577.215 676.648 579.895 676.648Z" fill="#BAA0FF"/>
<path d="M604.581 663.132C607.414 663.132 609.711 660.829 609.711 657.988C609.711 655.147 607.414 652.844 604.581 652.844C601.748 652.844 599.451 655.147 599.451 657.988C599.451 660.829 601.748 663.132 604.581 663.132Z" fill="#BAA0FF"/>
<path d="M627.827 647.296C630.814 647.296 633.235 644.868 633.235 641.872C633.235 638.877 630.814 636.449 627.827 636.449C624.839 636.449 622.418 638.877 622.418 641.872C622.418 644.868 624.839 647.296 627.827 647.296Z" fill="#BAA0FF"/>
<path d="M649.421 629.282C646.286 629.282 643.744 626.734 643.744 623.59C643.744 620.447 646.286 617.898 649.421 617.898C652.556 617.898 655.097 620.447 655.097 623.59C655.097 626.734 652.555 629.282 649.421 629.282Z" fill="#BAA0FF"/>
<path d="M669.165 609.213C672.416 609.213 675.052 606.57 675.052 603.31C675.052 600.049 672.416 597.406 669.165 597.406C665.913 597.406 663.277 600.049 663.277 603.31C663.277 606.57 665.913 609.213 669.165 609.213Z" fill="#BAA0FF"/>
<path d="M686.876 587.332C690.24 587.332 692.967 584.598 692.967 581.225C692.967 577.852 690.24 575.117 686.876 575.117C683.512 575.117 680.785 577.852 680.785 581.225C680.785 584.598 683.512 587.332 686.876 587.332Z" fill="#BAA0FF"/>
<path d="M702.387 563.8C705.837 563.8 708.633 560.996 708.633 557.537C708.633 554.078 705.837 551.273 702.387 551.273C698.937 551.273 696.141 554.078 696.141 557.537C696.141 560.996 698.937 563.8 702.387 563.8Z" fill="#BAA0FF"/>
<path d="M715.542 538.872C719.077 538.872 721.943 535.999 721.943 532.454C721.943 528.909 719.077 526.035 715.542 526.035C712.007 526.035 709.141 528.909 709.141 532.454C709.141 535.999 712.007 538.872 715.542 538.872Z" fill="#BAA0FF"/>
<path d="M726.209 512.723C729.797 512.723 732.705 509.806 732.705 506.209C732.705 502.612 729.797 499.695 726.209 499.695C722.621 499.695 719.713 502.612 719.713 506.209C719.713 509.806 722.621 512.723 726.209 512.723Z" fill="#BAA0FF"/>
<path d="M734.282 485.663C730.642 485.663 727.691 482.704 727.691 479.054C727.691 475.404 730.642 472.445 734.282 472.445C737.922 472.445 740.873 475.404 740.873 479.054C740.873 482.704 737.922 485.663 734.282 485.663Z" fill="#BAA0FF"/>
<path d="M739.684 457.889C736.018 457.889 733.047 454.909 733.047 451.233C733.047 447.558 736.018 444.578 739.684 444.578C743.35 444.578 746.321 447.558 746.321 451.233C746.321 454.909 743.35 457.889 739.684 457.889Z" fill="#BAA0FF"/>
<path d="M742.38 429.718C746.063 429.718 749.049 426.724 749.049 423.031C749.049 419.338 746.063 416.344 742.38 416.344C738.697 416.344 735.711 419.338 735.711 423.031C735.711 426.724 738.697 429.718 742.38 429.718Z" fill="#BAA0FF"/>
<path d="M742.382 401.379C738.696 401.379 735.707 398.382 735.707 394.686C735.707 390.989 738.696 387.992 742.382 387.992C746.069 387.992 749.058 390.989 749.058 394.686C749.058 398.382 746.069 401.379 742.382 401.379Z" fill="#BAA0FF"/>
<path d="M739.686 373.136C743.356 373.136 746.33 370.153 746.33 366.474C746.33 362.795 743.356 359.812 739.686 359.812C736.017 359.812 733.043 362.795 733.043 366.474C733.043 370.153 736.017 373.136 739.686 373.136Z" fill="#BAA0FF"/>
<path d="M734.287 345.282C730.637 345.282 727.678 342.315 727.678 338.654C727.678 334.994 730.637 332.027 734.287 332.027C737.937 332.027 740.896 334.994 740.896 338.654C740.896 342.314 737.937 345.282 734.287 345.282Z" fill="#BAA0FF"/>
<path d="M726.217 318.024C722.619 318.024 719.703 315.1 719.703 311.492C719.703 307.885 722.619 304.961 726.217 304.961C729.814 304.961 732.731 307.885 732.731 311.492C732.731 315.1 729.814 318.024 726.217 318.024Z" fill="#BAA0FF"/>
<path d="M715.551 291.688C719.096 291.688 721.969 288.806 721.969 285.252C721.969 281.698 719.096 278.816 715.551 278.816C712.006 278.816 709.133 281.698 709.133 285.252C709.133 288.806 712.006 291.688 715.551 291.688Z" fill="#BAA0FF"/>
<path d="M702.398 266.463C698.934 266.463 696.125 263.647 696.125 260.173C696.125 256.699 698.934 253.883 702.398 253.883C705.863 253.883 708.671 256.699 708.671 260.173C708.671 263.647 705.863 266.463 702.398 266.463Z" fill="#BAA0FF"/>
<path d="M686.89 242.611C690.269 242.611 693.007 239.865 693.007 236.477C693.007 233.09 690.269 230.344 686.89 230.344C683.512 230.344 680.773 233.09 680.773 236.477C680.773 239.865 683.512 242.611 686.89 242.611Z" fill="#BAA0FF"/>
<path d="M669.181 220.328C672.451 220.328 675.102 217.669 675.102 214.39C675.102 211.111 672.451 208.453 669.181 208.453C665.911 208.453 663.26 211.111 663.26 214.39C663.26 217.669 665.911 220.328 669.181 220.328Z" fill="#BAA0FF"/>
<path d="M649.439 199.839C646.286 199.839 643.73 197.277 643.73 194.115C643.73 190.954 646.286 188.391 649.439 188.391C652.592 188.391 655.148 190.954 655.148 194.115C655.148 197.277 652.592 199.839 649.439 199.839Z" fill="#BAA0FF"/>
<path d="M627.848 181.292C624.838 181.292 622.398 178.846 622.398 175.828C622.398 172.81 624.838 170.363 627.848 170.363C630.858 170.363 633.298 172.81 633.298 175.828C633.298 178.846 630.858 181.292 627.848 181.292Z" fill="#BAA0FF"/>
<path d="M604.603 164.89C601.748 164.89 599.434 162.57 599.434 159.707C599.434 156.844 601.748 154.523 604.603 154.523C607.458 154.523 609.772 156.844 609.772 159.707C609.772 162.57 607.458 164.89 604.603 164.89Z" fill="#BAA0FF"/>
<path d="M579.915 150.813C582.615 150.813 584.804 148.618 584.804 145.91C584.804 143.203 582.615 141.008 579.915 141.008C577.214 141.008 575.025 143.203 575.025 145.91C575.025 148.618 577.214 150.813 579.915 150.813Z" fill="#BAA0FF"/>
<path d="M554.011 139.204C551.466 139.204 549.402 137.135 549.402 134.582C549.402 132.03 551.466 129.961 554.011 129.961C556.557 129.961 558.62 132.03 558.62 134.582C558.62 137.135 556.557 139.204 554.011 139.204Z" fill="#BAA0FF"/>
<path d="M527.129 130.121C529.494 130.121 531.411 128.199 531.411 125.828C531.411 123.457 529.494 121.535 527.129 121.535C524.765 121.535 522.848 123.457 522.848 125.828C522.848 128.199 524.765 130.121 527.129 130.121Z" fill="#BAA0FF"/>
<path d="M499.529 123.693C501.709 123.693 503.476 121.921 503.476 119.735C503.476 117.549 501.709 115.777 499.529 115.777C497.349 115.777 495.582 117.549 495.582 119.735C495.582 121.921 497.349 123.693 499.529 123.693Z" fill="#BAA0FF"/>
<path d="M471.468 119.975C469.473 119.975 467.855 118.353 467.855 116.353C467.855 114.352 469.473 112.73 471.468 112.73C473.463 112.73 475.08 114.352 475.08 116.353C475.08 118.353 473.463 119.975 471.468 119.975Z" fill="#BAA0FF"/>
<path d="M443.215 118.964C445.025 118.964 446.493 117.492 446.493 115.677C446.493 113.862 445.025 112.391 443.215 112.391C441.405 112.391 439.938 113.862 439.938 115.677C439.938 117.492 441.405 118.964 443.215 118.964Z" fill="#BAA0FF"/>
<path d="M415.023 120.652C416.649 120.652 417.966 119.331 417.966 117.701C417.966 116.071 416.649 114.75 415.023 114.75C413.398 114.75 412.08 116.071 412.08 117.701C412.08 119.331 413.398 120.652 415.023 120.652Z" fill="#BAA0FF"/>
<path d="M387.159 125.052C388.6 125.052 389.768 123.881 389.768 122.436C389.768 120.991 388.6 119.82 387.159 119.82C385.719 119.82 384.551 120.991 384.551 122.436C384.551 123.881 385.719 125.052 387.159 125.052Z" fill="#BAA0FF"/>
<path d="M359.883 132.146C358.627 132.146 357.609 131.125 357.609 129.866C357.609 128.607 358.627 127.586 359.883 127.586C361.139 127.586 362.157 128.607 362.157 129.866C362.157 131.125 361.139 132.146 359.883 132.146Z" fill="#BAA0FF"/>
<path d="M333.456 141.892C334.543 141.892 335.424 141.009 335.424 139.919C335.424 138.829 334.543 137.945 333.456 137.945C332.369 137.945 331.488 138.829 331.488 139.919C331.488 141.009 332.369 141.892 333.456 141.892Z" fill="#BAA0FF"/>
<path d="M308.131 154.186C309.063 154.186 309.819 153.428 309.819 152.493C309.819 151.559 309.063 150.801 308.131 150.801C307.199 150.801 306.443 151.559 306.443 152.493C306.443 153.428 307.199 154.186 308.131 154.186Z" fill="#BAA0FF"/>
<path d="M284.136 168.877C283.359 168.877 282.729 168.246 282.729 167.466C282.729 166.687 283.359 166.055 284.136 166.055C284.913 166.055 285.544 166.687 285.544 167.466C285.544 168.246 284.913 168.877 284.136 168.877Z" fill="#BAA0FF"/>
<path d="M261.69 185.819C261.067 185.819 260.562 185.313 260.562 184.689C260.562 184.065 261.067 183.559 261.69 183.559C262.312 183.559 262.817 184.065 262.817 184.689C262.817 185.313 262.312 185.819 261.69 185.819Z" fill="#BAA0FF"/>
<path d="M240.997 204.889C241.491 204.889 241.892 204.487 241.892 203.991C241.892 203.496 241.491 203.094 240.997 203.094C240.502 203.094 240.102 203.496 240.102 203.991C240.102 204.487 240.502 204.889 240.997 204.889Z" fill="#BAA0FF"/>
<path d="M222.247 225.877C221.87 225.877 221.564 225.571 221.564 225.192C221.564 224.814 221.87 224.508 222.247 224.508C222.624 224.508 222.93 224.814 222.93 225.192C222.93 225.571 222.624 225.877 222.247 225.877Z" fill="#BAA0FF"/>
<path d="M205.615 248.619C205.333 248.619 205.105 248.39 205.105 248.108C205.105 247.826 205.333 247.598 205.615 247.598C205.896 247.598 206.124 247.826 206.124 248.108C206.124 248.39 205.896 248.619 205.615 248.619Z" fill="#BAA0FF"/>
<path d="M191.263 272.876C191.068 272.876 190.91 272.717 190.91 272.522C190.91 272.326 191.068 272.168 191.263 272.168C191.458 272.168 191.616 272.326 191.616 272.522C191.616 272.717 191.458 272.876 191.263 272.876Z" fill="#BAA0FF"/>
<path d="M179.337 298.446C179.209 298.446 179.105 298.341 179.105 298.213C179.105 298.085 179.209 297.98 179.337 297.98C179.465 297.98 179.569 298.085 179.569 298.213C179.569 298.341 179.465 298.446 179.337 298.446Z" fill="#BAA0FF"/>
<path d="M169.953 325.082C169.877 325.082 169.816 325.021 169.816 324.945C169.816 324.87 169.877 324.809 169.953 324.809C170.028 324.809 170.089 324.87 170.089 324.945C170.089 325.021 170.028 325.082 169.953 325.082Z" fill="#BAA0FF"/>
<path d="M163.208 352.526C163.173 352.526 163.145 352.498 163.145 352.462C163.145 352.427 163.173 352.398 163.208 352.398C163.243 352.398 163.272 352.427 163.272 352.462C163.272 352.498 163.243 352.526 163.208 352.526Z" fill="#BAA0FF"/>
<path d="M159.157 380.54C159.139 380.54 159.125 380.526 159.125 380.508C159.125 380.491 159.139 380.477 159.157 380.477C159.174 380.477 159.188 380.491 159.188 380.508C159.188 380.526 159.174 380.54 159.157 380.54Z" fill="#BAA0FF"/>
<path d="M667.976 435.617C667.955 435.617 667.938 435.599 667.938 435.578C667.938 435.556 667.955 435.539 667.976 435.539C667.998 435.539 668.015 435.556 668.015 435.578C668.015 435.599 667.998 435.617 667.976 435.617Z" fill="#BAA0FF"/>
<path d="M662.944 462.827C662.895 462.827 662.855 462.787 662.855 462.738C662.855 462.688 662.895 462.648 662.944 462.648C662.993 462.648 663.033 462.688 663.033 462.738C663.033 462.787 662.993 462.827 662.944 462.827Z" fill="#BAA0FF"/>
<path d="M654.6 489.268C654.487 489.268 654.395 489.176 654.395 489.062C654.395 488.948 654.487 488.855 654.6 488.855C654.714 488.855 654.806 488.948 654.806 489.062C654.806 489.176 654.714 489.268 654.6 489.268Z" fill="#BAA0FF"/>
<path d="M643.07 514.502C643.264 514.502 643.422 514.344 643.422 514.149C643.422 513.955 643.264 513.797 643.07 513.797C642.876 513.797 642.719 513.955 642.719 514.149C642.719 514.344 642.876 514.502 643.07 514.502Z" fill="#BAA0FF"/>
<path d="M628.547 538.167C628.247 538.167 628.004 537.923 628.004 537.623C628.004 537.322 628.247 537.078 628.547 537.078C628.847 537.078 629.09 537.322 629.09 537.623C629.09 537.923 628.847 538.167 628.547 538.167Z" fill="#BAA0FF"/>
<path d="M611.264 559.923C611.697 559.923 612.048 559.571 612.048 559.137C612.048 558.703 611.697 558.352 611.264 558.352C610.831 558.352 610.48 558.703 610.48 559.137C610.48 559.571 610.831 559.923 611.264 559.923Z" fill="#BAA0FF"/>
<path d="M591.488 579.427C592.07 579.427 592.542 578.954 592.542 578.37C592.542 577.786 592.07 577.312 591.488 577.312C590.906 577.312 590.434 577.786 590.434 578.37C590.434 578.954 590.906 579.427 591.488 579.427Z" fill="#BAA0FF"/>
<path d="M569.517 596.44C568.745 596.44 568.119 595.813 568.119 595.038C568.119 594.264 568.745 593.637 569.517 593.637C570.289 593.637 570.915 594.264 570.915 595.038C570.915 595.813 570.289 596.44 569.517 596.44Z" fill="#BAA0FF"/>
<path d="M545.671 610.617C544.709 610.617 543.93 609.835 543.93 608.871C543.93 607.907 544.709 607.125 545.671 607.125C546.633 607.125 547.412 607.907 547.412 608.871C547.412 609.835 546.633 610.617 545.671 610.617Z" fill="#BAA0FF"/>
<path d="M520.307 621.75C519.151 621.75 518.215 620.811 518.215 619.652C518.215 618.494 519.151 617.555 520.307 617.555C521.462 617.555 522.399 618.494 522.399 619.652C522.399 620.811 521.462 621.75 520.307 621.75Z" fill="#BAA0FF"/>
<path d="M493.807 629.709C492.425 629.709 491.305 628.586 491.305 627.2C491.305 625.815 492.425 624.691 493.807 624.691C495.189 624.691 496.309 625.815 496.309 627.2C496.309 628.586 495.189 629.709 493.807 629.709Z" fill="#BAA0FF"/>
<path d="M466.576 634.329C464.968 634.329 463.664 633.021 463.664 631.408C463.664 629.796 464.968 628.488 466.576 628.488C468.185 628.488 469.488 629.796 469.488 631.408C469.488 633.021 468.185 634.329 466.576 634.329Z" fill="#BAA0FF"/>
<path d="M439.037 635.577C437.202 635.577 435.715 634.085 435.715 632.245C435.715 630.406 437.202 628.914 439.037 628.914C440.872 628.914 442.359 630.406 442.359 632.245C442.359 634.085 440.872 635.577 439.037 635.577Z" fill="#BAA0FF"/>
<path d="M411.601 633.473C409.54 633.473 407.869 631.798 407.869 629.731C407.869 627.664 409.54 625.988 411.601 625.988C413.663 625.988 415.334 627.664 415.334 629.731C415.334 631.798 413.663 633.473 411.601 633.473Z" fill="#BAA0FF"/>
<path d="M384.684 628.003C386.971 628.003 388.826 626.143 388.826 623.849C388.826 621.555 386.971 619.695 384.684 619.695C382.396 619.695 380.541 621.555 380.541 623.849C380.541 626.143 382.396 628.003 384.684 628.003Z" fill="#BAA0FF"/>
<path d="M360.433 618.869C362.745 617.908 363.843 615.25 362.885 612.931C361.928 610.613 359.277 609.512 356.964 610.472C354.652 611.432 353.554 614.091 354.512 616.409C355.469 618.728 358.12 619.829 360.433 618.869Z" fill="#BAA0FF"/>
<path d="M334.047 607.234C336.74 607.234 338.923 605.046 338.923 602.346C338.923 599.646 336.74 597.457 334.047 597.457C331.355 597.457 329.172 599.646 329.172 602.346C329.172 605.046 331.355 607.234 334.047 607.234Z" fill="#BAA0FF"/>
<path d="M314.782 590.771C316.82 588.727 316.82 585.414 314.782 583.37C312.744 581.326 309.439 581.326 307.401 583.37C305.363 585.414 305.363 588.727 307.401 590.771C309.439 592.814 312.744 592.814 314.782 590.771Z" fill="#BAA0FF"/>
<path d="M290.177 574.641C293.235 574.641 295.715 572.155 295.715 569.088C295.715 566.021 293.235 563.535 290.177 563.535C287.118 563.535 284.639 566.021 284.639 569.088C284.639 572.155 287.118 574.641 290.177 574.641Z" fill="#BAA0FF"/>
<path d="M277.251 550.017C277.987 546.892 276.057 543.761 272.94 543.023C269.824 542.285 266.701 544.22 265.965 547.346C265.229 550.471 267.159 553.602 270.276 554.34C273.392 555.077 276.515 553.142 277.251 550.017Z" fill="#BAA0FF"/>
<path d="M259.918 530.41C262.265 528.056 262.265 524.241 259.918 521.887C257.57 519.534 253.765 519.534 251.418 521.887C249.071 524.241 249.071 528.056 251.418 530.41C253.765 532.763 257.57 532.763 259.918 530.41Z" fill="#BAA0FF"/>
<path d="M242.611 508.041C246.035 508.041 248.81 505.258 248.81 501.825C248.81 498.392 246.035 495.609 242.611 495.609C239.188 495.609 236.412 498.392 236.412 501.825C236.412 505.258 239.188 508.041 242.611 508.041Z" fill="#BAA0FF"/>
<path d="M238.796 477.528C239.598 474.123 237.495 470.712 234.1 469.909C230.705 469.105 227.303 471.213 226.502 474.617C225.7 478.022 227.803 481.433 231.198 482.236C234.593 483.04 237.995 480.932 238.796 477.528Z" fill="#BAA0FF"/>
<path d="M232.274 450.308C232.841 446.803 230.467 443.501 226.972 442.932C223.477 442.363 220.184 444.743 219.617 448.248C219.05 451.753 221.423 455.055 224.918 455.624C228.413 456.192 231.707 453.812 232.274 450.308Z" fill="#BAA0FF"/>
<path d="M222.585 428.326C226.148 428.326 229.035 425.431 229.035 421.858C229.035 418.286 226.148 415.391 222.585 415.391C219.023 415.391 216.135 418.286 216.135 421.858C216.135 425.431 219.023 428.326 222.585 428.326Z" fill="#BAA0FF"/>
<path d="M222.58 400.706C226.146 400.706 229.036 397.808 229.036 394.232C229.036 390.656 226.146 387.758 222.58 387.758C219.014 387.758 216.123 390.656 216.123 394.232C216.123 397.808 219.014 400.706 222.58 400.706Z" fill="#BAA0FF"/>
<path d="M225.929 373.244C229.473 373.244 232.346 370.364 232.346 366.81C232.346 363.256 229.473 360.375 225.929 360.375C222.385 360.375 219.512 363.256 219.512 366.81C219.512 370.364 222.385 373.244 225.929 373.244Z" fill="#BAA0FF"/>
<path d="M235.953 345.419C238.928 343.575 239.85 339.661 238.011 336.678C236.172 333.694 232.269 332.771 229.294 334.614C226.318 336.458 225.397 340.372 227.236 343.355C229.075 346.339 232.978 347.263 235.953 345.419Z" fill="#BAA0FF"/>
<path d="M248.523 316.061C249.518 312.767 247.661 309.287 244.375 308.29C241.09 307.292 237.62 309.155 236.625 312.449C235.631 315.743 237.488 319.223 240.773 320.22C244.059 321.218 247.528 319.356 248.523 316.061Z" fill="#BAA0FF"/>
<path d="M255.622 295.98C258.956 295.98 261.658 293.27 261.658 289.927C261.658 286.585 258.956 283.875 255.622 283.875C252.288 283.875 249.586 286.585 249.586 289.927C249.586 293.27 252.288 295.98 255.622 295.98Z" fill="#BAA0FF"/>
<path d="M277.31 268.328C277.826 265.14 275.667 262.137 272.488 261.619C269.309 261.102 266.313 263.267 265.797 266.455C265.281 269.642 267.44 272.646 270.62 273.163C273.799 273.681 276.794 271.516 277.31 268.328Z" fill="#BAA0FF"/>
<path d="M294.853 249.911C296.47 247.287 295.66 243.845 293.043 242.224C290.427 240.602 286.995 241.415 285.377 244.038C283.76 246.662 284.57 250.104 287.187 251.725C289.804 253.347 293.236 252.534 294.853 249.911Z" fill="#BAA0FF"/>
<path d="M313.035 233.858C315.719 232.744 316.993 229.659 315.881 226.969C314.77 224.278 311.694 223.001 309.011 224.115C306.327 225.229 305.053 228.314 306.165 231.004C307.276 233.695 310.352 234.972 313.035 233.858Z" fill="#BAA0FF"/>
<path d="M338.509 215.586C339.547 213.073 338.357 210.191 335.85 209.15C333.343 208.109 330.469 209.302 329.431 211.816C328.393 214.33 329.583 217.211 332.09 218.252C334.596 219.294 337.47 218.1 338.509 215.586Z" fill="#BAA0FF"/>
<path d="M358.62 205.944C361.142 205.944 363.187 203.894 363.187 201.365C363.187 198.835 361.142 196.785 358.62 196.785C356.098 196.785 354.053 198.835 354.053 201.365C354.053 203.894 356.098 205.944 358.62 205.944Z" fill="#BAA0FF"/>
<path d="M384.6 196.371C386.91 196.371 388.782 194.494 388.782 192.178C388.782 189.862 386.91 187.984 384.6 187.984C382.29 187.984 380.418 189.862 380.418 192.178C380.418 194.494 382.29 196.371 384.6 196.371Z" fill="#BAA0FF"/>
<path d="M411.515 190.063C409.434 190.063 407.746 188.371 407.746 186.283C407.746 184.196 409.434 182.504 411.515 182.504C413.597 182.504 415.285 184.196 415.285 186.283C415.285 188.371 413.597 190.063 411.515 190.063Z" fill="#BAA0FF"/>
<path d="M438.95 187.122C437.097 187.122 435.594 185.615 435.594 183.756C435.594 181.897 437.097 180.391 438.95 180.391C440.804 180.391 442.307 181.897 442.307 183.756C442.307 185.615 440.804 187.122 438.95 187.122Z" fill="#BAA0FF"/>
<path d="M466.491 187.536C464.865 187.536 463.547 186.215 463.547 184.585C463.547 182.954 464.865 181.633 466.491 181.633C468.117 181.633 469.434 182.954 469.434 184.585C469.434 186.215 468.116 187.536 466.491 187.536Z" fill="#BAA0FF"/>
<path d="M493.719 191.318C495.116 191.318 496.25 190.182 496.25 188.78C496.25 187.378 495.116 186.242 493.719 186.242C492.321 186.242 491.188 187.378 491.188 188.78C491.188 190.182 492.321 191.318 493.719 191.318Z" fill="#BAA0FF"/>
<path d="M520.226 198.444C521.396 198.444 522.344 197.493 522.344 196.319C522.344 195.146 521.396 194.195 520.226 194.195C519.056 194.195 518.107 195.146 518.107 196.319C518.107 197.493 519.056 198.444 520.226 198.444Z" fill="#BAA0FF"/>
<path d="M545.593 208.86C544.621 208.86 543.832 208.069 543.832 207.094C543.832 206.119 544.621 205.328 545.593 205.328C546.566 205.328 547.354 206.119 547.354 207.094C547.354 208.069 546.566 208.86 545.593 208.86Z" fill="#BAA0FF"/>
<path d="M569.445 222.339C568.663 222.339 568.029 221.703 568.029 220.919C568.029 220.135 568.663 219.5 569.445 219.5C570.227 219.5 570.86 220.135 570.86 220.919C570.86 221.703 570.227 222.339 569.445 222.339Z" fill="#BAA0FF"/>
<path d="M591.425 238.645C590.834 238.645 590.355 238.165 590.355 237.573C590.355 236.98 590.834 236.5 591.425 236.5C592.016 236.5 592.495 236.98 592.495 237.573C592.495 238.165 592.016 238.645 591.425 238.645Z" fill="#BAA0FF"/>
<path d="M611.208 257.6C610.769 257.6 610.414 257.243 610.414 256.804C610.414 256.364 610.769 256.008 611.208 256.008C611.646 256.008 612.002 256.364 612.002 256.804C612.002 257.243 611.646 257.6 611.208 257.6Z" fill="#BAA0FF"/>
<path d="M628.498 278.859C628.802 278.859 629.048 278.613 629.048 278.308C629.048 278.004 628.802 277.758 628.498 277.758C628.195 277.758 627.949 278.004 627.949 278.308C627.949 278.613 628.195 278.859 628.498 278.859Z" fill="#BAA0FF"/>
<path d="M643.032 302.133C642.835 302.133 642.676 301.973 642.676 301.775C642.676 301.578 642.835 301.418 643.032 301.418C643.229 301.418 643.388 301.578 643.388 301.775C643.388 301.973 643.229 302.133 643.032 302.133Z" fill="#BAA0FF"/>
<path d="M654.568 327.07C654.453 327.07 654.359 326.976 654.359 326.861C654.359 326.746 654.453 326.652 654.568 326.652C654.683 326.652 654.776 326.746 654.776 326.861C654.776 326.976 654.683 327.07 654.568 327.07Z" fill="#BAA0FF"/>
<path d="M662.923 353.275C662.873 353.275 662.832 353.235 662.832 353.184C662.832 353.134 662.873 353.094 662.923 353.094C662.972 353.094 663.013 353.134 663.013 353.184C663.013 353.235 662.972 353.275 662.923 353.275Z" fill="#BAA0FF"/>
<path d="M667.967 380.375C667.988 380.375 668.006 380.358 668.006 380.336C668.006 380.314 667.988 380.297 667.967 380.297C667.945 380.297 667.928 380.314 667.928 380.336C667.928 380.358 667.945 380.375 667.967 380.375Z" fill="#BAA0FF"/>
</g>
<defs>
<clipPath id="clip0_1415_12296">
<rect width="932.677" height="934.391" fill="white" transform="translate(0 -59)"/>
</clipPath>
</defs>
</svg>
