<svg width="32" height="33" viewBox="0 0 32 33" fill="none" xmlns="http://www.w3.org/2000/svg">
<g id="Light">
<g id="Group 119">
<path id="Ellipse 69" d="M22.3559 16.9278C22.3559 20.4632 19.507 23.3244 15.9987 23.3244C12.4905 23.3244 9.6416 20.4632 9.6416 16.9278C9.6416 13.3924 12.4905 10.5312 15.9987 10.5312C19.507 10.5312 22.3559 13.3924 22.3559 16.9278Z" stroke="white"/>
<rect id="Rectangle 167" x="28" y="16.9297" width="1.72414" height="3.42857" rx="0.862069" transform="rotate(90 28 16.9297)" fill="white"/>
<rect id="Rectangle 168" x="7.42871" y="16.9297" width="1.72414" height="3.42857" rx="0.862069" transform="rotate(90 7.42871 16.9297)" fill="white"/>
<rect id="Rectangle 169" x="15.1416" y="4" width="1.71429" height="3.44828" rx="0.857143" fill="white"/>
<rect id="Rectangle 170" x="15.1416" y="25.5469" width="1.71429" height="3.44828" rx="0.857143" fill="white"/>
<rect id="Rectangle 171" width="1.51083" height="3.77707" rx="0.755414" transform="matrix(0.705078 -0.70913 0.705078 0.70913 6.71973 8.55469)" fill="white"/>
<rect id="Rectangle 172" width="1.51083" height="3.77707" rx="0.755414" transform="matrix(0.705078 -0.70913 0.705078 0.70913 21.4131 23.3281)" fill="white"/>
<rect id="Rectangle 173" width="1.51083" height="3.77707" rx="0.755414" transform="matrix(-0.705078 -0.70913 0.705078 -0.70913 7.49219 26.4453)" fill="white"/>
<rect id="Rectangle 174" width="1.51083" height="3.77707" rx="0.755414" transform="matrix(-0.705078 -0.70913 0.705078 -0.70913 22.1875 11.6641)" fill="white"/>
</g>
</g>
</svg>
