<svg width="24" height="29" viewBox="0 0 24 29" fill="none" xmlns="http://www.w3.org/2000/svg">
<g clip-path="url(#clip0_2431_23650)">
<path d="M20.3574 23.9992H21.9221C22.6392 23.9992 23.226 23.402 23.226 22.6721V17.3633C22.5088 17.3633 21.8569 17.3633 21.5961 17.3633C19.9662 17.3633 18.6623 16.0361 18.6623 14.3771C18.6623 12.7181 19.9662 11.3909 21.5961 11.3909C22.0524 11.3909 22.6392 11.3909 23.226 11.3909V6.08219C23.226 5.35224 22.6392 4.755 21.9221 4.755H16.7064C16.7064 4.35685 16.7064 3.95869 16.7064 3.75961C16.7064 2.10063 15.4025 0.773438 13.7727 0.773438C12.1428 0.773438 10.8389 2.10063 10.8389 3.75961C10.8389 4.09141 10.8389 4.42321 10.8389 4.755" stroke="white" stroke-miterlimit="10" stroke-linecap="round" stroke-linejoin="round"/>
<path d="M7.34267 4.64844H5.97699C5.26164 4.64844 4.67635 5.24567 4.67635 5.97563V11.2844C4.35119 11.2844 3.96099 11.2844 3.70087 11.2844C2.07506 11.2844 0.774414 12.6116 0.774414 14.2706C0.774414 15.9295 2.07506 17.2567 3.70087 17.2567C3.89596 17.2567 4.28616 17.2567 4.67635 17.2567V22.5655C4.67635 23.2954 5.26164 23.8927 5.97699 23.8927H11.1796C11.1796 24.2245 11.1796 24.5563 11.1796 24.8881C11.1796 26.5471 12.4802 27.8742 14.106 27.8742C15.7318 27.8742 17.0325 26.5471 17.0325 24.8881C17.0325 24.689 17.0325 24.2908 17.0325 23.8927" stroke="white" stroke-miterlimit="10" stroke-linecap="round" stroke-linejoin="round"/>
</g>
<defs>
<clipPath id="clip0_2431_23650">
<rect width="24" height="29" fill="white"/>
</clipPath>
</defs>
</svg>
