<svg width="359" height="79" viewBox="0 0 359 79" fill="none" xmlns="http://www.w3.org/2000/svg">
<path d="M41.2606 36.2433L41.2566 38.2433L41.1185 38.243L40.9818 38.2238L41.2606 36.2433ZM2.04474 66.027L4.04269 65.9364L4.04474 65.9817V66.027H2.04474ZM4.04474 77C4.04474 78.1046 3.14932 79 2.04474 79C0.940186 79 0.0447388 78.1046 0.0447388 77H4.04474ZM358.656 0.728381C359.407 6.21163 359.149 15.3174 355.615 23.2019C353.835 27.1723 351.196 30.8944 347.377 33.6514C343.542 36.4194 338.631 38.1318 332.461 38.243L332.389 34.2436C337.822 34.1458 341.923 32.6546 345.035 30.4082C348.162 28.1507 350.404 25.0476 351.964 21.5657C355.111 14.5456 355.374 6.23881 354.693 1.27162L358.656 0.728381ZM332.461 38.243C309.227 38.6615 128.623 38.4174 41.2566 38.2433L41.2646 34.2433C128.669 34.4175 309.208 34.6612 332.389 34.2436L332.461 38.243ZM40.9818 38.2238C34.4189 37.2998 24.74 37.6559 16.9602 41.5461C13.1048 43.4739 9.75455 46.2481 7.43158 50.1375C5.11099 54.023 3.73514 59.1559 4.04269 65.9364L0.046814 66.1177C-0.290283 58.6855 1.21237 52.7497 3.99747 48.0865C6.78015 43.4273 10.7627 40.1728 15.1713 37.9684C23.9194 33.594 34.4931 33.2708 41.5394 34.2628L40.9818 38.2238ZM4.04474 66.027V77H0.0447388V66.027H4.04474Z" fill="#333"/>
</svg>
