<svg width="181" height="72" viewBox="0 0 181 72" fill="none" xmlns="http://www.w3.org/2000/svg">
<path d="M177.001 70.0673C177.038 71.1713 177.963 72.0361 179.067 71.9989C180.171 71.9617 181.036 71.0366 180.999 69.9326L177.001 70.0673ZM0.0486056 0.893127C-0.265599 6.76467 0.881094 15.5756 5.43804 22.9933C10.0742 30.54 18.1773 36.5143 31.3389 36.5143V32.5143C19.6312 32.5143 12.7888 27.3171 8.84627 20.8995C4.82451 14.353 3.75928 6.40675 4.04289 1.10687L0.0486056 0.893127ZM31.3389 36.5143C31.3874 36.5143 31.4362 36.5143 31.485 36.5143C31.5339 36.5143 31.5829 36.5143 31.6321 36.5143C31.6813 36.5143 31.7306 36.5143 31.7801 36.5143C31.8296 36.5143 31.8792 36.5143 31.929 36.5143C31.9788 36.5143 32.0287 36.5143 32.0788 36.5143C32.1289 36.5143 32.1791 36.5143 32.2295 36.5143C32.2799 36.5143 32.3304 36.5143 32.3811 36.5143C32.4318 36.5143 32.4826 36.5143 32.5336 36.5143C32.5845 36.5143 32.6357 36.5143 32.6869 36.5143C32.7382 36.5143 32.7896 36.5143 32.8412 36.5143C32.8927 36.5143 32.9445 36.5143 32.9963 36.5143C33.0482 36.5143 33.1002 36.5143 33.1523 36.5143C33.2045 36.5143 33.2568 36.5143 33.3092 36.5143C33.3616 36.5143 33.4142 36.5143 33.4669 36.5143C33.5197 36.5143 33.5725 36.5143 33.6256 36.5143C33.6786 36.5143 33.7317 36.5143 33.785 36.5143C33.8384 36.5143 33.8918 36.5143 33.9454 36.5143C33.999 36.5143 34.0527 36.5143 34.1066 36.5143C34.1605 36.5143 34.2145 36.5143 34.2686 36.5143C34.3228 36.5143 34.3771 36.5143 34.4315 36.5143C34.486 36.5143 34.5406 36.5143 34.5953 36.5143C34.65 36.5143 34.7049 36.5143 34.7599 36.5143C34.8149 36.5143 34.87 36.5143 34.9253 36.5143C34.9806 36.5143 35.036 36.5143 35.0916 36.5143C35.1471 36.5143 35.2028 36.5143 35.2587 36.5143C35.3145 36.5143 35.3705 36.5143 35.4266 36.5143C35.4827 36.5143 35.539 36.5143 35.5954 36.5143C35.6517 36.5143 35.7083 36.5143 35.7649 36.5143C35.8216 36.5143 35.8784 36.5143 35.9353 36.5143C35.9923 36.5143 36.0493 36.5143 36.1065 36.5143C36.1637 36.5143 36.2211 36.5143 36.2786 36.5143C36.336 36.5143 36.3937 36.5143 36.4514 36.5143C36.5092 36.5143 36.567 36.5143 36.625 36.5143C36.6831 36.5143 36.7412 36.5143 36.7995 36.5143C36.8578 36.5143 36.9162 36.5143 36.9747 36.5143C37.0333 36.5143 37.092 36.5143 37.1508 36.5143C37.2096 36.5143 37.2685 36.5143 37.3276 36.5143C37.3867 36.5143 37.4459 36.5143 37.5052 36.5143C37.5646 36.5143 37.624 36.5143 37.6836 36.5143C37.7432 36.5143 37.803 36.5143 37.8628 36.5143C37.9227 36.5143 37.9827 36.5143 38.0428 36.5143C38.1029 36.5143 38.1632 36.5143 38.2236 36.5143C38.2839 36.5143 38.3444 36.5143 38.4051 36.5143C38.4657 36.5143 38.5265 36.5143 38.5874 36.5143C38.6482 36.5143 38.7093 36.5143 38.7704 36.5143C38.8316 36.5143 38.8928 36.5143 38.9542 36.5143C39.0156 36.5143 39.0771 36.5143 39.1388 36.5143C39.2005 36.5143 39.2622 36.5143 39.3241 36.5143C39.386 36.5143 39.4481 36.5143 39.5102 36.5143C39.5724 36.5143 39.6346 36.5143 39.697 36.5143C39.7594 36.5143 39.822 36.5143 39.8846 36.5143C39.9473 36.5143 40.01 36.5143 40.0729 36.5143C40.1358 36.5143 40.1988 36.5143 40.262 36.5143C40.3251 36.5143 40.3884 36.5143 40.4518 36.5143C40.5152 36.5143 40.5787 36.5143 40.6423 36.5143C40.7059 36.5143 40.7697 36.5143 40.8336 36.5143C40.8974 36.5143 40.9614 36.5143 41.0255 36.5143C41.0896 36.5143 41.1539 36.5143 41.2182 36.5143C41.2826 36.5143 41.3471 36.5143 41.4117 36.5143C41.4762 36.5143 41.541 36.5143 41.6058 36.5143C41.6706 36.5143 41.7356 36.5143 41.8006 36.5143C41.8657 36.5143 41.9309 36.5143 41.9962 36.5143C42.0615 36.5143 42.1269 36.5143 42.1924 36.5143C42.258 36.5143 42.3236 36.5143 42.3894 36.5143C42.4552 36.5143 42.521 36.5143 42.5871 36.5143C42.6531 36.5143 42.7192 36.5143 42.7854 36.5143C42.8516 36.5143 42.918 36.5143 42.9844 36.5143C43.0509 36.5143 43.1175 36.5143 43.1842 36.5143C43.2509 36.5143 43.3177 36.5143 43.3846 36.5143C43.4515 36.5143 43.5185 36.5143 43.5857 36.5143C43.6528 36.5143 43.7201 36.5143 43.7875 36.5143C43.8548 36.5143 43.9223 36.5143 43.9899 36.5143C44.0575 36.5143 44.1252 36.5143 44.193 36.5143C44.2609 36.5143 44.3288 36.5143 44.3968 36.5143C44.4649 36.5143 44.533 36.5143 44.6013 36.5143C44.6695 36.5143 44.7379 36.5143 44.8064 36.5143C44.8749 36.5143 44.9435 36.5143 45.0122 36.5143C45.0809 36.5143 45.1497 36.5143 45.2186 36.5143C45.2875 36.5143 45.3565 36.5143 45.4257 36.5143C45.4948 36.5143 45.564 36.5143 45.6334 36.5143C45.7027 36.5143 45.7722 36.5143 45.8418 36.5143C45.9113 36.5143 45.981 36.5143 46.0508 36.5143C46.1206 36.5143 46.1904 36.5143 46.2604 36.5143C46.3304 36.5143 46.4005 36.5143 46.4707 36.5143C46.5409 36.5143 46.6112 36.5143 46.6816 36.5143C46.752 36.5143 46.8225 36.5143 46.8932 36.5143C46.9638 36.5143 47.0345 36.5143 47.1053 36.5143C47.1761 36.5143 47.2471 36.5143 47.3181 36.5143C47.3891 36.5143 47.4603 36.5143 47.5315 36.5143C47.6027 36.5143 47.6741 36.5143 47.7455 36.5143C47.817 36.5143 47.8885 36.5143 47.9601 36.5143C48.0318 36.5143 48.1035 36.5143 48.1754 36.5143C48.2472 36.5143 48.3192 36.5143 48.3912 36.5143C48.4633 36.5143 48.5354 36.5143 48.6077 36.5143C48.6799 36.5143 48.7522 36.5143 48.8247 36.5143C48.8971 36.5143 48.9697 36.5143 49.0423 36.5143C49.115 36.5143 49.1877 36.5143 49.2605 36.5143C49.3334 36.5143 49.4063 36.5143 49.4793 36.5143C49.5524 36.5143 49.6255 36.5143 49.6987 36.5143C49.772 36.5143 49.8453 36.5143 49.9187 36.5143C49.9921 36.5143 50.0656 36.5143 50.1392 36.5143C50.2128 36.5143 50.2866 36.5143 50.3604 36.5143C50.4342 36.5143 50.5081 36.5143 50.582 36.5143C50.656 36.5143 50.7301 36.5143 50.8043 36.5143C50.8785 36.5143 50.9528 36.5143 51.0271 36.5143C51.1015 36.5143 51.1759 36.5143 51.2505 36.5143C51.3251 36.5143 51.3997 36.5143 51.4744 36.5143C51.5492 36.5143 51.624 36.5143 51.6989 36.5143C51.7738 36.5143 51.8489 36.5143 51.924 36.5143C51.9991 36.5143 52.0743 36.5143 52.1495 36.5143C52.2248 36.5143 52.3002 36.5143 52.3757 36.5143C52.4511 36.5143 52.5267 36.5143 52.6023 36.5143C52.678 36.5143 52.7537 36.5143 52.8295 36.5143C52.9054 36.5143 52.9813 36.5143 53.0573 36.5143C53.1333 36.5143 53.2094 36.5143 53.2855 36.5143C53.3617 36.5143 53.438 36.5143 53.5143 36.5143C53.5907 36.5143 53.6671 36.5143 53.7436 36.5143C53.8202 36.5143 53.8968 36.5143 53.9735 36.5143C54.0502 36.5143 54.127 36.5143 54.2038 36.5143C54.2807 36.5143 54.3577 36.5143 54.4347 36.5143C54.5117 36.5143 54.5889 36.5143 54.6661 36.5143C54.7433 36.5143 54.8206 36.5143 54.8979 36.5143C54.9753 36.5143 55.0528 36.5143 55.1303 36.5143C55.2079 36.5143 55.2855 36.5143 55.3632 36.5143C55.4409 36.5143 55.5187 36.5143 55.5966 36.5143C55.6745 36.5143 55.7524 36.5143 55.8304 36.5143C55.9085 36.5143 55.9866 36.5143 56.0648 36.5143C56.143 36.5143 56.2213 36.5143 56.2996 36.5143C56.378 36.5143 56.4565 36.5143 56.535 36.5143C56.6135 36.5143 56.6921 36.5143 56.7708 36.5143C56.8495 36.5143 56.9282 36.5143 57.0071 36.5143C57.0859 36.5143 57.1648 36.5143 57.2438 36.5143C57.3228 36.5143 57.4019 36.5143 57.481 36.5143C57.5602 36.5143 57.6394 36.5143 57.7187 36.5143C57.798 36.5143 57.8774 36.5143 57.9569 36.5143C58.0363 36.5143 58.1159 36.5143 58.1955 36.5143C58.2751 36.5143 58.3548 36.5143 58.4345 36.5143C58.5143 36.5143 58.5941 36.5143 58.674 36.5143C58.754 36.5143 58.834 36.5143 58.914 36.5143C58.9941 36.5143 59.0742 36.5143 59.1544 36.5143C59.2346 36.5143 59.3149 36.5143 59.3953 36.5143C59.4756 36.5143 59.5561 36.5143 59.6366 36.5143C59.7171 36.5143 59.7976 36.5143 59.8783 36.5143C59.9589 36.5143 60.0396 36.5143 60.1204 36.5143C60.2012 36.5143 60.2821 36.5143 60.363 36.5143C60.444 36.5143 60.525 36.5143 60.606 36.5143C60.6871 36.5143 60.7682 36.5143 60.8495 36.5143C60.9307 36.5143 61.012 36.5143 61.0933 36.5143C61.1747 36.5143 61.2561 36.5143 61.3376 36.5143C61.4191 36.5143 61.5006 36.5143 61.5822 36.5143C61.6639 36.5143 61.7456 36.5143 61.8273 36.5143C61.9091 36.5143 61.9909 36.5143 62.0728 36.5143C62.1547 36.5143 62.2367 36.5143 62.3187 36.5143C62.4007 36.5143 62.4828 36.5143 62.565 36.5143C62.6472 36.5143 62.7294 36.5143 62.8117 36.5143C62.894 36.5143 62.9763 36.5143 63.0587 36.5143C63.1412 36.5143 63.2237 36.5143 63.3062 36.5143C63.3888 36.5143 63.4714 36.5143 63.5541 36.5143C63.6367 36.5143 63.7195 36.5143 63.8023 36.5143C63.8851 36.5143 63.968 36.5143 64.0509 36.5143C64.1338 36.5143 64.2168 36.5143 64.2999 36.5143C64.3829 36.5143 64.466 36.5143 64.5492 36.5143C64.6324 36.5143 64.7156 36.5143 64.7989 36.5143C64.8822 36.5143 64.9656 36.5143 65.049 36.5143C65.1324 36.5143 65.2159 36.5143 65.2995 36.5143C65.383 36.5143 65.4666 36.5143 65.5503 36.5143C65.6339 36.5143 65.7176 36.5143 65.8014 36.5143C65.8852 36.5143 65.969 36.5143 66.0529 36.5143C66.1368 36.5143 66.2208 36.5143 66.3048 36.5143C66.3888 36.5143 66.4728 36.5143 66.557 36.5143C66.6411 36.5143 66.7253 36.5143 66.8095 36.5143C66.8937 36.5143 66.978 36.5143 67.0624 36.5143C67.1467 36.5143 67.2311 36.5143 67.3156 36.5143C67.4 36.5143 67.4846 36.5143 67.5691 36.5143C67.6537 36.5143 67.7383 36.5143 67.823 36.5143C67.9077 36.5143 67.9924 36.5143 68.0772 36.5143C68.162 36.5143 68.2468 36.5143 68.3317 36.5143C68.4166 36.5143 68.5015 36.5143 68.5865 36.5143C68.6715 36.5143 68.7566 36.5143 68.8417 36.5143C68.9268 36.5143 69.0119 36.5143 69.0971 36.5143C69.1823 36.5143 69.2676 36.5143 69.3529 36.5143C69.4382 36.5143 69.5235 36.5143 69.6089 36.5143C69.6943 36.5143 69.7798 36.5143 69.8653 36.5143C69.9508 36.5143 70.0363 36.5143 70.1219 36.5143C70.2076 36.5143 70.2932 36.5143 70.3789 36.5143C70.4646 36.5143 70.5503 36.5143 70.6361 36.5143C70.7219 36.5143 70.8078 36.5143 70.8937 36.5143C70.9796 36.5143 71.0655 36.5143 71.1515 36.5143C71.2375 36.5143 71.3235 36.5143 71.4096 36.5143C71.4957 36.5143 71.5818 36.5143 71.6679 36.5143C71.7541 36.5143 71.8403 36.5143 71.9266 36.5143C72.0128 36.5143 72.0992 36.5143 72.1855 36.5143C72.2719 36.5143 72.3582 36.5143 72.4447 36.5143C72.5311 36.5143 72.6176 36.5143 72.7041 36.5143C72.7906 36.5143 72.8772 36.5143 72.9638 36.5143C73.0504 36.5143 73.1371 36.5143 73.2238 36.5143C73.3105 36.5143 73.3972 36.5143 73.484 36.5143C73.5708 36.5143 73.6576 36.5143 73.7445 36.5143C73.8313 36.5143 73.9182 36.5143 74.0052 36.5143C74.0921 36.5143 74.1791 36.5143 74.2661 36.5143C74.3531 36.5143 74.4402 36.5143 74.5273 36.5143C74.6144 36.5143 74.7015 36.5143 74.7887 36.5143C74.8759 36.5143 74.9631 36.5143 75.0504 36.5143C75.1376 36.5143 75.2249 36.5143 75.3123 36.5143C75.3996 36.5143 75.487 36.5143 75.5744 36.5143C75.6618 36.5143 75.7492 36.5143 75.8367 36.5143C75.9242 36.5143 76.0117 36.5143 76.0993 36.5143C76.1868 36.5143 76.2744 36.5143 76.362 36.5143C76.4497 36.5143 76.5373 36.5143 76.625 36.5143C76.7127 36.5143 76.8005 36.5143 76.8882 36.5143C76.976 36.5143 77.0638 36.5143 77.1516 36.5143C77.2395 36.5143 77.3273 36.5143 77.4152 36.5143C77.5031 36.5143 77.5911 36.5143 77.679 36.5143C77.767 36.5143 77.855 36.5143 77.943 36.5143C78.0311 36.5143 78.1191 36.5143 78.2072 36.5143C78.2953 36.5143 78.3834 36.5143 78.4716 36.5143C78.5597 36.5143 78.6479 36.5143 78.7361 36.5143C78.8244 36.5143 78.9126 36.5143 79.0009 36.5143C79.0892 36.5143 79.1775 36.5143 79.2658 36.5143C79.3541 36.5143 79.4425 36.5143 79.5309 36.5143C79.6193 36.5143 79.7077 36.5143 79.7962 36.5143C79.8846 36.5143 79.9731 36.5143 80.0616 36.5143C80.1501 36.5143 80.2387 36.5143 80.3272 36.5143C80.4158 36.5143 80.5044 36.5143 80.593 36.5143C80.6816 36.5143 80.7702 36.5143 80.8589 36.5143C80.9476 36.5143 81.0363 36.5143 81.125 36.5143C81.2137 36.5143 81.3025 36.5143 81.3912 36.5143C81.48 36.5143 81.5688 36.5143 81.6576 36.5143C81.7464 36.5143 81.8353 36.5143 81.9241 36.5143C82.013 36.5143 82.1019 36.5143 82.1908 36.5143C82.2797 36.5143 82.3687 36.5143 82.4576 36.5143C82.5466 36.5143 82.6356 36.5143 82.7245 36.5143C82.8136 36.5143 82.9026 36.5143 82.9916 36.5143C83.0807 36.5143 83.1697 36.5143 83.2588 36.5143C83.3479 36.5143 83.437 36.5143 83.5262 36.5143C83.6153 36.5143 83.7044 36.5143 83.7936 36.5143C83.8828 36.5143 83.972 36.5143 84.0612 36.5143C84.1504 36.5143 84.2396 36.5143 84.3288 36.5143C84.4181 36.5143 84.5073 36.5143 84.5966 36.5143C84.6859 36.5143 84.7752 36.5143 84.8645 36.5143C84.9538 36.5143 85.0432 36.5143 85.1325 36.5143C85.2219 36.5143 85.3113 36.5143 85.4006 36.5143C85.49 36.5143 85.5794 36.5143 85.6688 36.5143C85.7583 36.5143 85.8477 36.5143 85.9371 36.5143C86.0266 36.5143 86.1161 36.5143 86.2055 36.5143C86.295 36.5143 86.3845 36.5143 86.474 36.5143C86.5635 36.5143 86.653 36.5143 86.7426 36.5143C86.8321 36.5143 86.9216 36.5143 87.0112 36.5143C87.1008 36.5143 87.1903 36.5143 87.2799 36.5143C87.3695 36.5143 87.4591 36.5143 87.5487 36.5143C87.6383 36.5143 87.7279 36.5143 87.8176 36.5143C87.9072 36.5143 87.9969 36.5143 88.0865 36.5143C88.1762 36.5143 88.2658 36.5143 88.3555 36.5143C88.4452 36.5143 88.5349 36.5143 88.6246 36.5143C88.7143 36.5143 88.804 36.5143 88.8937 36.5143C88.9834 36.5143 89.0731 36.5143 89.1628 36.5143C89.2526 36.5143 89.3423 36.5143 89.4321 36.5143C89.5218 36.5143 89.6116 36.5143 89.7013 36.5143C89.7911 36.5143 89.8809 36.5143 89.9706 36.5143C90.0604 36.5143 90.1502 36.5143 90.24 36.5143C90.3298 36.5143 90.4196 36.5143 90.5094 36.5143C90.5992 36.5143 90.689 36.5143 90.7788 36.5143C90.8686 36.5143 90.9584 36.5143 91.0482 36.5143C91.1381 36.5143 91.2279 36.5143 91.3177 36.5143C91.4076 36.5143 91.4974 36.5143 91.5872 36.5143C91.6771 36.5143 91.7669 36.5143 91.8567 36.5143C91.9466 36.5143 92.0364 36.5143 92.1263 36.5143C92.2161 36.5143 92.306 36.5143 92.3958 36.5143C92.4857 36.5143 92.5755 36.5143 92.6654 36.5143C92.7553 36.5143 92.8451 36.5143 92.935 36.5143C93.0248 36.5143 93.1147 36.5143 93.2045 36.5143C93.2944 36.5143 93.3843 36.5143 93.4741 36.5143C93.564 36.5143 93.6538 36.5143 93.7437 36.5143C93.8335 36.5143 93.9234 36.5143 94.0132 36.5143C94.1031 36.5143 94.1929 36.5143 94.2828 36.5143C94.3727 36.5143 94.4625 36.5143 94.5523 36.5143C94.6422 36.5143 94.732 36.5143 94.8219 36.5143C94.9117 36.5143 95.0015 36.5143 95.0914 36.5143C95.1812 36.5143 95.271 36.5143 95.3608 36.5143C95.4507 36.5143 95.5405 36.5143 95.6303 36.5143C95.7201 36.5143 95.8099 36.5143 95.8997 36.5143C95.9895 36.5143 96.0793 36.5143 96.1691 36.5143C96.2589 36.5143 96.3487 36.5143 96.4385 36.5143C96.5282 36.5143 96.618 36.5143 96.7078 36.5143C96.7975 36.5143 96.8873 36.5143 96.977 36.5143C97.0668 36.5143 97.1565 36.5143 97.2462 36.5143C97.336 36.5143 97.4257 36.5143 97.5154 36.5143C97.6051 36.5143 97.6948 36.5143 97.7845 36.5143C97.8742 36.5143 97.9639 36.5143 98.0536 36.5143C98.1433 36.5143 98.2329 36.5143 98.3226 36.5143C98.4122 36.5143 98.5019 36.5143 98.5915 36.5143C98.6812 36.5143 98.7708 36.5143 98.8604 36.5143C98.95 36.5143 99.0396 36.5143 99.1292 36.5143C99.2188 36.5143 99.3083 36.5143 99.3979 36.5143C99.4875 36.5143 99.577 36.5143 99.6665 36.5143C99.7561 36.5143 99.8456 36.5143 99.9351 36.5143C100.025 36.5143 100.114 36.5143 100.204 36.5143C100.293 36.5143 100.383 36.5143 100.472 36.5143C100.561 36.5143 100.651 36.5143 100.74 36.5143C100.83 36.5143 100.919 36.5143 101.008 36.5143C101.098 36.5143 101.187 36.5143 101.277 36.5143C101.366 36.5143 101.455 36.5143 101.545 36.5143C101.634 36.5143 101.723 36.5143 101.812 36.5143C101.902 36.5143 101.991 36.5143 102.08 36.5143C102.17 36.5143 102.259 36.5143 102.348 36.5143C102.437 36.5143 102.526 36.5143 102.616 36.5143C102.705 36.5143 102.794 36.5143 102.883 36.5143C102.972 36.5143 103.061 36.5143 103.15 36.5143C103.239 36.5143 103.328 36.5143 103.418 36.5143C103.507 36.5143 103.596 36.5143 103.685 36.5143C103.774 36.5143 103.863 36.5143 103.952 36.5143C104.04 36.5143 104.129 36.5143 104.218 36.5143C104.307 36.5143 104.396 36.5143 104.485 36.5143C104.574 36.5143 104.663 36.5143 104.752 36.5143C104.84 36.5143 104.929 36.5143 105.018 36.5143C105.107 36.5143 105.195 36.5143 105.284 36.5143C105.373 36.5143 105.462 36.5143 105.55 36.5143C105.639 36.5143 105.728 36.5143 105.816 36.5143C105.905 36.5143 105.993 36.5143 106.082 36.5143C106.171 36.5143 106.259 36.5143 106.348 36.5143C106.436 36.5143 106.525 36.5143 106.613 36.5143C106.701 36.5143 106.79 36.5143 106.878 36.5143C106.967 36.5143 107.055 36.5143 107.143 36.5143C107.232 36.5143 107.32 36.5143 107.408 36.5143C107.497 36.5143 107.585 36.5143 107.673 36.5143C107.761 36.5143 107.849 36.5143 107.938 36.5143C108.026 36.5143 108.114 36.5143 108.202 36.5143C108.29 36.5143 108.378 36.5143 108.466 36.5143C108.554 36.5143 108.642 36.5143 108.73 36.5143C108.818 36.5143 108.906 36.5143 108.994 36.5143C109.082 36.5143 109.17 36.5143 109.258 36.5143C109.345 36.5143 109.433 36.5143 109.521 36.5143C109.609 36.5143 109.696 36.5143 109.784 36.5143C109.872 36.5143 109.96 36.5143 110.047 36.5143C110.135 36.5143 110.222 36.5143 110.31 36.5143C110.398 36.5143 110.485 36.5143 110.573 36.5143C110.66 36.5143 110.747 36.5143 110.835 36.5143C110.922 36.5143 111.01 36.5143 111.097 36.5143C111.184 36.5143 111.272 36.5143 111.359 36.5143C111.446 36.5143 111.533 36.5143 111.621 36.5143C111.708 36.5143 111.795 36.5143 111.882 36.5143C111.969 36.5143 112.056 36.5143 112.143 36.5143C112.23 36.5143 112.317 36.5143 112.404 36.5143C112.491 36.5143 112.578 36.5143 112.665 36.5143C112.752 36.5143 112.839 36.5143 112.925 36.5143C113.012 36.5143 113.099 36.5143 113.186 36.5143C113.272 36.5143 113.359 36.5143 113.445 36.5143C113.532 36.5143 113.619 36.5143 113.705 36.5143C113.792 36.5143 113.878 36.5143 113.965 36.5143C114.051 36.5143 114.137 36.5143 114.224 36.5143C114.31 36.5143 114.396 36.5143 114.483 36.5143C114.569 36.5143 114.655 36.5143 114.741 36.5143C114.828 36.5143 114.914 36.5143 115 36.5143C115.086 36.5143 115.172 36.5143 115.258 36.5143C115.344 36.5143 115.43 36.5143 115.516 36.5143C115.602 36.5143 115.687 36.5143 115.773 36.5143C115.859 36.5143 115.945 36.5143 116.03 36.5143C116.116 36.5143 116.202 36.5143 116.287 36.5143C116.373 36.5143 116.459 36.5143 116.544 36.5143C116.63 36.5143 116.715 36.5143 116.8 36.5143C116.886 36.5143 116.971 36.5143 117.057 36.5143C117.142 36.5143 117.227 36.5143 117.312 36.5143C117.397 36.5143 117.483 36.5143 117.568 36.5143C117.653 36.5143 117.738 36.5143 117.823 36.5143C117.908 36.5143 117.993 36.5143 118.078 36.5143C118.163 36.5143 118.247 36.5143 118.332 36.5143C118.417 36.5143 118.502 36.5143 118.586 36.5143C118.671 36.5143 118.756 36.5143 118.84 36.5143C118.925 36.5143 119.009 36.5143 119.094 36.5143C119.178 36.5143 119.263 36.5143 119.347 36.5143C119.431 36.5143 119.516 36.5143 119.6 36.5143C119.684 36.5143 119.768 36.5143 119.853 36.5143C119.937 36.5143 120.021 36.5143 120.105 36.5143C120.189 36.5143 120.273 36.5143 120.357 36.5143C120.44 36.5143 120.524 36.5143 120.608 36.5143C120.692 36.5143 120.776 36.5143 120.859 36.5143C120.943 36.5143 121.027 36.5143 121.11 36.5143C121.194 36.5143 121.277 36.5143 121.36 36.5143C121.444 36.5143 121.527 36.5143 121.611 36.5143C121.694 36.5143 121.777 36.5143 121.86 36.5143C121.943 36.5143 122.027 36.5143 122.11 36.5143C122.193 36.5143 122.276 36.5143 122.359 36.5143C122.442 36.5143 122.524 36.5143 122.607 36.5143C122.69 36.5143 122.773 36.5143 122.856 36.5143C122.938 36.5143 123.021 36.5143 123.103 36.5143C123.186 36.5143 123.268 36.5143 123.351 36.5143C123.433 36.5143 123.516 36.5143 123.598 36.5143C123.68 36.5143 123.762 36.5143 123.845 36.5143C123.927 36.5143 124.009 36.5143 124.091 36.5143C124.173 36.5143 124.255 36.5143 124.337 36.5143C124.419 36.5143 124.501 36.5143 124.582 36.5143C124.664 36.5143 124.746 36.5143 124.827 36.5143C124.909 36.5143 124.991 36.5143 125.072 36.5143C125.154 36.5143 125.235 36.5143 125.316 36.5143C125.398 36.5143 125.479 36.5143 125.56 36.5143C125.641 36.5143 125.723 36.5143 125.804 36.5143C125.885 36.5143 125.966 36.5143 126.047 36.5143C126.128 36.5143 126.208 36.5143 126.289 36.5143C126.37 36.5143 126.451 36.5143 126.531 36.5143C126.612 36.5143 126.693 36.5143 126.773 36.5143C126.854 36.5143 126.934 36.5143 127.014 36.5143C127.095 36.5143 127.175 36.5143 127.255 36.5143C127.336 36.5143 127.416 36.5143 127.496 36.5143C127.576 36.5143 127.656 36.5143 127.736 36.5143C127.816 36.5143 127.895 36.5143 127.975 36.5143C128.055 36.5143 128.135 36.5143 128.214 36.5143C128.294 36.5143 128.373 36.5143 128.453 36.5143C128.532 36.5143 128.612 36.5143 128.691 36.5143C128.77 36.5143 128.85 36.5143 128.929 36.5143C129.008 36.5143 129.087 36.5143 129.166 36.5143C129.245 36.5143 129.324 36.5143 129.403 36.5143C129.482 36.5143 129.56 36.5143 129.639 36.5143C129.718 36.5143 129.796 36.5143 129.875 36.5143C129.953 36.5143 130.032 36.5143 130.11 36.5143C130.189 36.5143 130.267 36.5143 130.345 36.5143C130.423 36.5143 130.501 36.5143 130.579 36.5143C130.657 36.5143 130.735 36.5143 130.813 36.5143C130.891 36.5143 130.969 36.5143 131.047 36.5143C131.124 36.5143 131.202 36.5143 131.28 36.5143C131.357 36.5143 131.435 36.5143 131.512 36.5143C131.589 36.5143 131.667 36.5143 131.744 36.5143C131.821 36.5143 131.898 36.5143 131.975 36.5143C132.052 36.5143 132.129 36.5143 132.206 36.5143C132.283 36.5143 132.36 36.5143 132.436 36.5143C132.513 36.5143 132.59 36.5143 132.666 36.5143C132.743 36.5143 132.819 36.5143 132.896 36.5143C132.972 36.5143 133.048 36.5143 133.124 36.5143C133.201 36.5143 133.277 36.5143 133.353 36.5143C133.429 36.5143 133.505 36.5143 133.58 36.5143C133.656 36.5143 133.732 36.5143 133.808 36.5143C133.883 36.5143 133.959 36.5143 134.034 36.5143C134.11 36.5143 134.185 36.5143 134.26 36.5143C134.336 36.5143 134.411 36.5143 134.486 36.5143C134.561 36.5143 134.636 36.5143 134.711 36.5143C134.786 36.5143 134.861 36.5143 134.936 36.5143C135.01 36.5143 135.085 36.5143 135.16 36.5143C135.234 36.5143 135.309 36.5143 135.383 36.5143C135.457 36.5143 135.532 36.5143 135.606 36.5143C135.68 36.5143 135.754 36.5143 135.828 36.5143C135.902 36.5143 135.976 36.5143 136.05 36.5143C136.124 36.5143 136.197 36.5143 136.271 36.5143C136.345 36.5143 136.418 36.5143 136.491 36.5143C136.565 36.5143 136.638 36.5143 136.711 36.5143C136.785 36.5143 136.858 36.5143 136.931 36.5143C137.004 36.5143 137.077 36.5143 137.15 36.5143C137.223 36.5143 137.295 36.5143 137.368 36.5143C137.441 36.5143 137.513 36.5143 137.586 36.5143C137.658 36.5143 137.73 36.5143 137.803 36.5143C137.875 36.5143 137.947 36.5143 138.019 36.5143C138.091 36.5143 138.163 36.5143 138.235 36.5143C138.307 36.5143 138.378 36.5143 138.45 36.5143C138.522 36.5143 138.593 36.5143 138.665 36.5143C138.736 36.5143 138.808 36.5143 138.879 36.5143C138.95 36.5143 139.021 36.5143 139.092 36.5143C139.163 36.5143 139.234 36.5143 139.305 36.5143C139.376 36.5143 139.447 36.5143 139.517 36.5143C139.588 36.5143 139.658 36.5143 139.729 36.5143C139.799 36.5143 139.869 36.5143 139.94 36.5143C140.01 36.5143 140.08 36.5143 140.15 36.5143C140.22 36.5143 140.29 36.5143 140.36 36.5143C140.429 36.5143 140.499 36.5143 140.569 36.5143C140.638 36.5143 140.708 36.5143 140.777 36.5143C140.846 36.5143 140.916 36.5143 140.985 36.5143C141.054 36.5143 141.123 36.5143 141.192 36.5143C141.261 36.5143 141.33 36.5143 141.398 36.5143C141.467 36.5143 141.536 36.5143 141.604 36.5143C141.673 36.5143 141.741 36.5143 141.809 36.5143C141.878 36.5143 141.946 36.5143 142.014 36.5143C142.082 36.5143 142.15 36.5143 142.217 36.5143C142.285 36.5143 142.353 36.5143 142.421 36.5143C142.488 36.5143 142.556 36.5143 142.623 36.5143C142.69 36.5143 142.758 36.5143 142.825 36.5143C142.892 36.5143 142.959 36.5143 143.026 36.5143C143.093 36.5143 143.16 36.5143 143.226 36.5143C143.293 36.5143 143.36 36.5143 143.426 36.5143C143.493 36.5143 143.559 36.5143 143.625 36.5143C143.691 36.5143 143.758 36.5143 143.824 36.5143C143.89 36.5143 143.956 36.5143 144.021 36.5143C144.087 36.5143 144.153 36.5143 144.218 36.5143C144.284 36.5143 144.349 36.5143 144.415 36.5143C144.48 36.5143 144.545 36.5143 144.61 36.5143C144.675 36.5143 144.74 36.5143 144.805 36.5143C144.87 36.5143 144.935 36.5143 144.999 36.5143C145.064 36.5143 145.128 36.5143 145.193 36.5143C145.257 36.5143 145.321 36.5143 145.385 36.5143C145.449 36.5143 145.513 36.5143 145.577 36.5143C145.641 36.5143 145.705 36.5143 145.769 36.5143C145.832 36.5143 145.896 36.5143 145.959 36.5143C146.022 36.5143 146.086 36.5143 146.149 36.5143C146.212 36.5143 146.275 36.5143 146.338 36.5143C146.401 36.5143 146.464 36.5143 146.526 36.5143C146.589 36.5143 146.651 36.5143 146.714 36.5143C146.776 36.5143 146.839 36.5143 146.901 36.5143C146.963 36.5143 147.025 36.5143 147.087 36.5143C147.149 36.5143 147.21 36.5143 147.272 36.5143C147.334 36.5143 147.395 36.5143 147.457 36.5143C147.518 36.5143 147.579 36.5143 147.641 36.5143C147.702 36.5143 147.763 36.5143 147.824 36.5143C147.885 36.5143 147.945 36.5143 148.006 36.5143C148.067 36.5143 148.127 36.5143 148.187 36.5143C148.248 36.5143 148.308 36.5143 148.368 36.5143C148.428 36.5143 148.488 36.5143 148.548 36.5143C148.608 36.5143 148.668 36.5143 148.727 36.5143C148.787 36.5143 148.847 36.5143 148.906 36.5143C148.965 36.5143 149.024 36.5143 149.084 36.5143C149.143 36.5143 149.202 36.5143 149.26 36.5143C149.319 36.5143 149.378 36.5143 149.436 36.5143C149.495 36.5143 149.553 36.5143 149.612 36.5143C149.67 36.5143 149.728 36.5143 149.786 36.5143C149.844 36.5143 149.902 36.5143 149.96 36.5143C150.018 36.5143 150.075 36.5143 150.133 36.5143C150.19 36.5143 150.247 36.5143 150.305 36.5143V32.5143C150.247 32.5143 150.19 32.5143 150.133 32.5143C150.075 32.5143 150.018 32.5143 149.96 32.5143C149.902 32.5143 149.844 32.5143 149.786 32.5143C149.728 32.5143 149.67 32.5143 149.612 32.5143C149.553 32.5143 149.495 32.5143 149.436 32.5143C149.378 32.5143 149.319 32.5143 149.26 32.5143C149.202 32.5143 149.143 32.5143 149.084 32.5143C149.024 32.5143 148.965 32.5143 148.906 32.5143C148.847 32.5143 148.787 32.5143 148.727 32.5143C148.668 32.5143 148.608 32.5143 148.548 32.5143C148.488 32.5143 148.428 32.5143 148.368 32.5143C148.308 32.5143 148.248 32.5143 148.187 32.5143C148.127 32.5143 148.067 32.5143 148.006 32.5143C147.945 32.5143 147.885 32.5143 147.824 32.5143C147.763 32.5143 147.702 32.5143 147.641 32.5143C147.579 32.5143 147.518 32.5143 147.457 32.5143C147.395 32.5143 147.334 32.5143 147.272 32.5143C147.21 32.5143 147.149 32.5143 147.087 32.5143C147.025 32.5143 146.963 32.5143 146.901 32.5143C146.839 32.5143 146.776 32.5143 146.714 32.5143C146.651 32.5143 146.589 32.5143 146.526 32.5143C146.464 32.5143 146.401 32.5143 146.338 32.5143C146.275 32.5143 146.212 32.5143 146.149 32.5143C146.086 32.5143 146.022 32.5143 145.959 32.5143C145.896 32.5143 145.832 32.5143 145.769 32.5143C145.705 32.5143 145.641 32.5143 145.577 32.5143C145.513 32.5143 145.449 32.5143 145.385 32.5143C145.321 32.5143 145.257 32.5143 145.193 32.5143C145.128 32.5143 145.064 32.5143 144.999 32.5143C144.935 32.5143 144.87 32.5143 144.805 32.5143C144.74 32.5143 144.675 32.5143 144.61 32.5143C144.545 32.5143 144.48 32.5143 144.415 32.5143C144.349 32.5143 144.284 32.5143 144.218 32.5143C144.153 32.5143 144.087 32.5143 144.021 32.5143C143.956 32.5143 143.89 32.5143 143.824 32.5143C143.758 32.5143 143.691 32.5143 143.625 32.5143C143.559 32.5143 143.493 32.5143 143.426 32.5143C143.36 32.5143 143.293 32.5143 143.226 32.5143C143.16 32.5143 143.093 32.5143 143.026 32.5143C142.959 32.5143 142.892 32.5143 142.825 32.5143C142.758 32.5143 142.69 32.5143 142.623 32.5143C142.556 32.5143 142.488 32.5143 142.421 32.5143C142.353 32.5143 142.285 32.5143 142.217 32.5143C142.15 32.5143 142.082 32.5143 142.014 32.5143C141.946 32.5143 141.878 32.5143 141.809 32.5143C141.741 32.5143 141.673 32.5143 141.604 32.5143C141.536 32.5143 141.467 32.5143 141.398 32.5143C141.33 32.5143 141.261 32.5143 141.192 32.5143C141.123 32.5143 141.054 32.5143 140.985 32.5143C140.916 32.5143 140.846 32.5143 140.777 32.5143C140.708 32.5143 140.638 32.5143 140.569 32.5143C140.499 32.5143 140.429 32.5143 140.36 32.5143C140.29 32.5143 140.22 32.5143 140.15 32.5143C140.08 32.5143 140.01 32.5143 139.94 32.5143C139.869 32.5143 139.799 32.5143 139.729 32.5143C139.658 32.5143 139.588 32.5143 139.517 32.5143C139.447 32.5143 139.376 32.5143 139.305 32.5143C139.234 32.5143 139.163 32.5143 139.092 32.5143C139.021 32.5143 138.95 32.5143 138.879 32.5143C138.808 32.5143 138.736 32.5143 138.665 32.5143C138.593 32.5143 138.522 32.5143 138.45 32.5143C138.378 32.5143 138.307 32.5143 138.235 32.5143C138.163 32.5143 138.091 32.5143 138.019 32.5143C137.947 32.5143 137.875 32.5143 137.803 32.5143C137.73 32.5143 137.658 32.5143 137.586 32.5143C137.513 32.5143 137.441 32.5143 137.368 32.5143C137.295 32.5143 137.223 32.5143 137.15 32.5143C137.077 32.5143 137.004 32.5143 136.931 32.5143C136.858 32.5143 136.785 32.5143 136.711 32.5143C136.638 32.5143 136.565 32.5143 136.491 32.5143C136.418 32.5143 136.345 32.5143 136.271 32.5143C136.197 32.5143 136.124 32.5143 136.05 32.5143C135.976 32.5143 135.902 32.5143 135.828 32.5143C135.754 32.5143 135.68 32.5143 135.606 32.5143C135.532 32.5143 135.457 32.5143 135.383 32.5143C135.309 32.5143 135.234 32.5143 135.16 32.5143C135.085 32.5143 135.01 32.5143 134.936 32.5143C134.861 32.5143 134.786 32.5143 134.711 32.5143C134.636 32.5143 134.561 32.5143 134.486 32.5143C134.411 32.5143 134.336 32.5143 134.26 32.5143C134.185 32.5143 134.11 32.5143 134.034 32.5143C133.959 32.5143 133.883 32.5143 133.808 32.5143C133.732 32.5143 133.656 32.5143 133.58 32.5143C133.505 32.5143 133.429 32.5143 133.353 32.5143C133.277 32.5143 133.201 32.5143 133.124 32.5143C133.048 32.5143 132.972 32.5143 132.896 32.5143C132.819 32.5143 132.743 32.5143 132.666 32.5143C132.59 32.5143 132.513 32.5143 132.436 32.5143C132.36 32.5143 132.283 32.5143 132.206 32.5143C132.129 32.5143 132.052 32.5143 131.975 32.5143C131.898 32.5143 131.821 32.5143 131.744 32.5143C131.667 32.5143 131.589 32.5143 131.512 32.5143C131.435 32.5143 131.357 32.5143 131.28 32.5143C131.202 32.5143 131.124 32.5143 131.047 32.5143C130.969 32.5143 130.891 32.5143 130.813 32.5143C130.735 32.5143 130.657 32.5143 130.579 32.5143C130.501 32.5143 130.423 32.5143 130.345 32.5143C130.267 32.5143 130.189 32.5143 130.11 32.5143C130.032 32.5143 129.953 32.5143 129.875 32.5143C129.796 32.5143 129.718 32.5143 129.639 32.5143C129.56 32.5143 129.482 32.5143 129.403 32.5143C129.324 32.5143 129.245 32.5143 129.166 32.5143C129.087 32.5143 129.008 32.5143 128.929 32.5143C128.85 32.5143 128.77 32.5143 128.691 32.5143C128.612 32.5143 128.532 32.5143 128.453 32.5143C128.373 32.5143 128.294 32.5143 128.214 32.5143C128.135 32.5143 128.055 32.5143 127.975 32.5143C127.895 32.5143 127.816 32.5143 127.736 32.5143C127.656 32.5143 127.576 32.5143 127.496 32.5143C127.416 32.5143 127.336 32.5143 127.255 32.5143C127.175 32.5143 127.095 32.5143 127.014 32.5143C126.934 32.5143 126.854 32.5143 126.773 32.5143C126.693 32.5143 126.612 32.5143 126.531 32.5143C126.451 32.5143 126.37 32.5143 126.289 32.5143C126.208 32.5143 126.128 32.5143 126.047 32.5143C125.966 32.5143 125.885 32.5143 125.804 32.5143C125.723 32.5143 125.641 32.5143 125.56 32.5143C125.479 32.5143 125.398 32.5143 125.316 32.5143C125.235 32.5143 125.154 32.5143 125.072 32.5143C124.991 32.5143 124.909 32.5143 124.827 32.5143C124.746 32.5143 124.664 32.5143 124.582 32.5143C124.501 32.5143 124.419 32.5143 124.337 32.5143C124.255 32.5143 124.173 32.5143 124.091 32.5143C124.009 32.5143 123.927 32.5143 123.845 32.5143C123.762 32.5143 123.68 32.5143 123.598 32.5143C123.516 32.5143 123.433 32.5143 123.351 32.5143C123.268 32.5143 123.186 32.5143 123.103 32.5143C123.021 32.5143 122.938 32.5143 122.856 32.5143C122.773 32.5143 122.69 32.5143 122.607 32.5143C122.524 32.5143 122.442 32.5143 122.359 32.5143C122.276 32.5143 122.193 32.5143 122.11 32.5143C122.027 32.5143 121.943 32.5143 121.86 32.5143C121.777 32.5143 121.694 32.5143 121.611 32.5143C121.527 32.5143 121.444 32.5143 121.36 32.5143C121.277 32.5143 121.194 32.5143 121.11 32.5143C121.027 32.5143 120.943 32.5143 120.859 32.5143C120.776 32.5143 120.692 32.5143 120.608 32.5143C120.524 32.5143 120.44 32.5143 120.357 32.5143C120.273 32.5143 120.189 32.5143 120.105 32.5143C120.021 32.5143 119.937 32.5143 119.853 32.5143C119.768 32.5143 119.684 32.5143 119.6 32.5143C119.516 32.5143 119.431 32.5143 119.347 32.5143C119.263 32.5143 119.178 32.5143 119.094 32.5143C119.009 32.5143 118.925 32.5143 118.84 32.5143C118.756 32.5143 118.671 32.5143 118.586 32.5143C118.502 32.5143 118.417 32.5143 118.332 32.5143C118.247 32.5143 118.163 32.5143 118.078 32.5143C117.993 32.5143 117.908 32.5143 117.823 32.5143C117.738 32.5143 117.653 32.5143 117.568 32.5143C117.483 32.5143 117.397 32.5143 117.312 32.5143C117.227 32.5143 117.142 32.5143 117.057 32.5143C116.971 32.5143 116.886 32.5143 116.8 32.5143C116.715 32.5143 116.63 32.5143 116.544 32.5143C116.459 32.5143 116.373 32.5143 116.287 32.5143C116.202 32.5143 116.116 32.5143 116.03 32.5143C115.945 32.5143 115.859 32.5143 115.773 32.5143C115.687 32.5143 115.602 32.5143 115.516 32.5143C115.43 32.5143 115.344 32.5143 115.258 32.5143C115.172 32.5143 115.086 32.5143 115 32.5143C114.914 32.5143 114.828 32.5143 114.741 32.5143C114.655 32.5143 114.569 32.5143 114.483 32.5143C114.396 32.5143 114.31 32.5143 114.224 32.5143C114.137 32.5143 114.051 32.5143 113.965 32.5143C113.878 32.5143 113.792 32.5143 113.705 32.5143C113.619 32.5143 113.532 32.5143 113.445 32.5143C113.359 32.5143 113.272 32.5143 113.186 32.5143C113.099 32.5143 113.012 32.5143 112.925 32.5143C112.839 32.5143 112.752 32.5143 112.665 32.5143C112.578 32.5143 112.491 32.5143 112.404 32.5143C112.317 32.5143 112.23 32.5143 112.143 32.5143C112.056 32.5143 111.969 32.5143 111.882 32.5143C111.795 32.5143 111.708 32.5143 111.621 32.5143C111.533 32.5143 111.446 32.5143 111.359 32.5143C111.272 32.5143 111.184 32.5143 111.097 32.5143C111.01 32.5143 110.922 32.5143 110.835 32.5143C110.747 32.5143 110.66 32.5143 110.573 32.5143C110.485 32.5143 110.398 32.5143 110.31 32.5143C110.222 32.5143 110.135 32.5143 110.047 32.5143C109.96 32.5143 109.872 32.5143 109.784 32.5143C109.696 32.5143 109.609 32.5143 109.521 32.5143C109.433 32.5143 109.345 32.5143 109.258 32.5143C109.17 32.5143 109.082 32.5143 108.994 32.5143C108.906 32.5143 108.818 32.5143 108.73 32.5143C108.642 32.5143 108.554 32.5143 108.466 32.5143C108.378 32.5143 108.29 32.5143 108.202 32.5143C108.114 32.5143 108.026 32.5143 107.938 32.5143C107.849 32.5143 107.761 32.5143 107.673 32.5143C107.585 32.5143 107.497 32.5143 107.408 32.5143C107.32 32.5143 107.232 32.5143 107.143 32.5143C107.055 32.5143 106.967 32.5143 106.878 32.5143C106.79 32.5143 106.701 32.5143 106.613 32.5143C106.525 32.5143 106.436 32.5143 106.348 32.5143C106.259 32.5143 106.171 32.5143 106.082 32.5143C105.993 32.5143 105.905 32.5143 105.816 32.5143C105.728 32.5143 105.639 32.5143 105.55 32.5143C105.462 32.5143 105.373 32.5143 105.284 32.5143C105.195 32.5143 105.107 32.5143 105.018 32.5143C104.929 32.5143 104.84 32.5143 104.752 32.5143C104.663 32.5143 104.574 32.5143 104.485 32.5143C104.396 32.5143 104.307 32.5143 104.218 32.5143C104.129 32.5143 104.04 32.5143 103.952 32.5143C103.863 32.5143 103.774 32.5143 103.685 32.5143C103.596 32.5143 103.507 32.5143 103.418 32.5143C103.328 32.5143 103.239 32.5143 103.15 32.5143C103.061 32.5143 102.972 32.5143 102.883 32.5143C102.794 32.5143 102.705 32.5143 102.616 32.5143C102.526 32.5143 102.437 32.5143 102.348 32.5143C102.259 32.5143 102.17 32.5143 102.08 32.5143C101.991 32.5143 101.902 32.5143 101.812 32.5143C101.723 32.5143 101.634 32.5143 101.545 32.5143C101.455 32.5143 101.366 32.5143 101.277 32.5143C101.187 32.5143 101.098 32.5143 101.008 32.5143C100.919 32.5143 100.83 32.5143 100.74 32.5143C100.651 32.5143 100.561 32.5143 100.472 32.5143C100.383 32.5143 100.293 32.5143 100.204 32.5143C100.114 32.5143 100.025 32.5143 99.9351 32.5143C99.8456 32.5143 99.7561 32.5143 99.6665 32.5143C99.577 32.5143 99.4875 32.5143 99.3979 32.5143C99.3083 32.5143 99.2188 32.5143 99.1292 32.5143C99.0396 32.5143 98.95 32.5143 98.8604 32.5143C98.7708 32.5143 98.6812 32.5143 98.5915 32.5143C98.5019 32.5143 98.4122 32.5143 98.3226 32.5143C98.2329 32.5143 98.1433 32.5143 98.0536 32.5143C97.9639 32.5143 97.8742 32.5143 97.7845 32.5143C97.6948 32.5143 97.6051 32.5143 97.5154 32.5143C97.4257 32.5143 97.336 32.5143 97.2462 32.5143C97.1565 32.5143 97.0668 32.5143 96.977 32.5143C96.8873 32.5143 96.7975 32.5143 96.7078 32.5143C96.618 32.5143 96.5282 32.5143 96.4385 32.5143C96.3487 32.5143 96.2589 32.5143 96.1691 32.5143C96.0793 32.5143 95.9895 32.5143 95.8997 32.5143C95.8099 32.5143 95.7201 32.5143 95.6303 32.5143C95.5405 32.5143 95.4507 32.5143 95.3608 32.5143C95.271 32.5143 95.1812 32.5143 95.0914 32.5143C95.0015 32.5143 94.9117 32.5143 94.8219 32.5143C94.732 32.5143 94.6422 32.5143 94.5523 32.5143C94.4625 32.5143 94.3727 32.5143 94.2828 32.5143C94.1929 32.5143 94.1031 32.5143 94.0132 32.5143C93.9234 32.5143 93.8335 32.5143 93.7437 32.5143C93.6538 32.5143 93.564 32.5143 93.4741 32.5143C93.3843 32.5143 93.2944 32.5143 93.2045 32.5143C93.1147 32.5143 93.0248 32.5143 92.935 32.5143C92.8451 32.5143 92.7553 32.5143 92.6654 32.5143C92.5755 32.5143 92.4857 32.5143 92.3958 32.5143C92.306 32.5143 92.2161 32.5143 92.1263 32.5143C92.0364 32.5143 91.9466 32.5143 91.8567 32.5143C91.7669 32.5143 91.6771 32.5143 91.5872 32.5143C91.4974 32.5143 91.4076 32.5143 91.3177 32.5143C91.2279 32.5143 91.1381 32.5143 91.0482 32.5143C90.9584 32.5143 90.8686 32.5143 90.7788 32.5143C90.689 32.5143 90.5992 32.5143 90.5094 32.5143C90.4196 32.5143 90.3298 32.5143 90.24 32.5143C90.1502 32.5143 90.0604 32.5143 89.9706 32.5143C89.8809 32.5143 89.7911 32.5143 89.7013 32.5143C89.6116 32.5143 89.5218 32.5143 89.4321 32.5143C89.3423 32.5143 89.2526 32.5143 89.1628 32.5143C89.0731 32.5143 88.9834 32.5143 88.8937 32.5143C88.804 32.5143 88.7143 32.5143 88.6246 32.5143C88.5349 32.5143 88.4452 32.5143 88.3555 32.5143C88.2658 32.5143 88.1762 32.5143 88.0865 32.5143C87.9969 32.5143 87.9072 32.5143 87.8176 32.5143C87.7279 32.5143 87.6383 32.5143 87.5487 32.5143C87.4591 32.5143 87.3695 32.5143 87.2799 32.5143C87.1903 32.5143 87.1008 32.5143 87.0112 32.5143C86.9216 32.5143 86.8321 32.5143 86.7426 32.5143C86.653 32.5143 86.5635 32.5143 86.474 32.5143C86.3845 32.5143 86.295 32.5143 86.2055 32.5143C86.1161 32.5143 86.0266 32.5143 85.9371 32.5143C85.8477 32.5143 85.7583 32.5143 85.6688 32.5143C85.5794 32.5143 85.49 32.5143 85.4006 32.5143C85.3113 32.5143 85.2219 32.5143 85.1325 32.5143C85.0432 32.5143 84.9538 32.5143 84.8645 32.5143C84.7752 32.5143 84.6859 32.5143 84.5966 32.5143C84.5073 32.5143 84.4181 32.5143 84.3288 32.5143C84.2396 32.5143 84.1504 32.5143 84.0612 32.5143C83.972 32.5143 83.8828 32.5143 83.7936 32.5143C83.7044 32.5143 83.6153 32.5143 83.5262 32.5143C83.437 32.5143 83.3479 32.5143 83.2588 32.5143C83.1697 32.5143 83.0807 32.5143 82.9916 32.5143C82.9026 32.5143 82.8136 32.5143 82.7245 32.5143C82.6356 32.5143 82.5466 32.5143 82.4576 32.5143C82.3687 32.5143 82.2797 32.5143 82.1908 32.5143C82.1019 32.5143 82.013 32.5143 81.9241 32.5143C81.8353 32.5143 81.7464 32.5143 81.6576 32.5143C81.5688 32.5143 81.48 32.5143 81.3912 32.5143C81.3025 32.5143 81.2137 32.5143 81.125 32.5143C81.0363 32.5143 80.9476 32.5143 80.8589 32.5143C80.7702 32.5143 80.6816 32.5143 80.593 32.5143C80.5044 32.5143 80.4158 32.5143 80.3272 32.5143C80.2387 32.5143 80.1501 32.5143 80.0616 32.5143C79.9731 32.5143 79.8846 32.5143 79.7962 32.5143C79.7077 32.5143 79.6193 32.5143 79.5309 32.5143C79.4425 32.5143 79.3541 32.5143 79.2658 32.5143C79.1775 32.5143 79.0892 32.5143 79.0009 32.5143C78.9126 32.5143 78.8244 32.5143 78.7361 32.5143C78.6479 32.5143 78.5597 32.5143 78.4716 32.5143C78.3834 32.5143 78.2953 32.5143 78.2072 32.5143C78.1191 32.5143 78.0311 32.5143 77.943 32.5143C77.855 32.5143 77.767 32.5143 77.679 32.5143C77.5911 32.5143 77.5031 32.5143 77.4152 32.5143C77.3273 32.5143 77.2395 32.5143 77.1516 32.5143C77.0638 32.5143 76.976 32.5143 76.8882 32.5143C76.8005 32.5143 76.7127 32.5143 76.625 32.5143C76.5373 32.5143 76.4497 32.5143 76.362 32.5143C76.2744 32.5143 76.1868 32.5143 76.0993 32.5143C76.0117 32.5143 75.9242 32.5143 75.8367 32.5143C75.7492 32.5143 75.6618 32.5143 75.5744 32.5143C75.487 32.5143 75.3996 32.5143 75.3123 32.5143C75.2249 32.5143 75.1376 32.5143 75.0504 32.5143C74.9631 32.5143 74.8759 32.5143 74.7887 32.5143C74.7015 32.5143 74.6144 32.5143 74.5273 32.5143C74.4402 32.5143 74.3531 32.5143 74.2661 32.5143C74.1791 32.5143 74.0921 32.5143 74.0052 32.5143C73.9182 32.5143 73.8313 32.5143 73.7445 32.5143C73.6576 32.5143 73.5708 32.5143 73.484 32.5143C73.3972 32.5143 73.3105 32.5143 73.2238 32.5143C73.1371 32.5143 73.0504 32.5143 72.9638 32.5143C72.8772 32.5143 72.7906 32.5143 72.7041 32.5143C72.6176 32.5143 72.5311 32.5143 72.4447 32.5143C72.3582 32.5143 72.2719 32.5143 72.1855 32.5143C72.0992 32.5143 72.0128 32.5143 71.9266 32.5143C71.8403 32.5143 71.7541 32.5143 71.6679 32.5143C71.5818 32.5143 71.4957 32.5143 71.4096 32.5143C71.3235 32.5143 71.2375 32.5143 71.1515 32.5143C71.0655 32.5143 70.9796 32.5143 70.8937 32.5143C70.8078 32.5143 70.7219 32.5143 70.6361 32.5143C70.5503 32.5143 70.4646 32.5143 70.3789 32.5143C70.2932 32.5143 70.2076 32.5143 70.1219 32.5143C70.0363 32.5143 69.9508 32.5143 69.8653 32.5143C69.7798 32.5143 69.6943 32.5143 69.6089 32.5143C69.5235 32.5143 69.4382 32.5143 69.3529 32.5143C69.2676 32.5143 69.1823 32.5143 69.0971 32.5143C69.0119 32.5143 68.9268 32.5143 68.8417 32.5143C68.7566 32.5143 68.6715 32.5143 68.5865 32.5143C68.5015 32.5143 68.4166 32.5143 68.3317 32.5143C68.2468 32.5143 68.162 32.5143 68.0772 32.5143C67.9924 32.5143 67.9077 32.5143 67.823 32.5143C67.7383 32.5143 67.6537 32.5143 67.5691 32.5143C67.4846 32.5143 67.4 32.5143 67.3156 32.5143C67.2311 32.5143 67.1467 32.5143 67.0624 32.5143C66.978 32.5143 66.8937 32.5143 66.8095 32.5143C66.7253 32.5143 66.6411 32.5143 66.557 32.5143C66.4728 32.5143 66.3888 32.5143 66.3048 32.5143C66.2208 32.5143 66.1368 32.5143 66.0529 32.5143C65.969 32.5143 65.8852 32.5143 65.8014 32.5143C65.7176 32.5143 65.6339 32.5143 65.5503 32.5143C65.4666 32.5143 65.383 32.5143 65.2995 32.5143C65.2159 32.5143 65.1324 32.5143 65.049 32.5143C64.9656 32.5143 64.8822 32.5143 64.7989 32.5143C64.7156 32.5143 64.6324 32.5143 64.5492 32.5143C64.466 32.5143 64.3829 32.5143 64.2999 32.5143C64.2168 32.5143 64.1338 32.5143 64.0509 32.5143C63.968 32.5143 63.8851 32.5143 63.8023 32.5143C63.7195 32.5143 63.6367 32.5143 63.5541 32.5143C63.4714 32.5143 63.3888 32.5143 63.3062 32.5143C63.2237 32.5143 63.1412 32.5143 63.0587 32.5143C62.9763 32.5143 62.894 32.5143 62.8117 32.5143C62.7294 32.5143 62.6472 32.5143 62.565 32.5143C62.4828 32.5143 62.4007 32.5143 62.3187 32.5143C62.2367 32.5143 62.1547 32.5143 62.0728 32.5143C61.9909 32.5143 61.9091 32.5143 61.8273 32.5143C61.7456 32.5143 61.6639 32.5143 61.5822 32.5143C61.5006 32.5143 61.4191 32.5143 61.3376 32.5143C61.2561 32.5143 61.1747 32.5143 61.0933 32.5143C61.012 32.5143 60.9307 32.5143 60.8495 32.5143C60.7682 32.5143 60.6871 32.5143 60.606 32.5143C60.525 32.5143 60.444 32.5143 60.363 32.5143C60.2821 32.5143 60.2012 32.5143 60.1204 32.5143C60.0396 32.5143 59.9589 32.5143 59.8783 32.5143C59.7976 32.5143 59.7171 32.5143 59.6366 32.5143C59.5561 32.5143 59.4756 32.5143 59.3953 32.5143C59.3149 32.5143 59.2346 32.5143 59.1544 32.5143C59.0742 32.5143 58.9941 32.5143 58.914 32.5143C58.834 32.5143 58.754 32.5143 58.674 32.5143C58.5941 32.5143 58.5143 32.5143 58.4345 32.5143C58.3548 32.5143 58.2751 32.5143 58.1955 32.5143C58.1159 32.5143 58.0363 32.5143 57.9569 32.5143C57.8774 32.5143 57.798 32.5143 57.7187 32.5143C57.6394 32.5143 57.5602 32.5143 57.481 32.5143C57.4019 32.5143 57.3228 32.5143 57.2438 32.5143C57.1648 32.5143 57.0859 32.5143 57.0071 32.5143C56.9282 32.5143 56.8495 32.5143 56.7708 32.5143C56.6921 32.5143 56.6135 32.5143 56.535 32.5143C56.4565 32.5143 56.378 32.5143 56.2996 32.5143C56.2213 32.5143 56.143 32.5143 56.0648 32.5143C55.9866 32.5143 55.9085 32.5143 55.8304 32.5143C55.7524 32.5143 55.6745 32.5143 55.5966 32.5143C55.5187 32.5143 55.4409 32.5143 55.3632 32.5143C55.2855 32.5143 55.2079 32.5143 55.1303 32.5143C55.0528 32.5143 54.9753 32.5143 54.8979 32.5143C54.8206 32.5143 54.7433 32.5143 54.6661 32.5143C54.5889 32.5143 54.5117 32.5143 54.4347 32.5143C54.3577 32.5143 54.2807 32.5143 54.2038 32.5143C54.127 32.5143 54.0502 32.5143 53.9735 32.5143C53.8968 32.5143 53.8202 32.5143 53.7436 32.5143C53.6671 32.5143 53.5907 32.5143 53.5143 32.5143C53.438 32.5143 53.3617 32.5143 53.2855 32.5143C53.2094 32.5143 53.1333 32.5143 53.0573 32.5143C52.9813 32.5143 52.9054 32.5143 52.8295 32.5143C52.7537 32.5143 52.678 32.5143 52.6023 32.5143C52.5267 32.5143 52.4511 32.5143 52.3757 32.5143C52.3002 32.5143 52.2248 32.5143 52.1495 32.5143C52.0743 32.5143 51.9991 32.5143 51.924 32.5143C51.8489 32.5143 51.7738 32.5143 51.6989 32.5143C51.624 32.5143 51.5492 32.5143 51.4744 32.5143C51.3997 32.5143 51.3251 32.5143 51.2505 32.5143C51.1759 32.5143 51.1015 32.5143 51.0271 32.5143C50.9528 32.5143 50.8785 32.5143 50.8043 32.5143C50.7301 32.5143 50.656 32.5143 50.582 32.5143C50.5081 32.5143 50.4342 32.5143 50.3604 32.5143C50.2866 32.5143 50.2128 32.5143 50.1392 32.5143C50.0656 32.5143 49.9921 32.5143 49.9187 32.5143C49.8453 32.5143 49.772 32.5143 49.6987 32.5143C49.6255 32.5143 49.5524 32.5143 49.4793 32.5143C49.4063 32.5143 49.3334 32.5143 49.2605 32.5143C49.1877 32.5143 49.115 32.5143 49.0423 32.5143C48.9697 32.5143 48.8971 32.5143 48.8247 32.5143C48.7522 32.5143 48.6799 32.5143 48.6077 32.5143C48.5354 32.5143 48.4633 32.5143 48.3912 32.5143C48.3192 32.5143 48.2472 32.5143 48.1754 32.5143C48.1035 32.5143 48.0318 32.5143 47.9601 32.5143C47.8885 32.5143 47.817 32.5143 47.7455 32.5143C47.6741 32.5143 47.6027 32.5143 47.5315 32.5143C47.4603 32.5143 47.3891 32.5143 47.3181 32.5143C47.2471 32.5143 47.1761 32.5143 47.1053 32.5143C47.0345 32.5143 46.9638 32.5143 46.8932 32.5143C46.8225 32.5143 46.752 32.5143 46.6816 32.5143C46.6112 32.5143 46.5409 32.5143 46.4707 32.5143C46.4005 32.5143 46.3304 32.5143 46.2604 32.5143C46.1904 32.5143 46.1206 32.5143 46.0508 32.5143C45.981 32.5143 45.9113 32.5143 45.8418 32.5143C45.7722 32.5143 45.7027 32.5143 45.6334 32.5143C45.564 32.5143 45.4948 32.5143 45.4257 32.5143C45.3565 32.5143 45.2875 32.5143 45.2186 32.5143C45.1497 32.5143 45.0809 32.5143 45.0122 32.5143C44.9435 32.5143 44.8749 32.5143 44.8064 32.5143C44.7379 32.5143 44.6695 32.5143 44.6013 32.5143C44.533 32.5143 44.4649 32.5143 44.3968 32.5143C44.3288 32.5143 44.2609 32.5143 44.193 32.5143C44.1252 32.5143 44.0575 32.5143 43.9899 32.5143C43.9223 32.5143 43.8548 32.5143 43.7875 32.5143C43.7201 32.5143 43.6528 32.5143 43.5857 32.5143C43.5185 32.5143 43.4515 32.5143 43.3846 32.5143C43.3177 32.5143 43.2509 32.5143 43.1842 32.5143C43.1175 32.5143 43.0509 32.5143 42.9844 32.5143C42.918 32.5143 42.8516 32.5143 42.7854 32.5143C42.7192 32.5143 42.6531 32.5143 42.5871 32.5143C42.521 32.5143 42.4552 32.5143 42.3894 32.5143C42.3236 32.5143 42.258 32.5143 42.1924 32.5143C42.1269 32.5143 42.0615 32.5143 41.9962 32.5143C41.9309 32.5143 41.8657 32.5143 41.8006 32.5143C41.7356 32.5143 41.6706 32.5143 41.6058 32.5143C41.541 32.5143 41.4762 32.5143 41.4117 32.5143C41.3471 32.5143 41.2826 32.5143 41.2182 32.5143C41.1539 32.5143 41.0896 32.5143 41.0255 32.5143C40.9614 32.5143 40.8974 32.5143 40.8336 32.5143C40.7697 32.5143 40.7059 32.5143 40.6423 32.5143C40.5787 32.5143 40.5152 32.5143 40.4518 32.5143C40.3884 32.5143 40.3251 32.5143 40.262 32.5143C40.1988 32.5143 40.1358 32.5143 40.0729 32.5143C40.01 32.5143 39.9473 32.5143 39.8846 32.5143C39.822 32.5143 39.7594 32.5143 39.697 32.5143C39.6346 32.5143 39.5724 32.5143 39.5102 32.5143C39.4481 32.5143 39.386 32.5143 39.3241 32.5143C39.2622 32.5143 39.2005 32.5143 39.1388 32.5143C39.0771 32.5143 39.0156 32.5143 38.9542 32.5143C38.8928 32.5143 38.8316 32.5143 38.7704 32.5143C38.7093 32.5143 38.6482 32.5143 38.5874 32.5143C38.5265 32.5143 38.4657 32.5143 38.4051 32.5143C38.3444 32.5143 38.2839 32.5143 38.2236 32.5143C38.1632 32.5143 38.1029 32.5143 38.0428 32.5143C37.9827 32.5143 37.9227 32.5143 37.8628 32.5143C37.803 32.5143 37.7432 32.5143 37.6836 32.5143C37.624 32.5143 37.5646 32.5143 37.5052 32.5143C37.4459 32.5143 37.3867 32.5143 37.3276 32.5143C37.2685 32.5143 37.2096 32.5143 37.1508 32.5143C37.092 32.5143 37.0333 32.5143 36.9747 32.5143C36.9162 32.5143 36.8578 32.5143 36.7995 32.5143C36.7412 32.5143 36.6831 32.5143 36.625 32.5143C36.567 32.5143 36.5092 32.5143 36.4514 32.5143C36.3937 32.5143 36.336 32.5143 36.2786 32.5143C36.2211 32.5143 36.1637 32.5143 36.1065 32.5143C36.0493 32.5143 35.9923 32.5143 35.9353 32.5143C35.8784 32.5143 35.8216 32.5143 35.7649 32.5143C35.7083 32.5143 35.6517 32.5143 35.5954 32.5143C35.539 32.5143 35.4827 32.5143 35.4266 32.5143C35.3705 32.5143 35.3145 32.5143 35.2587 32.5143C35.2028 32.5143 35.1471 32.5143 35.0916 32.5143C35.036 32.5143 34.9806 32.5143 34.9253 32.5143C34.87 32.5143 34.8149 32.5143 34.7599 32.5143C34.7049 32.5143 34.65 32.5143 34.5953 32.5143C34.5406 32.5143 34.486 32.5143 34.4315 32.5143C34.3771 32.5143 34.3228 32.5143 34.2686 32.5143C34.2145 32.5143 34.1605 32.5143 34.1066 32.5143C34.0527 32.5143 33.999 32.5143 33.9454 32.5143C33.8918 32.5143 33.8384 32.5143 33.785 32.5143C33.7317 32.5143 33.6786 32.5143 33.6256 32.5143C33.5725 32.5143 33.5197 32.5143 33.4669 32.5143C33.4142 32.5143 33.3616 32.5143 33.3092 32.5143C33.2568 32.5143 33.2045 32.5143 33.1523 32.5143C33.1002 32.5143 33.0482 32.5143 32.9963 32.5143C32.9445 32.5143 32.8927 32.5143 32.8412 32.5143C32.7896 32.5143 32.7382 32.5143 32.6869 32.5143C32.6357 32.5143 32.5845 32.5143 32.5336 32.5143C32.4826 32.5143 32.4318 32.5143 32.3811 32.5143C32.3304 32.5143 32.2799 32.5143 32.2295 32.5143C32.1791 32.5143 32.1289 32.5143 32.0788 32.5143C32.0287 32.5143 31.9788 32.5143 31.929 32.5143C31.8792 32.5143 31.8296 32.5143 31.7801 32.5143C31.7306 32.5143 31.6813 32.5143 31.6321 32.5143C31.5829 32.5143 31.5339 32.5143 31.485 32.5143C31.4362 32.5143 31.3874 32.5143 31.3389 32.5143V36.5143ZM150.305 36.5143C154.444 36.5143 160.887 38.138 166.392 43.0974C171.842 48.0067 176.538 56.3366 177.001 70.0673L180.999 69.9326C180.505 55.2748 175.437 45.8618 169.07 40.1255C162.758 34.4392 155.332 32.5143 150.305 32.5143V36.5143Z" fill="#333"/>
</svg>
