<svg width="181" height="72" viewBox="0 0 181 72" fill="none" xmlns="http://www.w3.org/2000/svg">
<path d="M3.99887 70.0673C3.96169 71.1713 3.03661 72.0361 1.93266 71.9989C0.82872 71.9617 -0.0360565 71.0366 0.00114441 69.9326L3.99887 70.0673ZM180.951 0.893127C181.266 6.76467 180.119 15.5756 175.562 22.9933C170.926 30.54 162.823 36.5143 149.661 36.5143V32.5143C161.369 32.5143 168.211 27.3171 172.154 20.8995C176.175 14.353 177.241 6.40675 176.957 1.10687L180.951 0.893127ZM149.661 36.5143C149.613 36.5143 149.564 36.5143 149.515 36.5143C149.466 36.5143 149.417 36.5143 149.368 36.5143C149.319 36.5143 149.269 36.5143 149.22 36.5143C149.17 36.5143 149.121 36.5143 149.071 36.5143C149.021 36.5143 148.971 36.5143 148.921 36.5143C148.871 36.5143 148.821 36.5143 148.77 36.5143C148.72 36.5143 148.67 36.5143 148.619 36.5143C148.568 36.5143 148.517 36.5143 148.466 36.5143C148.415 36.5143 148.364 36.5143 148.313 36.5143C148.262 36.5143 148.21 36.5143 148.159 36.5143C148.107 36.5143 148.056 36.5143 148.004 36.5143C147.952 36.5143 147.9 36.5143 147.848 36.5143C147.796 36.5143 147.743 36.5143 147.691 36.5143C147.638 36.5143 147.586 36.5143 147.533 36.5143C147.48 36.5143 147.427 36.5143 147.374 36.5143C147.321 36.5143 147.268 36.5143 147.215 36.5143C147.162 36.5143 147.108 36.5143 147.055 36.5143C147.001 36.5143 146.947 36.5143 146.893 36.5143C146.84 36.5143 146.786 36.5143 146.731 36.5143C146.677 36.5143 146.623 36.5143 146.568 36.5143C146.514 36.5143 146.459 36.5143 146.405 36.5143C146.35 36.5143 146.295 36.5143 146.24 36.5143C146.185 36.5143 146.13 36.5143 146.075 36.5143C146.019 36.5143 145.964 36.5143 145.908 36.5143C145.853 36.5143 145.797 36.5143 145.741 36.5143C145.685 36.5143 145.63 36.5143 145.573 36.5143C145.517 36.5143 145.461 36.5143 145.405 36.5143C145.348 36.5143 145.292 36.5143 145.235 36.5143C145.178 36.5143 145.122 36.5143 145.065 36.5143C145.008 36.5143 144.951 36.5143 144.893 36.5143C144.836 36.5143 144.779 36.5143 144.721 36.5143C144.664 36.5143 144.606 36.5143 144.549 36.5143C144.491 36.5143 144.433 36.5143 144.375 36.5143C144.317 36.5143 144.259 36.5143 144.201 36.5143C144.142 36.5143 144.084 36.5143 144.025 36.5143C143.967 36.5143 143.908 36.5143 143.849 36.5143C143.79 36.5143 143.731 36.5143 143.672 36.5143C143.613 36.5143 143.554 36.5143 143.495 36.5143C143.435 36.5143 143.376 36.5143 143.316 36.5143C143.257 36.5143 143.197 36.5143 143.137 36.5143C143.077 36.5143 143.017 36.5143 142.957 36.5143C142.897 36.5143 142.837 36.5143 142.776 36.5143C142.716 36.5143 142.656 36.5143 142.595 36.5143C142.534 36.5143 142.474 36.5143 142.413 36.5143C142.352 36.5143 142.291 36.5143 142.23 36.5143C142.168 36.5143 142.107 36.5143 142.046 36.5143C141.984 36.5143 141.923 36.5143 141.861 36.5143C141.8 36.5143 141.738 36.5143 141.676 36.5143C141.614 36.5143 141.552 36.5143 141.49 36.5143C141.428 36.5143 141.365 36.5143 141.303 36.5143C141.241 36.5143 141.178 36.5143 141.115 36.5143C141.053 36.5143 140.99 36.5143 140.927 36.5143C140.864 36.5143 140.801 36.5143 140.738 36.5143C140.675 36.5143 140.612 36.5143 140.548 36.5143C140.485 36.5143 140.421 36.5143 140.358 36.5143C140.294 36.5143 140.23 36.5143 140.166 36.5143C140.103 36.5143 140.039 36.5143 139.974 36.5143C139.91 36.5143 139.846 36.5143 139.782 36.5143C139.717 36.5143 139.653 36.5143 139.588 36.5143C139.524 36.5143 139.459 36.5143 139.394 36.5143C139.329 36.5143 139.264 36.5143 139.199 36.5143C139.134 36.5143 139.069 36.5143 139.004 36.5143C138.939 36.5143 138.873 36.5143 138.808 36.5143C138.742 36.5143 138.676 36.5143 138.611 36.5143C138.545 36.5143 138.479 36.5143 138.413 36.5143C138.347 36.5143 138.281 36.5143 138.215 36.5143C138.148 36.5143 138.082 36.5143 138.016 36.5143C137.949 36.5143 137.883 36.5143 137.816 36.5143C137.749 36.5143 137.682 36.5143 137.615 36.5143C137.548 36.5143 137.481 36.5143 137.414 36.5143C137.347 36.5143 137.28 36.5143 137.213 36.5143C137.145 36.5143 137.078 36.5143 137.01 36.5143C136.942 36.5143 136.875 36.5143 136.807 36.5143C136.739 36.5143 136.671 36.5143 136.603 36.5143C136.535 36.5143 136.467 36.5143 136.399 36.5143C136.33 36.5143 136.262 36.5143 136.194 36.5143C136.125 36.5143 136.057 36.5143 135.988 36.5143C135.919 36.5143 135.85 36.5143 135.781 36.5143C135.712 36.5143 135.643 36.5143 135.574 36.5143C135.505 36.5143 135.436 36.5143 135.367 36.5143C135.297 36.5143 135.228 36.5143 135.158 36.5143C135.089 36.5143 135.019 36.5143 134.949 36.5143C134.879 36.5143 134.81 36.5143 134.74 36.5143C134.67 36.5143 134.599 36.5143 134.529 36.5143C134.459 36.5143 134.389 36.5143 134.318 36.5143C134.248 36.5143 134.177 36.5143 134.107 36.5143C134.036 36.5143 133.966 36.5143 133.895 36.5143C133.824 36.5143 133.753 36.5143 133.682 36.5143C133.611 36.5143 133.54 36.5143 133.468 36.5143C133.397 36.5143 133.326 36.5143 133.254 36.5143C133.183 36.5143 133.111 36.5143 133.04 36.5143C132.968 36.5143 132.896 36.5143 132.825 36.5143C132.753 36.5143 132.681 36.5143 132.609 36.5143C132.537 36.5143 132.465 36.5143 132.392 36.5143C132.32 36.5143 132.248 36.5143 132.175 36.5143C132.103 36.5143 132.03 36.5143 131.958 36.5143C131.885 36.5143 131.812 36.5143 131.739 36.5143C131.667 36.5143 131.594 36.5143 131.521 36.5143C131.448 36.5143 131.375 36.5143 131.301 36.5143C131.228 36.5143 131.155 36.5143 131.081 36.5143C131.008 36.5143 130.934 36.5143 130.861 36.5143C130.787 36.5143 130.713 36.5143 130.64 36.5143C130.566 36.5143 130.492 36.5143 130.418 36.5143C130.344 36.5143 130.27 36.5143 130.196 36.5143C130.122 36.5143 130.047 36.5143 129.973 36.5143C129.899 36.5143 129.824 36.5143 129.75 36.5143C129.675 36.5143 129.6 36.5143 129.526 36.5143C129.451 36.5143 129.376 36.5143 129.301 36.5143C129.226 36.5143 129.151 36.5143 129.076 36.5143C129.001 36.5143 128.926 36.5143 128.85 36.5143C128.775 36.5143 128.7 36.5143 128.624 36.5143C128.549 36.5143 128.473 36.5143 128.398 36.5143C128.322 36.5143 128.246 36.5143 128.17 36.5143C128.095 36.5143 128.019 36.5143 127.943 36.5143C127.867 36.5143 127.791 36.5143 127.714 36.5143C127.638 36.5143 127.562 36.5143 127.486 36.5143C127.409 36.5143 127.333 36.5143 127.256 36.5143C127.18 36.5143 127.103 36.5143 127.027 36.5143C126.95 36.5143 126.873 36.5143 126.796 36.5143C126.719 36.5143 126.642 36.5143 126.565 36.5143C126.488 36.5143 126.411 36.5143 126.334 36.5143C126.257 36.5143 126.179 36.5143 126.102 36.5143C126.025 36.5143 125.947 36.5143 125.87 36.5143C125.792 36.5143 125.715 36.5143 125.637 36.5143C125.559 36.5143 125.481 36.5143 125.403 36.5143C125.326 36.5143 125.248 36.5143 125.17 36.5143C125.092 36.5143 125.013 36.5143 124.935 36.5143C124.857 36.5143 124.779 36.5143 124.7 36.5143C124.622 36.5143 124.544 36.5143 124.465 36.5143C124.387 36.5143 124.308 36.5143 124.229 36.5143C124.151 36.5143 124.072 36.5143 123.993 36.5143C123.914 36.5143 123.835 36.5143 123.756 36.5143C123.677 36.5143 123.598 36.5143 123.519 36.5143C123.44 36.5143 123.361 36.5143 123.281 36.5143C123.202 36.5143 123.123 36.5143 123.043 36.5143C122.964 36.5143 122.884 36.5143 122.805 36.5143C122.725 36.5143 122.645 36.5143 122.565 36.5143C122.486 36.5143 122.406 36.5143 122.326 36.5143C122.246 36.5143 122.166 36.5143 122.086 36.5143C122.006 36.5143 121.926 36.5143 121.846 36.5143C121.765 36.5143 121.685 36.5143 121.605 36.5143C121.524 36.5143 121.444 36.5143 121.363 36.5143C121.283 36.5143 121.202 36.5143 121.122 36.5143C121.041 36.5143 120.96 36.5143 120.88 36.5143C120.799 36.5143 120.718 36.5143 120.637 36.5143C120.556 36.5143 120.475 36.5143 120.394 36.5143C120.313 36.5143 120.232 36.5143 120.151 36.5143C120.069 36.5143 119.988 36.5143 119.907 36.5143C119.825 36.5143 119.744 36.5143 119.662 36.5143C119.581 36.5143 119.499 36.5143 119.418 36.5143C119.336 36.5143 119.254 36.5143 119.173 36.5143C119.091 36.5143 119.009 36.5143 118.927 36.5143C118.845 36.5143 118.763 36.5143 118.681 36.5143C118.599 36.5143 118.517 36.5143 118.435 36.5143C118.353 36.5143 118.271 36.5143 118.188 36.5143C118.106 36.5143 118.024 36.5143 117.941 36.5143C117.859 36.5143 117.776 36.5143 117.694 36.5143C117.611 36.5143 117.529 36.5143 117.446 36.5143C117.363 36.5143 117.281 36.5143 117.198 36.5143C117.115 36.5143 117.032 36.5143 116.949 36.5143C116.866 36.5143 116.783 36.5143 116.7 36.5143C116.617 36.5143 116.534 36.5143 116.451 36.5143C116.368 36.5143 116.284 36.5143 116.201 36.5143C116.118 36.5143 116.034 36.5143 115.951 36.5143C115.868 36.5143 115.784 36.5143 115.701 36.5143C115.617 36.5143 115.533 36.5143 115.45 36.5143C115.366 36.5143 115.282 36.5143 115.199 36.5143C115.115 36.5143 115.031 36.5143 114.947 36.5143C114.863 36.5143 114.779 36.5143 114.695 36.5143C114.611 36.5143 114.527 36.5143 114.443 36.5143C114.359 36.5143 114.275 36.5143 114.19 36.5143C114.106 36.5143 114.022 36.5143 113.938 36.5143C113.853 36.5143 113.769 36.5143 113.684 36.5143C113.6 36.5143 113.515 36.5143 113.431 36.5143C113.346 36.5143 113.262 36.5143 113.177 36.5143C113.092 36.5143 113.008 36.5143 112.923 36.5143C112.838 36.5143 112.753 36.5143 112.668 36.5143C112.583 36.5143 112.498 36.5143 112.413 36.5143C112.328 36.5143 112.243 36.5143 112.158 36.5143C112.073 36.5143 111.988 36.5143 111.903 36.5143C111.818 36.5143 111.732 36.5143 111.647 36.5143C111.562 36.5143 111.476 36.5143 111.391 36.5143C111.306 36.5143 111.22 36.5143 111.135 36.5143C111.049 36.5143 110.964 36.5143 110.878 36.5143C110.792 36.5143 110.707 36.5143 110.621 36.5143C110.535 36.5143 110.45 36.5143 110.364 36.5143C110.278 36.5143 110.192 36.5143 110.106 36.5143C110.02 36.5143 109.935 36.5143 109.849 36.5143C109.763 36.5143 109.676 36.5143 109.59 36.5143C109.504 36.5143 109.418 36.5143 109.332 36.5143C109.246 36.5143 109.16 36.5143 109.073 36.5143C108.987 36.5143 108.901 36.5143 108.814 36.5143C108.728 36.5143 108.642 36.5143 108.555 36.5143C108.469 36.5143 108.382 36.5143 108.296 36.5143C108.209 36.5143 108.123 36.5143 108.036 36.5143C107.95 36.5143 107.863 36.5143 107.776 36.5143C107.69 36.5143 107.603 36.5143 107.516 36.5143C107.429 36.5143 107.342 36.5143 107.256 36.5143C107.169 36.5143 107.082 36.5143 106.995 36.5143C106.908 36.5143 106.821 36.5143 106.734 36.5143C106.647 36.5143 106.56 36.5143 106.473 36.5143C106.386 36.5143 106.298 36.5143 106.211 36.5143C106.124 36.5143 106.037 36.5143 105.95 36.5143C105.862 36.5143 105.775 36.5143 105.688 36.5143C105.6 36.5143 105.513 36.5143 105.426 36.5143C105.338 36.5143 105.251 36.5143 105.163 36.5143C105.076 36.5143 104.988 36.5143 104.901 36.5143C104.813 36.5143 104.726 36.5143 104.638 36.5143C104.55 36.5143 104.463 36.5143 104.375 36.5143C104.287 36.5143 104.2 36.5143 104.112 36.5143C104.024 36.5143 103.936 36.5143 103.848 36.5143C103.761 36.5143 103.673 36.5143 103.585 36.5143C103.497 36.5143 103.409 36.5143 103.321 36.5143C103.233 36.5143 103.145 36.5143 103.057 36.5143C102.969 36.5143 102.881 36.5143 102.793 36.5143C102.705 36.5143 102.617 36.5143 102.528 36.5143C102.44 36.5143 102.352 36.5143 102.264 36.5143C102.176 36.5143 102.087 36.5143 101.999 36.5143C101.911 36.5143 101.823 36.5143 101.734 36.5143C101.646 36.5143 101.557 36.5143 101.469 36.5143C101.381 36.5143 101.292 36.5143 101.204 36.5143C101.115 36.5143 101.027 36.5143 100.938 36.5143C100.85 36.5143 100.761 36.5143 100.673 36.5143C100.584 36.5143 100.496 36.5143 100.407 36.5143C100.318 36.5143 100.23 36.5143 100.141 36.5143C100.052 36.5143 99.9637 36.5143 99.875 36.5143C99.7863 36.5143 99.6975 36.5143 99.6088 36.5143C99.52 36.5143 99.4312 36.5143 99.3424 36.5143C99.2536 36.5143 99.1647 36.5143 99.0759 36.5143C98.987 36.5143 98.8981 36.5143 98.8092 36.5143C98.7203 36.5143 98.6313 36.5143 98.5424 36.5143C98.4534 36.5143 98.3644 36.5143 98.2755 36.5143C98.1864 36.5143 98.0974 36.5143 98.0084 36.5143C97.9193 36.5143 97.8303 36.5143 97.7412 36.5143C97.6521 36.5143 97.563 36.5143 97.4738 36.5143C97.3847 36.5143 97.2956 36.5143 97.2064 36.5143C97.1172 36.5143 97.028 36.5143 96.9388 36.5143C96.8496 36.5143 96.7604 36.5143 96.6712 36.5143C96.5819 36.5143 96.4927 36.5143 96.4034 36.5143C96.3141 36.5143 96.2248 36.5143 96.1355 36.5143C96.0462 36.5143 95.9568 36.5143 95.8675 36.5143C95.7781 36.5143 95.6887 36.5143 95.5994 36.5143C95.51 36.5143 95.4206 36.5143 95.3312 36.5143C95.2417 36.5143 95.1523 36.5143 95.0629 36.5143C94.9734 36.5143 94.8839 36.5143 94.7945 36.5143C94.705 36.5143 94.6155 36.5143 94.526 36.5143C94.4365 36.5143 94.347 36.5143 94.2574 36.5143C94.1679 36.5143 94.0784 36.5143 93.9888 36.5143C93.8992 36.5143 93.8097 36.5143 93.7201 36.5143C93.6305 36.5143 93.5409 36.5143 93.4513 36.5143C93.3617 36.5143 93.2721 36.5143 93.1824 36.5143C93.0928 36.5143 93.0031 36.5143 92.9135 36.5143C92.8238 36.5143 92.7342 36.5143 92.6445 36.5143C92.5548 36.5143 92.4651 36.5143 92.3754 36.5143C92.2857 36.5143 92.196 36.5143 92.1063 36.5143C92.0166 36.5143 91.9269 36.5143 91.8372 36.5143C91.7474 36.5143 91.6577 36.5143 91.5679 36.5143C91.4782 36.5143 91.3884 36.5143 91.2987 36.5143C91.2089 36.5143 91.1191 36.5143 91.0294 36.5143C90.9396 36.5143 90.8498 36.5143 90.76 36.5143C90.6702 36.5143 90.5804 36.5143 90.4906 36.5143C90.4008 36.5143 90.311 36.5143 90.2212 36.5143C90.1314 36.5143 90.0416 36.5143 89.9518 36.5143C89.8619 36.5143 89.7721 36.5143 89.6823 36.5143C89.5924 36.5143 89.5026 36.5143 89.4128 36.5143C89.3229 36.5143 89.2331 36.5143 89.1433 36.5143C89.0534 36.5143 88.9636 36.5143 88.8737 36.5143C88.7839 36.5143 88.694 36.5143 88.6042 36.5143C88.5143 36.5143 88.4245 36.5143 88.3346 36.5143C88.2447 36.5143 88.1549 36.5143 88.065 36.5143C87.9752 36.5143 87.8853 36.5143 87.7955 36.5143C87.7056 36.5143 87.6157 36.5143 87.5259 36.5143C87.436 36.5143 87.3462 36.5143 87.2563 36.5143C87.1665 36.5143 87.0766 36.5143 86.9868 36.5143C86.8969 36.5143 86.8071 36.5143 86.7172 36.5143C86.6273 36.5143 86.5375 36.5143 86.4477 36.5143C86.3578 36.5143 86.268 36.5143 86.1781 36.5143C86.0883 36.5143 85.9985 36.5143 85.9086 36.5143C85.8188 36.5143 85.729 36.5143 85.6392 36.5143C85.5493 36.5143 85.4595 36.5143 85.3697 36.5143C85.2799 36.5143 85.1901 36.5143 85.1003 36.5143C85.0105 36.5143 84.9207 36.5143 84.8309 36.5143C84.7411 36.5143 84.6513 36.5143 84.5615 36.5143C84.4718 36.5143 84.382 36.5143 84.2922 36.5143C84.2025 36.5143 84.1127 36.5143 84.023 36.5143C83.9332 36.5143 83.8435 36.5143 83.7538 36.5143C83.664 36.5143 83.5743 36.5143 83.4846 36.5143C83.3949 36.5143 83.3052 36.5143 83.2155 36.5143C83.1258 36.5143 83.0361 36.5143 82.9464 36.5143C82.8567 36.5143 82.7671 36.5143 82.6774 36.5143C82.5878 36.5143 82.4981 36.5143 82.4085 36.5143C82.3188 36.5143 82.2292 36.5143 82.1396 36.5143C82.05 36.5143 81.9604 36.5143 81.8708 36.5143C81.7812 36.5143 81.6917 36.5143 81.6021 36.5143C81.5125 36.5143 81.423 36.5143 81.3335 36.5143C81.2439 36.5143 81.1544 36.5143 81.0649 36.5143C80.9754 36.5143 80.8859 36.5143 80.7964 36.5143C80.7069 36.5143 80.6175 36.5143 80.528 36.5143C80.4386 36.5143 80.3492 36.5143 80.2597 36.5143C80.1703 36.5143 80.0809 36.5143 79.9915 36.5143C79.9021 36.5143 79.8128 36.5143 79.7234 36.5143C79.6341 36.5143 79.5447 36.5143 79.4554 36.5143C79.3661 36.5143 79.2768 36.5143 79.1875 36.5143C79.0982 36.5143 79.009 36.5143 78.9197 36.5143C78.8305 36.5143 78.7412 36.5143 78.652 36.5143C78.5628 36.5143 78.4736 36.5143 78.3845 36.5143C78.2953 36.5143 78.2062 36.5143 78.117 36.5143C78.0279 36.5143 77.9388 36.5143 77.8497 36.5143C77.7606 36.5143 77.6715 36.5143 77.5825 36.5143C77.4934 36.5143 77.4044 36.5143 77.3154 36.5143C77.2264 36.5143 77.1374 36.5143 77.0485 36.5143C76.9595 36.5143 76.8706 36.5143 76.7817 36.5143C76.6927 36.5143 76.6039 36.5143 76.515 36.5143C76.4261 36.5143 76.3373 36.5143 76.2485 36.5143C76.1596 36.5143 76.0708 36.5143 75.9821 36.5143C75.8933 36.5143 75.8046 36.5143 75.7158 36.5143C75.6271 36.5143 75.5384 36.5143 75.4498 36.5143C75.3611 36.5143 75.2724 36.5143 75.1838 36.5143C75.0952 36.5143 75.0066 36.5143 74.9181 36.5143C74.8295 36.5143 74.741 36.5143 74.6525 36.5143C74.5639 36.5143 74.4755 36.5143 74.387 36.5143C74.2986 36.5143 74.2101 36.5143 74.1217 36.5143C74.0333 36.5143 73.945 36.5143 73.8566 36.5143C73.7683 36.5143 73.68 36.5143 73.5917 36.5143C73.5034 36.5143 73.4152 36.5143 73.327 36.5143C73.2387 36.5143 73.1506 36.5143 73.0624 36.5143C72.9742 36.5143 72.8861 36.5143 72.798 36.5143C72.7099 36.5143 72.6218 36.5143 72.5338 36.5143C72.4458 36.5143 72.3578 36.5143 72.2698 36.5143C72.1818 36.5143 72.0939 36.5143 72.006 36.5143C71.9181 36.5143 71.8302 36.5143 71.7424 36.5143C71.6546 36.5143 71.5668 36.5143 71.479 36.5143C71.3912 36.5143 71.3035 36.5143 71.2158 36.5143C71.1281 36.5143 71.0404 36.5143 70.9528 36.5143C70.8652 36.5143 70.7776 36.5143 70.69 36.5143C70.6025 36.5143 70.515 36.5143 70.4275 36.5143C70.34 36.5143 70.2525 36.5143 70.1651 36.5143C70.0777 36.5143 69.9904 36.5143 69.903 36.5143C69.8157 36.5143 69.7284 36.5143 69.6411 36.5143C69.5539 36.5143 69.4667 36.5143 69.3795 36.5143C69.2923 36.5143 69.2051 36.5143 69.118 36.5143C69.0309 36.5143 68.9439 36.5143 68.8568 36.5143C68.7698 36.5143 68.6828 36.5143 68.5959 36.5143C68.5089 36.5143 68.422 36.5143 68.3352 36.5143C68.2483 36.5143 68.1615 36.5143 68.0747 36.5143C67.9879 36.5143 67.9012 36.5143 67.8145 36.5143C67.7278 36.5143 67.6411 36.5143 67.5545 36.5143C67.4679 36.5143 67.3813 36.5143 67.2948 36.5143C67.2083 36.5143 67.1218 36.5143 67.0354 36.5143C66.9489 36.5143 66.8625 36.5143 66.7762 36.5143C66.6898 36.5143 66.6035 36.5143 66.5173 36.5143C66.431 36.5143 66.3448 36.5143 66.2586 36.5143C66.1725 36.5143 66.0863 36.5143 66.0003 36.5143C65.9142 36.5143 65.8281 36.5143 65.7421 36.5143C65.6562 36.5143 65.5702 36.5143 65.4843 36.5143C65.3984 36.5143 65.3126 36.5143 65.2268 36.5143C65.141 36.5143 65.0552 36.5143 64.9695 36.5143C64.8838 36.5143 64.7982 36.5143 64.7126 36.5143C64.627 36.5143 64.5414 36.5143 64.4559 36.5143C64.3704 36.5143 64.285 36.5143 64.1996 36.5143C64.1141 36.5143 64.0288 36.5143 63.9435 36.5143C63.8582 36.5143 63.7729 36.5143 63.6877 36.5143C63.6025 36.5143 63.5174 36.5143 63.4323 36.5143C63.3472 36.5143 63.2621 36.5143 63.1771 36.5143C63.0921 36.5143 63.0072 36.5143 62.9223 36.5143C62.8374 36.5143 62.7525 36.5143 62.6678 36.5143C62.583 36.5143 62.4982 36.5143 62.4136 36.5143C62.3289 36.5143 62.2443 36.5143 62.1597 36.5143C62.0751 36.5143 61.9906 36.5143 61.9061 36.5143C61.8217 36.5143 61.7373 36.5143 61.6529 36.5143C61.5686 36.5143 61.4843 36.5143 61.4 36.5143C61.3158 36.5143 61.2316 36.5143 61.1475 36.5143C61.0634 36.5143 60.9793 36.5143 60.8953 36.5143C60.8113 36.5143 60.7273 36.5143 60.6434 36.5143C60.5595 36.5143 60.4757 36.5143 60.3919 36.5143C60.3081 36.5143 60.2244 36.5143 60.1408 36.5143C60.0571 36.5143 59.9735 36.5143 59.89 36.5143C59.8064 36.5143 59.7229 36.5143 59.6395 36.5143C59.5561 36.5143 59.4727 36.5143 59.3894 36.5143C59.3061 36.5143 59.2229 36.5143 59.1397 36.5143C59.0565 36.5143 58.9734 36.5143 58.8903 36.5143C58.8073 36.5143 58.7243 36.5143 58.6413 36.5143C58.5584 36.5143 58.4755 36.5143 58.3927 36.5143C58.3099 36.5143 58.2272 36.5143 58.1445 36.5143C58.0618 36.5143 57.9792 36.5143 57.8966 36.5143C57.8141 36.5143 57.7316 36.5143 57.6492 36.5143C57.5667 36.5143 57.4844 36.5143 57.4021 36.5143C57.3198 36.5143 57.2376 36.5143 57.1554 36.5143C57.0732 36.5143 56.9911 36.5143 56.9091 36.5143C56.8271 36.5143 56.7451 36.5143 56.6632 36.5143C56.5813 36.5143 56.4995 36.5143 56.4177 36.5143C56.3359 36.5143 56.2542 36.5143 56.1726 36.5143C56.091 36.5143 56.0094 36.5143 55.9279 36.5143C55.8464 36.5143 55.765 36.5143 55.6837 36.5143C55.6023 36.5143 55.521 36.5143 55.4398 36.5143C55.3586 36.5143 55.2774 36.5143 55.1964 36.5143C55.1153 36.5143 55.0343 36.5143 54.9533 36.5143C54.8724 36.5143 54.7915 36.5143 54.7108 36.5143C54.63 36.5143 54.5492 36.5143 54.4686 36.5143C54.3879 36.5143 54.3074 36.5143 54.2269 36.5143C54.1464 36.5143 54.0659 36.5143 53.9856 36.5143C53.9052 36.5143 53.8249 36.5143 53.7447 36.5143C53.6645 36.5143 53.5844 36.5143 53.5043 36.5143C53.4242 36.5143 53.3442 36.5143 53.2643 36.5143C53.1844 36.5143 53.1046 36.5143 53.0248 36.5143C52.945 36.5143 52.8653 36.5143 52.7857 36.5143C52.7061 36.5143 52.6266 36.5143 52.5471 36.5143C52.4676 36.5143 52.3882 36.5143 52.3089 36.5143C52.2296 36.5143 52.1504 36.5143 52.0712 36.5143C51.9921 36.5143 51.913 36.5143 51.834 36.5143C51.755 36.5143 51.6761 36.5143 51.5972 36.5143C51.5184 36.5143 51.4396 36.5143 51.361 36.5143C51.2823 36.5143 51.2037 36.5143 51.1251 36.5143C51.0466 36.5143 50.9682 36.5143 50.8898 36.5143C50.8114 36.5143 50.7332 36.5143 50.655 36.5143C50.5768 36.5143 50.4986 36.5143 50.4206 36.5143C50.3425 36.5143 50.2646 36.5143 50.1867 36.5143C50.1088 36.5143 50.031 36.5143 49.9533 36.5143C49.8756 36.5143 49.798 36.5143 49.7204 36.5143C49.6429 36.5143 49.5654 36.5143 49.488 36.5143C49.4107 36.5143 49.3334 36.5143 49.2561 36.5143C49.1789 36.5143 49.1018 36.5143 49.0248 36.5143C48.9477 36.5143 48.8708 36.5143 48.7939 36.5143C48.717 36.5143 48.6402 36.5143 48.5635 36.5143C48.4868 36.5143 48.4102 36.5143 48.3337 36.5143C48.2572 36.5143 48.1807 36.5143 48.1044 36.5143C48.028 36.5143 47.9517 36.5143 47.8755 36.5143C47.7994 36.5143 47.7233 36.5143 47.6473 36.5143C47.5713 36.5143 47.4954 36.5143 47.4195 36.5143C47.3437 36.5143 47.268 36.5143 47.1923 36.5143C47.1167 36.5143 47.0411 36.5143 46.9656 36.5143C46.8902 36.5143 46.8148 36.5143 46.7395 36.5143C46.6642 36.5143 46.589 36.5143 46.5139 36.5143C46.4388 36.5143 46.3638 36.5143 46.2888 36.5143C46.2139 36.5143 46.1391 36.5143 46.0643 36.5143C45.9896 36.5143 45.915 36.5143 45.8404 36.5143C45.7659 36.5143 45.6914 36.5143 45.617 36.5143C45.5426 36.5143 45.4684 36.5143 45.3942 36.5143C45.32 36.5143 45.2459 36.5143 45.1719 36.5143C45.0979 36.5143 45.024 36.5143 44.9502 36.5143C44.8764 36.5143 44.8027 36.5143 44.7291 36.5143C44.6555 36.5143 44.582 36.5143 44.5085 36.5143C44.4351 36.5143 44.3618 36.5143 44.2885 36.5143C44.2153 36.5143 44.1422 36.5143 44.0691 36.5143C43.9961 36.5143 43.9232 36.5143 43.8503 36.5143C43.7775 36.5143 43.7047 36.5143 43.6321 36.5143C43.5594 36.5143 43.4869 36.5143 43.4145 36.5143C43.342 36.5143 43.2697 36.5143 43.1974 36.5143C43.1252 36.5143 43.053 36.5143 42.981 36.5143C42.9089 36.5143 42.837 36.5143 42.7651 36.5143C42.6933 36.5143 42.6215 36.5143 42.5499 36.5143C42.4782 36.5143 42.4067 36.5143 42.3352 36.5143C42.2638 36.5143 42.1924 36.5143 42.1212 36.5143C42.05 36.5143 41.9788 36.5143 41.9078 36.5143C41.8367 36.5143 41.7658 36.5143 41.695 36.5143C41.6241 36.5143 41.5534 36.5143 41.4828 36.5143C41.4122 36.5143 41.3417 36.5143 41.2713 36.5143C41.2008 36.5143 41.1305 36.5143 41.0603 36.5143C40.9901 36.5143 40.92 36.5143 40.85 36.5143C40.78 36.5143 40.7101 36.5143 40.6404 36.5143C40.5706 36.5143 40.5009 36.5143 40.4313 36.5143C40.3618 36.5143 40.2923 36.5143 40.223 36.5143C40.1536 36.5143 40.0844 36.5143 40.0152 36.5143C39.9461 36.5143 39.877 36.5143 39.8081 36.5143C39.7392 36.5143 39.6704 36.5143 39.6017 36.5143C39.533 36.5143 39.4644 36.5143 39.3959 36.5143C39.3274 36.5143 39.259 36.5143 39.1908 36.5143C39.1225 36.5143 39.0544 36.5143 38.9863 36.5143C38.9183 36.5143 38.8503 36.5143 38.7825 36.5143C38.7147 36.5143 38.647 36.5143 38.5794 36.5143C38.5118 36.5143 38.4443 36.5143 38.3769 36.5143C38.3095 36.5143 38.2423 36.5143 38.1751 36.5143C38.108 36.5143 38.0409 36.5143 37.974 36.5143C37.9071 36.5143 37.8403 36.5143 37.7736 36.5143C37.7069 36.5143 37.6403 36.5143 37.5738 36.5143C37.5074 36.5143 37.441 36.5143 37.3748 36.5143C37.3085 36.5143 37.2424 36.5143 37.1764 36.5143C37.1104 36.5143 37.0445 36.5143 36.9787 36.5143C36.9129 36.5143 36.8473 36.5143 36.7818 36.5143C36.7162 36.5143 36.6508 36.5143 36.5855 36.5143C36.5202 36.5143 36.455 36.5143 36.3899 36.5143C36.3248 36.5143 36.2599 36.5143 36.1951 36.5143C36.1302 36.5143 36.0655 36.5143 36.0009 36.5143C35.9363 36.5143 35.8718 36.5143 35.8075 36.5143C35.7431 36.5143 35.6789 36.5143 35.6147 36.5143C35.5506 36.5143 35.4866 36.5143 35.4228 36.5143C35.3589 36.5143 35.2951 36.5143 35.2315 36.5143C35.1678 36.5143 35.1043 36.5143 35.041 36.5143C34.9776 36.5143 34.9143 36.5143 34.8511 36.5143C34.788 36.5143 34.725 36.5143 34.6621 36.5143C34.5992 36.5143 34.5364 36.5143 34.4737 36.5143C34.4111 36.5143 34.3485 36.5143 34.2861 36.5143C34.2237 36.5143 34.1615 36.5143 34.0993 36.5143C34.0371 36.5143 33.9751 36.5143 33.9132 36.5143C33.8513 36.5143 33.7895 36.5143 33.7278 36.5143C33.6662 36.5143 33.6047 36.5143 33.5433 36.5143C33.4819 36.5143 33.4206 36.5143 33.3594 36.5143C33.2983 36.5143 33.2373 36.5143 33.1764 36.5143C33.1155 36.5143 33.0547 36.5143 32.994 36.5143C32.9334 36.5143 32.8729 36.5143 32.8125 36.5143C32.7521 36.5143 32.6919 36.5143 32.6318 36.5143C32.5716 36.5143 32.5116 36.5143 32.4518 36.5143C32.3919 36.5143 32.3322 36.5143 32.2726 36.5143C32.213 36.5143 32.1535 36.5143 32.0941 36.5143C32.0348 36.5143 31.9756 36.5143 31.9165 36.5143C31.8574 36.5143 31.7985 36.5143 31.7396 36.5143C31.6808 36.5143 31.6221 36.5143 31.5636 36.5143C31.505 36.5143 31.4466 36.5143 31.3883 36.5143C31.33 36.5143 31.2719 36.5143 31.2139 36.5143C31.1558 36.5143 31.0979 36.5143 31.0402 36.5143C30.9825 36.5143 30.9248 36.5143 30.8673 36.5143C30.8099 36.5143 30.7525 36.5143 30.6953 36.5143V32.5143C30.7525 32.5143 30.8099 32.5143 30.8673 32.5143C30.9248 32.5143 30.9825 32.5143 31.0402 32.5143C31.0979 32.5143 31.1558 32.5143 31.2139 32.5143C31.2719 32.5143 31.33 32.5143 31.3883 32.5143C31.4466 32.5143 31.505 32.5143 31.5636 32.5143C31.6221 32.5143 31.6808 32.5143 31.7396 32.5143C31.7985 32.5143 31.8574 32.5143 31.9165 32.5143C31.9756 32.5143 32.0348 32.5143 32.0941 32.5143C32.1535 32.5143 32.213 32.5143 32.2726 32.5143C32.3322 32.5143 32.3919 32.5143 32.4518 32.5143C32.5116 32.5143 32.5716 32.5143 32.6318 32.5143C32.6919 32.5143 32.7521 32.5143 32.8125 32.5143C32.8729 32.5143 32.9334 32.5143 32.994 32.5143C33.0547 32.5143 33.1155 32.5143 33.1764 32.5143C33.2373 32.5143 33.2983 32.5143 33.3594 32.5143C33.4206 32.5143 33.4819 32.5143 33.5433 32.5143C33.6047 32.5143 33.6662 32.5143 33.7278 32.5143C33.7895 32.5143 33.8513 32.5143 33.9132 32.5143C33.9751 32.5143 34.0371 32.5143 34.0993 32.5143C34.1615 32.5143 34.2237 32.5143 34.2861 32.5143C34.3485 32.5143 34.4111 32.5143 34.4737 32.5143C34.5364 32.5143 34.5992 32.5143 34.6621 32.5143C34.725 32.5143 34.788 32.5143 34.8511 32.5143C34.9143 32.5143 34.9776 32.5143 35.041 32.5143C35.1043 32.5143 35.1678 32.5143 35.2315 32.5143C35.2951 32.5143 35.3589 32.5143 35.4228 32.5143C35.4866 32.5143 35.5506 32.5143 35.6147 32.5143C35.6789 32.5143 35.7431 32.5143 35.8075 32.5143C35.8718 32.5143 35.9363 32.5143 36.0009 32.5143C36.0655 32.5143 36.1302 32.5143 36.1951 32.5143C36.2599 32.5143 36.3248 32.5143 36.3899 32.5143C36.455 32.5143 36.5202 32.5143 36.5855 32.5143C36.6508 32.5143 36.7162 32.5143 36.7818 32.5143C36.8473 32.5143 36.9129 32.5143 36.9787 32.5143C37.0445 32.5143 37.1104 32.5143 37.1764 32.5143C37.2424 32.5143 37.3085 32.5143 37.3748 32.5143C37.441 32.5143 37.5074 32.5143 37.5738 32.5143C37.6403 32.5143 37.7069 32.5143 37.7736 32.5143C37.8403 32.5143 37.9071 32.5143 37.974 32.5143C38.0409 32.5143 38.108 32.5143 38.1751 32.5143C38.2423 32.5143 38.3095 32.5143 38.3769 32.5143C38.4443 32.5143 38.5118 32.5143 38.5794 32.5143C38.647 32.5143 38.7147 32.5143 38.7825 32.5143C38.8503 32.5143 38.9183 32.5143 38.9863 32.5143C39.0544 32.5143 39.1225 32.5143 39.1908 32.5143C39.259 32.5143 39.3274 32.5143 39.3959 32.5143C39.4644 32.5143 39.533 32.5143 39.6017 32.5143C39.6704 32.5143 39.7392 32.5143 39.8081 32.5143C39.877 32.5143 39.9461 32.5143 40.0152 32.5143C40.0844 32.5143 40.1536 32.5143 40.223 32.5143C40.2923 32.5143 40.3618 32.5143 40.4313 32.5143C40.5009 32.5143 40.5706 32.5143 40.6404 32.5143C40.7101 32.5143 40.78 32.5143 40.85 32.5143C40.92 32.5143 40.9901 32.5143 41.0603 32.5143C41.1305 32.5143 41.2008 32.5143 41.2713 32.5143C41.3417 32.5143 41.4122 32.5143 41.4828 32.5143C41.5534 32.5143 41.6241 32.5143 41.695 32.5143C41.7658 32.5143 41.8367 32.5143 41.9078 32.5143C41.9788 32.5143 42.05 32.5143 42.1212 32.5143C42.1924 32.5143 42.2638 32.5143 42.3352 32.5143C42.4067 32.5143 42.4782 32.5143 42.5499 32.5143C42.6215 32.5143 42.6933 32.5143 42.7651 32.5143C42.837 32.5143 42.9089 32.5143 42.981 32.5143C43.053 32.5143 43.1252 32.5143 43.1974 32.5143C43.2697 32.5143 43.342 32.5143 43.4145 32.5143C43.4869 32.5143 43.5594 32.5143 43.6321 32.5143C43.7047 32.5143 43.7775 32.5143 43.8503 32.5143C43.9232 32.5143 43.9961 32.5143 44.0691 32.5143C44.1422 32.5143 44.2153 32.5143 44.2885 32.5143C44.3618 32.5143 44.4351 32.5143 44.5085 32.5143C44.582 32.5143 44.6555 32.5143 44.7291 32.5143C44.8027 32.5143 44.8764 32.5143 44.9502 32.5143C45.024 32.5143 45.0979 32.5143 45.1719 32.5143C45.2459 32.5143 45.32 32.5143 45.3942 32.5143C45.4684 32.5143 45.5426 32.5143 45.617 32.5143C45.6914 32.5143 45.7659 32.5143 45.8404 32.5143C45.915 32.5143 45.9896 32.5143 46.0643 32.5143C46.1391 32.5143 46.2139 32.5143 46.2888 32.5143C46.3638 32.5143 46.4388 32.5143 46.5139 32.5143C46.589 32.5143 46.6642 32.5143 46.7395 32.5143C46.8148 32.5143 46.8902 32.5143 46.9656 32.5143C47.0411 32.5143 47.1167 32.5143 47.1923 32.5143C47.268 32.5143 47.3437 32.5143 47.4195 32.5143C47.4954 32.5143 47.5713 32.5143 47.6473 32.5143C47.7233 32.5143 47.7994 32.5143 47.8755 32.5143C47.9517 32.5143 48.028 32.5143 48.1044 32.5143C48.1807 32.5143 48.2572 32.5143 48.3337 32.5143C48.4102 32.5143 48.4868 32.5143 48.5635 32.5143C48.6402 32.5143 48.717 32.5143 48.7939 32.5143C48.8708 32.5143 48.9477 32.5143 49.0248 32.5143C49.1018 32.5143 49.1789 32.5143 49.2561 32.5143C49.3334 32.5143 49.4107 32.5143 49.488 32.5143C49.5654 32.5143 49.6429 32.5143 49.7204 32.5143C49.798 32.5143 49.8756 32.5143 49.9533 32.5143C50.031 32.5143 50.1088 32.5143 50.1867 32.5143C50.2646 32.5143 50.3425 32.5143 50.4206 32.5143C50.4986 32.5143 50.5768 32.5143 50.655 32.5143C50.7332 32.5143 50.8114 32.5143 50.8898 32.5143C50.9682 32.5143 51.0466 32.5143 51.1251 32.5143C51.2037 32.5143 51.2823 32.5143 51.361 32.5143C51.4396 32.5143 51.5184 32.5143 51.5972 32.5143C51.6761 32.5143 51.755 32.5143 51.834 32.5143C51.913 32.5143 51.9921 32.5143 52.0712 32.5143C52.1504 32.5143 52.2296 32.5143 52.3089 32.5143C52.3882 32.5143 52.4676 32.5143 52.5471 32.5143C52.6266 32.5143 52.7061 32.5143 52.7857 32.5143C52.8653 32.5143 52.945 32.5143 53.0248 32.5143C53.1046 32.5143 53.1844 32.5143 53.2643 32.5143C53.3442 32.5143 53.4242 32.5143 53.5043 32.5143C53.5844 32.5143 53.6645 32.5143 53.7447 32.5143C53.8249 32.5143 53.9052 32.5143 53.9856 32.5143C54.0659 32.5143 54.1464 32.5143 54.2269 32.5143C54.3074 32.5143 54.3879 32.5143 54.4686 32.5143C54.5492 32.5143 54.63 32.5143 54.7108 32.5143C54.7915 32.5143 54.8724 32.5143 54.9533 32.5143C55.0343 32.5143 55.1153 32.5143 55.1964 32.5143C55.2774 32.5143 55.3586 32.5143 55.4398 32.5143C55.521 32.5143 55.6023 32.5143 55.6837 32.5143C55.765 32.5143 55.8464 32.5143 55.9279 32.5143C56.0094 32.5143 56.091 32.5143 56.1726 32.5143C56.2542 32.5143 56.3359 32.5143 56.4177 32.5143C56.4995 32.5143 56.5813 32.5143 56.6632 32.5143C56.7451 32.5143 56.8271 32.5143 56.9091 32.5143C56.9911 32.5143 57.0732 32.5143 57.1554 32.5143C57.2376 32.5143 57.3198 32.5143 57.4021 32.5143C57.4844 32.5143 57.5667 32.5143 57.6492 32.5143C57.7316 32.5143 57.8141 32.5143 57.8966 32.5143C57.9792 32.5143 58.0618 32.5143 58.1445 32.5143C58.2272 32.5143 58.3099 32.5143 58.3927 32.5143C58.4755 32.5143 58.5584 32.5143 58.6413 32.5143C58.7243 32.5143 58.8073 32.5143 58.8903 32.5143C58.9734 32.5143 59.0565 32.5143 59.1397 32.5143C59.2229 32.5143 59.3061 32.5143 59.3894 32.5143C59.4727 32.5143 59.5561 32.5143 59.6395 32.5143C59.7229 32.5143 59.8064 32.5143 59.89 32.5143C59.9735 32.5143 60.0571 32.5143 60.1408 32.5143C60.2244 32.5143 60.3081 32.5143 60.3919 32.5143C60.4757 32.5143 60.5595 32.5143 60.6434 32.5143C60.7273 32.5143 60.8113 32.5143 60.8953 32.5143C60.9793 32.5143 61.0634 32.5143 61.1475 32.5143C61.2316 32.5143 61.3158 32.5143 61.4 32.5143C61.4843 32.5143 61.5686 32.5143 61.6529 32.5143C61.7373 32.5143 61.8217 32.5143 61.9061 32.5143C61.9906 32.5143 62.0751 32.5143 62.1597 32.5143C62.2443 32.5143 62.3289 32.5143 62.4136 32.5143C62.4982 32.5143 62.583 32.5143 62.6678 32.5143C62.7525 32.5143 62.8374 32.5143 62.9223 32.5143C63.0072 32.5143 63.0921 32.5143 63.1771 32.5143C63.2621 32.5143 63.3472 32.5143 63.4323 32.5143C63.5174 32.5143 63.6025 32.5143 63.6877 32.5143C63.7729 32.5143 63.8582 32.5143 63.9435 32.5143C64.0288 32.5143 64.1141 32.5143 64.1996 32.5143C64.285 32.5143 64.3704 32.5143 64.4559 32.5143C64.5414 32.5143 64.627 32.5143 64.7126 32.5143C64.7982 32.5143 64.8838 32.5143 64.9695 32.5143C65.0552 32.5143 65.141 32.5143 65.2268 32.5143C65.3126 32.5143 65.3984 32.5143 65.4843 32.5143C65.5702 32.5143 65.6562 32.5143 65.7421 32.5143C65.8281 32.5143 65.9142 32.5143 66.0003 32.5143C66.0863 32.5143 66.1725 32.5143 66.2586 32.5143C66.3448 32.5143 66.431 32.5143 66.5173 32.5143C66.6035 32.5143 66.6898 32.5143 66.7762 32.5143C66.8625 32.5143 66.9489 32.5143 67.0354 32.5143C67.1218 32.5143 67.2083 32.5143 67.2948 32.5143C67.3813 32.5143 67.4679 32.5143 67.5545 32.5143C67.6411 32.5143 67.7278 32.5143 67.8145 32.5143C67.9012 32.5143 67.9879 32.5143 68.0747 32.5143C68.1615 32.5143 68.2483 32.5143 68.3352 32.5143C68.422 32.5143 68.5089 32.5143 68.5959 32.5143C68.6828 32.5143 68.7698 32.5143 68.8568 32.5143C68.9439 32.5143 69.0309 32.5143 69.118 32.5143C69.2051 32.5143 69.2923 32.5143 69.3795 32.5143C69.4667 32.5143 69.5539 32.5143 69.6411 32.5143C69.7284 32.5143 69.8157 32.5143 69.903 32.5143C69.9904 32.5143 70.0777 32.5143 70.1651 32.5143C70.2525 32.5143 70.34 32.5143 70.4275 32.5143C70.515 32.5143 70.6025 32.5143 70.69 32.5143C70.7776 32.5143 70.8652 32.5143 70.9528 32.5143C71.0404 32.5143 71.1281 32.5143 71.2158 32.5143C71.3035 32.5143 71.3912 32.5143 71.479 32.5143C71.5668 32.5143 71.6546 32.5143 71.7424 32.5143C71.8302 32.5143 71.9181 32.5143 72.006 32.5143C72.0939 32.5143 72.1818 32.5143 72.2698 32.5143C72.3578 32.5143 72.4458 32.5143 72.5338 32.5143C72.6218 32.5143 72.7099 32.5143 72.798 32.5143C72.8861 32.5143 72.9742 32.5143 73.0624 32.5143C73.1506 32.5143 73.2387 32.5143 73.327 32.5143C73.4152 32.5143 73.5034 32.5143 73.5917 32.5143C73.68 32.5143 73.7683 32.5143 73.8566 32.5143C73.945 32.5143 74.0333 32.5143 74.1217 32.5143C74.2101 32.5143 74.2986 32.5143 74.387 32.5143C74.4755 32.5143 74.5639 32.5143 74.6525 32.5143C74.741 32.5143 74.8295 32.5143 74.9181 32.5143C75.0066 32.5143 75.0952 32.5143 75.1838 32.5143C75.2724 32.5143 75.3611 32.5143 75.4498 32.5143C75.5384 32.5143 75.6271 32.5143 75.7158 32.5143C75.8046 32.5143 75.8933 32.5143 75.9821 32.5143C76.0708 32.5143 76.1596 32.5143 76.2485 32.5143C76.3373 32.5143 76.4261 32.5143 76.515 32.5143C76.6039 32.5143 76.6927 32.5143 76.7817 32.5143C76.8706 32.5143 76.9595 32.5143 77.0485 32.5143C77.1374 32.5143 77.2264 32.5143 77.3154 32.5143C77.4044 32.5143 77.4934 32.5143 77.5825 32.5143C77.6715 32.5143 77.7606 32.5143 77.8497 32.5143C77.9388 32.5143 78.0279 32.5143 78.117 32.5143C78.2062 32.5143 78.2953 32.5143 78.3845 32.5143C78.4736 32.5143 78.5628 32.5143 78.652 32.5143C78.7412 32.5143 78.8305 32.5143 78.9197 32.5143C79.009 32.5143 79.0982 32.5143 79.1875 32.5143C79.2768 32.5143 79.3661 32.5143 79.4554 32.5143C79.5447 32.5143 79.6341 32.5143 79.7234 32.5143C79.8128 32.5143 79.9021 32.5143 79.9915 32.5143C80.0809 32.5143 80.1703 32.5143 80.2597 32.5143C80.3492 32.5143 80.4386 32.5143 80.528 32.5143C80.6175 32.5143 80.7069 32.5143 80.7964 32.5143C80.8859 32.5143 80.9754 32.5143 81.0649 32.5143C81.1544 32.5143 81.2439 32.5143 81.3335 32.5143C81.423 32.5143 81.5125 32.5143 81.6021 32.5143C81.6917 32.5143 81.7812 32.5143 81.8708 32.5143C81.9604 32.5143 82.05 32.5143 82.1396 32.5143C82.2292 32.5143 82.3188 32.5143 82.4085 32.5143C82.4981 32.5143 82.5878 32.5143 82.6774 32.5143C82.7671 32.5143 82.8567 32.5143 82.9464 32.5143C83.0361 32.5143 83.1258 32.5143 83.2155 32.5143C83.3052 32.5143 83.3949 32.5143 83.4846 32.5143C83.5743 32.5143 83.664 32.5143 83.7538 32.5143C83.8435 32.5143 83.9332 32.5143 84.023 32.5143C84.1127 32.5143 84.2025 32.5143 84.2922 32.5143C84.382 32.5143 84.4718 32.5143 84.5615 32.5143C84.6513 32.5143 84.7411 32.5143 84.8309 32.5143C84.9207 32.5143 85.0105 32.5143 85.1003 32.5143C85.1901 32.5143 85.2799 32.5143 85.3697 32.5143C85.4595 32.5143 85.5493 32.5143 85.6392 32.5143C85.729 32.5143 85.8188 32.5143 85.9086 32.5143C85.9985 32.5143 86.0883 32.5143 86.1781 32.5143C86.268 32.5143 86.3578 32.5143 86.4477 32.5143C86.5375 32.5143 86.6273 32.5143 86.7172 32.5143C86.8071 32.5143 86.8969 32.5143 86.9868 32.5143C87.0766 32.5143 87.1665 32.5143 87.2563 32.5143C87.3462 32.5143 87.436 32.5143 87.5259 32.5143C87.6157 32.5143 87.7056 32.5143 87.7955 32.5143C87.8853 32.5143 87.9752 32.5143 88.065 32.5143C88.1549 32.5143 88.2447 32.5143 88.3346 32.5143C88.4245 32.5143 88.5143 32.5143 88.6042 32.5143C88.694 32.5143 88.7839 32.5143 88.8737 32.5143C88.9636 32.5143 89.0534 32.5143 89.1433 32.5143C89.2331 32.5143 89.3229 32.5143 89.4128 32.5143C89.5026 32.5143 89.5924 32.5143 89.6823 32.5143C89.7721 32.5143 89.8619 32.5143 89.9518 32.5143C90.0416 32.5143 90.1314 32.5143 90.2212 32.5143C90.311 32.5143 90.4008 32.5143 90.4906 32.5143C90.5804 32.5143 90.6702 32.5143 90.76 32.5143C90.8498 32.5143 90.9396 32.5143 91.0294 32.5143C91.1191 32.5143 91.2089 32.5143 91.2987 32.5143C91.3884 32.5143 91.4782 32.5143 91.5679 32.5143C91.6577 32.5143 91.7474 32.5143 91.8372 32.5143C91.9269 32.5143 92.0166 32.5143 92.1063 32.5143C92.196 32.5143 92.2857 32.5143 92.3754 32.5143C92.4651 32.5143 92.5548 32.5143 92.6445 32.5143C92.7342 32.5143 92.8238 32.5143 92.9135 32.5143C93.0031 32.5143 93.0928 32.5143 93.1824 32.5143C93.2721 32.5143 93.3617 32.5143 93.4513 32.5143C93.5409 32.5143 93.6305 32.5143 93.7201 32.5143C93.8097 32.5143 93.8992 32.5143 93.9888 32.5143C94.0784 32.5143 94.1679 32.5143 94.2574 32.5143C94.347 32.5143 94.4365 32.5143 94.526 32.5143C94.6155 32.5143 94.705 32.5143 94.7945 32.5143C94.8839 32.5143 94.9734 32.5143 95.0629 32.5143C95.1523 32.5143 95.2417 32.5143 95.3312 32.5143C95.4206 32.5143 95.51 32.5143 95.5994 32.5143C95.6887 32.5143 95.7781 32.5143 95.8675 32.5143C95.9568 32.5143 96.0462 32.5143 96.1355 32.5143C96.2248 32.5143 96.3141 32.5143 96.4034 32.5143C96.4927 32.5143 96.5819 32.5143 96.6712 32.5143C96.7604 32.5143 96.8496 32.5143 96.9388 32.5143C97.028 32.5143 97.1172 32.5143 97.2064 32.5143C97.2956 32.5143 97.3847 32.5143 97.4738 32.5143C97.563 32.5143 97.6521 32.5143 97.7412 32.5143C97.8303 32.5143 97.9193 32.5143 98.0084 32.5143C98.0974 32.5143 98.1864 32.5143 98.2755 32.5143C98.3644 32.5143 98.4534 32.5143 98.5424 32.5143C98.6313 32.5143 98.7203 32.5143 98.8092 32.5143C98.8981 32.5143 98.987 32.5143 99.0759 32.5143C99.1647 32.5143 99.2536 32.5143 99.3424 32.5143C99.4312 32.5143 99.52 32.5143 99.6088 32.5143C99.6975 32.5143 99.7863 32.5143 99.875 32.5143C99.9637 32.5143 100.052 32.5143 100.141 32.5143C100.23 32.5143 100.318 32.5143 100.407 32.5143C100.496 32.5143 100.584 32.5143 100.673 32.5143C100.761 32.5143 100.85 32.5143 100.938 32.5143C101.027 32.5143 101.115 32.5143 101.204 32.5143C101.292 32.5143 101.381 32.5143 101.469 32.5143C101.557 32.5143 101.646 32.5143 101.734 32.5143C101.823 32.5143 101.911 32.5143 101.999 32.5143C102.087 32.5143 102.176 32.5143 102.264 32.5143C102.352 32.5143 102.44 32.5143 102.528 32.5143C102.617 32.5143 102.705 32.5143 102.793 32.5143C102.881 32.5143 102.969 32.5143 103.057 32.5143C103.145 32.5143 103.233 32.5143 103.321 32.5143C103.409 32.5143 103.497 32.5143 103.585 32.5143C103.673 32.5143 103.761 32.5143 103.848 32.5143C103.936 32.5143 104.024 32.5143 104.112 32.5143C104.2 32.5143 104.287 32.5143 104.375 32.5143C104.463 32.5143 104.55 32.5143 104.638 32.5143C104.726 32.5143 104.813 32.5143 104.901 32.5143C104.988 32.5143 105.076 32.5143 105.163 32.5143C105.251 32.5143 105.338 32.5143 105.426 32.5143C105.513 32.5143 105.6 32.5143 105.688 32.5143C105.775 32.5143 105.862 32.5143 105.95 32.5143C106.037 32.5143 106.124 32.5143 106.211 32.5143C106.298 32.5143 106.386 32.5143 106.473 32.5143C106.56 32.5143 106.647 32.5143 106.734 32.5143C106.821 32.5143 106.908 32.5143 106.995 32.5143C107.082 32.5143 107.169 32.5143 107.256 32.5143C107.342 32.5143 107.429 32.5143 107.516 32.5143C107.603 32.5143 107.69 32.5143 107.776 32.5143C107.863 32.5143 107.95 32.5143 108.036 32.5143C108.123 32.5143 108.209 32.5143 108.296 32.5143C108.382 32.5143 108.469 32.5143 108.555 32.5143C108.642 32.5143 108.728 32.5143 108.814 32.5143C108.901 32.5143 108.987 32.5143 109.073 32.5143C109.16 32.5143 109.246 32.5143 109.332 32.5143C109.418 32.5143 109.504 32.5143 109.59 32.5143C109.676 32.5143 109.763 32.5143 109.849 32.5143C109.935 32.5143 110.02 32.5143 110.106 32.5143C110.192 32.5143 110.278 32.5143 110.364 32.5143C110.45 32.5143 110.535 32.5143 110.621 32.5143C110.707 32.5143 110.792 32.5143 110.878 32.5143C110.964 32.5143 111.049 32.5143 111.135 32.5143C111.22 32.5143 111.306 32.5143 111.391 32.5143C111.476 32.5143 111.562 32.5143 111.647 32.5143C111.732 32.5143 111.818 32.5143 111.903 32.5143C111.988 32.5143 112.073 32.5143 112.158 32.5143C112.243 32.5143 112.328 32.5143 112.413 32.5143C112.498 32.5143 112.583 32.5143 112.668 32.5143C112.753 32.5143 112.838 32.5143 112.923 32.5143C113.008 32.5143 113.092 32.5143 113.177 32.5143C113.262 32.5143 113.346 32.5143 113.431 32.5143C113.515 32.5143 113.6 32.5143 113.684 32.5143C113.769 32.5143 113.853 32.5143 113.938 32.5143C114.022 32.5143 114.106 32.5143 114.19 32.5143C114.275 32.5143 114.359 32.5143 114.443 32.5143C114.527 32.5143 114.611 32.5143 114.695 32.5143C114.779 32.5143 114.863 32.5143 114.947 32.5143C115.031 32.5143 115.115 32.5143 115.199 32.5143C115.282 32.5143 115.366 32.5143 115.45 32.5143C115.533 32.5143 115.617 32.5143 115.701 32.5143C115.784 32.5143 115.868 32.5143 115.951 32.5143C116.034 32.5143 116.118 32.5143 116.201 32.5143C116.284 32.5143 116.368 32.5143 116.451 32.5143C116.534 32.5143 116.617 32.5143 116.7 32.5143C116.783 32.5143 116.866 32.5143 116.949 32.5143C117.032 32.5143 117.115 32.5143 117.198 32.5143C117.281 32.5143 117.363 32.5143 117.446 32.5143C117.529 32.5143 117.611 32.5143 117.694 32.5143C117.776 32.5143 117.859 32.5143 117.941 32.5143C118.024 32.5143 118.106 32.5143 118.188 32.5143C118.271 32.5143 118.353 32.5143 118.435 32.5143C118.517 32.5143 118.599 32.5143 118.681 32.5143C118.763 32.5143 118.845 32.5143 118.927 32.5143C119.009 32.5143 119.091 32.5143 119.173 32.5143C119.254 32.5143 119.336 32.5143 119.418 32.5143C119.499 32.5143 119.581 32.5143 119.662 32.5143C119.744 32.5143 119.825 32.5143 119.907 32.5143C119.988 32.5143 120.069 32.5143 120.151 32.5143C120.232 32.5143 120.313 32.5143 120.394 32.5143C120.475 32.5143 120.556 32.5143 120.637 32.5143C120.718 32.5143 120.799 32.5143 120.88 32.5143C120.96 32.5143 121.041 32.5143 121.122 32.5143C121.202 32.5143 121.283 32.5143 121.363 32.5143C121.444 32.5143 121.524 32.5143 121.605 32.5143C121.685 32.5143 121.765 32.5143 121.846 32.5143C121.926 32.5143 122.006 32.5143 122.086 32.5143C122.166 32.5143 122.246 32.5143 122.326 32.5143C122.406 32.5143 122.486 32.5143 122.565 32.5143C122.645 32.5143 122.725 32.5143 122.805 32.5143C122.884 32.5143 122.964 32.5143 123.043 32.5143C123.123 32.5143 123.202 32.5143 123.281 32.5143C123.361 32.5143 123.44 32.5143 123.519 32.5143C123.598 32.5143 123.677 32.5143 123.756 32.5143C123.835 32.5143 123.914 32.5143 123.993 32.5143C124.072 32.5143 124.151 32.5143 124.229 32.5143C124.308 32.5143 124.387 32.5143 124.465 32.5143C124.544 32.5143 124.622 32.5143 124.7 32.5143C124.779 32.5143 124.857 32.5143 124.935 32.5143C125.013 32.5143 125.092 32.5143 125.17 32.5143C125.248 32.5143 125.326 32.5143 125.403 32.5143C125.481 32.5143 125.559 32.5143 125.637 32.5143C125.715 32.5143 125.792 32.5143 125.87 32.5143C125.947 32.5143 126.025 32.5143 126.102 32.5143C126.179 32.5143 126.257 32.5143 126.334 32.5143C126.411 32.5143 126.488 32.5143 126.565 32.5143C126.642 32.5143 126.719 32.5143 126.796 32.5143C126.873 32.5143 126.95 32.5143 127.027 32.5143C127.103 32.5143 127.18 32.5143 127.256 32.5143C127.333 32.5143 127.409 32.5143 127.486 32.5143C127.562 32.5143 127.638 32.5143 127.714 32.5143C127.791 32.5143 127.867 32.5143 127.943 32.5143C128.019 32.5143 128.095 32.5143 128.17 32.5143C128.246 32.5143 128.322 32.5143 128.398 32.5143C128.473 32.5143 128.549 32.5143 128.624 32.5143C128.7 32.5143 128.775 32.5143 128.85 32.5143C128.926 32.5143 129.001 32.5143 129.076 32.5143C129.151 32.5143 129.226 32.5143 129.301 32.5143C129.376 32.5143 129.451 32.5143 129.526 32.5143C129.6 32.5143 129.675 32.5143 129.75 32.5143C129.824 32.5143 129.899 32.5143 129.973 32.5143C130.047 32.5143 130.122 32.5143 130.196 32.5143C130.27 32.5143 130.344 32.5143 130.418 32.5143C130.492 32.5143 130.566 32.5143 130.64 32.5143C130.713 32.5143 130.787 32.5143 130.861 32.5143C130.934 32.5143 131.008 32.5143 131.081 32.5143C131.155 32.5143 131.228 32.5143 131.301 32.5143C131.375 32.5143 131.448 32.5143 131.521 32.5143C131.594 32.5143 131.667 32.5143 131.739 32.5143C131.812 32.5143 131.885 32.5143 131.958 32.5143C132.03 32.5143 132.103 32.5143 132.175 32.5143C132.248 32.5143 132.32 32.5143 132.392 32.5143C132.465 32.5143 132.537 32.5143 132.609 32.5143C132.681 32.5143 132.753 32.5143 132.825 32.5143C132.896 32.5143 132.968 32.5143 133.04 32.5143C133.111 32.5143 133.183 32.5143 133.254 32.5143C133.326 32.5143 133.397 32.5143 133.468 32.5143C133.54 32.5143 133.611 32.5143 133.682 32.5143C133.753 32.5143 133.824 32.5143 133.895 32.5143C133.966 32.5143 134.036 32.5143 134.107 32.5143C134.177 32.5143 134.248 32.5143 134.318 32.5143C134.389 32.5143 134.459 32.5143 134.529 32.5143C134.599 32.5143 134.67 32.5143 134.74 32.5143C134.81 32.5143 134.879 32.5143 134.949 32.5143C135.019 32.5143 135.089 32.5143 135.158 32.5143C135.228 32.5143 135.297 32.5143 135.367 32.5143C135.436 32.5143 135.505 32.5143 135.574 32.5143C135.643 32.5143 135.712 32.5143 135.781 32.5143C135.85 32.5143 135.919 32.5143 135.988 32.5143C136.057 32.5143 136.125 32.5143 136.194 32.5143C136.262 32.5143 136.33 32.5143 136.399 32.5143C136.467 32.5143 136.535 32.5143 136.603 32.5143C136.671 32.5143 136.739 32.5143 136.807 32.5143C136.875 32.5143 136.942 32.5143 137.01 32.5143C137.078 32.5143 137.145 32.5143 137.213 32.5143C137.28 32.5143 137.347 32.5143 137.414 32.5143C137.481 32.5143 137.548 32.5143 137.615 32.5143C137.682 32.5143 137.749 32.5143 137.816 32.5143C137.883 32.5143 137.949 32.5143 138.016 32.5143C138.082 32.5143 138.148 32.5143 138.215 32.5143C138.281 32.5143 138.347 32.5143 138.413 32.5143C138.479 32.5143 138.545 32.5143 138.611 32.5143C138.676 32.5143 138.742 32.5143 138.808 32.5143C138.873 32.5143 138.939 32.5143 139.004 32.5143C139.069 32.5143 139.134 32.5143 139.199 32.5143C139.264 32.5143 139.329 32.5143 139.394 32.5143C139.459 32.5143 139.524 32.5143 139.588 32.5143C139.653 32.5143 139.717 32.5143 139.782 32.5143C139.846 32.5143 139.91 32.5143 139.974 32.5143C140.039 32.5143 140.103 32.5143 140.166 32.5143C140.23 32.5143 140.294 32.5143 140.358 32.5143C140.421 32.5143 140.485 32.5143 140.548 32.5143C140.612 32.5143 140.675 32.5143 140.738 32.5143C140.801 32.5143 140.864 32.5143 140.927 32.5143C140.99 32.5143 141.053 32.5143 141.115 32.5143C141.178 32.5143 141.241 32.5143 141.303 32.5143C141.365 32.5143 141.428 32.5143 141.49 32.5143C141.552 32.5143 141.614 32.5143 141.676 32.5143C141.738 32.5143 141.8 32.5143 141.861 32.5143C141.923 32.5143 141.984 32.5143 142.046 32.5143C142.107 32.5143 142.168 32.5143 142.23 32.5143C142.291 32.5143 142.352 32.5143 142.413 32.5143C142.474 32.5143 142.534 32.5143 142.595 32.5143C142.656 32.5143 142.716 32.5143 142.776 32.5143C142.837 32.5143 142.897 32.5143 142.957 32.5143C143.017 32.5143 143.077 32.5143 143.137 32.5143C143.197 32.5143 143.257 32.5143 143.316 32.5143C143.376 32.5143 143.435 32.5143 143.495 32.5143C143.554 32.5143 143.613 32.5143 143.672 32.5143C143.731 32.5143 143.79 32.5143 143.849 32.5143C143.908 32.5143 143.967 32.5143 144.025 32.5143C144.084 32.5143 144.142 32.5143 144.201 32.5143C144.259 32.5143 144.317 32.5143 144.375 32.5143C144.433 32.5143 144.491 32.5143 144.549 32.5143C144.606 32.5143 144.664 32.5143 144.721 32.5143C144.779 32.5143 144.836 32.5143 144.893 32.5143C144.951 32.5143 145.008 32.5143 145.065 32.5143C145.122 32.5143 145.178 32.5143 145.235 32.5143C145.292 32.5143 145.348 32.5143 145.405 32.5143C145.461 32.5143 145.517 32.5143 145.573 32.5143C145.63 32.5143 145.685 32.5143 145.741 32.5143C145.797 32.5143 145.853 32.5143 145.908 32.5143C145.964 32.5143 146.019 32.5143 146.075 32.5143C146.13 32.5143 146.185 32.5143 146.24 32.5143C146.295 32.5143 146.35 32.5143 146.405 32.5143C146.459 32.5143 146.514 32.5143 146.568 32.5143C146.623 32.5143 146.677 32.5143 146.731 32.5143C146.786 32.5143 146.84 32.5143 146.893 32.5143C146.947 32.5143 147.001 32.5143 147.055 32.5143C147.108 32.5143 147.162 32.5143 147.215 32.5143C147.268 32.5143 147.321 32.5143 147.374 32.5143C147.427 32.5143 147.48 32.5143 147.533 32.5143C147.586 32.5143 147.638 32.5143 147.691 32.5143C147.743 32.5143 147.796 32.5143 147.848 32.5143C147.9 32.5143 147.952 32.5143 148.004 32.5143C148.056 32.5143 148.107 32.5143 148.159 32.5143C148.21 32.5143 148.262 32.5143 148.313 32.5143C148.364 32.5143 148.415 32.5143 148.466 32.5143C148.517 32.5143 148.568 32.5143 148.619 32.5143C148.67 32.5143 148.72 32.5143 148.77 32.5143C148.821 32.5143 148.871 32.5143 148.921 32.5143C148.971 32.5143 149.021 32.5143 149.071 32.5143C149.121 32.5143 149.17 32.5143 149.22 32.5143C149.269 32.5143 149.319 32.5143 149.368 32.5143C149.417 32.5143 149.466 32.5143 149.515 32.5143C149.564 32.5143 149.613 32.5143 149.661 32.5143V36.5143ZM30.6953 36.5143C26.5556 36.5143 20.1125 38.138 14.6075 43.0974C9.15808 48.0067 4.4615 56.3366 3.99887 70.0673L0.00114441 69.9326C0.49501 55.2748 5.56282 45.8618 11.9302 40.1255C18.2421 34.4392 25.6685 32.5143 30.6953 32.5143V36.5143Z" fill="#333"/>
</svg>
